  0
SECTION
  2
HEADER
  9
$ACADVER
  1
AC1006
  9
$EXTMIN
 10
0.000000
 20
0.000000
 30
0.000000
  9
$EXTMAX
 10
70.000000
 20
104.000000
 30
0.000000
  0
ENDSEC
  0
SECTION
  2
ENTITIES
  0
POLYLINE
  8
0
 66
1
 70
1
  0
VERTEX
  8
0
 10
26.636328
 20
91.073494
 42
-0.094537
  0
VERTEX
  8
0
 10
26.934488
 20
89.843987
 42
-0.001525
  0
VERTEX
  8
0
 10
27.266201
 20
82.691901
 42
-0.003933
  0
VERTEX
  8
0
 10
27.561912
 20
74.349022
 42
-0.002592
  0
VERTEX
  8
0
 10
27.776759
 20
64.750000
 42
0.003383
  0
VERTEX
  8
0
 10
28.004744
 20
55.236466
 42
0.005684
  0
VERTEX
  8
0
 10
28.341018
 20
47.252356
 42
0.001303
  0
VERTEX
  8
0
 10
28.728328
 20
40.351588
 42
0.397131
  0
VERTEX
  8
0
 10
29.101174
 20
40.000000
 42
0.414269
  0
VERTEX
  8
0
 10
30.050910
 20
40.949916
 42
0.000879
  0
VERTEX
  8
0
 10
30.006703
 20
63.641352
 42
0.001816
  0
VERTEX
  8
0
 10
29.845985
 20
85.538799
 42
0.120687
  0
VERTEX
  8
0
 10
28.918980
 20
89.151388
 42
-0.033870
  0
VERTEX
  8
0
 10
28.110492
 20
90.944057
 42
-0.372388
  0
VERTEX
  8
0
 10
28.365302
 20
91.627251
 42
-0.370270
  0
VERTEX
  8
0
 10
29.081245
 20
91.475862
 42
-0.033814
  0
VERTEX
  8
0
 10
30.168980
 20
89.835646
 42
-0.103067
  0
VERTEX
  8
0
 10
30.839537
 20
87.760628
 42
-0.011031
  0
VERTEX
  8
0
 10
31.271946
 20
82.691381
 42
-0.009633
  0
VERTEX
  8
0
 10
31.598379
 20
75.237803
 42
-0.002805
  0
VERTEX
  8
0
 10
31.815422
 20
63.750000
 42
0.003344
  0
VERTEX
  8
0
 10
32.004853
 20
54.264109
 42
0.006482
  0
VERTEX
  8
0
 10
32.305185
 20
46.687509
 42
0.001841
  0
VERTEX
  8
0
 10
32.660370
 20
40.381470
 42
0.396762
  0
VERTEX
  8
0
 10
33.065422
 20
40.000000
 42
0.400490
  0
VERTEX
  8
0
 10
33.471263
 20
40.387170
 42
0.001949
  0
VERTEX
  8
0
 10
33.740174
 20
46.610488
 42
0.006578
  0
VERTEX
  8
0
 10
33.937672
 20
54.167568
 42
0.003243
  0
VERTEX
  8
0
 10
34.000000
 20
63.777494
 42
0.002095
  0
VERTEX
  8
0
 10
33.944345
 20
77.060193
 42
0.013549
  0
VERTEX
  8
0
 10
33.706711
 20
83.755766
 42
0.025669
  0
VERTEX
  8
0
 10
33.247784
 20
87.767521
 42
0.105830
  0
VERTEX
  8
0
 10
32.355318
 20
90.027494
 42
0.000000
  0
VERTEX
  8
0
 10
30.710636
 20
92.500000
 42
0.000000
  0
VERTEX
  8
0
 10
33.105318
 20
90.224101
 42
-0.110166
  0
VERTEX
  8
0
 10
34.524706
 20
88.110512
 42
-0.067506
  0
VERTEX
  8
0
 10
35.232858
 20
85.180272
 42
-0.021081
  0
VERTEX
  8
0
 10
35.559515
 20
79.756941
 42
-0.001367
  0
VERTEX
  8
0
 10
35.800515
 20
63.974101
 42
0.003240
  0
VERTEX
  8
0
 10
35.985380
 20
54.253160
 42
0.006649
  0
VERTEX
  8
0
 10
36.280814
 20
46.641524
 42
0.002006
  0
VERTEX
  8
0
 10
36.631681
 20
40.394383
 42
0.396713
  0
VERTEX
  8
0
 10
37.050515
 20
40.000000
 42
0.400149
  0
VERTEX
  8
0
 10
37.469763
 20
40.399489
 42
0.002133
  0
VERTEX
  8
0
 10
37.740064
 20
46.540048
 42
0.006767
  0
VERTEX
  8
0
 10
37.938042
 20
54.097668
 42
0.003164
  0
VERTEX
  8
0
 10
38.000000
 20
63.889216
 42
0.001783
  0
VERTEX
  8
0
 10
37.949368
 20
78.088208
 42
0.015810
  0
VERTEX
  8
0
 10
37.706864
 20
84.343441
 42
0.036636
  0
VERTEX
  8
0
 10
37.192034
 20
87.903819
 42
0.116476
  0
VERTEX
  8
0
 10
36.155707
 20
90.056038
 42
0.133617
  0
VERTEX
  8
0
 10
33.778879
 20
91.768995
 42
0.063169
  0
VERTEX
  8
0
 10
30.072309
 20
92.647223
 42
0.098864
  0
VERTEX
  8
0
 10
27.237290
 20
92.389637
 42
0.455455
  0
SEQEND
  0
POLYLINE
  8
0
 66
1
 70
1
  0
VERTEX
  8
0
 10
12.005577
 20
62.750000
 42
0.008494
  0
VERTEX
  8
0
 10
12.283324
 20
46.690086
 42
0.069428
  0
VERTEX
  8
0
 10
13.542395
 20
39.481312
 42
0.178403
  0
VERTEX
  8
0
 10
16.300118
 20
35.961853
 42
0.129653
  0
VERTEX
  8
0
 10
21.102585
 20
34.501504
 42
0.012186
  0
VERTEX
  8
0
 10
23.242452
 20
34.473771
 42
0.101663
  0
VERTEX
  8
0
 10
24.184139
 20
34.678467
 42
0.292122
  0
VERTEX
  8
0
 10
24.493343
 20
35.144599
 42
0.116847
  0
VERTEX
  8
0
 10
24.322291
 20
35.926506
 42
-0.098394
  0
VERTEX
  8
0
 10
24.009078
 20
37.143738
 42
-0.002044
  0
VERTEX
  8
0
 10
23.684529
 20
43.426849
 42
-0.004692
  0
VERTEX
  8
0
 10
23.403159
 20
50.801153
 42
-0.003132
  0
VERTEX
  8
0
 10
23.213114
 20
59.250000
 42
0.003726
  0
VERTEX
  8
0
 10
23.009480
 20
67.848638
 42
0.006948
  0
VERTEX
  8
0
 10
22.695881
 20
74.808855
 42
0.002064
  0
VERTEX
  8
0
 10
22.328536
 20
80.627450
 42
0.394672
  0
VERTEX
  8
0
 10
21.930080
 20
81.000000
 42
0.413722
  0
VERTEX
  8
0
 10
20.991637
 20
80.063130
 42
0.001150
  0
VERTEX
  8
0
 10
21.003824
 20
60.480231
 42
0.003043
  0
VERTEX
  8
0
 10
21.170285
 20
41.998832
 42
0.086292
  0
VERTEX
  8
0
 10
22.057711
 20
37.315100
 42
-0.002722
  0
VERTEX
  8
0
 10
22.756875
 20
35.423054
 42
-0.249278
  0
VERTEX
  8
0
 10
22.716905
 20
35.139575
 42
-0.453352
  0
VERTEX
  8
0
 10
22.508183
 20
35.120561
 42
-0.004563
  0
VERTEX
  8
0
 10
21.307711
 20
36.283586
 42
-0.138920
  0
VERTEX
  8
0
 10
20.292048
 20
38.073869
 42
-0.037354
  0
VERTEX
  8
0
 10
19.749015
 20
41.329067
 42
-0.017003
  0
VERTEX
  8
0
 10
19.424849
 20
47.048006
 42
-0.002102
  0
VERTEX
  8
0
 10
19.194889
 20
59.533586
 42
0.003691
  0
VERTEX
  8
0
 10
19.008728
 20
68.152762
 42
0.007297
  0
VERTEX
  8
0
 10
18.710647
 20
74.989659
 42
0.002356
  0
VERTEX
  8
0
 10
18.356452
 20
80.615355
 42
0.394553
  0
VERTEX
  8
0
 10
17.944889
 20
81.000000
 42
0.397882
  0
VERTEX
  8
0
 10
17.533616
 20
80.611168
 42
0.002659
  0
VERTEX
  8
0
 10
17.261369
 20
75.252661
 42
0.007653
  0
VERTEX
  8
0
 10
17.062575
 20
68.658891
 42
0.003709
  0
VERTEX
  8
0
 10
17.000000
 20
60.222506
 42
0.002624
  0
VERTEX
  8
0
 10
17.058755
 20
49.027532
 42
0.014272
  0
VERTEX
  8
0
 10
17.295472
 20
42.966868
 42
0.024585
  0
VERTEX
  8
0
 10
17.733132
 20
39.234893
 42
0.111740
  0
VERTEX
  8
0
 10
18.556704
 20
37.222506
 42
-0.029710
  0
VERTEX
  8
0
 10
19.081873
 20
36.369020
 42
-0.065079
  0
VERTEX
  8
0
 10
19.353263
 20
35.652861
 42
-0.132494
  0
VERTEX
  8
0
 10
19.338824
 20
35.190163
 42
-0.330320
  0
VERTEX
  8
0
 10
19.082384
 20
35.000000
 42
-0.180568
  0
VERTEX
  8
0
 10
18.587675
 20
35.184679
 42
-0.035560
  0
VERTEX
  8
0
 10
17.906055
 20
35.866662
 42
-0.033557
  0
VERTEX
  8
0
 10
17.185370
 20
36.820697
 42
-0.025659
  0
VERTEX
  8
0
 10
16.525680
 20
37.950340
 42
-0.081137
  0
VERTEX
  8
0
 10
15.745287
 20
40.342601
 42
-0.021797
  0
VERTEX
  8
0
 10
15.305812
 20
44.328117
 42
-0.013501
  0
VERTEX
  8
0
 10
15.064011
 20
50.487621
 42
-0.003059
  0
VERTEX
  8
0
 10
15.000000
 20
60.950340
 42
0.002178
  0
VERTEX
  8
0
 10
14.951282
 20
72.135172
 42
0.016492
  0
VERTEX
  8
0
 10
14.731296
 20
77.408390
 42
0.030979
  0
VERTEX
  8
0
 10
14.331113
 20
80.319453
 42
0.357185
  0
VERTEX
  8
0
 10
13.500000
 20
81.000000
 42
0.349869
  0
VERTEX
  8
0
 10
12.678247
 20
80.344783
 42
0.035730
  0
VERTEX
  8
0
 10
12.271477
 20
77.709263
 42
0.018073
  0
VERTEX
  8
0
 10
12.051794
 20
72.890981
 42
0.002432
  0
SEQEND
  0
POLYLINE
  8
0
 66
1
 70
1
  0
VERTEX
  8
0
 10
42.782739
 20
59.250000
 42
-0.003118
  0
VERTEX
  8
0
 10
42.579886
 20
50.797695
 42
-0.004655
  0
VERTEX
  8
0
 10
42.287712
 20
43.412373
 42
-0.002069
  0
VERTEX
  8
0
 10
41.954254
 20
37.125248
 42
-0.095044
  0
VERTEX
  8
0
 10
41.640040
 20
35.877226
 42
0.102050
  0
VERTEX
  8
0
 10
41.446205
 20
35.059578
 42
0.297155
  0
VERTEX
  8
0
 10
41.734801
 20
34.587085
 42
0.109782
  0
VERTEX
  8
0
 10
42.627127
 20
34.381821
 42
0.012608
  0
VERTEX
  8
0
 10
44.699972
 20
34.418731
 42
0.116165
  0
VERTEX
  8
0
 10
49.691280
 20
35.823319
 42
0.187042
  0
VERTEX
  8
0
 10
52.486239
 20
39.172904
 42
0.073228
  0
VERTEX
  8
0
 10
53.736203
 20
46.066578
 42
0.008294
  0
VERTEX
  8
0
 10
54.000000
 20
61.967881
 42
0.002315
  0
VERTEX
  8
0
 10
53.950944
 20
72.561521
 42
0.017349
  0
VERTEX
  8
0
 10
53.730296
 20
77.577980
 42
0.033531
  0
VERTEX
  8
0
 10
53.326002
 20
80.333362
 42
0.353194
  0
VERTEX
  8
0
 10
52.500000
 20
81.000000
 42
0.357185
  0
VERTEX
  8
0
 10
51.668887
 20
80.319453
 42
0.030979
  0
VERTEX
  8
0
 10
51.268704
 20
77.408390
 42
0.016492
  0
VERTEX
  8
0
 10
51.048718
 20
72.135172
 42
0.002178
  0
VERTEX
  8
0
 10
51.000000
 20
60.950340
 42
-0.003059
  0
VERTEX
  8
0
 10
50.935989
 20
50.487621
 42
-0.013501
  0
VERTEX
  8
0
 10
50.694188
 20
44.328117
 42
-0.021797
  0
VERTEX
  8
0
 10
50.254713
 20
40.342601
 42
-0.081137
  0
VERTEX
  8
0
 10
49.474320
 20
37.950340
 42
-0.025659
  0
VERTEX
  8
0
 10
48.814630
 20
36.820697
 42
-0.033557
  0
VERTEX
  8
0
 10
48.093945
 20
35.866662
 42
-0.035560
  0
VERTEX
  8
0
 10
47.412325
 20
35.184679
 42
-0.180568
  0
VERTEX
  8
0
 10
46.917616
 20
35.000000
 42
-0.330320
  0
VERTEX
  8
0
 10
46.661176
 20
35.190163
 42
-0.132494
  0
VERTEX
  8
0
 10
46.646737
 20
35.652861
 42
-0.065079
  0
VERTEX
  8
0
 10
46.918127
 20
36.369020
 42
-0.029710
  0
VERTEX
  8
0
 10
47.443296
 20
37.222506
 42
0.111740
  0
VERTEX
  8
0
 10
48.266868
 20
39.234893
 42
0.024585
  0
VERTEX
  8
0
 10
48.704528
 20
42.966868
 42
0.014272
  0
VERTEX
  8
0
 10
48.941245
 20
49.027532
 42
0.002624
  0
VERTEX
  8
0
 10
49.000000
 20
60.222506
 42
0.003787
  0
VERTEX
  8
0
 10
48.937063
 20
68.532212
 42
0.007382
  0
VERTEX
  8
0
 10
48.738824
 20
75.157795
 42
0.002389
  0
VERTEX
  8
0
 10
48.468290
 20
80.623825
 42
0.398417
  0
VERTEX
  8
0
 10
48.071140
 20
81.000000
 42
0.394841
  0
VERTEX
  8
0
 10
47.674053
 20
80.628513
 42
0.002107
  0
VERTEX
  8
0
 10
47.315371
 20
74.885975
 42
0.007026
  0
VERTEX
  8
0
 10
47.012094
 20
68.015390
 42
0.003775
  0
VERTEX
  8
0
 10
46.821140
 20
59.533717
 42
-0.002107
  0
VERTEX
  8
0
 10
46.581902
 20
47.057507
 42
-0.016982
  0
VERTEX
  8
0
 10
46.253299
 20
41.333813
 42
-0.037215
  0
VERTEX
  8
0
 10
45.708162
 20
38.074174
 42
-0.138877
  0
VERTEX
  8
0
 10
44.692289
 20
36.283717
 42
-0.004561
  0
VERTEX
  8
0
 10
43.491788
 20
35.120573
 42
-0.453346
  0
VERTEX
  8
0
 10
43.283083
 20
35.139574
 42
-0.249295
  0
VERTEX
  8
0
 10
43.243109
 20
35.423018
 42
-0.002721
  0
VERTEX
  8
0
 10
43.942289
 20
37.315100
 42
0.086269
  0
VERTEX
  8
0
 10
44.822811
 20
41.961210
 42
0.002982
  0
VERTEX
  8
0
 10
44.993453
 20
60.467418
 42
0.001124
  0
VERTEX
  8
0
 10
45.013209
 20
80.072473
 42
0.413850
  0
VERTEX
  8
0
 10
44.084531
 20
81.000000
 42
0.394670
  0
VERTEX
  8
0
 10
43.699490
 20
80.639995
 42
0.001850
  0
VERTEX
  8
0
 10
43.322212
 20
74.704921
 42
0.006695
  0
VERTEX
  8
0
 10
42.997570
 20
67.712190
 42
0.003811
  0
SEQEND
  0
POLYLINE
  8
0
 66
1
 70
1
  0
VERTEX
  8
0
 10
13.813262
 20
19.302174
 42
0.012448
  0
VERTEX
  8
0
 10
12.764634
 20
15.358409
 42
0.089951
  0
VERTEX
  8
0
 10
12.655977
 20
13.405023
 42
0.557256
  0
VERTEX
  8
0
 10
13.264669
 20
13.125754
 42
0.088425
  0
VERTEX
  8
0
 10
14.442004
 20
14.251572
 42
-0.091345
  0
VERTEX
  8
0
 10
15.723002
 20
15.462389
 42
-0.131908
  0
VERTEX
  8
0
 10
17.198242
 20
15.939436
 42
-0.161915
  0
VERTEX
  8
0
 10
18.503090
 20
15.577482
 42
-0.154399
  0
VERTEX
  8
0
 10
19.361626
 20
14.500000
 42
0.155727
  0
VERTEX
  8
0
 10
20.101858
 20
13.575923
 42
0.096072
  0
VERTEX
  8
0
 10
21.398608
 20
13.035463
 42
0.132605
  0
VERTEX
  8
0
 10
22.535311
 20
13.104133
 42
0.322499
  0
VERTEX
  8
0
 10
22.999185
 20
13.750000
 42
0.075248
  0
VERTEX
  8
0
 10
22.923502
 20
14.246407
 42
0.004145
  0
VERTEX
  8
0
 10
22.442692
 20
15.748437
 42
0.006345
  0
VERTEX
  8
0
 10
21.830891
 20
17.530061
 42
0.004591
  0
VERTEX
  8
0
 10
21.105883
 20
19.500000
 42
0.035747
  0
VERTEX
  8
0
 10
19.093390
 20
23.850234
 42
0.280302
  0
VERTEX
  8
0
 10
17.240152
 20
24.909995
 42
0.285521
  0
VERTEX
  8
0
 10
15.475455
 20
23.745321
 42
0.036620
  0
SEQEND
  0
POLYLINE
  8
0
 66
1
 70
1
  0
VERTEX
  8
0
 10
18.000000
 20
18.500000
 42
-0.064853
  0
VERTEX
  8
0
 10
17.925306
 20
17.926543
 42
-0.082425
  0
VERTEX
  8
0
 10
17.706250
 20
17.440625
 42
-0.098894
  0
VERTEX
  8
0
 10
17.381354
 20
17.115568
 42
-0.148195
  0
VERTEX
  8
0
 10
17.000000
 20
17.000000
 42
-0.148195
  0
VERTEX
  8
0
 10
16.618646
 20
17.115568
 42
-0.098894
  0
VERTEX
  8
0
 10
16.293750
 20
17.440625
 42
-0.082425
  0
VERTEX
  8
0
 10
16.074694
 20
17.926543
 42
-0.064853
  0
VERTEX
  8
0
 10
16.000000
 20
18.500000
 42
-0.064853
  0
VERTEX
  8
0
 10
16.074694
 20
19.073457
 42
-0.082425
  0
VERTEX
  8
0
 10
16.293750
 20
19.559375
 42
-0.098894
  0
VERTEX
  8
0
 10
16.618646
 20
19.884432
 42
-0.148195
  0
VERTEX
  8
0
 10
17.000000
 20
20.000000
 42
-0.148195
  0
VERTEX
  8
0
 10
17.381354
 20
19.884432
 42
-0.098894
  0
VERTEX
  8
0
 10
17.706250
 20
19.559375
 42
-0.082425
  0
VERTEX
  8
0
 10
17.925306
 20
19.073457
 42
-0.064853
  0
SEQEND
  0
POLYLINE
  8
0
 66
1
 70
1
  0
VERTEX
  8
0
 10
29.000000
 20
23.000000
 42
0.082907
  0
VERTEX
  8
0
 10
27.780152
 20
21.291175
 42
0.073502
  0
VERTEX
  8
0
 10
27.117482
 20
19.206569
 42
0.077157
  0
VERTEX
  8
0
 10
27.102789
 20
17.118795
 42
0.110891
  0
VERTEX
  8
0
 10
27.765313
 20
15.399704
 42
0.099636
  0
VERTEX
  8
0
 10
29.164007
 20
14.006449
 42
0.056794
  0
VERTEX
  8
0
 10
31.297924
 20
12.918817
 42
0.056555
  0
VERTEX
  8
0
 10
33.637022
 20
12.334208
 42
0.094738
  0
VERTEX
  8
0
 10
35.653940
 20
12.449281
 42
0.051157
  0
VERTEX
  8
0
 10
36.936505
 20
12.914737
 42
0.152978
  0
VERTEX
  8
0
 10
37.608942
 20
13.546167
 42
0.124302
  0
VERTEX
  8
0
 10
37.878700
 20
14.536650
 42
0.028798
  0
VERTEX
  8
0
 10
37.810799
 20
16.276122
 42
0.080115
  0
VERTEX
  8
0
 10
37.127567
 20
18.881291
 42
0.241593
  0
VERTEX
  8
0
 10
35.742544
 20
20.002045
 42
0.353950
  0
VERTEX
  8
0
 10
34.481878
 20
19.355064
 42
0.104443
  0
VERTEX
  8
0
 10
34.000000
 20
17.073324
 42
-0.046567
  0
VERTEX
  8
0
 10
33.799175
 20
14.921714
 42
-0.278183
  0
VERTEX
  8
0
 10
33.080069
 20
14.116195
 42
-0.302332
  0
VERTEX
  8
0
 10
32.091269
 20
14.408920
 42
-0.051142
  0
VERTEX
  8
0
 10
30.932303
 20
16.126493
 42
-0.118186
  0
VERTEX
  8
0
 10
30.325911
 20
18.442147
 42
-0.124930
  0
VERTEX
  8
0
 10
30.855948
 20
20.729158
 42
-0.132954
  0
VERTEX
  8
0
 10
32.372467
 20
22.387798
 42
-0.142394
  0
VERTEX
  8
0
 10
34.478561
 20
23.000000
 42
0.037797
  0
VERTEX
  8
0
 10
35.444146
 20
23.073098
 42
0.056674
  0
VERTEX
  8
0
 10
36.259327
 20
23.293750
 42
0.074434
  0
VERTEX
  8
0
 10
36.815930
 20
23.617011
 42
0.227833
  0
VERTEX
  8
0
 10
37.000000
 20
24.000000
 42
0.372026
  0
VERTEX
  8
0
 10
36.207026
 20
24.918246
 42
0.067730
  0
VERTEX
  8
0
 10
33.770560
 20
24.944801
 42
0.057776
  0
VERTEX
  8
0
 10
30.961359
 20
24.258001
 42
0.107965
  0
SEQEND
  0
POLYLINE
  8
0
 66
1
 70
1
  0
VERTEX
  8
0
 10
43.000000
 20
19.000000
 42
0.008455
  0
VERTEX
  8
0
 10
43.058710
 20
15.528387
 42
0.072107
  0
VERTEX
  8
0
 10
43.333333
 20
14.000000
 42
0.188641
  0
VERTEX
  8
0
 10
43.939334
 20
13.272668
 42
0.126480
  0
VERTEX
  8
0
 10
45.000000
 20
13.000000
 42
0.075780
  0
VERTEX
  8
0
 10
45.935258
 20
13.142566
 42
0.149477
  0
VERTEX
  8
0
 10
46.550000
 20
13.562500
 42
0.124434
  0
VERTEX
  8
0
 10
46.893532
 20
14.317234
 42
0.044917
  0
VERTEX
  8
0
 10
47.000000
 20
15.500000
 42
-0.047160
  0
VERTEX
  8
0
 10
47.098630
 20
16.543379
 42
-0.088208
  0
VERTEX
  8
0
 10
47.400000
 20
17.333333
 42
-0.118484
  0
VERTEX
  8
0
 10
47.880020
 20
17.822179
 42
-0.140575
  0
VERTEX
  8
0
 10
48.500000
 20
18.000000
 42
-0.140575
  0
VERTEX
  8
0
 10
49.119980
 20
17.822179
 42
-0.118484
  0
VERTEX
  8
0
 10
49.600000
 20
17.333333
 42
-0.088208
  0
VERTEX
  8
0
 10
49.901370
 20
16.543379
 42
-0.047160
  0
VERTEX
  8
0
 10
50.000000
 20
15.500000
 42
0.044917
  0
VERTEX
  8
0
 10
50.106468
 20
14.317234
 42
0.124434
  0
VERTEX
  8
0
 10
50.450000
 20
13.562500
 42
0.149477
  0
VERTEX
  8
0
 10
51.064742
 20
13.142566
 42
0.075780
  0
VERTEX
  8
0
 10
52.000000
 20
13.000000
 42
0.126480
  0
VERTEX
  8
0
 10
53.060666
 20
13.272668
 42
0.188641
  0
VERTEX
  8
0
 10
53.666667
 20
14.000000
 42
0.072107
  0
VERTEX
  8
0
 10
53.941290
 20
15.528387
 42
0.008455
  0
VERTEX
  8
0
 10
54.000000
 20
19.000000
 42
0.008455
  0
VERTEX
  8
0
 10
53.941290
 20
22.471613
 42
0.072107
  0
VERTEX
  8
0
 10
53.666667
 20
24.000000
 42
0.188641
  0
VERTEX
  8
0
 10
53.060666
 20
24.727332
 42
0.126480
  0
VERTEX
  8
0
 10
52.000000
 20
25.000000
 42
0.075780
  0
VERTEX
  8
0
 10
51.064742
 20
24.857434
 42
0.149477
  0
VERTEX
  8
0
 10
50.450000
 20
24.437500
 42
0.124434
  0
VERTEX
  8
0
 10
50.106468
 20
23.682766
 42
0.044917
  0
VERTEX
  8
0
 10
50.000000
 20
22.500000
 42
-0.048285
  0
VERTEX
  8
0
 10
49.903064
 20
21.498541
 42
-0.078897
  0
VERTEX
  8
0
 10
49.610841
 20
20.699126
 42
-0.105016
  0
VERTEX
  8
0
 10
49.162402
 20
20.184924
 42
-0.162494
  0
VERTEX
  8
0
 10
48.608408
 20
20.000000
 42
-0.154660
  0
VERTEX
  8
0
 10
48.029615
 20
20.183419
 42
-0.069524
  0
VERTEX
  8
0
 10
47.441280
 20
20.734375
 42
-0.059134
  0
VERTEX
  8
0
 10
46.932511
 20
21.543644
 42
-0.049341
  0
VERTEX
  8
0
 10
46.589356
 20
22.500000
 42
0.052514
  0
VERTEX
  8
0
 10
46.239404
 20
23.456212
 42
0.061291
  0
VERTEX
  8
0
 10
45.711184
 20
24.265625
 42
0.071387
  0
VERTEX
  8
0
 10
45.093964
 20
24.815363
 42
0.147328
  0
VERTEX
  8
0
 10
44.480948
 20
25.000000
 42
0.226545
  0
VERTEX
  8
0
 10
43.770142
 20
24.660518
 42
0.109856
  0
VERTEX
  8
0
 10
43.311706
 20
23.737135
 42
0.049807
  0
VERTEX
  8
0
 10
43.064720
 20
22.015110
 42
0.010731
  0
SEQEND
  0
ENDSEC
  0
EOF
