M48
; DRILL file {KiCad 9.0.6} date 2025-11-14T23:18:16+0100
; FORMAT={-:-/ absolute / metric / decimal}
; #@! TF.CreationDate,2025-11-14T23:18:16+01:00
; #@! TF.GenerationSoftware,Kicad,Pcbnew,9.0.6
; #@! TF.FileFunction,MixedPlating,1,4
FMAT,2
METRIC
; #@! TA.AperFunction,Plated,PTH,ViaDrill
T1C0.300
; #@! TA.AperFunction,Plated,PTH,ViaDrill
T2C0.400
; #@! TA.AperFunction,Plated,PTH,ComponentDrill
T3C0.600
; #@! TA.AperFunction,Plated,PTH,ComponentDrill
T4C0.800
; #@! TA.AperFunction,Plated,PTH,ComponentDrill
T5C1.000
; #@! TA.AperFunction,Plated,PTH,ComponentDrill
T6C1.020
; #@! TA.AperFunction,Plated,PTH,ComponentDrill
T7C1.070
; #@! TA.AperFunction,NonPlated,NPTH,ComponentDrill
T8C3.000
%
G90
G05
T1
X90.3Y-139.6
X91.0Y-111.8
X91.0Y-113.2
X91.0Y-114.2
X91.2Y-115.4
X92.4Y-128.0
X93.2Y-128.0
X93.2Y-138.0
X93.816Y-111.8
X94.0Y-113.2
X94.2Y-110.0
X94.4Y-114.6
X94.6Y-72.8
X96.6Y-141.2
X97.2Y-71.0
X98.2Y-70.0
X98.8Y-141.2
X99.0Y-72.8
X99.2Y-69.2
X102.4Y-71.0
X102.6Y-69.2
X102.6Y-70.0
X146.0Y-108.2
X146.0Y-111.6
X147.0Y-112.4
X147.2Y-108.0
T2
X77.2Y-67.2
X100.0Y-56.0
X100.0Y-144.75
X105.0Y-80.0
X113.2Y-55.8
X120.0Y-80.0
X124.5Y-80.0
X125.8Y-56.0
X138.6Y-55.8
T3
X70.2Y-62.973
X70.2Y-64.973
X76.8Y-63.0
X76.8Y-65.0
T4
X97.68Y-147.5
X100.22Y-147.5
X102.76Y-147.5
X105.3Y-147.5
X107.84Y-147.5
X110.38Y-147.5
X110.41Y-66.7
X112.92Y-147.5
X112.95Y-66.7
X115.46Y-147.5
X115.49Y-66.7
X118.0Y-147.5
X118.03Y-66.7
X120.54Y-147.5
X123.08Y-147.5
X125.62Y-147.5
X128.16Y-147.5
X130.7Y-147.5
T5
X56.2Y-98.7
X56.2Y-101.24
X56.2Y-103.78
X56.2Y-106.32
X56.2Y-113.36
X56.2Y-115.9
X56.2Y-118.44
X56.2Y-123.58
X56.2Y-126.12
X56.2Y-128.66
X56.2Y-131.2
X56.2Y-135.79
X56.2Y-138.33
X56.2Y-140.87
X56.2Y-143.41
X56.25Y-73.69
X56.25Y-76.23
X56.25Y-78.77
X56.25Y-81.31
X56.25Y-148.25
X91.9Y-56.35
X91.9Y-60.85
X98.4Y-56.35
X98.4Y-60.85
X104.6Y-56.35
X104.6Y-60.85
X111.1Y-56.35
X111.1Y-60.85
X117.3Y-56.4
X117.3Y-60.9
X123.8Y-56.4
X123.8Y-60.9
X130.0Y-56.4
X130.0Y-60.9
X136.5Y-56.4
X136.5Y-60.9
T6
X70.88Y-74.89
X70.88Y-138.46
X73.38Y-74.89
X73.38Y-138.46
X98.78Y-74.88
X98.78Y-77.42
X98.78Y-135.84
X98.78Y-138.38
X101.32Y-74.88
X101.32Y-77.42
X101.32Y-135.84
X101.32Y-138.38
X103.86Y-74.88
X103.86Y-77.42
X103.86Y-135.84
X103.86Y-138.38
X106.4Y-74.88
X106.4Y-77.42
X106.4Y-135.84
X106.4Y-138.38
X108.94Y-74.88
X108.94Y-77.42
X108.94Y-135.84
X108.94Y-138.38
X111.48Y-74.88
X111.48Y-77.42
X111.48Y-135.84
X111.48Y-138.38
X114.02Y-74.88
X114.02Y-77.42
X114.02Y-135.84
X114.02Y-138.38
X116.56Y-74.88
X116.56Y-77.42
X116.56Y-135.84
X116.56Y-138.38
X119.1Y-74.88
X119.1Y-77.42
X119.1Y-135.84
X119.1Y-138.38
X121.64Y-74.88
X121.64Y-77.42
X121.64Y-135.84
X121.64Y-138.38
X124.18Y-74.88
X124.18Y-77.42
X124.18Y-135.84
X124.18Y-138.38
X126.72Y-74.88
X126.72Y-77.42
X126.72Y-135.84
X126.72Y-138.38
X129.26Y-74.88
X129.26Y-77.42
X129.26Y-135.84
X129.26Y-138.38
X131.8Y-74.88
X131.8Y-77.42
X131.8Y-135.84
X131.8Y-138.38
X134.34Y-74.88
X134.34Y-77.42
X134.34Y-135.84
X134.34Y-138.38
X136.88Y-74.88
X136.88Y-77.42
X136.88Y-135.84
X136.88Y-138.38
X139.42Y-74.88
X139.42Y-77.42
X139.42Y-135.84
X139.42Y-138.38
X141.96Y-74.88
X141.96Y-77.42
X141.96Y-135.84
X141.96Y-138.38
X144.5Y-74.88
X144.5Y-77.42
X144.5Y-135.84
X144.5Y-138.38
T7
X99.8Y-130.76
X102.34Y-130.76
X104.88Y-130.76
X107.42Y-130.76
X108.94Y-82.5
X109.96Y-130.76
X111.48Y-82.5
X112.5Y-130.76
X114.02Y-82.5
X115.04Y-130.76
X116.56Y-82.5
X117.58Y-130.76
X119.1Y-82.5
X120.12Y-130.76
X121.64Y-82.5
X122.66Y-130.76
X124.18Y-82.5
X126.72Y-82.5
X126.72Y-130.76
X129.26Y-130.76
X131.8Y-82.5
X131.8Y-130.76
X134.34Y-82.5
X134.34Y-130.76
X136.88Y-82.5
X136.88Y-130.76
X139.42Y-82.5
X139.42Y-130.76
X141.96Y-82.5
X141.96Y-130.76
X144.5Y-82.5
X144.5Y-130.76
T8
X94.97Y-82.5
X96.24Y-130.76
X147.04Y-115.52
T5
X55.3Y-63.0G85X55.3Y-65.0
G05
X61.0Y-61.0G85X59.0Y-61.0
G05
X61.0Y-67.0G85X59.0Y-67.0
G05
M30
