%TF.GenerationSoftware,KiCad,Pcbnew,9.0.6*%
%TF.CreationDate,2025-11-14T23:17:59+01:00*%
%TF.ProjectId,uC_screen_power,75435f73-6372-4656-956e-5f706f776572,1*%
%TF.SameCoordinates,Original*%
%TF.FileFunction,Copper,L1,Top*%
%TF.FilePolarity,Positive*%
%FSLAX46Y46*%
G04 Gerber Fmt 4.6, Leading zero omitted, Abs format (unit mm)*
G04 Created by KiCad (PCBNEW 9.0.6) date 2025-11-14 23:17:59*
%MOMM*%
%LPD*%
G01*
G04 APERTURE LIST*
G04 Aperture macros list*
%AMRoundRect*
0 Rectangle with rounded corners*
0 $1 Rounding radius*
0 $2 $3 $4 $5 $6 $7 $8 $9 X,Y pos of 4 corners*
0 Add a 4 corners polygon primitive as box body*
4,1,4,$2,$3,$4,$5,$6,$7,$8,$9,$2,$3,0*
0 Add four circle primitives for the rounded corners*
1,1,$1+$1,$2,$3*
1,1,$1+$1,$4,$5*
1,1,$1+$1,$6,$7*
1,1,$1+$1,$8,$9*
0 Add four rect primitives between the rounded corners*
20,1,$1+$1,$2,$3,$4,$5,0*
20,1,$1+$1,$4,$5,$6,$7,0*
20,1,$1+$1,$6,$7,$8,$9,0*
20,1,$1+$1,$8,$9,$2,$3,0*%
G04 Aperture macros list end*
%TA.AperFunction,ComponentPad*%
%ADD10RoundRect,0.250000X0.350000X-0.350000X0.350000X0.350000X-0.350000X0.350000X-0.350000X-0.350000X0*%
%TD*%
%TA.AperFunction,ComponentPad*%
%ADD11C,1.200000*%
%TD*%
%TA.AperFunction,ComponentPad*%
%ADD12O,1.500000X3.000000*%
%TD*%
%TA.AperFunction,SMDPad,CuDef*%
%ADD13RoundRect,0.250000X-0.337500X-0.475000X0.337500X-0.475000X0.337500X0.475000X-0.337500X0.475000X0*%
%TD*%
%TA.AperFunction,ComponentPad*%
%ADD14R,1.508000X1.508000*%
%TD*%
%TA.AperFunction,ComponentPad*%
%ADD15C,1.508000*%
%TD*%
%TA.AperFunction,ComponentPad*%
%ADD16R,1.700000X1.700000*%
%TD*%
%TA.AperFunction,ComponentPad*%
%ADD17C,1.700000*%
%TD*%
%TA.AperFunction,ComponentPad*%
%ADD18R,3.500000X3.500000*%
%TD*%
%TA.AperFunction,ComponentPad*%
%ADD19RoundRect,0.750000X-1.000000X0.750000X-1.000000X-0.750000X1.000000X-0.750000X1.000000X0.750000X0*%
%TD*%
%TA.AperFunction,ComponentPad*%
%ADD20RoundRect,0.875000X-0.875000X0.875000X-0.875000X-0.875000X0.875000X-0.875000X0.875000X0.875000X0*%
%TD*%
%TA.AperFunction,ComponentPad*%
%ADD21R,1.605000X1.605000*%
%TD*%
%TA.AperFunction,ComponentPad*%
%ADD22C,1.605000*%
%TD*%
%TA.AperFunction,ComponentPad*%
%ADD23R,1.530000X1.530000*%
%TD*%
%TA.AperFunction,ComponentPad*%
%ADD24C,1.530000*%
%TD*%
%TA.AperFunction,ViaPad*%
%ADD25C,0.800000*%
%TD*%
%TA.AperFunction,ViaPad*%
%ADD26C,0.600000*%
%TD*%
%TA.AperFunction,Conductor*%
%ADD27C,1.000000*%
%TD*%
%TA.AperFunction,Conductor*%
%ADD28C,0.800000*%
%TD*%
%TA.AperFunction,Conductor*%
%ADD29C,0.400000*%
%TD*%
G04 APERTURE END LIST*
D10*
%TO.P,C67,1*%
%TO.N,+5V*%
X76800000Y-65000000D03*
D11*
%TO.P,C67,2*%
%TO.N,GND*%
X76800000Y-63000000D03*
%TD*%
D12*
%TO.P,U10,1,VCC*%
%TO.N,/VDD*%
X97680000Y-147500000D03*
%TO.P,U10,2,GND*%
%TO.N,GND*%
X100220000Y-147500000D03*
%TO.P,U10,3,CS*%
%TO.N,/CS*%
X102760000Y-147500000D03*
%TO.P,U10,4,RST*%
%TO.N,/RST*%
X105300000Y-147500000D03*
%TO.P,U10,5,DC*%
%TO.N,/DC*%
X107840000Y-147500000D03*
%TO.P,U10,6,MOSI*%
%TO.N,/MOSI*%
X110380000Y-147500000D03*
%TO.P,U10,7,SCK*%
%TO.N,/SCK*%
X112920000Y-147500000D03*
%TO.P,U10,8,LED*%
%TO.N,/VDD*%
X115460000Y-147500000D03*
%TO.P,U10,9,MISO*%
%TO.N,/MISO*%
X118000000Y-147500000D03*
%TO.P,U10,10*%
%TO.N,unconnected-(U10-Pad10)*%
X120540000Y-147500000D03*
%TO.P,U10,11*%
%TO.N,unconnected-(U10-Pad11)*%
X123080000Y-147500000D03*
%TO.P,U10,12*%
%TO.N,unconnected-(U10-Pad12)*%
X125620000Y-147500000D03*
%TO.P,U10,13*%
%TO.N,unconnected-(U10-Pad13)*%
X128160000Y-147500000D03*
%TO.P,U10,14*%
%TO.N,unconnected-(U10-Pad14)*%
X130700000Y-147500000D03*
%TO.P,U10,15,SD_SCK*%
%TO.N,/SCK*%
X110410000Y-66700000D03*
%TO.P,U10,16,SD_MISO*%
%TO.N,/MISO*%
X112950000Y-66700000D03*
%TO.P,U10,17,SD_MOSI*%
%TO.N,/MOSI*%
X115490000Y-66700000D03*
%TO.P,U10,18,SD_CS*%
%TO.N,/CS_SD*%
X118030000Y-66700000D03*
%TD*%
D13*
%TO.P,C78,1*%
%TO.N,/SW3*%
X119450000Y-54300000D03*
%TO.P,C78,2*%
%TO.N,GND*%
X121525000Y-54300000D03*
%TD*%
D14*
%TO.P,SW76,1,1*%
%TO.N,/SW4*%
X130000000Y-56400000D03*
D15*
%TO.P,SW76,2,2*%
%TO.N,GND*%
X136500000Y-56400000D03*
%TO.P,SW76,3,3*%
%TO.N,/SW4*%
X130000000Y-60900000D03*
%TO.P,SW76,4,4*%
%TO.N,GND*%
X136500000Y-60900000D03*
%TD*%
D16*
%TO.P,J4,1,Pin_1*%
%TO.N,GND*%
X56200000Y-106320000D03*
D17*
%TO.P,J4,2,Pin_2*%
X56200000Y-103780000D03*
%TO.P,J4,3,Pin_3*%
X56200000Y-101240000D03*
%TO.P,J4,4,Pin_4*%
X56200000Y-98700000D03*
%TD*%
D13*
%TO.P,C79,1*%
%TO.N,/SW4*%
X132162500Y-54250000D03*
%TO.P,C79,2*%
%TO.N,GND*%
X134237500Y-54250000D03*
%TD*%
D10*
%TO.P,C66,1*%
%TO.N,+5V*%
X70200000Y-64972600D03*
D11*
%TO.P,C66,2*%
%TO.N,GND*%
X70200000Y-62972600D03*
%TD*%
D14*
%TO.P,SW74,1,1*%
%TO.N,/SW2*%
X104600000Y-56350000D03*
D15*
%TO.P,SW74,2,2*%
%TO.N,GND*%
X111100000Y-56350000D03*
%TO.P,SW74,3,3*%
%TO.N,/SW2*%
X104600000Y-60850000D03*
%TO.P,SW74,4,4*%
%TO.N,GND*%
X111100000Y-60850000D03*
%TD*%
D14*
%TO.P,SW75,1,1*%
%TO.N,/SW3*%
X117300000Y-56400000D03*
D15*
%TO.P,SW75,2,2*%
%TO.N,GND*%
X123800000Y-56400000D03*
%TO.P,SW75,3,3*%
%TO.N,/SW3*%
X117300000Y-60900000D03*
%TO.P,SW75,4,4*%
%TO.N,GND*%
X123800000Y-60900000D03*
%TD*%
D13*
%TO.P,C76,1*%
%TO.N,/SW1*%
X94112500Y-54100000D03*
%TO.P,C76,2*%
%TO.N,GND*%
X96187500Y-54100000D03*
%TD*%
D18*
%TO.P,J1,1*%
%TO.N,+5V*%
X60000000Y-67000000D03*
D19*
%TO.P,J1,2*%
%TO.N,GND*%
X60000000Y-61000000D03*
D20*
%TO.P,J1,3*%
%TO.N,unconnected-(J1-Pad3)*%
X55300000Y-64000000D03*
%TD*%
D13*
%TO.P,C77,1*%
%TO.N,/SW2*%
X106812500Y-54100000D03*
%TO.P,C77,2*%
%TO.N,GND*%
X108887500Y-54100000D03*
%TD*%
D16*
%TO.P,J5,1,Pin_1*%
%TO.N,+5V*%
X56250000Y-81310000D03*
D17*
%TO.P,J5,2,Pin_2*%
X56250000Y-78770000D03*
%TO.P,J5,3,Pin_3*%
X56250000Y-76230000D03*
%TO.P,J5,4,Pin_4*%
X56250000Y-73690000D03*
%TD*%
D14*
%TO.P,SW73,1,1*%
%TO.N,/SW1*%
X91900000Y-56350000D03*
D15*
%TO.P,SW73,2,2*%
%TO.N,GND*%
X98400000Y-56350000D03*
%TO.P,SW73,3,3*%
%TO.N,/SW1*%
X91900000Y-60850000D03*
%TO.P,SW73,4,4*%
%TO.N,GND*%
X98400000Y-60850000D03*
%TD*%
D16*
%TO.P,J7,1,Pin_1*%
%TO.N,/LED_OUT*%
X56250000Y-148250000D03*
%TD*%
D21*
%TO.P,U11,5_1*%
%TO.N,N/C*%
X122660000Y-130760000D03*
D22*
%TO.P,U11,5_2*%
X120120000Y-130760000D03*
%TO.P,U11,5_3*%
X117580000Y-130760000D03*
%TO.P,U11,5_4*%
X115040000Y-130760000D03*
%TO.P,U11,5_5*%
X112500000Y-130760000D03*
%TO.P,U11,5_6*%
X109960000Y-130760000D03*
%TO.P,U11,5_7*%
X107420000Y-130760000D03*
%TO.P,U11,5_8*%
X104880000Y-130760000D03*
%TO.P,U11,5_9*%
X102340000Y-130760000D03*
%TO.P,U11,5_10*%
X99800000Y-130760000D03*
D21*
%TO.P,U11,6_1*%
X108940000Y-82500000D03*
D22*
%TO.P,U11,6_2*%
X111480000Y-82500000D03*
%TO.P,U11,6_3*%
X114020000Y-82500000D03*
%TO.P,U11,6_4*%
X116560000Y-82500000D03*
%TO.P,U11,6_5*%
X119100000Y-82500000D03*
%TO.P,U11,6_6*%
X121640000Y-82500000D03*
%TO.P,U11,6_7*%
X124180000Y-82500000D03*
%TO.P,U11,6_8*%
X126720000Y-82500000D03*
D23*
%TO.P,U11,7_1,PC10*%
%TO.N,/S0*%
X98780000Y-74880000D03*
D24*
%TO.P,U11,7_2,PC11*%
%TO.N,/S1*%
X98780000Y-77420000D03*
%TO.P,U11,7_3,PC12*%
%TO.N,/S2*%
X101320000Y-74880000D03*
%TO.P,U11,7_4,PD2*%
%TO.N,unconnected-(U11A-PD2-Pad7_4)*%
X101320000Y-77420000D03*
%TO.P,U11,7_5,VDD*%
%TO.N,unconnected-(U11A-VDD-Pad7_5)*%
X103860000Y-74880000D03*
%TO.P,U11,7_6,E5V*%
%TO.N,unconnected-(U11A-E5V-Pad7_6)*%
X103860000Y-77420000D03*
%TO.P,U11,7_7,BOOT0*%
%TO.N,unconnected-(U11A-BOOT0-Pad7_7)*%
X106400000Y-74880000D03*
%TO.P,U11,7_8,GND_S1*%
%TO.N,GND*%
X106400000Y-77420000D03*
%TO.P,U11,7_9*%
%TO.N,N/C*%
X108940000Y-74880000D03*
%TO.P,U11,7_10*%
X108940000Y-77420000D03*
%TO.P,U11,7_11*%
X111480000Y-74880000D03*
%TO.P,U11,7_12,IOREF_S1*%
%TO.N,unconnected-(U11A-IOREF_S1-Pad7_12)*%
X111480000Y-77420000D03*
%TO.P,U11,7_13,PA13*%
%TO.N,/MUX_OUT_5*%
X114020000Y-74880000D03*
%TO.P,U11,7_14,RESET_S1*%
%TO.N,unconnected-(U11A-RESET_S1-Pad7_14)*%
X114020000Y-77420000D03*
%TO.P,U11,7_15,PA14*%
%TO.N,/MUX_OUT_6*%
X116560000Y-74880000D03*
%TO.P,U11,7_16,+3V3_S1*%
%TO.N,/VDD*%
X116560000Y-77420000D03*
%TO.P,U11,7_17,PA15*%
%TO.N,/MUX_OUT_7*%
X119100000Y-74880000D03*
%TO.P,U11,7_18,+5V_S1*%
%TO.N,+5V*%
X119100000Y-77420000D03*
%TO.P,U11,7_19,GND_S1*%
%TO.N,GND*%
X121640000Y-74880000D03*
%TO.P,U11,7_20,GND_S1*%
X121640000Y-77420000D03*
%TO.P,U11,7_21,PB7*%
%TO.N,/MUX_OUT_4*%
X124180000Y-74880000D03*
%TO.P,U11,7_22,GND_S1*%
%TO.N,GND*%
X124180000Y-77420000D03*
%TO.P,U11,7_23,PC13*%
%TO.N,unconnected-(U11A-PC13-Pad7_23)*%
X126720000Y-74880000D03*
%TO.P,U11,7_24,VIN_S1*%
%TO.N,unconnected-(U11A-VIN_S1-Pad7_24)*%
X126720000Y-77420000D03*
%TO.P,U11,7_25,PC14*%
%TO.N,unconnected-(U11A-PC14-Pad7_25)*%
X129260000Y-74880000D03*
%TO.P,U11,7_26*%
%TO.N,N/C*%
X129260000Y-77420000D03*
%TO.P,U11,7_27,PC15*%
%TO.N,unconnected-(U11A-PC15-Pad7_27)*%
X131800000Y-74880000D03*
%TO.P,U11,7_28,PA0*%
%TO.N,/SW4*%
X131800000Y-77420000D03*
%TO.P,U11,7_29,PH0*%
%TO.N,unconnected-(U11A-PH0-Pad7_29)*%
X134340000Y-74880000D03*
%TO.P,U11,7_30,PA1*%
%TO.N,/SW3*%
X134340000Y-77420000D03*
%TO.P,U11,7_31,PH1*%
%TO.N,unconnected-(U11A-PH1-Pad7_31)*%
X136880000Y-74880000D03*
%TO.P,U11,7_32,PA4*%
%TO.N,/SW2*%
X136880000Y-77420000D03*
%TO.P,U11,7_33,VBAT*%
%TO.N,unconnected-(U11A-VBAT-Pad7_33)*%
X139420000Y-74880000D03*
%TO.P,U11,7_34,PB0*%
%TO.N,/SW1*%
X139420000Y-77420000D03*
%TO.P,U11,7_35,PC2*%
%TO.N,/MUX_OUT_2*%
X141960000Y-74880000D03*
%TO.P,U11,7_36,PC1/PB9*%
%TO.N,/MUX_OUT_1*%
X141960000Y-77420000D03*
%TO.P,U11,7_37,PC3*%
%TO.N,/MUX_OUT_3*%
X144500000Y-74880000D03*
%TO.P,U11,7_38,PC0/PB8*%
%TO.N,/MUX_OUT_0*%
X144500000Y-77420000D03*
D21*
%TO.P,U11,8_1*%
%TO.N,N/C*%
X131800000Y-82500000D03*
D22*
%TO.P,U11,8_2*%
X134340000Y-82500000D03*
%TO.P,U11,8_3*%
X136880000Y-82500000D03*
%TO.P,U11,8_4*%
X139420000Y-82500000D03*
%TO.P,U11,8_5*%
X141960000Y-82500000D03*
%TO.P,U11,8_6*%
X144500000Y-82500000D03*
D21*
%TO.P,U11,9_1*%
X144500000Y-130760000D03*
D22*
%TO.P,U11,9_2*%
X141960000Y-130760000D03*
%TO.P,U11,9_3*%
X139420000Y-130760000D03*
%TO.P,U11,9_4*%
X136880000Y-130760000D03*
%TO.P,U11,9_5*%
X134340000Y-130760000D03*
%TO.P,U11,9_6*%
X131800000Y-130760000D03*
%TO.P,U11,9_7*%
X129260000Y-130760000D03*
%TO.P,U11,9_8*%
X126720000Y-130760000D03*
D23*
%TO.P,U11,10_1,PC9*%
%TO.N,unconnected-(U11B-PC9-Pad10_1)*%
X98780000Y-135840000D03*
D24*
%TO.P,U11,10_2,PC8*%
%TO.N,unconnected-(U11B-PC8-Pad10_2)*%
X98780000Y-138380000D03*
%TO.P,U11,10_3,PB8*%
%TO.N,unconnected-(U11B-PB8-Pad10_3)*%
X101320000Y-135840000D03*
%TO.P,U11,10_4,PC6*%
%TO.N,unconnected-(U11B-PC6-Pad10_4)*%
X101320000Y-138380000D03*
%TO.P,U11,10_5,PB9*%
%TO.N,unconnected-(U11B-PB9-Pad10_5)*%
X103860000Y-135840000D03*
%TO.P,U11,10_6,PC5*%
%TO.N,unconnected-(U11B-PC5-Pad10_6)*%
X103860000Y-138380000D03*
%TO.P,U11,10_7,AVDD*%
%TO.N,unconnected-(U11B-AVDD-Pad10_7)*%
X106400000Y-135840000D03*
%TO.P,U11,10_8,U5V*%
%TO.N,unconnected-(U11B-U5V-Pad10_8)*%
X106400000Y-138380000D03*
%TO.P,U11,10_9,GND_S2*%
%TO.N,Net-(U11B-GND_S2-Pad10_20)*%
X108940000Y-135840000D03*
%TO.P,U11,10_10*%
%TO.N,N/C*%
X108940000Y-138380000D03*
%TO.P,U11,10_11,PA5*%
%TO.N,/SCK*%
X111480000Y-135840000D03*
%TO.P,U11,10_12,PA12*%
%TO.N,unconnected-(U11B-PA12-Pad10_12)*%
X111480000Y-138380000D03*
%TO.P,U11,10_13,PA6*%
%TO.N,/MISO*%
X114020000Y-135840000D03*
%TO.P,U11,10_14,PA11*%
%TO.N,unconnected-(U11B-PA11-Pad10_14)*%
X114020000Y-138380000D03*
%TO.P,U11,10_15,PA7*%
%TO.N,/MOSI*%
X116560000Y-135840000D03*
%TO.P,U11,10_16,PB12*%
%TO.N,unconnected-(U11B-PB12-Pad10_16)*%
X116560000Y-138380000D03*
%TO.P,U11,10_17,PB6*%
%TO.N,/CS*%
X119100000Y-135840000D03*
%TO.P,U11,10_18*%
%TO.N,N/C*%
X119100000Y-138380000D03*
%TO.P,U11,10_19,PC7*%
%TO.N,/RST*%
X121640000Y-135840000D03*
%TO.P,U11,10_20,GND_S2*%
%TO.N,Net-(U11B-GND_S2-Pad10_20)*%
X121640000Y-138380000D03*
%TO.P,U11,10_21,PA9*%
%TO.N,/DC*%
X124180000Y-135840000D03*
%TO.P,U11,10_22,PB2*%
%TO.N,unconnected-(U11B-PB2-Pad10_22)*%
X124180000Y-138380000D03*
%TO.P,U11,10_23,PA8*%
%TO.N,/LED_OUT*%
X126720000Y-135840000D03*
%TO.P,U11,10_24,PB1*%
%TO.N,unconnected-(U11B-PB1-Pad10_24)*%
X126720000Y-138380000D03*
%TO.P,U11,10_25,PB10*%
%TO.N,unconnected-(U11B-PB10-Pad10_25)*%
X129260000Y-135840000D03*
%TO.P,U11,10_26,PB15*%
%TO.N,unconnected-(U11B-PB15-Pad10_26)*%
X129260000Y-138380000D03*
%TO.P,U11,10_27,PB4*%
%TO.N,unconnected-(U11B-PB4-Pad10_27)*%
X131800000Y-135840000D03*
%TO.P,U11,10_28,PB14*%
%TO.N,unconnected-(U11B-PB14-Pad10_28)*%
X131800000Y-138380000D03*
%TO.P,U11,10_29,PB5*%
%TO.N,unconnected-(U11B-PB5-Pad10_29)*%
X134340000Y-135840000D03*
%TO.P,U11,10_30,PB13*%
%TO.N,unconnected-(U11B-PB13-Pad10_30)*%
X134340000Y-138380000D03*
%TO.P,U11,10_31,PB3*%
%TO.N,unconnected-(U11B-PB3-Pad10_31)*%
X136880000Y-135840000D03*
%TO.P,U11,10_32,AGND*%
%TO.N,unconnected-(U11B-AGND-Pad10_32)*%
X136880000Y-138380000D03*
%TO.P,U11,10_33,PA10*%
%TO.N,/CS_SD*%
X139420000Y-135840000D03*
%TO.P,U11,10_34,PC4*%
%TO.N,unconnected-(U11B-PC4-Pad10_34)*%
X139420000Y-138380000D03*
%TO.P,U11,10_35,PA2*%
%TO.N,unconnected-(U11B-PA2-Pad10_35)*%
X141960000Y-135840000D03*
%TO.P,U11,10_36*%
%TO.N,N/C*%
X141960000Y-138380000D03*
%TO.P,U11,10_37,PA3*%
%TO.N,unconnected-(U11B-PA3-Pad10_37)*%
X144500000Y-135840000D03*
%TO.P,U11,10_38*%
%TO.N,N/C*%
X144500000Y-138380000D03*
%TO.P,U11,CN11*%
X73380000Y-138460000D03*
%TO.P,U11,CN11_1*%
X70880000Y-138460000D03*
%TO.P,U11,CN12*%
X73380000Y-74890000D03*
%TO.P,U11,CN12_1*%
X70880000Y-74890000D03*
%TD*%
D16*
%TO.P,J2,1,Pin_1*%
%TO.N,/MUX_OUT_0*%
X56200000Y-143410000D03*
D17*
%TO.P,J2,2,Pin_2*%
%TO.N,/MUX_OUT_1*%
X56200000Y-140870000D03*
%TO.P,J2,3,Pin_3*%
%TO.N,/MUX_OUT_2*%
X56200000Y-138330000D03*
%TO.P,J2,4,Pin_4*%
%TO.N,/MUX_OUT_3*%
X56200000Y-135790000D03*
%TD*%
D16*
%TO.P,J6,1,Pin_1*%
%TO.N,/S1*%
X56200000Y-113360000D03*
D17*
%TO.P,J6,2,Pin_2*%
%TO.N,/S0*%
X56200000Y-115900000D03*
%TO.P,J6,3,Pin_3*%
%TO.N,/S2*%
X56200000Y-118440000D03*
%TD*%
D16*
%TO.P,J3,1,Pin_1*%
%TO.N,/MUX_OUT_5*%
X56200000Y-131200000D03*
D17*
%TO.P,J3,2,Pin_2*%
%TO.N,/MUX_OUT_6*%
X56200000Y-128660000D03*
%TO.P,J3,3,Pin_3*%
%TO.N,/MUX_OUT_7*%
X56200000Y-126120000D03*
%TO.P,J3,4,Pin_4*%
%TO.N,/MUX_OUT_4*%
X56200000Y-123580000D03*
%TD*%
D25*
%TO.N,+5V*%
X77200000Y-67200000D03*
X120000000Y-80000000D03*
%TO.N,GND*%
X125800000Y-56000000D03*
X100000000Y-144750000D03*
X138600000Y-55800000D03*
X105000000Y-80000000D03*
X100000000Y-56000000D03*
X113200000Y-55800000D03*
X124500000Y-80000000D03*
D26*
%TO.N,/SCK*%
X93200000Y-138000000D03*
X93200000Y-128000000D03*
%TO.N,/MOSI*%
X90300000Y-139600000D03*
X92400000Y-128000000D03*
%TO.N,/RST*%
X96600000Y-141200000D03*
X98800000Y-141200000D03*
%TO.N,/MUX_OUT_4*%
X99200000Y-69200000D03*
X102600000Y-69200000D03*
%TO.N,/MUX_OUT_7*%
X98200000Y-70000000D03*
X102600000Y-70000003D03*
%TO.N,/MUX_OUT_0*%
X94400000Y-114600000D03*
X147000000Y-112400000D03*
X91200000Y-115400000D03*
X147200000Y-108000000D03*
%TO.N,/MUX_OUT_3*%
X91000000Y-111800000D03*
X94200000Y-110000000D03*
%TO.N,/MUX_OUT_2*%
X91000000Y-113200000D03*
X93815635Y-111799919D03*
%TO.N,/MUX_OUT_5*%
X94600000Y-72800000D03*
X99000000Y-72800000D03*
%TO.N,/MUX_OUT_6*%
X102400000Y-71000000D03*
X97200000Y-71000000D03*
%TO.N,/MUX_OUT_1*%
X146000000Y-108200000D03*
X94000000Y-113200000D03*
X91000000Y-114200000D03*
X146000000Y-111600000D03*
%TD*%
D27*
%TO.N,+5V*%
X119100000Y-79100000D02*
X120000000Y-80000000D01*
X76800000Y-65000000D02*
X76800000Y-66800000D01*
X76772600Y-64972600D02*
X76800000Y-65000000D01*
X70200000Y-64972600D02*
X76772600Y-64972600D01*
X60000000Y-67000000D02*
X68172600Y-67000000D01*
X76800000Y-66800000D02*
X77200000Y-67200000D01*
X68172600Y-67000000D02*
X70200000Y-64972600D01*
X119100000Y-77420000D02*
X119100000Y-79100000D01*
%TO.N,GND*%
X124180000Y-79680000D02*
X124500000Y-80000000D01*
X100220000Y-147500000D02*
X100220000Y-144970000D01*
X100220000Y-144970000D02*
X100000000Y-144750000D01*
X134350000Y-54250000D02*
X136500000Y-56400000D01*
X125400000Y-56400000D02*
X125800000Y-56000000D01*
X121700000Y-54300000D02*
X123800000Y-56400000D01*
D28*
X96187500Y-54137500D02*
X98400000Y-56350000D01*
D27*
X121640000Y-77420000D02*
X121640000Y-74880000D01*
D29*
X98400000Y-56350000D02*
X98400000Y-60850000D01*
D27*
X111100000Y-56350000D02*
X112650000Y-56350000D01*
X136500000Y-56400000D02*
X136500000Y-60900000D01*
X76772600Y-62972600D02*
X76800000Y-63000000D01*
X123800000Y-56400000D02*
X123800000Y-60900000D01*
X108887500Y-54100000D02*
X108887500Y-54137500D01*
D28*
X99650000Y-56350000D02*
X100000000Y-56000000D01*
D27*
X121640000Y-77420000D02*
X124180000Y-77420000D01*
X138000000Y-56400000D02*
X138600000Y-55800000D01*
X106400000Y-78600000D02*
X105000000Y-80000000D01*
X111100000Y-56350000D02*
X111100000Y-60850000D01*
X106400000Y-77420000D02*
X106400000Y-78600000D01*
X123800000Y-56400000D02*
X125400000Y-56400000D01*
X121525000Y-54300000D02*
X121700000Y-54300000D01*
X136500000Y-56400000D02*
X138000000Y-56400000D01*
D29*
X96187500Y-54100000D02*
X96187500Y-54137500D01*
D27*
X124180000Y-77420000D02*
X124180000Y-79680000D01*
X112650000Y-56350000D02*
X113200000Y-55800000D01*
X68227400Y-61000000D02*
X70200000Y-62972600D01*
D28*
X98400000Y-56350000D02*
X99650000Y-56350000D01*
D27*
X70200000Y-62972600D02*
X76772600Y-62972600D01*
X60000000Y-61000000D02*
X68227400Y-61000000D01*
X108887500Y-54137500D02*
X111100000Y-56350000D01*
X134237500Y-54250000D02*
X134350000Y-54250000D01*
D29*
%TO.N,/MISO*%
X147400000Y-67200000D02*
X120000000Y-67200000D01*
X119000000Y-69400000D02*
X113600000Y-69400000D01*
X97800000Y-140400000D02*
X110900000Y-140400000D01*
X110900000Y-140400000D02*
X118000000Y-147500000D01*
X118000000Y-147500000D02*
X125500000Y-140000000D01*
X151200000Y-71000000D02*
X147400000Y-67200000D01*
X120000000Y-67200000D02*
X119800000Y-67600000D01*
X96000000Y-134800000D02*
X96000000Y-138600000D01*
X151200000Y-134400000D02*
X151200000Y-71000000D01*
X113600000Y-69400000D02*
X112950000Y-68750000D01*
X112950000Y-68750000D02*
X112950000Y-66700000D01*
X119800000Y-67600000D02*
X119800000Y-68600000D01*
X112180000Y-134000000D02*
X96800000Y-134000000D01*
X125500000Y-140000000D02*
X145600000Y-140000000D01*
X96000000Y-138600000D02*
X97800000Y-140400000D01*
X114020000Y-135840000D02*
X112180000Y-134000000D01*
X119800000Y-68600000D02*
X119000000Y-69400000D01*
X96800000Y-134000000D02*
X96000000Y-134800000D01*
X145600000Y-140000000D02*
X151200000Y-134400000D01*
%TO.N,/SCK*%
X93200000Y-138000000D02*
X93200000Y-128000000D01*
%TO.N,/MOSI*%
X90300000Y-139600000D02*
X90300000Y-135700000D01*
X90300000Y-135700000D02*
X92400000Y-133600000D01*
X92400000Y-133600000D02*
X92400000Y-128000000D01*
D27*
%TO.N,/VDD*%
X101000000Y-87500000D02*
X88500000Y-87500000D01*
X116560000Y-79440000D02*
X116560000Y-77420000D01*
X108000000Y-80500000D02*
X101000000Y-87500000D01*
X115500000Y-80500000D02*
X116560000Y-79440000D01*
X88500000Y-87500000D02*
X88500000Y-141500000D01*
X97680000Y-150680000D02*
X98000000Y-151000000D01*
X97680000Y-147500000D02*
X97680000Y-150680000D01*
X88500000Y-141500000D02*
X97680000Y-150680000D01*
X114500000Y-151000000D02*
X115460000Y-150040000D01*
X108000000Y-80500000D02*
X115500000Y-80500000D01*
X115460000Y-150040000D02*
X115460000Y-147500000D01*
X98000000Y-151000000D02*
X114500000Y-151000000D01*
D29*
%TO.N,/RST*%
X99000000Y-141200000D02*
X98800000Y-141200000D01*
X96389116Y-132711000D02*
X118511000Y-132711000D01*
X94798000Y-139398000D02*
X94798000Y-134302116D01*
X105300000Y-147500000D02*
X99000000Y-141200000D01*
X96600000Y-141200000D02*
X94798000Y-139398000D01*
X118511000Y-132711000D02*
X121640000Y-135840000D01*
X94798000Y-134302116D02*
X96389116Y-132711000D01*
%TO.N,/CS*%
X102760000Y-146209942D02*
X95399000Y-138848942D01*
X96551058Y-133399000D02*
X116659000Y-133399000D01*
X102760000Y-147500000D02*
X102760000Y-146209942D01*
X95399000Y-138848942D02*
X95399000Y-134551058D01*
X116659000Y-133399000D02*
X119100000Y-135840000D01*
X95399000Y-134551058D02*
X96551058Y-133399000D01*
%TO.N,Net-(U11B-GND_S2-Pad10_20)*%
X120266000Y-137006000D02*
X121640000Y-138380000D01*
X108940000Y-135840000D02*
X110106000Y-137006000D01*
X110106000Y-137006000D02*
X120266000Y-137006000D01*
%TO.N,/MUX_OUT_4*%
X102600000Y-69200000D02*
X99200000Y-69200000D01*
%TO.N,/SW2*%
X146800000Y-73400000D02*
X146800000Y-79049942D01*
X104600000Y-60850000D02*
X104600000Y-68200000D01*
X139060000Y-79600000D02*
X136880000Y-77420000D01*
D27*
X106812500Y-54137500D02*
X104600000Y-56350000D01*
D29*
X108600000Y-72200000D02*
X145600000Y-72200000D01*
D27*
X104600000Y-56350000D02*
X104600000Y-60850000D01*
D29*
X145600000Y-72200000D02*
X146800000Y-73400000D01*
X104600000Y-68200000D02*
X108600000Y-72200000D01*
X146249942Y-79600000D02*
X139060000Y-79600000D01*
D27*
X106812500Y-54100000D02*
X106812500Y-54137500D01*
D29*
X146800000Y-79049942D02*
X146249942Y-79600000D01*
%TO.N,/SW4*%
X129000000Y-80400000D02*
X130400000Y-79000000D01*
X127100000Y-63800000D02*
X108600000Y-63800000D01*
D27*
X132150000Y-54250000D02*
X130000000Y-56400000D01*
D29*
X131400000Y-79000000D02*
X131800000Y-78600000D01*
X131800000Y-78600000D02*
X131800000Y-77420000D01*
X147800000Y-70800000D02*
X148400000Y-71400000D01*
X130000000Y-60900000D02*
X127100000Y-63800000D01*
X108600000Y-63800000D02*
X106800000Y-65600000D01*
X106800000Y-67400000D02*
X110200000Y-70800000D01*
X130200000Y-84200000D02*
X129000000Y-83000000D01*
X148400000Y-71400000D02*
X148400000Y-81200000D01*
D27*
X130000000Y-56400000D02*
X130000000Y-60900000D01*
D29*
X110200000Y-70800000D02*
X147800000Y-70800000D01*
X129000000Y-83000000D02*
X129000000Y-80400000D01*
X130400000Y-79000000D02*
X131400000Y-79000000D01*
D27*
X132162500Y-54250000D02*
X132150000Y-54250000D01*
D29*
X148400000Y-81200000D02*
X145400000Y-84200000D01*
X106800000Y-65600000D02*
X106800000Y-67400000D01*
X145400000Y-84200000D02*
X130200000Y-84200000D01*
%TO.N,/MUX_OUT_7*%
X102600000Y-70000003D02*
X98200003Y-70000003D01*
X98200003Y-70000003D02*
X98200000Y-70000000D01*
%TO.N,/S1*%
X98780000Y-77420000D02*
X92180000Y-77420000D01*
X56240000Y-113360000D02*
X56200000Y-113360000D01*
X92180000Y-77420000D02*
X56240000Y-113360000D01*
%TO.N,/MUX_OUT_0*%
X94400000Y-114600000D02*
X93600000Y-115400000D01*
X147200000Y-112200000D02*
X147000000Y-112400000D01*
X93600000Y-115400000D02*
X91200000Y-115400000D01*
X147200000Y-108000000D02*
X147200000Y-112200000D01*
%TO.N,/S2*%
X54600000Y-109200000D02*
X53200000Y-110600000D01*
X59000000Y-108400000D02*
X58200000Y-109200000D01*
X54040000Y-118440000D02*
X56200000Y-118440000D01*
X94000000Y-72000000D02*
X59000000Y-108400000D01*
X101320000Y-73120000D02*
X100200000Y-72000000D01*
X100200000Y-72000000D02*
X94000000Y-72000000D01*
X53200000Y-117600000D02*
X54040000Y-118440000D01*
X101320000Y-74880000D02*
X101320000Y-73120000D01*
X58200000Y-109200000D02*
X54600000Y-109200000D01*
X53200000Y-110600000D02*
X53200000Y-117600000D01*
%TO.N,/MUX_OUT_3*%
X94200000Y-110000000D02*
X92800000Y-110000000D01*
X92800000Y-110000000D02*
X91000000Y-111800000D01*
%TO.N,/MUX_OUT_2*%
X93815635Y-111799919D02*
X92400081Y-111799919D01*
X92400081Y-111799919D02*
X91000000Y-113200000D01*
%TO.N,/MUX_OUT_5*%
X99000000Y-72800000D02*
X94600000Y-72800000D01*
%TO.N,/S0*%
X55199000Y-109801000D02*
X58799000Y-109801000D01*
X54000000Y-115200000D02*
X54000000Y-111000000D01*
X58799000Y-109801000D02*
X93720000Y-74880000D01*
X98780000Y-74880000D02*
X93720000Y-74880000D01*
X54000000Y-111000000D02*
X55199000Y-109801000D01*
X54700000Y-115900000D02*
X54000000Y-115200000D01*
X56200000Y-115900000D02*
X54700000Y-115900000D01*
%TO.N,/SW1*%
X95600000Y-67600000D02*
X95600000Y-64550000D01*
X107800000Y-72800000D02*
X102600000Y-67600000D01*
X146000000Y-79000000D02*
X146000000Y-73800000D01*
D28*
X91900000Y-56350000D02*
X91900000Y-60850000D01*
D29*
X139420000Y-77420000D02*
X141000000Y-79000000D01*
X145000000Y-72800000D02*
X107800000Y-72800000D01*
X102600000Y-67600000D02*
X95600000Y-67600000D01*
D28*
X94112500Y-54100000D02*
X94112500Y-54137500D01*
D29*
X141000000Y-79000000D02*
X146000000Y-79000000D01*
D28*
X94112500Y-54137500D02*
X91900000Y-56350000D01*
D29*
X95600000Y-64550000D02*
X91900000Y-60850000D01*
X146000000Y-73800000D02*
X145000000Y-72800000D01*
X139420000Y-77420000D02*
X139420000Y-77820000D01*
%TO.N,/MUX_OUT_6*%
X102400000Y-71000000D02*
X97200000Y-71000000D01*
%TO.N,/SW3*%
X109400000Y-71600000D02*
X105800000Y-68000000D01*
X116000000Y-62200000D02*
X117300000Y-60900000D01*
D27*
X119450000Y-54300000D02*
X119400000Y-54300000D01*
D29*
X147600000Y-72000000D02*
X147200000Y-71600000D01*
X147200000Y-71600000D02*
X109400000Y-71600000D01*
X105800000Y-68000000D02*
X105600000Y-68000000D01*
D27*
X117300000Y-56400000D02*
X117300000Y-60900000D01*
D29*
X105600000Y-68000000D02*
X105600000Y-64600000D01*
X137320000Y-80400000D02*
X146400000Y-80400000D01*
X147600000Y-79200000D02*
X147600000Y-72000000D01*
X146400000Y-80400000D02*
X147600000Y-79200000D01*
X134340000Y-77420000D02*
X137320000Y-80400000D01*
D27*
X119400000Y-54300000D02*
X117300000Y-56400000D01*
D29*
X105600000Y-64600000D02*
X108000000Y-62200000D01*
X108000000Y-62200000D02*
X116000000Y-62200000D01*
%TO.N,/MUX_OUT_1*%
X91000000Y-114200000D02*
X93000000Y-114200000D01*
X146000000Y-111600000D02*
X146000000Y-108200000D01*
X93000000Y-114200000D02*
X94000000Y-113200000D01*
%TD*%
%TA.AperFunction,Conductor*%
%TO.N,+5V*%
G36*
X76805908Y-65002456D02*
G01*
X77393393Y-65346135D01*
X77398803Y-65353270D01*
X77399105Y-65357601D01*
X77301216Y-66189667D01*
X77296846Y-66197483D01*
X77289596Y-66200000D01*
X76310404Y-66200000D01*
X76302131Y-66196573D01*
X76298784Y-66189667D01*
X76200894Y-65357601D01*
X76203331Y-65348984D01*
X76206604Y-65346136D01*
X76794092Y-65002455D01*
X76802964Y-65001237D01*
X76805908Y-65002456D01*
G37*
%TD.AperFunction*%
%TD*%
%TA.AperFunction,Conductor*%
%TO.N,+5V*%
G36*
X76451171Y-64403339D02*
G01*
X76453731Y-64406378D01*
X76797299Y-64993674D01*
X76798518Y-65002546D01*
X76796924Y-65006089D01*
X76409525Y-65584986D01*
X76402075Y-65589956D01*
X76398097Y-65590054D01*
X75609996Y-65474071D01*
X75602310Y-65469476D01*
X75600000Y-65462496D01*
X75600000Y-64483343D01*
X75603427Y-64475070D01*
X75610702Y-64471685D01*
X76442638Y-64400628D01*
X76451171Y-64403339D01*
G37*
%TD.AperFunction*%
%TD*%
%TA.AperFunction,Conductor*%
%TO.N,+5V*%
G36*
X71389667Y-64471384D02*
G01*
X71397483Y-64475754D01*
X71400000Y-64483004D01*
X71400000Y-65462195D01*
X71396573Y-65470468D01*
X71389667Y-65473815D01*
X70557601Y-65571705D01*
X70548984Y-65569268D01*
X70546135Y-65565993D01*
X70202456Y-64978508D01*
X70201237Y-64969636D01*
X70202456Y-64966692D01*
X70546135Y-64379205D01*
X70553270Y-64373796D01*
X70557599Y-64373494D01*
X71389667Y-64471384D01*
G37*
%TD.AperFunction*%
%TD*%
%TA.AperFunction,Conductor*%
%TO.N,+5V*%
G36*
X61755598Y-66002799D02*
G01*
X62743532Y-66496766D01*
X62749400Y-66503531D01*
X62750000Y-66507231D01*
X62750000Y-67492769D01*
X62746573Y-67501042D01*
X62743532Y-67503234D01*
X61755598Y-67997200D01*
X61746666Y-67997835D01*
X61744564Y-67996895D01*
X60016790Y-67010160D01*
X60011305Y-67003081D01*
X60012432Y-66994198D01*
X60016790Y-66989840D01*
X61744565Y-66003103D01*
X61753447Y-66001977D01*
X61755598Y-66002799D01*
G37*
%TD.AperFunction*%
%TD*%
%TA.AperFunction,Conductor*%
%TO.N,+5V*%
G36*
X69607947Y-64727350D02*
G01*
X70113525Y-64935926D01*
X70196208Y-64970037D01*
X70202549Y-64976360D01*
X70202562Y-64976391D01*
X70445248Y-65564650D01*
X70445235Y-65573605D01*
X70441920Y-65578102D01*
X69610721Y-66270358D01*
X69602170Y-66273020D01*
X69594960Y-66269641D01*
X68902958Y-65577639D01*
X68899531Y-65569366D01*
X68902239Y-65561881D01*
X69594497Y-64730678D01*
X69602424Y-64726515D01*
X69607947Y-64727350D01*
G37*
%TD.AperFunction*%
%TD*%
%TA.AperFunction,Conductor*%
%TO.N,+5V*%
G36*
X119839015Y-77566984D02*
G01*
X119846455Y-77571968D01*
X119848226Y-77580565D01*
X119601757Y-78925710D01*
X119596896Y-78933230D01*
X119590249Y-78935301D01*
X118609751Y-78935301D01*
X118601478Y-78931874D01*
X118598243Y-78925710D01*
X118351773Y-77580565D01*
X118353652Y-77571809D01*
X118360983Y-77566984D01*
X119097708Y-77419459D01*
X119102292Y-77419459D01*
X119839015Y-77566984D01*
G37*
%TD.AperFunction*%
%TD*%
%TA.AperFunction,Conductor*%
%TO.N,GND*%
G36*
X100718452Y-145267838D02*
G01*
X100721702Y-145274084D01*
X100954658Y-146598392D01*
X100952716Y-146607134D01*
X100952183Y-146607836D01*
X100229048Y-147489962D01*
X100221153Y-147494188D01*
X100212583Y-147491593D01*
X100210952Y-147489962D01*
X99487816Y-146607836D01*
X99485221Y-146599266D01*
X99485339Y-146598406D01*
X99718298Y-145274083D01*
X99723106Y-145266530D01*
X99729821Y-145264411D01*
X100710179Y-145264411D01*
X100718452Y-145267838D01*
G37*
%TD.AperFunction*%
%TD*%
%TA.AperFunction,Conductor*%
%TO.N,GND*%
G36*
X135805518Y-54995985D02*
G01*
X136909510Y-55766518D01*
X136914333Y-55774063D01*
X136912551Y-55782600D01*
X136502006Y-56398757D01*
X136498757Y-56402006D01*
X135882600Y-56812551D01*
X135873815Y-56814286D01*
X135866518Y-56809510D01*
X135095985Y-55705518D01*
X135094060Y-55696773D01*
X135097304Y-55690551D01*
X135790550Y-54997305D01*
X135798822Y-54993879D01*
X135805518Y-54995985D01*
G37*
%TD.AperFunction*%
%TD*%
%TA.AperFunction,Conductor*%
%TO.N,GND*%
G36*
X134830704Y-53991841D02*
G01*
X135586038Y-54778601D01*
X135589296Y-54786942D01*
X135585871Y-54794977D01*
X134893921Y-55486927D01*
X134885648Y-55490354D01*
X134878792Y-55488135D01*
X134174677Y-54978914D01*
X134169981Y-54971289D01*
X134169883Y-54968355D01*
X134236160Y-54256094D01*
X134240339Y-54248175D01*
X134243028Y-54246501D01*
X134817483Y-53989265D01*
X134826434Y-53989012D01*
X134830704Y-53991841D01*
G37*
%TD.AperFunction*%
%TD*%
%TA.AperFunction,Conductor*%
%TO.N,GND*%
G36*
X123105518Y-54995985D02*
G01*
X124209510Y-55766518D01*
X124214333Y-55774063D01*
X124212551Y-55782600D01*
X123802006Y-56398757D01*
X123798757Y-56402006D01*
X123182600Y-56812551D01*
X123173815Y-56814286D01*
X123166518Y-56809510D01*
X122395985Y-55705518D01*
X122394060Y-55696773D01*
X122397304Y-55690551D01*
X123090550Y-54997305D01*
X123098822Y-54993879D01*
X123105518Y-54995985D01*
G37*
%TD.AperFunction*%
%TD*%
%TA.AperFunction,Conductor*%
%TO.N,GND*%
G36*
X122118304Y-54028740D02*
G01*
X122873011Y-54766099D01*
X122876534Y-54774331D01*
X122873204Y-54782643D01*
X122873108Y-54782740D01*
X122181110Y-55474738D01*
X122172837Y-55478165D01*
X122166407Y-55476239D01*
X122164125Y-55474738D01*
X121486153Y-55028720D01*
X121481125Y-55021312D01*
X121480905Y-55018248D01*
X121523874Y-54306223D01*
X121527793Y-54298174D01*
X121530576Y-54296342D01*
X122105155Y-54026518D01*
X122114099Y-54026104D01*
X122118304Y-54028740D01*
G37*
%TD.AperFunction*%
%TD*%
%TA.AperFunction,Conductor*%
%TO.N,GND*%
G36*
X97634593Y-55015757D02*
G01*
X98587042Y-55584597D01*
X98808345Y-55716768D01*
X98813691Y-55723952D01*
X98812391Y-55732812D01*
X98812083Y-55733301D01*
X98402006Y-56348757D01*
X98398757Y-56352006D01*
X97783301Y-56762083D01*
X97774516Y-56763818D01*
X97767076Y-56758834D01*
X97766768Y-56758345D01*
X97523310Y-56350707D01*
X97065757Y-55584594D01*
X97064458Y-55575737D01*
X97067528Y-55570327D01*
X97620326Y-55017529D01*
X97628598Y-55014103D01*
X97634593Y-55015757D01*
G37*
%TD.AperFunction*%
%TD*%
%TA.AperFunction,Conductor*%
%TO.N,GND*%
G36*
X96775288Y-53866750D02*
G01*
X96780313Y-53870853D01*
X97434543Y-54816385D01*
X97436433Y-54825138D01*
X97433195Y-54831315D01*
X96881365Y-55383145D01*
X96873092Y-55386572D01*
X96866367Y-55384446D01*
X96075948Y-54829207D01*
X96071148Y-54821647D01*
X96071122Y-54817773D01*
X96071346Y-54816385D01*
X96185741Y-54105825D01*
X96190439Y-54098203D01*
X96192931Y-54096828D01*
X96766335Y-53866652D01*
X96775288Y-53866750D01*
G37*
%TD.AperFunction*%
%TD*%
%TA.AperFunction,Conductor*%
%TO.N,GND*%
G36*
X122138522Y-75908126D02*
G01*
X122141757Y-75914290D01*
X122388226Y-77259434D01*
X122386347Y-77268190D01*
X122379015Y-77273015D01*
X121642297Y-77420540D01*
X121637703Y-77420540D01*
X120900984Y-77273015D01*
X120893544Y-77268031D01*
X120891773Y-77259435D01*
X121138243Y-75914290D01*
X121143104Y-75906770D01*
X121149751Y-75904699D01*
X122130249Y-75904699D01*
X122138522Y-75908126D01*
G37*
%TD.AperFunction*%
%TD*%
%TA.AperFunction,Conductor*%
%TO.N,GND*%
G36*
X122379015Y-75026984D02*
G01*
X122386455Y-75031968D01*
X122388226Y-75040565D01*
X122141757Y-76385710D01*
X122136896Y-76393230D01*
X122130249Y-76395301D01*
X121149751Y-76395301D01*
X121141478Y-76391874D01*
X121138243Y-76385710D01*
X120891773Y-75040565D01*
X120893652Y-75031809D01*
X120900983Y-75026984D01*
X121637708Y-74879459D01*
X121642292Y-74879459D01*
X122379015Y-75026984D01*
G37*
%TD.AperFunction*%
%TD*%
%TA.AperFunction,Conductor*%
%TO.N,GND*%
G36*
X99125715Y-56494335D02*
G01*
X99133154Y-56499318D01*
X99134889Y-56508103D01*
X99134278Y-56510158D01*
X98602944Y-57836164D01*
X98596685Y-57842569D01*
X98592083Y-57843512D01*
X98207917Y-57843512D01*
X98199644Y-57840085D01*
X98197056Y-57836164D01*
X97665721Y-56510158D01*
X97665825Y-56501204D01*
X97672230Y-56494945D01*
X97674275Y-56494336D01*
X98397703Y-56349460D01*
X98402297Y-56349460D01*
X99125715Y-56494335D01*
G37*
%TD.AperFunction*%
%TD*%
%TA.AperFunction,Conductor*%
%TO.N,GND*%
G36*
X98600356Y-59359915D02*
G01*
X98602944Y-59363836D01*
X99134278Y-60689841D01*
X99134174Y-60698795D01*
X99127769Y-60705054D01*
X99125714Y-60705665D01*
X98402297Y-60850539D01*
X98397703Y-60850539D01*
X97674285Y-60705665D01*
X97666845Y-60700681D01*
X97665110Y-60691896D01*
X97665719Y-60689846D01*
X98197056Y-59363836D01*
X98203315Y-59357431D01*
X98207917Y-59356488D01*
X98592083Y-59356488D01*
X98600356Y-59359915D01*
G37*
%TD.AperFunction*%
%TD*%
%TA.AperFunction,Conductor*%
%TO.N,GND*%
G36*
X112583861Y-55848283D02*
G01*
X112591406Y-55853106D01*
X112593512Y-55859802D01*
X112593512Y-56840197D01*
X112590085Y-56848470D01*
X112583861Y-56851716D01*
X111258370Y-57087506D01*
X111249625Y-57085581D01*
X111244849Y-57078284D01*
X111099460Y-56352297D01*
X111099460Y-56347703D01*
X111199476Y-55848283D01*
X111244849Y-55621713D01*
X111249833Y-55614275D01*
X111258369Y-55612493D01*
X112583861Y-55848283D01*
G37*
%TD.AperFunction*%
%TD*%
%TA.AperFunction,Conductor*%
%TO.N,GND*%
G36*
X137228284Y-56544849D02*
G01*
X137235724Y-56549833D01*
X137237506Y-56558370D01*
X137001717Y-57883861D01*
X136996894Y-57891406D01*
X136990198Y-57893512D01*
X136009802Y-57893512D01*
X136001529Y-57890085D01*
X135998283Y-57883861D01*
X135762493Y-56558370D01*
X135764418Y-56549625D01*
X135771713Y-56544849D01*
X136497703Y-56399460D01*
X136502297Y-56399460D01*
X137228284Y-56544849D01*
G37*
%TD.AperFunction*%
%TD*%
%TA.AperFunction,Conductor*%
%TO.N,GND*%
G36*
X136998471Y-59409915D02*
G01*
X137001717Y-59416139D01*
X137237506Y-60741629D01*
X137235581Y-60750374D01*
X137228284Y-60755150D01*
X136502297Y-60900539D01*
X136497703Y-60900539D01*
X135771715Y-60755150D01*
X135764275Y-60750166D01*
X135762493Y-60741629D01*
X135998283Y-59416139D01*
X136003106Y-59408594D01*
X136009802Y-59406488D01*
X136990198Y-59406488D01*
X136998471Y-59409915D01*
G37*
%TD.AperFunction*%
%TD*%
%TA.AperFunction,Conductor*%
%TO.N,GND*%
G36*
X124528284Y-56544849D02*
G01*
X124535724Y-56549833D01*
X124537506Y-56558370D01*
X124301717Y-57883861D01*
X124296894Y-57891406D01*
X124290198Y-57893512D01*
X123309802Y-57893512D01*
X123301529Y-57890085D01*
X123298283Y-57883861D01*
X123062493Y-56558370D01*
X123064418Y-56549625D01*
X123071713Y-56544849D01*
X123797703Y-56399460D01*
X123802297Y-56399460D01*
X124528284Y-56544849D01*
G37*
%TD.AperFunction*%
%TD*%
%TA.AperFunction,Conductor*%
%TO.N,GND*%
G36*
X124298471Y-59409915D02*
G01*
X124301717Y-59416139D01*
X124537506Y-60741629D01*
X124535581Y-60750374D01*
X124528284Y-60755150D01*
X123802297Y-60900539D01*
X123797703Y-60900539D01*
X123071715Y-60755150D01*
X123064275Y-60750166D01*
X123062493Y-60741629D01*
X123298283Y-59416139D01*
X123303106Y-59408594D01*
X123309802Y-59406488D01*
X124290198Y-59406488D01*
X124298471Y-59409915D01*
G37*
%TD.AperFunction*%
%TD*%
%TA.AperFunction,Conductor*%
%TO.N,GND*%
G36*
X123145711Y-76918242D02*
G01*
X123153230Y-76923103D01*
X123155301Y-76929750D01*
X123155301Y-77910249D01*
X123151874Y-77918522D01*
X123145710Y-77921757D01*
X121800565Y-78168226D01*
X121791809Y-78166347D01*
X121786984Y-78159015D01*
X121739122Y-77920000D01*
X121639459Y-77422292D01*
X121639459Y-77417707D01*
X121786984Y-76680983D01*
X121791968Y-76673544D01*
X121800564Y-76671773D01*
X123145711Y-76918242D01*
G37*
%TD.AperFunction*%
%TD*%
%TA.AperFunction,Conductor*%
%TO.N,GND*%
G36*
X124028190Y-76673652D02*
G01*
X124033015Y-76680984D01*
X124180540Y-77417703D01*
X124180540Y-77422297D01*
X124033015Y-78159015D01*
X124028031Y-78166455D01*
X124019434Y-78168226D01*
X122674290Y-77921757D01*
X122666770Y-77916896D01*
X122664699Y-77910249D01*
X122664699Y-76929750D01*
X122668126Y-76921477D01*
X122674288Y-76918243D01*
X124019435Y-76671773D01*
X124028190Y-76673652D01*
G37*
%TD.AperFunction*%
%TD*%
%TA.AperFunction,Conductor*%
%TO.N,GND*%
G36*
X111598471Y-59359915D02*
G01*
X111601717Y-59366139D01*
X111837506Y-60691629D01*
X111835581Y-60700374D01*
X111828284Y-60705150D01*
X111102297Y-60850539D01*
X111097703Y-60850539D01*
X110371715Y-60705150D01*
X110364275Y-60700166D01*
X110362493Y-60691629D01*
X110598283Y-59366139D01*
X110603106Y-59358594D01*
X110609802Y-59356488D01*
X111590198Y-59356488D01*
X111598471Y-59359915D01*
G37*
%TD.AperFunction*%
%TD*%
%TA.AperFunction,Conductor*%
%TO.N,GND*%
G36*
X111828284Y-56494849D02*
G01*
X111835724Y-56499833D01*
X111837506Y-56508370D01*
X111601717Y-57833861D01*
X111596894Y-57841406D01*
X111590198Y-57843512D01*
X110609802Y-57843512D01*
X110601529Y-57840085D01*
X110598283Y-57833861D01*
X110362493Y-56508370D01*
X110364418Y-56499625D01*
X110371713Y-56494849D01*
X111097703Y-56349460D01*
X111102297Y-56349460D01*
X111828284Y-56494849D01*
G37*
%TD.AperFunction*%
%TD*%
%TA.AperFunction,Conductor*%
%TO.N,GND*%
G36*
X107136619Y-77566507D02*
G01*
X107144058Y-77571489D01*
X107145796Y-77580274D01*
X107145220Y-77582239D01*
X106522974Y-79173979D01*
X106516770Y-79180436D01*
X106507817Y-79180616D01*
X106503804Y-79177992D01*
X105811969Y-78486157D01*
X105808717Y-78479898D01*
X105651663Y-77580492D01*
X105653616Y-77571754D01*
X105660895Y-77567008D01*
X106398418Y-77419750D01*
X106402996Y-77419750D01*
X107136619Y-77566507D01*
G37*
%TD.AperFunction*%
%TD*%
%TA.AperFunction,Conductor*%
%TO.N,GND*%
G36*
X125283861Y-55898283D02*
G01*
X125291406Y-55903106D01*
X125293512Y-55909802D01*
X125293512Y-56890197D01*
X125290085Y-56898470D01*
X125283861Y-56901716D01*
X123958370Y-57137506D01*
X123949625Y-57135581D01*
X123944849Y-57128284D01*
X123799460Y-56402297D01*
X123799460Y-56397703D01*
X123899476Y-55898283D01*
X123944849Y-55671713D01*
X123949833Y-55664275D01*
X123958369Y-55662493D01*
X125283861Y-55898283D01*
G37*
%TD.AperFunction*%
%TD*%
%TA.AperFunction,Conductor*%
%TO.N,GND*%
G36*
X137983861Y-55898283D02*
G01*
X137991406Y-55903106D01*
X137993512Y-55909802D01*
X137993512Y-56890197D01*
X137990085Y-56898470D01*
X137983861Y-56901716D01*
X136658370Y-57137506D01*
X136649625Y-57135581D01*
X136644849Y-57128284D01*
X136499460Y-56402297D01*
X136499460Y-56397703D01*
X136599476Y-55898283D01*
X136644849Y-55671713D01*
X136649833Y-55664275D01*
X136658369Y-55662493D01*
X137983861Y-55898283D01*
G37*
%TD.AperFunction*%
%TD*%
%TA.AperFunction,Conductor*%
%TO.N,GND*%
G36*
X124919015Y-77566984D02*
G01*
X124926455Y-77571968D01*
X124928226Y-77580565D01*
X124681757Y-78925710D01*
X124676896Y-78933230D01*
X124670249Y-78935301D01*
X123689751Y-78935301D01*
X123681478Y-78931874D01*
X123678243Y-78925710D01*
X123431773Y-77580565D01*
X123433652Y-77571809D01*
X123440983Y-77566984D01*
X124177708Y-77419459D01*
X124182292Y-77419459D01*
X124919015Y-77566984D01*
G37*
%TD.AperFunction*%
%TD*%
%TA.AperFunction,Conductor*%
%TO.N,GND*%
G36*
X69721396Y-61785636D02*
G01*
X70525392Y-62466981D01*
X70529488Y-62474944D01*
X70527567Y-62482391D01*
X70202008Y-62971353D01*
X70198753Y-62974608D01*
X69709791Y-63300167D01*
X69701006Y-63301899D01*
X69694381Y-63297992D01*
X69013036Y-62493996D01*
X69010302Y-62485469D01*
X69013688Y-62478160D01*
X69705560Y-61786288D01*
X69713832Y-61782862D01*
X69721396Y-61785636D01*
G37*
%TD.AperFunction*%
%TD*%
%TA.AperFunction,Conductor*%
%TO.N,GND*%
G36*
X98559310Y-55613989D02*
G01*
X99536439Y-55894135D01*
X99541487Y-55897109D01*
X100092527Y-56448149D01*
X100095954Y-56456422D01*
X100092527Y-56464695D01*
X100088633Y-56467271D01*
X98560182Y-57084230D01*
X98551228Y-57084149D01*
X98544954Y-57077760D01*
X98544330Y-57075676D01*
X98539765Y-57052860D01*
X98399750Y-56352996D01*
X98399750Y-56348418D01*
X98544610Y-55622943D01*
X98549591Y-55615503D01*
X98558375Y-55613762D01*
X98559310Y-55613989D01*
G37*
%TD.AperFunction*%
%TD*%
%TA.AperFunction,Conductor*%
%TO.N,GND*%
G36*
X76681261Y-62415056D02*
G01*
X76684943Y-62421486D01*
X76800538Y-62997699D01*
X76800538Y-63002301D01*
X76685048Y-63577990D01*
X76680061Y-63585428D01*
X76672319Y-63587321D01*
X75621971Y-63473729D01*
X75614114Y-63469433D01*
X75611529Y-63462097D01*
X75611529Y-62483652D01*
X75614956Y-62475379D01*
X75622562Y-62471971D01*
X76672808Y-62412106D01*
X76681261Y-62415056D01*
G37*
%TD.AperFunction*%
%TD*%
%TA.AperFunction,Conductor*%
%TO.N,GND*%
G36*
X71377734Y-62471713D02*
G01*
X71385697Y-62475809D01*
X71388471Y-62483373D01*
X71388471Y-63461826D01*
X71385044Y-63470099D01*
X71377734Y-63473486D01*
X70327438Y-63560213D01*
X70318911Y-63557479D01*
X70315004Y-63550854D01*
X70299483Y-63473486D01*
X70199461Y-62974897D01*
X70199461Y-62970302D01*
X70315004Y-62394343D01*
X70319991Y-62386907D01*
X70327436Y-62384986D01*
X71377734Y-62471713D01*
G37*
%TD.AperFunction*%
%TD*%
%TA.AperFunction,Conductor*%
%TO.N,GND*%
G36*
X61705876Y-60002669D02*
G01*
X62743331Y-60496823D01*
X62749327Y-60503475D01*
X62750000Y-60507386D01*
X62750000Y-61492613D01*
X62746573Y-61500886D01*
X62743331Y-61503176D01*
X61705878Y-61997329D01*
X61696936Y-61997793D01*
X61694918Y-61996853D01*
X60849636Y-61500000D01*
X60016159Y-61010086D01*
X60010764Y-61002940D01*
X60012002Y-60994071D01*
X60016158Y-60989914D01*
X61694920Y-60003145D01*
X61703787Y-60001908D01*
X61705876Y-60002669D01*
G37*
%TD.AperFunction*%
%TD*%
%TA.AperFunction,Conductor*%
%TO.N,GND*%
G36*
X109476022Y-53866456D02*
G01*
X109480445Y-53869764D01*
X110204032Y-54745500D01*
X110206660Y-54754059D01*
X110203286Y-54761224D01*
X109511404Y-55453106D01*
X109503131Y-55456533D01*
X109495469Y-55453675D01*
X108774882Y-54829266D01*
X108770875Y-54821260D01*
X108770993Y-54818573D01*
X108885741Y-54105825D01*
X108890439Y-54098203D01*
X108892931Y-54096828D01*
X109467068Y-53866358D01*
X109476022Y-53866456D01*
G37*
%TD.AperFunction*%
%TD*%
%TA.AperFunction,Conductor*%
%TO.N,GND*%
G36*
X110405518Y-54945985D02*
G01*
X111509510Y-55716518D01*
X111514333Y-55724063D01*
X111512551Y-55732600D01*
X111102006Y-56348757D01*
X111098757Y-56352006D01*
X110482600Y-56762551D01*
X110473815Y-56764286D01*
X110466518Y-56759510D01*
X109695985Y-55655518D01*
X109694060Y-55646773D01*
X109697304Y-55640551D01*
X110390550Y-54947305D01*
X110398822Y-54943879D01*
X110405518Y-54945985D01*
G37*
%TD.AperFunction*%
%TD*%
%TA.AperFunction,Conductor*%
%TO.N,/MISO*%
G36*
X116866034Y-146078359D02*
G01*
X117647706Y-146095813D01*
X117655900Y-146099424D01*
X117658808Y-146104727D01*
X117998316Y-147490945D01*
X117996956Y-147499796D01*
X117991417Y-147504542D01*
X117260365Y-147806380D01*
X117251410Y-147806370D01*
X117245285Y-147800486D01*
X116581683Y-146368504D01*
X116581315Y-146359558D01*
X116584025Y-146355315D01*
X116857557Y-146081783D01*
X116865829Y-146078357D01*
X116866034Y-146078359D01*
G37*
%TD.AperFunction*%
%TD*%
%TA.AperFunction,Conductor*%
%TO.N,/MISO*%
G36*
X119142256Y-146081601D02*
G01*
X119142443Y-146081784D01*
X119415972Y-146355313D01*
X119419399Y-146363586D01*
X119418315Y-146368505D01*
X118754715Y-147800485D01*
X118748127Y-147806551D01*
X118739634Y-147806380D01*
X118008582Y-147504542D01*
X118002243Y-147498218D01*
X118001683Y-147490947D01*
X118341192Y-146104724D01*
X118346487Y-146097506D01*
X118352291Y-146095813D01*
X119133910Y-146078360D01*
X119142256Y-146081601D01*
G37*
%TD.AperFunction*%
%TD*%
%TA.AperFunction,Conductor*%
%TO.N,/MISO*%
G36*
X112956874Y-66709938D02*
G01*
X112960410Y-66712837D01*
X113681179Y-67590946D01*
X113683779Y-67599515D01*
X113682980Y-67602760D01*
X113223543Y-68737608D01*
X113220971Y-68741490D01*
X112951000Y-69011461D01*
X112942727Y-69014888D01*
X112934454Y-69011461D01*
X112932392Y-69008672D01*
X112329315Y-67872176D01*
X112328464Y-67863262D01*
X112329322Y-67861196D01*
X112941044Y-66714751D01*
X112947962Y-66709066D01*
X112956874Y-66709938D01*
G37*
%TD.AperFunction*%
%TD*%
%TA.AperFunction,Conductor*%
%TO.N,/MISO*%
G36*
X113097209Y-134630192D02*
G01*
X113771467Y-134917211D01*
X114432039Y-135198404D01*
X114438309Y-135204797D01*
X114438221Y-135213752D01*
X114437193Y-135215657D01*
X114022006Y-135838757D01*
X114018757Y-135842006D01*
X113395657Y-136257193D01*
X113386872Y-136258928D01*
X113379432Y-136253944D01*
X113378404Y-136252039D01*
X112810193Y-134917211D01*
X112810105Y-134908256D01*
X112812683Y-134904357D01*
X113084356Y-134632684D01*
X113092628Y-134629258D01*
X113097209Y-134630192D01*
G37*
%TD.AperFunction*%
%TD*%
%TA.AperFunction,Conductor*%
%TO.N,/VDD*%
G36*
X117299015Y-77566984D02*
G01*
X117306455Y-77571968D01*
X117308226Y-77580565D01*
X117061757Y-78925710D01*
X117056896Y-78933230D01*
X117050249Y-78935301D01*
X116069751Y-78935301D01*
X116061478Y-78931874D01*
X116058243Y-78925710D01*
X115811773Y-77580565D01*
X115813652Y-77571809D01*
X115820983Y-77566984D01*
X116557708Y-77419459D01*
X116562292Y-77419459D01*
X117299015Y-77566984D01*
G37*
%TD.AperFunction*%
%TD*%
%TA.AperFunction,Conductor*%
%TO.N,/VDD*%
G36*
X97687417Y-147508406D02*
G01*
X97689048Y-147510037D01*
X98412183Y-148392163D01*
X98414778Y-148400733D01*
X98414658Y-148401607D01*
X98181702Y-149725916D01*
X98176894Y-149733470D01*
X98170179Y-149735589D01*
X97189821Y-149735589D01*
X97181548Y-149732162D01*
X97178298Y-149725916D01*
X96945341Y-148401607D01*
X96947283Y-148392865D01*
X96947801Y-148392181D01*
X97670952Y-147510036D01*
X97678847Y-147505811D01*
X97687417Y-147508406D01*
G37*
%TD.AperFunction*%
%TD*%
%TA.AperFunction,Conductor*%
%TO.N,/VDD*%
G36*
X115467417Y-147508406D02*
G01*
X115469048Y-147510037D01*
X116192183Y-148392163D01*
X116194778Y-148400733D01*
X116194658Y-148401607D01*
X115961702Y-149725916D01*
X115956894Y-149733470D01*
X115950179Y-149735589D01*
X114969821Y-149735589D01*
X114961548Y-149732162D01*
X114958298Y-149725916D01*
X114725341Y-148401607D01*
X114727283Y-148392865D01*
X114727801Y-148392181D01*
X115450952Y-147510036D01*
X115458847Y-147505811D01*
X115467417Y-147508406D01*
G37*
%TD.AperFunction*%
%TD*%
%TA.AperFunction,Conductor*%
%TO.N,/RST*%
G36*
X104166034Y-146078359D02*
G01*
X104947706Y-146095813D01*
X104955900Y-146099424D01*
X104958808Y-146104727D01*
X105298316Y-147490945D01*
X105296956Y-147499796D01*
X105291417Y-147504542D01*
X104560365Y-147806380D01*
X104551410Y-147806370D01*
X104545285Y-147800486D01*
X103881683Y-146368504D01*
X103881315Y-146359558D01*
X103884025Y-146355315D01*
X104157557Y-146081783D01*
X104165829Y-146078357D01*
X104166034Y-146078359D01*
G37*
%TD.AperFunction*%
%TD*%
%TA.AperFunction,Conductor*%
%TO.N,/RST*%
G36*
X120717209Y-134630192D02*
G01*
X121391467Y-134917211D01*
X122052039Y-135198404D01*
X122058309Y-135204797D01*
X122058221Y-135213752D01*
X122057193Y-135215657D01*
X121642006Y-135838757D01*
X121638757Y-135842006D01*
X121015657Y-136257193D01*
X121006872Y-136258928D01*
X120999432Y-136253944D01*
X120998404Y-136252039D01*
X120430193Y-134917211D01*
X120430105Y-134908256D01*
X120432683Y-134904357D01*
X120704356Y-134632684D01*
X120712628Y-134629258D01*
X120717209Y-134630192D01*
G37*
%TD.AperFunction*%
%TD*%
%TA.AperFunction,Conductor*%
%TO.N,/CS*%
G36*
X102198182Y-145363918D02*
G01*
X103043768Y-146069095D01*
X103047927Y-146077025D01*
X103047743Y-146080398D01*
X102762298Y-147492834D01*
X102757300Y-147500264D01*
X102752788Y-147502051D01*
X102022962Y-147625927D01*
X102014232Y-147623933D01*
X102009469Y-147616350D01*
X102009321Y-147615007D01*
X101907400Y-145645112D01*
X101910394Y-145636675D01*
X101910791Y-145636257D01*
X102182418Y-145364630D01*
X102190690Y-145361204D01*
X102198182Y-145363918D01*
G37*
%TD.AperFunction*%
%TD*%
%TA.AperFunction,Conductor*%
%TO.N,/CS*%
G36*
X118177209Y-134630192D02*
G01*
X118851467Y-134917211D01*
X119512039Y-135198404D01*
X119518309Y-135204797D01*
X119518221Y-135213752D01*
X119517193Y-135215657D01*
X119102006Y-135838757D01*
X119098757Y-135842006D01*
X118475657Y-136257193D01*
X118466872Y-136258928D01*
X118459432Y-136253944D01*
X118458404Y-136252039D01*
X117890193Y-134917211D01*
X117890105Y-134908256D01*
X117892683Y-134904357D01*
X118164356Y-134632684D01*
X118172628Y-134629258D01*
X118177209Y-134630192D01*
G37*
%TD.AperFunction*%
%TD*%
%TA.AperFunction,Conductor*%
%TO.N,Net-(U11B-GND_S2-Pad10_20)*%
G36*
X120717209Y-137170192D02*
G01*
X121391467Y-137457211D01*
X122052039Y-137738404D01*
X122058309Y-137744797D01*
X122058221Y-137753752D01*
X122057193Y-137755657D01*
X121642006Y-138378757D01*
X121638757Y-138382006D01*
X121015657Y-138797193D01*
X121006872Y-138798928D01*
X120999432Y-138793944D01*
X120998404Y-138792039D01*
X120430193Y-137457211D01*
X120430105Y-137448256D01*
X120432683Y-137444357D01*
X120704356Y-137172684D01*
X120712628Y-137169258D01*
X120717209Y-137170192D01*
G37*
%TD.AperFunction*%
%TD*%
%TA.AperFunction,Conductor*%
%TO.N,Net-(U11B-GND_S2-Pad10_20)*%
G36*
X109580567Y-135426055D02*
G01*
X109581595Y-135427960D01*
X110149806Y-136762788D01*
X110149894Y-136771743D01*
X110147314Y-136775644D01*
X109875644Y-137047314D01*
X109867371Y-137050741D01*
X109862788Y-137049806D01*
X108527960Y-136481595D01*
X108521690Y-136475202D01*
X108521778Y-136466247D01*
X108522806Y-136464342D01*
X108937996Y-135841238D01*
X108941238Y-135837996D01*
X109564342Y-135422805D01*
X109573127Y-135421071D01*
X109580567Y-135426055D01*
G37*
%TD.AperFunction*%
%TD*%
%TA.AperFunction,Conductor*%
%TO.N,/SW2*%
G36*
X105325715Y-60994335D02*
G01*
X105333154Y-60999318D01*
X105334889Y-61008103D01*
X105334278Y-61010158D01*
X104802944Y-62336164D01*
X104796685Y-62342569D01*
X104792083Y-62343512D01*
X104407917Y-62343512D01*
X104399644Y-62340085D01*
X104397056Y-62336164D01*
X103865721Y-61010158D01*
X103865825Y-61001204D01*
X103872230Y-60994945D01*
X103874275Y-60994336D01*
X104597703Y-60849460D01*
X104602297Y-60849460D01*
X105325715Y-60994335D01*
G37*
%TD.AperFunction*%
%TD*%
%TA.AperFunction,Conductor*%
%TO.N,/SW2*%
G36*
X137520567Y-77006055D02*
G01*
X137521595Y-77007960D01*
X138089806Y-78342788D01*
X138089894Y-78351743D01*
X138087314Y-78355644D01*
X137815644Y-78627314D01*
X137807371Y-78630741D01*
X137802788Y-78629806D01*
X136467960Y-78061595D01*
X136461690Y-78055202D01*
X136461778Y-78046247D01*
X136462806Y-78044342D01*
X136877996Y-77421238D01*
X136881238Y-77417996D01*
X137504342Y-77002805D01*
X137513127Y-77001071D01*
X137520567Y-77006055D01*
G37*
%TD.AperFunction*%
%TD*%
%TA.AperFunction,Conductor*%
%TO.N,/SW2*%
G36*
X106232932Y-53866357D02*
G01*
X106807066Y-54096828D01*
X106813467Y-54103090D01*
X106814258Y-54105826D01*
X106929006Y-54818565D01*
X106926938Y-54827278D01*
X106925117Y-54829267D01*
X106204530Y-55453675D01*
X106196033Y-55456503D01*
X106188595Y-55453106D01*
X105496713Y-54761224D01*
X105493286Y-54752951D01*
X105495965Y-54745502D01*
X106219555Y-53869762D01*
X106227465Y-53865568D01*
X106232932Y-53866357D01*
G37*
%TD.AperFunction*%
%TD*%
%TA.AperFunction,Conductor*%
%TO.N,/SW2*%
G36*
X105540600Y-54716284D02*
G01*
X106233715Y-55409399D01*
X106237142Y-55417672D01*
X106234974Y-55424456D01*
X105359395Y-56654735D01*
X105351806Y-56659488D01*
X105345398Y-56658765D01*
X104603786Y-56352562D01*
X104597448Y-56346239D01*
X104291234Y-55604600D01*
X104291244Y-55595646D01*
X104295262Y-55590605D01*
X105525546Y-54715024D01*
X105534270Y-54713020D01*
X105540600Y-54716284D01*
G37*
%TD.AperFunction*%
%TD*%
%TA.AperFunction,Conductor*%
%TO.N,/SW2*%
G36*
X105098471Y-59359915D02*
G01*
X105101717Y-59366139D01*
X105337506Y-60691629D01*
X105335581Y-60700374D01*
X105328284Y-60705150D01*
X104602297Y-60850539D01*
X104597703Y-60850539D01*
X103871715Y-60705150D01*
X103864275Y-60700166D01*
X103862493Y-60691629D01*
X104098283Y-59366139D01*
X104103106Y-59358594D01*
X104109802Y-59356488D01*
X105090198Y-59356488D01*
X105098471Y-59359915D01*
G37*
%TD.AperFunction*%
%TD*%
%TA.AperFunction,Conductor*%
%TO.N,/SW2*%
G36*
X104608266Y-56357277D02*
G01*
X105016712Y-56766264D01*
X105348875Y-57098869D01*
X105352296Y-57107145D01*
X105351684Y-57110872D01*
X105102683Y-57850035D01*
X105096794Y-57856781D01*
X105091595Y-57858000D01*
X104108405Y-57858000D01*
X104100132Y-57854573D01*
X104097317Y-57850035D01*
X103848315Y-57110872D01*
X103848922Y-57101938D01*
X103851124Y-57098869D01*
X104591722Y-56357288D01*
X104599992Y-56353857D01*
X104608266Y-56357277D01*
G37*
%TD.AperFunction*%
%TD*%
%TA.AperFunction,Conductor*%
%TO.N,/SW4*%
G36*
X130940600Y-54766284D02*
G01*
X131633715Y-55459399D01*
X131637142Y-55467672D01*
X131634974Y-55474456D01*
X130759395Y-56704735D01*
X130751806Y-56709488D01*
X130745398Y-56708765D01*
X130003786Y-56402562D01*
X129997448Y-56396239D01*
X129691234Y-55654600D01*
X129691244Y-55645646D01*
X129695262Y-55640605D01*
X130925546Y-54765024D01*
X130934270Y-54763020D01*
X130940600Y-54766284D01*
G37*
%TD.AperFunction*%
%TD*%
%TA.AperFunction,Conductor*%
%TO.N,/SW4*%
G36*
X131582790Y-54007687D02*
G01*
X131590305Y-54010815D01*
X132157038Y-54246725D01*
X132163358Y-54253067D01*
X132164129Y-54255910D01*
X132263481Y-54968499D01*
X132261229Y-54977166D01*
X132259311Y-54979162D01*
X131537916Y-55570666D01*
X131529346Y-55573262D01*
X131522225Y-55569892D01*
X130830326Y-54877993D01*
X130826899Y-54869720D01*
X130829768Y-54862046D01*
X131356483Y-54255910D01*
X131569464Y-54010814D01*
X131577476Y-54006818D01*
X131582790Y-54007687D01*
G37*
%TD.AperFunction*%
%TD*%
%TA.AperFunction,Conductor*%
%TO.N,/SW4*%
G36*
X131804724Y-77421984D02*
G01*
X132426518Y-77838608D01*
X132431483Y-77846060D01*
X132429835Y-77854674D01*
X131712185Y-78966341D01*
X131704819Y-78971433D01*
X131696009Y-78969825D01*
X131694082Y-78968268D01*
X131423451Y-78697637D01*
X131420614Y-78693031D01*
X131053842Y-77581796D01*
X131054503Y-77572866D01*
X131061285Y-77567019D01*
X131062646Y-77566658D01*
X131795942Y-77420244D01*
X131804724Y-77421984D01*
G37*
%TD.AperFunction*%
%TD*%
%TA.AperFunction,Conductor*%
%TO.N,/SW4*%
G36*
X129382895Y-60487882D02*
G01*
X129384781Y-60488902D01*
X129998759Y-60897995D01*
X130002006Y-60901242D01*
X130411097Y-61515218D01*
X130412832Y-61524003D01*
X130407848Y-61531443D01*
X130405962Y-61532463D01*
X129092626Y-62094379D01*
X129083672Y-62094483D01*
X129079751Y-62091895D01*
X128808104Y-61820248D01*
X128804677Y-61811975D01*
X128805619Y-61807377D01*
X129367537Y-60494035D01*
X129373941Y-60487778D01*
X129382895Y-60487882D01*
G37*
%TD.AperFunction*%
%TD*%
%TA.AperFunction,Conductor*%
%TO.N,/SW4*%
G36*
X130008266Y-56407277D02*
G01*
X130416712Y-56816264D01*
X130748875Y-57148869D01*
X130752296Y-57157145D01*
X130751684Y-57160872D01*
X130502683Y-57900035D01*
X130496794Y-57906781D01*
X130491595Y-57908000D01*
X129508405Y-57908000D01*
X129500132Y-57904573D01*
X129497317Y-57900035D01*
X129248315Y-57160872D01*
X129248922Y-57151938D01*
X129251124Y-57148869D01*
X129991722Y-56407288D01*
X129999992Y-56403857D01*
X130008266Y-56407277D01*
G37*
%TD.AperFunction*%
%TD*%
%TA.AperFunction,Conductor*%
%TO.N,/SW4*%
G36*
X130498471Y-59409915D02*
G01*
X130501717Y-59416139D01*
X130737506Y-60741629D01*
X130735581Y-60750374D01*
X130728284Y-60755150D01*
X130002297Y-60900539D01*
X129997703Y-60900539D01*
X129271715Y-60755150D01*
X129264275Y-60750166D01*
X129262493Y-60741629D01*
X129498283Y-59416139D01*
X129503106Y-59408594D01*
X129509802Y-59406488D01*
X130490198Y-59406488D01*
X130498471Y-59409915D01*
G37*
%TD.AperFunction*%
%TD*%
%TA.AperFunction,Conductor*%
%TO.N,/S1*%
G36*
X98626635Y-76675054D02*
G01*
X98632905Y-76681447D01*
X98633524Y-76683522D01*
X98780540Y-77417703D01*
X98780540Y-77422297D01*
X98633524Y-78156477D01*
X98628540Y-78163917D01*
X98619755Y-78165652D01*
X98617680Y-78165033D01*
X97272027Y-77622952D01*
X97265634Y-77616682D01*
X97264699Y-77612099D01*
X97264699Y-77227900D01*
X97268126Y-77219627D01*
X97272023Y-77217049D01*
X98617681Y-76674966D01*
X98626635Y-76675054D01*
G37*
%TD.AperFunction*%
%TD*%
%TA.AperFunction,Conductor*%
%TO.N,/S1*%
G36*
X57515199Y-111813118D02*
G01*
X57786721Y-112084640D01*
X57790148Y-112092913D01*
X57789094Y-112097766D01*
X57054714Y-113708734D01*
X57048164Y-113714841D01*
X57039526Y-113714663D01*
X56203772Y-113362594D01*
X56197478Y-113356224D01*
X56197469Y-113356203D01*
X55859190Y-112520662D01*
X55859262Y-112511710D01*
X55865462Y-112505504D01*
X57502356Y-111810620D01*
X57511309Y-111810543D01*
X57515199Y-111813118D01*
G37*
%TD.AperFunction*%
%TD*%
%TA.AperFunction,Conductor*%
%TO.N,/S2*%
G36*
X55733119Y-117741247D02*
G01*
X55910868Y-118006704D01*
X56196640Y-118433490D01*
X56198395Y-118442271D01*
X56196640Y-118446510D01*
X55733121Y-119138750D01*
X55725670Y-119143717D01*
X55718884Y-119143034D01*
X54523518Y-118643005D01*
X54517208Y-118636651D01*
X54516333Y-118632211D01*
X54516333Y-118247788D01*
X54519760Y-118239515D01*
X54523516Y-118236995D01*
X55718886Y-117736964D01*
X55727839Y-117736934D01*
X55733119Y-117741247D01*
G37*
%TD.AperFunction*%
%TD*%
%TA.AperFunction,Conductor*%
%TO.N,/S2*%
G36*
X101520372Y-73368126D02*
G01*
X101522952Y-73372027D01*
X102065033Y-74717680D01*
X102064945Y-74726635D01*
X102058552Y-74732905D01*
X102056477Y-74733524D01*
X101322297Y-74880540D01*
X101317703Y-74880540D01*
X100583521Y-74733523D01*
X100576082Y-74728540D01*
X100574347Y-74719755D01*
X100574964Y-74717684D01*
X101117048Y-73372027D01*
X101123318Y-73365634D01*
X101127901Y-73364699D01*
X101512099Y-73364699D01*
X101520372Y-73368126D01*
G37*
%TD.AperFunction*%
%TD*%
%TA.AperFunction,Conductor*%
%TO.N,/S0*%
G36*
X98022121Y-74122112D02*
G01*
X98772710Y-74871721D01*
X98776142Y-74879992D01*
X98772721Y-74888268D01*
X98772710Y-74888279D01*
X98022121Y-75637887D01*
X98013845Y-75641308D01*
X98006902Y-75639019D01*
X97254749Y-75083507D01*
X97250130Y-75075836D01*
X97250000Y-75074096D01*
X97250000Y-74685903D01*
X97253427Y-74677630D01*
X97254744Y-74676496D01*
X98006903Y-74120979D01*
X98015593Y-74118821D01*
X98022121Y-74122112D01*
G37*
%TD.AperFunction*%
%TD*%
%TA.AperFunction,Conductor*%
%TO.N,/S0*%
G36*
X55733166Y-115201331D02*
G01*
X56196355Y-115894198D01*
X56198104Y-115902980D01*
X56196349Y-115907211D01*
X55733663Y-116597943D01*
X55726211Y-116602910D01*
X55718421Y-116601748D01*
X54442608Y-115918988D01*
X54436931Y-115912063D01*
X54437813Y-115903151D01*
X54439853Y-115900402D01*
X54709958Y-115630297D01*
X54713617Y-115627820D01*
X55718831Y-115197078D01*
X55727785Y-115196970D01*
X55733166Y-115201331D01*
G37*
%TD.AperFunction*%
%TD*%
%TA.AperFunction,Conductor*%
%TO.N,/SW1*%
G36*
X91908266Y-56357277D02*
G01*
X92648199Y-57098191D01*
X92651620Y-57106467D01*
X92650511Y-57111431D01*
X92303159Y-57851272D01*
X92296541Y-57857305D01*
X92292568Y-57858000D01*
X91507432Y-57858000D01*
X91499159Y-57854573D01*
X91496841Y-57851272D01*
X91149487Y-57111429D01*
X91149074Y-57102486D01*
X91151797Y-57098194D01*
X91891722Y-56357288D01*
X91899992Y-56353857D01*
X91908266Y-56357277D01*
G37*
%TD.AperFunction*%
%TD*%
%TA.AperFunction,Conductor*%
%TO.N,/SW1*%
G36*
X92299157Y-59359915D02*
G01*
X92302229Y-59365327D01*
X92636506Y-60690982D01*
X92635206Y-60699842D01*
X92628022Y-60705188D01*
X92627458Y-60705315D01*
X91902297Y-60850539D01*
X91897703Y-60850539D01*
X91172541Y-60705315D01*
X91165101Y-60700331D01*
X91163366Y-60691546D01*
X91163486Y-60691009D01*
X91497771Y-59365326D01*
X91503117Y-59358143D01*
X91509116Y-59356488D01*
X92290884Y-59356488D01*
X92299157Y-59359915D01*
G37*
%TD.AperFunction*%
%TD*%
%TA.AperFunction,Conductor*%
%TO.N,/SW1*%
G36*
X140060567Y-77006055D02*
G01*
X140061595Y-77007960D01*
X140629806Y-78342788D01*
X140629894Y-78351743D01*
X140627314Y-78355644D01*
X140355644Y-78627314D01*
X140347371Y-78630741D01*
X140342788Y-78629806D01*
X139007960Y-78061595D01*
X139001690Y-78055202D01*
X139001778Y-78046247D01*
X139002806Y-78044342D01*
X139417996Y-77421238D01*
X139421238Y-77417996D01*
X140044342Y-77002805D01*
X140053127Y-77001071D01*
X140060567Y-77006055D01*
G37*
%TD.AperFunction*%
%TD*%
%TA.AperFunction,Conductor*%
%TO.N,/SW1*%
G36*
X92910870Y-54786554D02*
G01*
X93463445Y-55339129D01*
X93466872Y-55347402D01*
X93465117Y-55353565D01*
X92659231Y-56653876D01*
X92651960Y-56659103D01*
X92644821Y-56658527D01*
X91903786Y-56352562D01*
X91897448Y-56346239D01*
X91591472Y-55605176D01*
X91591482Y-55596223D01*
X91596120Y-55590770D01*
X92896436Y-54784881D01*
X92905271Y-54783437D01*
X92910870Y-54786554D01*
G37*
%TD.AperFunction*%
%TD*%
%TA.AperFunction,Conductor*%
%TO.N,/SW1*%
G36*
X93533663Y-53866650D02*
G01*
X94014962Y-54059855D01*
X94107066Y-54096828D01*
X94113467Y-54103090D01*
X94114258Y-54105826D01*
X94228878Y-54817773D01*
X94226810Y-54826486D01*
X94224052Y-54829207D01*
X93433632Y-55384446D01*
X93424893Y-55386397D01*
X93418634Y-55383145D01*
X92866804Y-54831315D01*
X92863377Y-54823042D01*
X92865455Y-54816386D01*
X93519687Y-53870851D01*
X93527211Y-53865998D01*
X93533663Y-53866650D01*
G37*
%TD.AperFunction*%
%TD*%
%TA.AperFunction,Conductor*%
%TO.N,/SW1*%
G36*
X92531443Y-60442151D02*
G01*
X92532463Y-60444037D01*
X93094379Y-61757373D01*
X93094483Y-61766327D01*
X93091895Y-61770248D01*
X92820248Y-62041895D01*
X92811975Y-62045322D01*
X92807373Y-62044379D01*
X91494037Y-61482463D01*
X91487778Y-61476058D01*
X91487882Y-61467104D01*
X91488902Y-61465218D01*
X91897997Y-60851237D01*
X91901237Y-60847997D01*
X92515218Y-60438901D01*
X92524003Y-60437167D01*
X92531443Y-60442151D01*
G37*
%TD.AperFunction*%
%TD*%
%TA.AperFunction,Conductor*%
%TO.N,/SW3*%
G36*
X116682895Y-60487882D02*
G01*
X116684781Y-60488902D01*
X117298759Y-60897995D01*
X117302006Y-60901242D01*
X117711097Y-61515218D01*
X117712832Y-61524003D01*
X117707848Y-61531443D01*
X117705962Y-61532463D01*
X116392626Y-62094379D01*
X116383672Y-62094483D01*
X116379751Y-62091895D01*
X116108104Y-61820248D01*
X116104677Y-61811975D01*
X116105619Y-61807377D01*
X116667537Y-60494035D01*
X116673941Y-60487778D01*
X116682895Y-60487882D01*
G37*
%TD.AperFunction*%
%TD*%
%TA.AperFunction,Conductor*%
%TO.N,/SW3*%
G36*
X117308266Y-56407277D02*
G01*
X117716712Y-56816264D01*
X118048875Y-57148869D01*
X118052296Y-57157145D01*
X118051684Y-57160872D01*
X117802683Y-57900035D01*
X117796794Y-57906781D01*
X117791595Y-57908000D01*
X116808405Y-57908000D01*
X116800132Y-57904573D01*
X116797317Y-57900035D01*
X116548315Y-57160872D01*
X116548922Y-57151938D01*
X116551124Y-57148869D01*
X117291722Y-56407288D01*
X117299992Y-56403857D01*
X117308266Y-56407277D01*
G37*
%TD.AperFunction*%
%TD*%
%TA.AperFunction,Conductor*%
%TO.N,/SW3*%
G36*
X117798471Y-59409915D02*
G01*
X117801717Y-59416139D01*
X118037506Y-60741629D01*
X118035581Y-60750374D01*
X118028284Y-60755150D01*
X117302297Y-60900539D01*
X117297703Y-60900539D01*
X116571715Y-60755150D01*
X116564275Y-60750166D01*
X116562493Y-60741629D01*
X116798283Y-59416139D01*
X116803106Y-59408594D01*
X116809802Y-59406488D01*
X117790198Y-59406488D01*
X117798471Y-59409915D01*
G37*
%TD.AperFunction*%
%TD*%
%TA.AperFunction,Conductor*%
%TO.N,/SW3*%
G36*
X134980567Y-77006055D02*
G01*
X134981595Y-77007960D01*
X135549806Y-78342788D01*
X135549894Y-78351743D01*
X135547314Y-78355644D01*
X135275644Y-78627314D01*
X135267371Y-78630741D01*
X135262788Y-78629806D01*
X133927960Y-78061595D01*
X133921690Y-78055202D01*
X133921778Y-78046247D01*
X133922806Y-78044342D01*
X134337996Y-77421238D01*
X134341238Y-77417996D01*
X134964342Y-77002805D01*
X134973127Y-77001071D01*
X134980567Y-77006055D01*
G37*
%TD.AperFunction*%
%TD*%
%TA.AperFunction,Conductor*%
%TO.N,/SW3*%
G36*
X118240600Y-54766284D02*
G01*
X118933715Y-55459399D01*
X118937142Y-55467672D01*
X118934974Y-55474456D01*
X118059395Y-56704735D01*
X118051806Y-56709488D01*
X118045398Y-56708765D01*
X117303786Y-56402562D01*
X117297448Y-56396239D01*
X116991234Y-55654600D01*
X116991244Y-55645646D01*
X116995262Y-55640605D01*
X118225546Y-54765024D01*
X118234270Y-54763020D01*
X118240600Y-54766284D01*
G37*
%TD.AperFunction*%
%TD*%
%TA.AperFunction,Conductor*%
%TO.N,/SW3*%
G36*
X118870189Y-54050970D02*
G01*
X119444514Y-54296644D01*
X119450773Y-54303048D01*
X119451526Y-54305977D01*
X119538882Y-55018442D01*
X119536487Y-55027071D01*
X119534486Y-55029075D01*
X118819157Y-55589714D01*
X118810532Y-55592120D01*
X118803667Y-55588778D01*
X118111747Y-54896858D01*
X118108320Y-54888585D01*
X118111330Y-54880751D01*
X118856900Y-54053891D01*
X118864984Y-54050043D01*
X118870189Y-54050970D01*
G37*
%TD.AperFunction*%
%TD*%
M02*
