%TF.GenerationSoftware,KiCad,Pcbnew,9.0.6*%
%TF.CreationDate,2025-11-14T23:18:00+01:00*%
%TF.ProjectId,uC_screen_power,75435f73-6372-4656-956e-5f706f776572,1*%
%TF.SameCoordinates,Original*%
%TF.FileFunction,Legend,Top*%
%TF.FilePolarity,Positive*%
%FSLAX46Y46*%
G04 Gerber Fmt 4.6, Leading zero omitted, Abs format (unit mm)*
G04 Created by KiCad (PCBNEW 9.0.6) date 2025-11-14 23:18:00*
%MOMM*%
%LPD*%
G01*
G04 APERTURE LIST*
G04 Aperture macros list*
%AMRoundRect*
0 Rectangle with rounded corners*
0 $1 Rounding radius*
0 $2 $3 $4 $5 $6 $7 $8 $9 X,Y pos of 4 corners*
0 Add a 4 corners polygon primitive as box body*
4,1,4,$2,$3,$4,$5,$6,$7,$8,$9,$2,$3,0*
0 Add four circle primitives for the rounded corners*
1,1,$1+$1,$2,$3*
1,1,$1+$1,$4,$5*
1,1,$1+$1,$6,$7*
1,1,$1+$1,$8,$9*
0 Add four rect primitives between the rounded corners*
20,1,$1+$1,$2,$3,$4,$5,0*
20,1,$1+$1,$4,$5,$6,$7,0*
20,1,$1+$1,$6,$7,$8,$9,0*
20,1,$1+$1,$8,$9,$2,$3,0*%
G04 Aperture macros list end*
%ADD10C,0.200000*%
%ADD11C,0.150000*%
%ADD12C,0.120000*%
%ADD13C,0.100000*%
%ADD14C,0.000000*%
%ADD15C,0.127000*%
%ADD16RoundRect,0.250000X0.350000X-0.350000X0.350000X0.350000X-0.350000X0.350000X-0.350000X-0.350000X0*%
%ADD17C,1.200000*%
%ADD18O,1.500000X3.000000*%
%ADD19RoundRect,0.250000X-0.337500X-0.475000X0.337500X-0.475000X0.337500X0.475000X-0.337500X0.475000X0*%
%ADD20RoundRect,0.102000X-0.754000X-0.754000X0.754000X-0.754000X0.754000X0.754000X-0.754000X0.754000X0*%
%ADD21C,1.712000*%
%ADD22R,1.700000X1.700000*%
%ADD23C,1.700000*%
%ADD24R,3.500000X3.500000*%
%ADD25RoundRect,0.750000X-1.000000X0.750000X-1.000000X-0.750000X1.000000X-0.750000X1.000000X0.750000X0*%
%ADD26RoundRect,0.875000X-0.875000X0.875000X-0.875000X-0.875000X0.875000X-0.875000X0.875000X0.875000X0*%
%ADD27C,3.000000*%
%ADD28RoundRect,0.102000X-0.802500X0.802500X-0.802500X-0.802500X0.802500X-0.802500X0.802500X0.802500X0*%
%ADD29C,1.809000*%
%ADD30RoundRect,0.102000X-0.765000X0.765000X-0.765000X-0.765000X0.765000X-0.765000X0.765000X0.765000X0*%
%ADD31C,1.734000*%
G04 APERTURE END LIST*
D10*
X81722054Y-61203740D02*
X81722054Y-60403740D01*
X82179197Y-61203740D02*
X81836339Y-60746597D01*
X82179197Y-60403740D02*
X81722054Y-60860883D01*
X82522054Y-61203740D02*
X82522054Y-60670406D01*
X82522054Y-60822787D02*
X82560149Y-60746597D01*
X82560149Y-60746597D02*
X82598244Y-60708502D01*
X82598244Y-60708502D02*
X82674435Y-60670406D01*
X82674435Y-60670406D02*
X82750625Y-60670406D01*
X82941101Y-60670406D02*
X83131577Y-61203740D01*
X83322054Y-60670406D02*
X83131577Y-61203740D01*
X83131577Y-61203740D02*
X83055387Y-61394216D01*
X83055387Y-61394216D02*
X83017292Y-61432311D01*
X83017292Y-61432311D02*
X82941101Y-61470406D01*
X83588720Y-61165645D02*
X83664911Y-61203740D01*
X83664911Y-61203740D02*
X83817292Y-61203740D01*
X83817292Y-61203740D02*
X83893482Y-61165645D01*
X83893482Y-61165645D02*
X83931578Y-61089454D01*
X83931578Y-61089454D02*
X83931578Y-61051359D01*
X83931578Y-61051359D02*
X83893482Y-60975168D01*
X83893482Y-60975168D02*
X83817292Y-60937073D01*
X83817292Y-60937073D02*
X83703006Y-60937073D01*
X83703006Y-60937073D02*
X83626816Y-60898978D01*
X83626816Y-60898978D02*
X83588720Y-60822787D01*
X83588720Y-60822787D02*
X83588720Y-60784692D01*
X83588720Y-60784692D02*
X83626816Y-60708502D01*
X83626816Y-60708502D02*
X83703006Y-60670406D01*
X83703006Y-60670406D02*
X83817292Y-60670406D01*
X83817292Y-60670406D02*
X83893482Y-60708502D01*
X84160149Y-60670406D02*
X84464911Y-60670406D01*
X84274435Y-60403740D02*
X84274435Y-61089454D01*
X84274435Y-61089454D02*
X84312530Y-61165645D01*
X84312530Y-61165645D02*
X84388720Y-61203740D01*
X84388720Y-61203740D02*
X84464911Y-61203740D01*
X84731578Y-61203740D02*
X84731578Y-60670406D01*
X84731578Y-60403740D02*
X84693482Y-60441835D01*
X84693482Y-60441835D02*
X84731578Y-60479930D01*
X84731578Y-60479930D02*
X84769673Y-60441835D01*
X84769673Y-60441835D02*
X84731578Y-60403740D01*
X84731578Y-60403740D02*
X84731578Y-60479930D01*
X85455387Y-61203740D02*
X85455387Y-60784692D01*
X85455387Y-60784692D02*
X85417292Y-60708502D01*
X85417292Y-60708502D02*
X85341101Y-60670406D01*
X85341101Y-60670406D02*
X85188720Y-60670406D01*
X85188720Y-60670406D02*
X85112530Y-60708502D01*
X85455387Y-61165645D02*
X85379196Y-61203740D01*
X85379196Y-61203740D02*
X85188720Y-61203740D01*
X85188720Y-61203740D02*
X85112530Y-61165645D01*
X85112530Y-61165645D02*
X85074434Y-61089454D01*
X85074434Y-61089454D02*
X85074434Y-61013264D01*
X85074434Y-61013264D02*
X85112530Y-60937073D01*
X85112530Y-60937073D02*
X85188720Y-60898978D01*
X85188720Y-60898978D02*
X85379196Y-60898978D01*
X85379196Y-60898978D02*
X85455387Y-60860883D01*
X85836340Y-60670406D02*
X85836340Y-61203740D01*
X85836340Y-60746597D02*
X85874435Y-60708502D01*
X85874435Y-60708502D02*
X85950625Y-60670406D01*
X85950625Y-60670406D02*
X86064911Y-60670406D01*
X86064911Y-60670406D02*
X86141102Y-60708502D01*
X86141102Y-60708502D02*
X86179197Y-60784692D01*
X86179197Y-60784692D02*
X86179197Y-61203740D01*
X81988720Y-62072647D02*
X82103006Y-62110742D01*
X82103006Y-62110742D02*
X82141101Y-62148838D01*
X82141101Y-62148838D02*
X82179197Y-62225028D01*
X82179197Y-62225028D02*
X82179197Y-62339314D01*
X82179197Y-62339314D02*
X82141101Y-62415504D01*
X82141101Y-62415504D02*
X82103006Y-62453600D01*
X82103006Y-62453600D02*
X82026816Y-62491695D01*
X82026816Y-62491695D02*
X81722054Y-62491695D01*
X81722054Y-62491695D02*
X81722054Y-61691695D01*
X81722054Y-61691695D02*
X81988720Y-61691695D01*
X81988720Y-61691695D02*
X82064911Y-61729790D01*
X82064911Y-61729790D02*
X82103006Y-61767885D01*
X82103006Y-61767885D02*
X82141101Y-61844076D01*
X82141101Y-61844076D02*
X82141101Y-61920266D01*
X82141101Y-61920266D02*
X82103006Y-61996457D01*
X82103006Y-61996457D02*
X82064911Y-62034552D01*
X82064911Y-62034552D02*
X81988720Y-62072647D01*
X81988720Y-62072647D02*
X81722054Y-62072647D01*
X82864911Y-62491695D02*
X82864911Y-62072647D01*
X82864911Y-62072647D02*
X82826816Y-61996457D01*
X82826816Y-61996457D02*
X82750625Y-61958361D01*
X82750625Y-61958361D02*
X82598244Y-61958361D01*
X82598244Y-61958361D02*
X82522054Y-61996457D01*
X82864911Y-62453600D02*
X82788720Y-62491695D01*
X82788720Y-62491695D02*
X82598244Y-62491695D01*
X82598244Y-62491695D02*
X82522054Y-62453600D01*
X82522054Y-62453600D02*
X82483958Y-62377409D01*
X82483958Y-62377409D02*
X82483958Y-62301219D01*
X82483958Y-62301219D02*
X82522054Y-62225028D01*
X82522054Y-62225028D02*
X82598244Y-62186933D01*
X82598244Y-62186933D02*
X82788720Y-62186933D01*
X82788720Y-62186933D02*
X82864911Y-62148838D01*
X83245864Y-61958361D02*
X83245864Y-62644076D01*
X83245864Y-62644076D02*
X83207768Y-62720266D01*
X83207768Y-62720266D02*
X83131578Y-62758361D01*
X83131578Y-62758361D02*
X83093483Y-62758361D01*
X83245864Y-61691695D02*
X83207768Y-61729790D01*
X83207768Y-61729790D02*
X83245864Y-61767885D01*
X83245864Y-61767885D02*
X83283959Y-61729790D01*
X83283959Y-61729790D02*
X83245864Y-61691695D01*
X83245864Y-61691695D02*
X83245864Y-61767885D01*
X83931578Y-62453600D02*
X83855387Y-62491695D01*
X83855387Y-62491695D02*
X83703006Y-62491695D01*
X83703006Y-62491695D02*
X83626816Y-62453600D01*
X83626816Y-62453600D02*
X83588720Y-62377409D01*
X83588720Y-62377409D02*
X83588720Y-62072647D01*
X83588720Y-62072647D02*
X83626816Y-61996457D01*
X83626816Y-61996457D02*
X83703006Y-61958361D01*
X83703006Y-61958361D02*
X83855387Y-61958361D01*
X83855387Y-61958361D02*
X83931578Y-61996457D01*
X83931578Y-61996457D02*
X83969673Y-62072647D01*
X83969673Y-62072647D02*
X83969673Y-62148838D01*
X83969673Y-62148838D02*
X83588720Y-62225028D01*
X84312530Y-62491695D02*
X84312530Y-61958361D01*
X84312530Y-62110742D02*
X84350625Y-62034552D01*
X84350625Y-62034552D02*
X84388720Y-61996457D01*
X84388720Y-61996457D02*
X84464911Y-61958361D01*
X84464911Y-61958361D02*
X84541101Y-61958361D01*
X84769672Y-62453600D02*
X84845863Y-62491695D01*
X84845863Y-62491695D02*
X84998244Y-62491695D01*
X84998244Y-62491695D02*
X85074434Y-62453600D01*
X85074434Y-62453600D02*
X85112530Y-62377409D01*
X85112530Y-62377409D02*
X85112530Y-62339314D01*
X85112530Y-62339314D02*
X85074434Y-62263123D01*
X85074434Y-62263123D02*
X84998244Y-62225028D01*
X84998244Y-62225028D02*
X84883958Y-62225028D01*
X84883958Y-62225028D02*
X84807768Y-62186933D01*
X84807768Y-62186933D02*
X84769672Y-62110742D01*
X84769672Y-62110742D02*
X84769672Y-62072647D01*
X84769672Y-62072647D02*
X84807768Y-61996457D01*
X84807768Y-61996457D02*
X84883958Y-61958361D01*
X84883958Y-61958361D02*
X84998244Y-61958361D01*
X84998244Y-61958361D02*
X85074434Y-61996457D01*
X85455387Y-62491695D02*
X85455387Y-61691695D01*
X85531577Y-62186933D02*
X85760149Y-62491695D01*
X85760149Y-61958361D02*
X85455387Y-62263123D01*
X86103006Y-62491695D02*
X86103006Y-61958361D01*
X86103006Y-61691695D02*
X86064910Y-61729790D01*
X86064910Y-61729790D02*
X86103006Y-61767885D01*
X86103006Y-61767885D02*
X86141101Y-61729790D01*
X86141101Y-61729790D02*
X86103006Y-61691695D01*
X86103006Y-61691695D02*
X86103006Y-61767885D01*
D11*
X73909580Y-64642857D02*
X73957200Y-64690476D01*
X73957200Y-64690476D02*
X74004819Y-64833333D01*
X74004819Y-64833333D02*
X74004819Y-64928571D01*
X74004819Y-64928571D02*
X73957200Y-65071428D01*
X73957200Y-65071428D02*
X73861961Y-65166666D01*
X73861961Y-65166666D02*
X73766723Y-65214285D01*
X73766723Y-65214285D02*
X73576247Y-65261904D01*
X73576247Y-65261904D02*
X73433390Y-65261904D01*
X73433390Y-65261904D02*
X73242914Y-65214285D01*
X73242914Y-65214285D02*
X73147676Y-65166666D01*
X73147676Y-65166666D02*
X73052438Y-65071428D01*
X73052438Y-65071428D02*
X73004819Y-64928571D01*
X73004819Y-64928571D02*
X73004819Y-64833333D01*
X73004819Y-64833333D02*
X73052438Y-64690476D01*
X73052438Y-64690476D02*
X73100057Y-64642857D01*
X73004819Y-63785714D02*
X73004819Y-63976190D01*
X73004819Y-63976190D02*
X73052438Y-64071428D01*
X73052438Y-64071428D02*
X73100057Y-64119047D01*
X73100057Y-64119047D02*
X73242914Y-64214285D01*
X73242914Y-64214285D02*
X73433390Y-64261904D01*
X73433390Y-64261904D02*
X73814342Y-64261904D01*
X73814342Y-64261904D02*
X73909580Y-64214285D01*
X73909580Y-64214285D02*
X73957200Y-64166666D01*
X73957200Y-64166666D02*
X74004819Y-64071428D01*
X74004819Y-64071428D02*
X74004819Y-63880952D01*
X74004819Y-63880952D02*
X73957200Y-63785714D01*
X73957200Y-63785714D02*
X73909580Y-63738095D01*
X73909580Y-63738095D02*
X73814342Y-63690476D01*
X73814342Y-63690476D02*
X73576247Y-63690476D01*
X73576247Y-63690476D02*
X73481009Y-63738095D01*
X73481009Y-63738095D02*
X73433390Y-63785714D01*
X73433390Y-63785714D02*
X73385771Y-63880952D01*
X73385771Y-63880952D02*
X73385771Y-64071428D01*
X73385771Y-64071428D02*
X73433390Y-64166666D01*
X73433390Y-64166666D02*
X73481009Y-64214285D01*
X73481009Y-64214285D02*
X73576247Y-64261904D01*
X73004819Y-63357142D02*
X73004819Y-62690476D01*
X73004819Y-62690476D02*
X74004819Y-63119047D01*
X140261905Y-149954819D02*
X140261905Y-150764342D01*
X140261905Y-150764342D02*
X140309524Y-150859580D01*
X140309524Y-150859580D02*
X140357143Y-150907200D01*
X140357143Y-150907200D02*
X140452381Y-150954819D01*
X140452381Y-150954819D02*
X140642857Y-150954819D01*
X140642857Y-150954819D02*
X140738095Y-150907200D01*
X140738095Y-150907200D02*
X140785714Y-150859580D01*
X140785714Y-150859580D02*
X140833333Y-150764342D01*
X140833333Y-150764342D02*
X140833333Y-149954819D01*
X141833333Y-150954819D02*
X141261905Y-150954819D01*
X141547619Y-150954819D02*
X141547619Y-149954819D01*
X141547619Y-149954819D02*
X141452381Y-150097676D01*
X141452381Y-150097676D02*
X141357143Y-150192914D01*
X141357143Y-150192914D02*
X141261905Y-150240533D01*
X142452381Y-149954819D02*
X142547619Y-149954819D01*
X142547619Y-149954819D02*
X142642857Y-150002438D01*
X142642857Y-150002438D02*
X142690476Y-150050057D01*
X142690476Y-150050057D02*
X142738095Y-150145295D01*
X142738095Y-150145295D02*
X142785714Y-150335771D01*
X142785714Y-150335771D02*
X142785714Y-150573866D01*
X142785714Y-150573866D02*
X142738095Y-150764342D01*
X142738095Y-150764342D02*
X142690476Y-150859580D01*
X142690476Y-150859580D02*
X142642857Y-150907200D01*
X142642857Y-150907200D02*
X142547619Y-150954819D01*
X142547619Y-150954819D02*
X142452381Y-150954819D01*
X142452381Y-150954819D02*
X142357143Y-150907200D01*
X142357143Y-150907200D02*
X142309524Y-150859580D01*
X142309524Y-150859580D02*
X142261905Y-150764342D01*
X142261905Y-150764342D02*
X142214286Y-150573866D01*
X142214286Y-150573866D02*
X142214286Y-150335771D01*
X142214286Y-150335771D02*
X142261905Y-150145295D01*
X142261905Y-150145295D02*
X142309524Y-150050057D01*
X142309524Y-150050057D02*
X142357143Y-150002438D01*
X142357143Y-150002438D02*
X142452381Y-149954819D01*
X100078855Y-99427438D02*
X101221712Y-99427438D01*
X100650283Y-101427438D02*
X100650283Y-99427438D01*
X102555046Y-100379819D02*
X101888379Y-100379819D01*
X101888379Y-101427438D02*
X101888379Y-99427438D01*
X101888379Y-99427438D02*
X102840760Y-99427438D01*
X103316951Y-99427438D02*
X104459808Y-99427438D01*
X103888379Y-101427438D02*
X103888379Y-99427438D01*
X106459809Y-99427438D02*
X107697904Y-99427438D01*
X107697904Y-99427438D02*
X107031237Y-100189342D01*
X107031237Y-100189342D02*
X107316952Y-100189342D01*
X107316952Y-100189342D02*
X107507428Y-100284580D01*
X107507428Y-100284580D02*
X107602666Y-100379819D01*
X107602666Y-100379819D02*
X107697904Y-100570295D01*
X107697904Y-100570295D02*
X107697904Y-101046485D01*
X107697904Y-101046485D02*
X107602666Y-101236961D01*
X107602666Y-101236961D02*
X107507428Y-101332200D01*
X107507428Y-101332200D02*
X107316952Y-101427438D01*
X107316952Y-101427438D02*
X106745523Y-101427438D01*
X106745523Y-101427438D02*
X106555047Y-101332200D01*
X106555047Y-101332200D02*
X106459809Y-101236961D01*
X108459809Y-99617914D02*
X108555047Y-99522676D01*
X108555047Y-99522676D02*
X108745523Y-99427438D01*
X108745523Y-99427438D02*
X109221714Y-99427438D01*
X109221714Y-99427438D02*
X109412190Y-99522676D01*
X109412190Y-99522676D02*
X109507428Y-99617914D01*
X109507428Y-99617914D02*
X109602666Y-99808390D01*
X109602666Y-99808390D02*
X109602666Y-99998866D01*
X109602666Y-99998866D02*
X109507428Y-100284580D01*
X109507428Y-100284580D02*
X108364571Y-101427438D01*
X108364571Y-101427438D02*
X109602666Y-101427438D01*
X110840761Y-99427438D02*
X111031238Y-99427438D01*
X111031238Y-99427438D02*
X111221714Y-99522676D01*
X111221714Y-99522676D02*
X111316952Y-99617914D01*
X111316952Y-99617914D02*
X111412190Y-99808390D01*
X111412190Y-99808390D02*
X111507428Y-100189342D01*
X111507428Y-100189342D02*
X111507428Y-100665533D01*
X111507428Y-100665533D02*
X111412190Y-101046485D01*
X111412190Y-101046485D02*
X111316952Y-101236961D01*
X111316952Y-101236961D02*
X111221714Y-101332200D01*
X111221714Y-101332200D02*
X111031238Y-101427438D01*
X111031238Y-101427438D02*
X110840761Y-101427438D01*
X110840761Y-101427438D02*
X110650285Y-101332200D01*
X110650285Y-101332200D02*
X110555047Y-101236961D01*
X110555047Y-101236961D02*
X110459809Y-101046485D01*
X110459809Y-101046485D02*
X110364571Y-100665533D01*
X110364571Y-100665533D02*
X110364571Y-100189342D01*
X110364571Y-100189342D02*
X110459809Y-99808390D01*
X110459809Y-99808390D02*
X110555047Y-99617914D01*
X110555047Y-99617914D02*
X110650285Y-99522676D01*
X110650285Y-99522676D02*
X110840761Y-99427438D01*
X112174095Y-101427438D02*
X113221714Y-100094104D01*
X112174095Y-100094104D02*
X113221714Y-101427438D01*
X113888381Y-99617914D02*
X113983619Y-99522676D01*
X113983619Y-99522676D02*
X114174095Y-99427438D01*
X114174095Y-99427438D02*
X114650286Y-99427438D01*
X114650286Y-99427438D02*
X114840762Y-99522676D01*
X114840762Y-99522676D02*
X114936000Y-99617914D01*
X114936000Y-99617914D02*
X115031238Y-99808390D01*
X115031238Y-99808390D02*
X115031238Y-99998866D01*
X115031238Y-99998866D02*
X114936000Y-100284580D01*
X114936000Y-100284580D02*
X113793143Y-101427438D01*
X113793143Y-101427438D02*
X115031238Y-101427438D01*
X116745524Y-100094104D02*
X116745524Y-101427438D01*
X116269333Y-99332200D02*
X115793143Y-100760771D01*
X115793143Y-100760771D02*
X117031238Y-100760771D01*
X118174095Y-99427438D02*
X118364572Y-99427438D01*
X118364572Y-99427438D02*
X118555048Y-99522676D01*
X118555048Y-99522676D02*
X118650286Y-99617914D01*
X118650286Y-99617914D02*
X118745524Y-99808390D01*
X118745524Y-99808390D02*
X118840762Y-100189342D01*
X118840762Y-100189342D02*
X118840762Y-100665533D01*
X118840762Y-100665533D02*
X118745524Y-101046485D01*
X118745524Y-101046485D02*
X118650286Y-101236961D01*
X118650286Y-101236961D02*
X118555048Y-101332200D01*
X118555048Y-101332200D02*
X118364572Y-101427438D01*
X118364572Y-101427438D02*
X118174095Y-101427438D01*
X118174095Y-101427438D02*
X117983619Y-101332200D01*
X117983619Y-101332200D02*
X117888381Y-101236961D01*
X117888381Y-101236961D02*
X117793143Y-101046485D01*
X117793143Y-101046485D02*
X117697905Y-100665533D01*
X117697905Y-100665533D02*
X117697905Y-100189342D01*
X117697905Y-100189342D02*
X117793143Y-99808390D01*
X117793143Y-99808390D02*
X117888381Y-99617914D01*
X117888381Y-99617914D02*
X117983619Y-99522676D01*
X117983619Y-99522676D02*
X118174095Y-99427438D01*
X119793143Y-101332200D02*
X119793143Y-101427438D01*
X119793143Y-101427438D02*
X119697905Y-101617914D01*
X119697905Y-101617914D02*
X119602667Y-101713152D01*
X122078858Y-99617914D02*
X122174096Y-99522676D01*
X122174096Y-99522676D02*
X122364572Y-99427438D01*
X122364572Y-99427438D02*
X122840763Y-99427438D01*
X122840763Y-99427438D02*
X123031239Y-99522676D01*
X123031239Y-99522676D02*
X123126477Y-99617914D01*
X123126477Y-99617914D02*
X123221715Y-99808390D01*
X123221715Y-99808390D02*
X123221715Y-99998866D01*
X123221715Y-99998866D02*
X123126477Y-100284580D01*
X123126477Y-100284580D02*
X121983620Y-101427438D01*
X121983620Y-101427438D02*
X123221715Y-101427438D01*
X124078858Y-101236961D02*
X124174096Y-101332200D01*
X124174096Y-101332200D02*
X124078858Y-101427438D01*
X124078858Y-101427438D02*
X123983620Y-101332200D01*
X123983620Y-101332200D02*
X124078858Y-101236961D01*
X124078858Y-101236961D02*
X124078858Y-101427438D01*
X125316953Y-100284580D02*
X125126477Y-100189342D01*
X125126477Y-100189342D02*
X125031239Y-100094104D01*
X125031239Y-100094104D02*
X124936001Y-99903628D01*
X124936001Y-99903628D02*
X124936001Y-99808390D01*
X124936001Y-99808390D02*
X125031239Y-99617914D01*
X125031239Y-99617914D02*
X125126477Y-99522676D01*
X125126477Y-99522676D02*
X125316953Y-99427438D01*
X125316953Y-99427438D02*
X125697906Y-99427438D01*
X125697906Y-99427438D02*
X125888382Y-99522676D01*
X125888382Y-99522676D02*
X125983620Y-99617914D01*
X125983620Y-99617914D02*
X126078858Y-99808390D01*
X126078858Y-99808390D02*
X126078858Y-99903628D01*
X126078858Y-99903628D02*
X125983620Y-100094104D01*
X125983620Y-100094104D02*
X125888382Y-100189342D01*
X125888382Y-100189342D02*
X125697906Y-100284580D01*
X125697906Y-100284580D02*
X125316953Y-100284580D01*
X125316953Y-100284580D02*
X125126477Y-100379819D01*
X125126477Y-100379819D02*
X125031239Y-100475057D01*
X125031239Y-100475057D02*
X124936001Y-100665533D01*
X124936001Y-100665533D02*
X124936001Y-101046485D01*
X124936001Y-101046485D02*
X125031239Y-101236961D01*
X125031239Y-101236961D02*
X125126477Y-101332200D01*
X125126477Y-101332200D02*
X125316953Y-101427438D01*
X125316953Y-101427438D02*
X125697906Y-101427438D01*
X125697906Y-101427438D02*
X125888382Y-101332200D01*
X125888382Y-101332200D02*
X125983620Y-101236961D01*
X125983620Y-101236961D02*
X126078858Y-101046485D01*
X126078858Y-101046485D02*
X126078858Y-100665533D01*
X126078858Y-100665533D02*
X125983620Y-100475057D01*
X125983620Y-100475057D02*
X125888382Y-100379819D01*
X125888382Y-100379819D02*
X125697906Y-100284580D01*
X126840763Y-99427438D02*
X126840763Y-99808390D01*
X127602668Y-99427438D02*
X127602668Y-99808390D01*
X123357142Y-54359580D02*
X123309523Y-54407200D01*
X123309523Y-54407200D02*
X123166666Y-54454819D01*
X123166666Y-54454819D02*
X123071428Y-54454819D01*
X123071428Y-54454819D02*
X122928571Y-54407200D01*
X122928571Y-54407200D02*
X122833333Y-54311961D01*
X122833333Y-54311961D02*
X122785714Y-54216723D01*
X122785714Y-54216723D02*
X122738095Y-54026247D01*
X122738095Y-54026247D02*
X122738095Y-53883390D01*
X122738095Y-53883390D02*
X122785714Y-53692914D01*
X122785714Y-53692914D02*
X122833333Y-53597676D01*
X122833333Y-53597676D02*
X122928571Y-53502438D01*
X122928571Y-53502438D02*
X123071428Y-53454819D01*
X123071428Y-53454819D02*
X123166666Y-53454819D01*
X123166666Y-53454819D02*
X123309523Y-53502438D01*
X123309523Y-53502438D02*
X123357142Y-53550057D01*
X123690476Y-53454819D02*
X124357142Y-53454819D01*
X124357142Y-53454819D02*
X123928571Y-54454819D01*
X124880952Y-53883390D02*
X124785714Y-53835771D01*
X124785714Y-53835771D02*
X124738095Y-53788152D01*
X124738095Y-53788152D02*
X124690476Y-53692914D01*
X124690476Y-53692914D02*
X124690476Y-53645295D01*
X124690476Y-53645295D02*
X124738095Y-53550057D01*
X124738095Y-53550057D02*
X124785714Y-53502438D01*
X124785714Y-53502438D02*
X124880952Y-53454819D01*
X124880952Y-53454819D02*
X125071428Y-53454819D01*
X125071428Y-53454819D02*
X125166666Y-53502438D01*
X125166666Y-53502438D02*
X125214285Y-53550057D01*
X125214285Y-53550057D02*
X125261904Y-53645295D01*
X125261904Y-53645295D02*
X125261904Y-53692914D01*
X125261904Y-53692914D02*
X125214285Y-53788152D01*
X125214285Y-53788152D02*
X125166666Y-53835771D01*
X125166666Y-53835771D02*
X125071428Y-53883390D01*
X125071428Y-53883390D02*
X124880952Y-53883390D01*
X124880952Y-53883390D02*
X124785714Y-53931009D01*
X124785714Y-53931009D02*
X124738095Y-53978628D01*
X124738095Y-53978628D02*
X124690476Y-54073866D01*
X124690476Y-54073866D02*
X124690476Y-54264342D01*
X124690476Y-54264342D02*
X124738095Y-54359580D01*
X124738095Y-54359580D02*
X124785714Y-54407200D01*
X124785714Y-54407200D02*
X124880952Y-54454819D01*
X124880952Y-54454819D02*
X125071428Y-54454819D01*
X125071428Y-54454819D02*
X125166666Y-54407200D01*
X125166666Y-54407200D02*
X125214285Y-54359580D01*
X125214285Y-54359580D02*
X125261904Y-54264342D01*
X125261904Y-54264342D02*
X125261904Y-54073866D01*
X125261904Y-54073866D02*
X125214285Y-53978628D01*
X125214285Y-53978628D02*
X125166666Y-53931009D01*
X125166666Y-53931009D02*
X125071428Y-53883390D01*
X138657200Y-60459523D02*
X138704819Y-60316666D01*
X138704819Y-60316666D02*
X138704819Y-60078571D01*
X138704819Y-60078571D02*
X138657200Y-59983333D01*
X138657200Y-59983333D02*
X138609580Y-59935714D01*
X138609580Y-59935714D02*
X138514342Y-59888095D01*
X138514342Y-59888095D02*
X138419104Y-59888095D01*
X138419104Y-59888095D02*
X138323866Y-59935714D01*
X138323866Y-59935714D02*
X138276247Y-59983333D01*
X138276247Y-59983333D02*
X138228628Y-60078571D01*
X138228628Y-60078571D02*
X138181009Y-60269047D01*
X138181009Y-60269047D02*
X138133390Y-60364285D01*
X138133390Y-60364285D02*
X138085771Y-60411904D01*
X138085771Y-60411904D02*
X137990533Y-60459523D01*
X137990533Y-60459523D02*
X137895295Y-60459523D01*
X137895295Y-60459523D02*
X137800057Y-60411904D01*
X137800057Y-60411904D02*
X137752438Y-60364285D01*
X137752438Y-60364285D02*
X137704819Y-60269047D01*
X137704819Y-60269047D02*
X137704819Y-60030952D01*
X137704819Y-60030952D02*
X137752438Y-59888095D01*
X137704819Y-59554761D02*
X138704819Y-59316666D01*
X138704819Y-59316666D02*
X137990533Y-59126190D01*
X137990533Y-59126190D02*
X138704819Y-58935714D01*
X138704819Y-58935714D02*
X137704819Y-58697619D01*
X137704819Y-58411904D02*
X137704819Y-57745238D01*
X137704819Y-57745238D02*
X138704819Y-58173809D01*
X137704819Y-56935714D02*
X137704819Y-57126190D01*
X137704819Y-57126190D02*
X137752438Y-57221428D01*
X137752438Y-57221428D02*
X137800057Y-57269047D01*
X137800057Y-57269047D02*
X137942914Y-57364285D01*
X137942914Y-57364285D02*
X138133390Y-57411904D01*
X138133390Y-57411904D02*
X138514342Y-57411904D01*
X138514342Y-57411904D02*
X138609580Y-57364285D01*
X138609580Y-57364285D02*
X138657200Y-57316666D01*
X138657200Y-57316666D02*
X138704819Y-57221428D01*
X138704819Y-57221428D02*
X138704819Y-57030952D01*
X138704819Y-57030952D02*
X138657200Y-56935714D01*
X138657200Y-56935714D02*
X138609580Y-56888095D01*
X138609580Y-56888095D02*
X138514342Y-56840476D01*
X138514342Y-56840476D02*
X138276247Y-56840476D01*
X138276247Y-56840476D02*
X138181009Y-56888095D01*
X138181009Y-56888095D02*
X138133390Y-56935714D01*
X138133390Y-56935714D02*
X138085771Y-57030952D01*
X138085771Y-57030952D02*
X138085771Y-57221428D01*
X138085771Y-57221428D02*
X138133390Y-57316666D01*
X138133390Y-57316666D02*
X138181009Y-57364285D01*
X138181009Y-57364285D02*
X138276247Y-57411904D01*
X56366666Y-107954819D02*
X56366666Y-108669104D01*
X56366666Y-108669104D02*
X56319047Y-108811961D01*
X56319047Y-108811961D02*
X56223809Y-108907200D01*
X56223809Y-108907200D02*
X56080952Y-108954819D01*
X56080952Y-108954819D02*
X55985714Y-108954819D01*
X57271428Y-108288152D02*
X57271428Y-108954819D01*
X57033333Y-107907200D02*
X56795238Y-108621485D01*
X56795238Y-108621485D02*
X57414285Y-108621485D01*
X135857142Y-54359580D02*
X135809523Y-54407200D01*
X135809523Y-54407200D02*
X135666666Y-54454819D01*
X135666666Y-54454819D02*
X135571428Y-54454819D01*
X135571428Y-54454819D02*
X135428571Y-54407200D01*
X135428571Y-54407200D02*
X135333333Y-54311961D01*
X135333333Y-54311961D02*
X135285714Y-54216723D01*
X135285714Y-54216723D02*
X135238095Y-54026247D01*
X135238095Y-54026247D02*
X135238095Y-53883390D01*
X135238095Y-53883390D02*
X135285714Y-53692914D01*
X135285714Y-53692914D02*
X135333333Y-53597676D01*
X135333333Y-53597676D02*
X135428571Y-53502438D01*
X135428571Y-53502438D02*
X135571428Y-53454819D01*
X135571428Y-53454819D02*
X135666666Y-53454819D01*
X135666666Y-53454819D02*
X135809523Y-53502438D01*
X135809523Y-53502438D02*
X135857142Y-53550057D01*
X136190476Y-53454819D02*
X136857142Y-53454819D01*
X136857142Y-53454819D02*
X136428571Y-54454819D01*
X137285714Y-54454819D02*
X137476190Y-54454819D01*
X137476190Y-54454819D02*
X137571428Y-54407200D01*
X137571428Y-54407200D02*
X137619047Y-54359580D01*
X137619047Y-54359580D02*
X137714285Y-54216723D01*
X137714285Y-54216723D02*
X137761904Y-54026247D01*
X137761904Y-54026247D02*
X137761904Y-53645295D01*
X137761904Y-53645295D02*
X137714285Y-53550057D01*
X137714285Y-53550057D02*
X137666666Y-53502438D01*
X137666666Y-53502438D02*
X137571428Y-53454819D01*
X137571428Y-53454819D02*
X137380952Y-53454819D01*
X137380952Y-53454819D02*
X137285714Y-53502438D01*
X137285714Y-53502438D02*
X137238095Y-53550057D01*
X137238095Y-53550057D02*
X137190476Y-53645295D01*
X137190476Y-53645295D02*
X137190476Y-53883390D01*
X137190476Y-53883390D02*
X137238095Y-53978628D01*
X137238095Y-53978628D02*
X137285714Y-54026247D01*
X137285714Y-54026247D02*
X137380952Y-54073866D01*
X137380952Y-54073866D02*
X137571428Y-54073866D01*
X137571428Y-54073866D02*
X137666666Y-54026247D01*
X137666666Y-54026247D02*
X137714285Y-53978628D01*
X137714285Y-53978628D02*
X137761904Y-53883390D01*
X67309580Y-64615457D02*
X67357200Y-64663076D01*
X67357200Y-64663076D02*
X67404819Y-64805933D01*
X67404819Y-64805933D02*
X67404819Y-64901171D01*
X67404819Y-64901171D02*
X67357200Y-65044028D01*
X67357200Y-65044028D02*
X67261961Y-65139266D01*
X67261961Y-65139266D02*
X67166723Y-65186885D01*
X67166723Y-65186885D02*
X66976247Y-65234504D01*
X66976247Y-65234504D02*
X66833390Y-65234504D01*
X66833390Y-65234504D02*
X66642914Y-65186885D01*
X66642914Y-65186885D02*
X66547676Y-65139266D01*
X66547676Y-65139266D02*
X66452438Y-65044028D01*
X66452438Y-65044028D02*
X66404819Y-64901171D01*
X66404819Y-64901171D02*
X66404819Y-64805933D01*
X66404819Y-64805933D02*
X66452438Y-64663076D01*
X66452438Y-64663076D02*
X66500057Y-64615457D01*
X66404819Y-63758314D02*
X66404819Y-63948790D01*
X66404819Y-63948790D02*
X66452438Y-64044028D01*
X66452438Y-64044028D02*
X66500057Y-64091647D01*
X66500057Y-64091647D02*
X66642914Y-64186885D01*
X66642914Y-64186885D02*
X66833390Y-64234504D01*
X66833390Y-64234504D02*
X67214342Y-64234504D01*
X67214342Y-64234504D02*
X67309580Y-64186885D01*
X67309580Y-64186885D02*
X67357200Y-64139266D01*
X67357200Y-64139266D02*
X67404819Y-64044028D01*
X67404819Y-64044028D02*
X67404819Y-63853552D01*
X67404819Y-63853552D02*
X67357200Y-63758314D01*
X67357200Y-63758314D02*
X67309580Y-63710695D01*
X67309580Y-63710695D02*
X67214342Y-63663076D01*
X67214342Y-63663076D02*
X66976247Y-63663076D01*
X66976247Y-63663076D02*
X66881009Y-63710695D01*
X66881009Y-63710695D02*
X66833390Y-63758314D01*
X66833390Y-63758314D02*
X66785771Y-63853552D01*
X66785771Y-63853552D02*
X66785771Y-64044028D01*
X66785771Y-64044028D02*
X66833390Y-64139266D01*
X66833390Y-64139266D02*
X66881009Y-64186885D01*
X66881009Y-64186885D02*
X66976247Y-64234504D01*
X66404819Y-62805933D02*
X66404819Y-62996409D01*
X66404819Y-62996409D02*
X66452438Y-63091647D01*
X66452438Y-63091647D02*
X66500057Y-63139266D01*
X66500057Y-63139266D02*
X66642914Y-63234504D01*
X66642914Y-63234504D02*
X66833390Y-63282123D01*
X66833390Y-63282123D02*
X67214342Y-63282123D01*
X67214342Y-63282123D02*
X67309580Y-63234504D01*
X67309580Y-63234504D02*
X67357200Y-63186885D01*
X67357200Y-63186885D02*
X67404819Y-63091647D01*
X67404819Y-63091647D02*
X67404819Y-62901171D01*
X67404819Y-62901171D02*
X67357200Y-62805933D01*
X67357200Y-62805933D02*
X67309580Y-62758314D01*
X67309580Y-62758314D02*
X67214342Y-62710695D01*
X67214342Y-62710695D02*
X66976247Y-62710695D01*
X66976247Y-62710695D02*
X66881009Y-62758314D01*
X66881009Y-62758314D02*
X66833390Y-62805933D01*
X66833390Y-62805933D02*
X66785771Y-62901171D01*
X66785771Y-62901171D02*
X66785771Y-63091647D01*
X66785771Y-63091647D02*
X66833390Y-63186885D01*
X66833390Y-63186885D02*
X66881009Y-63234504D01*
X66881009Y-63234504D02*
X66976247Y-63282123D01*
X113257200Y-60409523D02*
X113304819Y-60266666D01*
X113304819Y-60266666D02*
X113304819Y-60028571D01*
X113304819Y-60028571D02*
X113257200Y-59933333D01*
X113257200Y-59933333D02*
X113209580Y-59885714D01*
X113209580Y-59885714D02*
X113114342Y-59838095D01*
X113114342Y-59838095D02*
X113019104Y-59838095D01*
X113019104Y-59838095D02*
X112923866Y-59885714D01*
X112923866Y-59885714D02*
X112876247Y-59933333D01*
X112876247Y-59933333D02*
X112828628Y-60028571D01*
X112828628Y-60028571D02*
X112781009Y-60219047D01*
X112781009Y-60219047D02*
X112733390Y-60314285D01*
X112733390Y-60314285D02*
X112685771Y-60361904D01*
X112685771Y-60361904D02*
X112590533Y-60409523D01*
X112590533Y-60409523D02*
X112495295Y-60409523D01*
X112495295Y-60409523D02*
X112400057Y-60361904D01*
X112400057Y-60361904D02*
X112352438Y-60314285D01*
X112352438Y-60314285D02*
X112304819Y-60219047D01*
X112304819Y-60219047D02*
X112304819Y-59980952D01*
X112304819Y-59980952D02*
X112352438Y-59838095D01*
X112304819Y-59504761D02*
X113304819Y-59266666D01*
X113304819Y-59266666D02*
X112590533Y-59076190D01*
X112590533Y-59076190D02*
X113304819Y-58885714D01*
X113304819Y-58885714D02*
X112304819Y-58647619D01*
X112304819Y-58361904D02*
X112304819Y-57695238D01*
X112304819Y-57695238D02*
X113304819Y-58123809D01*
X112638152Y-56885714D02*
X113304819Y-56885714D01*
X112257200Y-57123809D02*
X112971485Y-57361904D01*
X112971485Y-57361904D02*
X112971485Y-56742857D01*
X126057200Y-60809523D02*
X126104819Y-60666666D01*
X126104819Y-60666666D02*
X126104819Y-60428571D01*
X126104819Y-60428571D02*
X126057200Y-60333333D01*
X126057200Y-60333333D02*
X126009580Y-60285714D01*
X126009580Y-60285714D02*
X125914342Y-60238095D01*
X125914342Y-60238095D02*
X125819104Y-60238095D01*
X125819104Y-60238095D02*
X125723866Y-60285714D01*
X125723866Y-60285714D02*
X125676247Y-60333333D01*
X125676247Y-60333333D02*
X125628628Y-60428571D01*
X125628628Y-60428571D02*
X125581009Y-60619047D01*
X125581009Y-60619047D02*
X125533390Y-60714285D01*
X125533390Y-60714285D02*
X125485771Y-60761904D01*
X125485771Y-60761904D02*
X125390533Y-60809523D01*
X125390533Y-60809523D02*
X125295295Y-60809523D01*
X125295295Y-60809523D02*
X125200057Y-60761904D01*
X125200057Y-60761904D02*
X125152438Y-60714285D01*
X125152438Y-60714285D02*
X125104819Y-60619047D01*
X125104819Y-60619047D02*
X125104819Y-60380952D01*
X125104819Y-60380952D02*
X125152438Y-60238095D01*
X125104819Y-59904761D02*
X126104819Y-59666666D01*
X126104819Y-59666666D02*
X125390533Y-59476190D01*
X125390533Y-59476190D02*
X126104819Y-59285714D01*
X126104819Y-59285714D02*
X125104819Y-59047619D01*
X125104819Y-58761904D02*
X125104819Y-58095238D01*
X125104819Y-58095238D02*
X126104819Y-58523809D01*
X125104819Y-57238095D02*
X125104819Y-57714285D01*
X125104819Y-57714285D02*
X125581009Y-57761904D01*
X125581009Y-57761904D02*
X125533390Y-57714285D01*
X125533390Y-57714285D02*
X125485771Y-57619047D01*
X125485771Y-57619047D02*
X125485771Y-57380952D01*
X125485771Y-57380952D02*
X125533390Y-57285714D01*
X125533390Y-57285714D02*
X125581009Y-57238095D01*
X125581009Y-57238095D02*
X125676247Y-57190476D01*
X125676247Y-57190476D02*
X125914342Y-57190476D01*
X125914342Y-57190476D02*
X126009580Y-57238095D01*
X126009580Y-57238095D02*
X126057200Y-57285714D01*
X126057200Y-57285714D02*
X126104819Y-57380952D01*
X126104819Y-57380952D02*
X126104819Y-57619047D01*
X126104819Y-57619047D02*
X126057200Y-57714285D01*
X126057200Y-57714285D02*
X126009580Y-57761904D01*
X97857142Y-54359580D02*
X97809523Y-54407200D01*
X97809523Y-54407200D02*
X97666666Y-54454819D01*
X97666666Y-54454819D02*
X97571428Y-54454819D01*
X97571428Y-54454819D02*
X97428571Y-54407200D01*
X97428571Y-54407200D02*
X97333333Y-54311961D01*
X97333333Y-54311961D02*
X97285714Y-54216723D01*
X97285714Y-54216723D02*
X97238095Y-54026247D01*
X97238095Y-54026247D02*
X97238095Y-53883390D01*
X97238095Y-53883390D02*
X97285714Y-53692914D01*
X97285714Y-53692914D02*
X97333333Y-53597676D01*
X97333333Y-53597676D02*
X97428571Y-53502438D01*
X97428571Y-53502438D02*
X97571428Y-53454819D01*
X97571428Y-53454819D02*
X97666666Y-53454819D01*
X97666666Y-53454819D02*
X97809523Y-53502438D01*
X97809523Y-53502438D02*
X97857142Y-53550057D01*
X98190476Y-53454819D02*
X98857142Y-53454819D01*
X98857142Y-53454819D02*
X98428571Y-54454819D01*
X99666666Y-53454819D02*
X99476190Y-53454819D01*
X99476190Y-53454819D02*
X99380952Y-53502438D01*
X99380952Y-53502438D02*
X99333333Y-53550057D01*
X99333333Y-53550057D02*
X99238095Y-53692914D01*
X99238095Y-53692914D02*
X99190476Y-53883390D01*
X99190476Y-53883390D02*
X99190476Y-54264342D01*
X99190476Y-54264342D02*
X99238095Y-54359580D01*
X99238095Y-54359580D02*
X99285714Y-54407200D01*
X99285714Y-54407200D02*
X99380952Y-54454819D01*
X99380952Y-54454819D02*
X99571428Y-54454819D01*
X99571428Y-54454819D02*
X99666666Y-54407200D01*
X99666666Y-54407200D02*
X99714285Y-54359580D01*
X99714285Y-54359580D02*
X99761904Y-54264342D01*
X99761904Y-54264342D02*
X99761904Y-54026247D01*
X99761904Y-54026247D02*
X99714285Y-53931009D01*
X99714285Y-53931009D02*
X99666666Y-53883390D01*
X99666666Y-53883390D02*
X99571428Y-53835771D01*
X99571428Y-53835771D02*
X99380952Y-53835771D01*
X99380952Y-53835771D02*
X99285714Y-53883390D01*
X99285714Y-53883390D02*
X99238095Y-53931009D01*
X99238095Y-53931009D02*
X99190476Y-54026247D01*
X53454819Y-60833333D02*
X54169104Y-60833333D01*
X54169104Y-60833333D02*
X54311961Y-60880952D01*
X54311961Y-60880952D02*
X54407200Y-60976190D01*
X54407200Y-60976190D02*
X54454819Y-61119047D01*
X54454819Y-61119047D02*
X54454819Y-61214285D01*
X54454819Y-59833333D02*
X54454819Y-60404761D01*
X54454819Y-60119047D02*
X53454819Y-60119047D01*
X53454819Y-60119047D02*
X53597676Y-60214285D01*
X53597676Y-60214285D02*
X53692914Y-60309523D01*
X53692914Y-60309523D02*
X53740533Y-60404761D01*
X110857142Y-54359580D02*
X110809523Y-54407200D01*
X110809523Y-54407200D02*
X110666666Y-54454819D01*
X110666666Y-54454819D02*
X110571428Y-54454819D01*
X110571428Y-54454819D02*
X110428571Y-54407200D01*
X110428571Y-54407200D02*
X110333333Y-54311961D01*
X110333333Y-54311961D02*
X110285714Y-54216723D01*
X110285714Y-54216723D02*
X110238095Y-54026247D01*
X110238095Y-54026247D02*
X110238095Y-53883390D01*
X110238095Y-53883390D02*
X110285714Y-53692914D01*
X110285714Y-53692914D02*
X110333333Y-53597676D01*
X110333333Y-53597676D02*
X110428571Y-53502438D01*
X110428571Y-53502438D02*
X110571428Y-53454819D01*
X110571428Y-53454819D02*
X110666666Y-53454819D01*
X110666666Y-53454819D02*
X110809523Y-53502438D01*
X110809523Y-53502438D02*
X110857142Y-53550057D01*
X111190476Y-53454819D02*
X111857142Y-53454819D01*
X111857142Y-53454819D02*
X111428571Y-54454819D01*
X112142857Y-53454819D02*
X112809523Y-53454819D01*
X112809523Y-53454819D02*
X112380952Y-54454819D01*
X56326666Y-83014819D02*
X56326666Y-83729104D01*
X56326666Y-83729104D02*
X56279047Y-83871961D01*
X56279047Y-83871961D02*
X56183809Y-83967200D01*
X56183809Y-83967200D02*
X56040952Y-84014819D01*
X56040952Y-84014819D02*
X55945714Y-84014819D01*
X57279047Y-83014819D02*
X56802857Y-83014819D01*
X56802857Y-83014819D02*
X56755238Y-83491009D01*
X56755238Y-83491009D02*
X56802857Y-83443390D01*
X56802857Y-83443390D02*
X56898095Y-83395771D01*
X56898095Y-83395771D02*
X57136190Y-83395771D01*
X57136190Y-83395771D02*
X57231428Y-83443390D01*
X57231428Y-83443390D02*
X57279047Y-83491009D01*
X57279047Y-83491009D02*
X57326666Y-83586247D01*
X57326666Y-83586247D02*
X57326666Y-83824342D01*
X57326666Y-83824342D02*
X57279047Y-83919580D01*
X57279047Y-83919580D02*
X57231428Y-83967200D01*
X57231428Y-83967200D02*
X57136190Y-84014819D01*
X57136190Y-84014819D02*
X56898095Y-84014819D01*
X56898095Y-84014819D02*
X56802857Y-83967200D01*
X56802857Y-83967200D02*
X56755238Y-83919580D01*
X100557200Y-60409523D02*
X100604819Y-60266666D01*
X100604819Y-60266666D02*
X100604819Y-60028571D01*
X100604819Y-60028571D02*
X100557200Y-59933333D01*
X100557200Y-59933333D02*
X100509580Y-59885714D01*
X100509580Y-59885714D02*
X100414342Y-59838095D01*
X100414342Y-59838095D02*
X100319104Y-59838095D01*
X100319104Y-59838095D02*
X100223866Y-59885714D01*
X100223866Y-59885714D02*
X100176247Y-59933333D01*
X100176247Y-59933333D02*
X100128628Y-60028571D01*
X100128628Y-60028571D02*
X100081009Y-60219047D01*
X100081009Y-60219047D02*
X100033390Y-60314285D01*
X100033390Y-60314285D02*
X99985771Y-60361904D01*
X99985771Y-60361904D02*
X99890533Y-60409523D01*
X99890533Y-60409523D02*
X99795295Y-60409523D01*
X99795295Y-60409523D02*
X99700057Y-60361904D01*
X99700057Y-60361904D02*
X99652438Y-60314285D01*
X99652438Y-60314285D02*
X99604819Y-60219047D01*
X99604819Y-60219047D02*
X99604819Y-59980952D01*
X99604819Y-59980952D02*
X99652438Y-59838095D01*
X99604819Y-59504761D02*
X100604819Y-59266666D01*
X100604819Y-59266666D02*
X99890533Y-59076190D01*
X99890533Y-59076190D02*
X100604819Y-58885714D01*
X100604819Y-58885714D02*
X99604819Y-58647619D01*
X99604819Y-58361904D02*
X99604819Y-57695238D01*
X99604819Y-57695238D02*
X100604819Y-58123809D01*
X99604819Y-57409523D02*
X99604819Y-56790476D01*
X99604819Y-56790476D02*
X99985771Y-57123809D01*
X99985771Y-57123809D02*
X99985771Y-56980952D01*
X99985771Y-56980952D02*
X100033390Y-56885714D01*
X100033390Y-56885714D02*
X100081009Y-56838095D01*
X100081009Y-56838095D02*
X100176247Y-56790476D01*
X100176247Y-56790476D02*
X100414342Y-56790476D01*
X100414342Y-56790476D02*
X100509580Y-56838095D01*
X100509580Y-56838095D02*
X100557200Y-56885714D01*
X100557200Y-56885714D02*
X100604819Y-56980952D01*
X100604819Y-56980952D02*
X100604819Y-57266666D01*
X100604819Y-57266666D02*
X100557200Y-57361904D01*
X100557200Y-57361904D02*
X100509580Y-57409523D01*
D12*
%TO.C,C67*%
X74720000Y-63960000D02*
X78880000Y-63960000D01*
X74720000Y-64000000D02*
X78880000Y-64000000D01*
X74722000Y-63920000D02*
X78878000Y-63920000D01*
X74723000Y-63880000D02*
X78877000Y-63880000D01*
X74726000Y-63840000D02*
X78874000Y-63840000D01*
X74729000Y-63800000D02*
X75960000Y-63800000D01*
X74734000Y-63760000D02*
X75960000Y-63760000D01*
X74739000Y-63720000D02*
X75960000Y-63720000D01*
X74744000Y-63680000D02*
X75960000Y-63680000D01*
X74751000Y-63640000D02*
X75960000Y-63640000D01*
X74758000Y-63600000D02*
X75960000Y-63600000D01*
X74766000Y-63560000D02*
X75960000Y-63560000D01*
X74775000Y-63520000D02*
X75960000Y-63520000D01*
X74785000Y-63480000D02*
X75960000Y-63480000D01*
X74795000Y-63440000D02*
X75960000Y-63440000D01*
X74807000Y-63400000D02*
X75960000Y-63400000D01*
X74819000Y-63360000D02*
X75960000Y-63360000D01*
X74832000Y-63320000D02*
X75960000Y-63320000D01*
X74846000Y-63280000D02*
X75960000Y-63280000D01*
X74861000Y-63240000D02*
X75960000Y-63240000D01*
X74877000Y-63200000D02*
X75960000Y-63200000D01*
X74894000Y-63160000D02*
X75960000Y-63160000D01*
X74911000Y-63120000D02*
X75960000Y-63120000D01*
X74930000Y-63080000D02*
X75960000Y-63080000D01*
X74950000Y-63040000D02*
X75960000Y-63040000D01*
X74971000Y-63000000D02*
X75960000Y-63000000D01*
X74993000Y-62960000D02*
X75960000Y-62960000D01*
X75016000Y-62920000D02*
X75960000Y-62920000D01*
X75040000Y-62880000D02*
X75960000Y-62880000D01*
X75066000Y-62840000D02*
X75960000Y-62840000D01*
X75092000Y-62800000D02*
X75960000Y-62800000D01*
X75120000Y-62760000D02*
X75960000Y-62760000D01*
X75150000Y-62720000D02*
X75960000Y-62720000D01*
X75181000Y-62680000D02*
X75960000Y-62680000D01*
X75214000Y-62640000D02*
X75960000Y-62640000D01*
X75248000Y-62600000D02*
X75960000Y-62600000D01*
X75284000Y-62560000D02*
X75960000Y-62560000D01*
X75322000Y-62520000D02*
X75960000Y-62520000D01*
X75362000Y-62480000D02*
X75960000Y-62480000D01*
X75404000Y-62440000D02*
X75960000Y-62440000D01*
X75405000Y-66069801D02*
X75805000Y-66069801D01*
X75449000Y-62400000D02*
X75960000Y-62400000D01*
X75497000Y-62360000D02*
X75960000Y-62360000D01*
X75547000Y-62320000D02*
X75960000Y-62320000D01*
X75601000Y-62280000D02*
X75960000Y-62280000D01*
X75605000Y-66269801D02*
X75605000Y-65869801D01*
X75658000Y-62240000D02*
X75960000Y-62240000D01*
X75720000Y-62200000D02*
X75960000Y-62200000D01*
X75787000Y-62160000D02*
X77813000Y-62160000D01*
X75860000Y-62120000D02*
X77740000Y-62120000D01*
X75941000Y-62080000D02*
X77659000Y-62080000D01*
X76032000Y-62040000D02*
X77568000Y-62040000D01*
X76137000Y-62000000D02*
X77463000Y-62000000D01*
X76263000Y-61960000D02*
X77337000Y-61960000D01*
X76430000Y-61920000D02*
X77170000Y-61920000D01*
X77640000Y-62200000D02*
X77880000Y-62200000D01*
X77640000Y-62240000D02*
X77942000Y-62240000D01*
X77640000Y-62280000D02*
X77999000Y-62280000D01*
X77640000Y-62320000D02*
X78053000Y-62320000D01*
X77640000Y-62360000D02*
X78103000Y-62360000D01*
X77640000Y-62400000D02*
X78151000Y-62400000D01*
X77640000Y-62440000D02*
X78196000Y-62440000D01*
X77640000Y-62480000D02*
X78238000Y-62480000D01*
X77640000Y-62520000D02*
X78278000Y-62520000D01*
X77640000Y-62560000D02*
X78316000Y-62560000D01*
X77640000Y-62600000D02*
X78352000Y-62600000D01*
X77640000Y-62640000D02*
X78386000Y-62640000D01*
X77640000Y-62680000D02*
X78419000Y-62680000D01*
X77640000Y-62720000D02*
X78450000Y-62720000D01*
X77640000Y-62760000D02*
X78480000Y-62760000D01*
X77640000Y-62800000D02*
X78508000Y-62800000D01*
X77640000Y-62840000D02*
X78534000Y-62840000D01*
X77640000Y-62880000D02*
X78560000Y-62880000D01*
X77640000Y-62920000D02*
X78584000Y-62920000D01*
X77640000Y-62960000D02*
X78607000Y-62960000D01*
X77640000Y-63000000D02*
X78629000Y-63000000D01*
X77640000Y-63040000D02*
X78650000Y-63040000D01*
X77640000Y-63080000D02*
X78670000Y-63080000D01*
X77640000Y-63120000D02*
X78689000Y-63120000D01*
X77640000Y-63160000D02*
X78706000Y-63160000D01*
X77640000Y-63200000D02*
X78723000Y-63200000D01*
X77640000Y-63240000D02*
X78739000Y-63240000D01*
X77640000Y-63280000D02*
X78754000Y-63280000D01*
X77640000Y-63320000D02*
X78768000Y-63320000D01*
X77640000Y-63360000D02*
X78781000Y-63360000D01*
X77640000Y-63400000D02*
X78793000Y-63400000D01*
X77640000Y-63440000D02*
X78805000Y-63440000D01*
X77640000Y-63480000D02*
X78815000Y-63480000D01*
X77640000Y-63520000D02*
X78825000Y-63520000D01*
X77640000Y-63560000D02*
X78834000Y-63560000D01*
X77640000Y-63600000D02*
X78842000Y-63600000D01*
X77640000Y-63640000D02*
X78849000Y-63640000D01*
X77640000Y-63680000D02*
X78856000Y-63680000D01*
X77640000Y-63720000D02*
X78861000Y-63720000D01*
X77640000Y-63760000D02*
X78866000Y-63760000D01*
X77640000Y-63800000D02*
X78871000Y-63800000D01*
X78920000Y-64000000D02*
G75*
G02*
X74680000Y-64000000I-2120000J0D01*
G01*
X74680000Y-64000000D02*
G75*
G02*
X78920000Y-64000000I2120000J0D01*
G01*
%TO.C,U10*%
X88790000Y-62410000D02*
X88790000Y-151310000D01*
X88790000Y-70284000D02*
X139590000Y-70284000D01*
X88790000Y-138610000D02*
X139590000Y-138610000D01*
X88790000Y-151310000D02*
X139590000Y-151310000D01*
X96430000Y-145246000D02*
X131950000Y-145246000D01*
X96430000Y-149500000D02*
X96430000Y-145246000D01*
X98950000Y-145500000D02*
X98950000Y-149500000D01*
X109190000Y-64800000D02*
X109190000Y-68700000D01*
D13*
X109190000Y-64800000D02*
X119290000Y-64800000D01*
X109190000Y-68800000D02*
X119290000Y-68800000D01*
D12*
X119290000Y-64800000D02*
X119290000Y-68800000D01*
X131950000Y-145246000D02*
X131950000Y-149500000D01*
X131950000Y-149500000D02*
X96430000Y-149500000D01*
X139590000Y-62410000D02*
X88790000Y-62410000D01*
X139590000Y-151310000D02*
X139590000Y-62410000D01*
X93761051Y-142801000D02*
G75*
G02*
X90168949Y-142801000I-1796051J0D01*
G01*
X90168949Y-142801000D02*
G75*
G02*
X93761051Y-142801000I1796051J0D01*
G01*
X94142051Y-66220000D02*
G75*
G02*
X90549949Y-66220000I-1796051J0D01*
G01*
X90549949Y-66220000D02*
G75*
G02*
X94142051Y-66220000I1796051J0D01*
G01*
X138084051Y-66220000D02*
G75*
G02*
X134491949Y-66220000I-1796051J0D01*
G01*
X134491949Y-66220000D02*
G75*
G02*
X138084051Y-66220000I1796051J0D01*
G01*
X138211051Y-142801000D02*
G75*
G02*
X134618949Y-142801000I-1796051J0D01*
G01*
X134618949Y-142801000D02*
G75*
G02*
X138211051Y-142801000I1796051J0D01*
G01*
D14*
%TO.C,G\u002A\u002A\u002A*%
G36*
X85072520Y-55894444D02*
G01*
X85072520Y-57412648D01*
X85044200Y-57519741D01*
X84999111Y-57653570D01*
X84939122Y-57767923D01*
X84862767Y-57864643D01*
X84768581Y-57945573D01*
X84655097Y-58012556D01*
X84650446Y-58014821D01*
X84580195Y-58048247D01*
X84531231Y-58069847D01*
X84502519Y-58079487D01*
X84493028Y-58077036D01*
X84501722Y-58062360D01*
X84527569Y-58035327D01*
X84561340Y-58003379D01*
X84647487Y-57913455D01*
X84716729Y-57817392D01*
X84772313Y-57709627D01*
X84817486Y-57584598D01*
X84828931Y-57544940D01*
X84831418Y-57529825D01*
X84833717Y-57502602D01*
X84835840Y-57462241D01*
X84837803Y-57407713D01*
X84839620Y-57337987D01*
X84841304Y-57252034D01*
X84842872Y-57148824D01*
X84844336Y-57027327D01*
X84845712Y-56886513D01*
X84847013Y-56725353D01*
X84848254Y-56542816D01*
X84849449Y-56337873D01*
X84850614Y-56109494D01*
X84851430Y-55932241D01*
X84858333Y-54376239D01*
X84965427Y-54376239D01*
X85072520Y-54376239D01*
X85072520Y-55894444D01*
G37*
G36*
X82748025Y-55932241D02*
G01*
X82754384Y-57488243D01*
X82789732Y-57601297D01*
X82823549Y-57698908D01*
X82860027Y-57779188D01*
X82903832Y-57849928D01*
X82959629Y-57918915D01*
X83014418Y-57976463D01*
X83055513Y-58018153D01*
X83088208Y-58052440D01*
X83109430Y-58076015D01*
X83116104Y-58085569D01*
X83115828Y-58085623D01*
X83098192Y-58081458D01*
X83075546Y-58074947D01*
X83048501Y-58064567D01*
X83007831Y-58046562D01*
X82962321Y-58024821D01*
X82962153Y-58024737D01*
X82843487Y-57955263D01*
X82745342Y-57874008D01*
X82666701Y-57779391D01*
X82606550Y-57669829D01*
X82563873Y-57543742D01*
X82537656Y-57399547D01*
X82533191Y-57356445D01*
X82531049Y-57318437D01*
X82529155Y-57256055D01*
X82527514Y-57170119D01*
X82526129Y-57061454D01*
X82525007Y-56930881D01*
X82524152Y-56779223D01*
X82523569Y-56607302D01*
X82523263Y-56415941D01*
X82523238Y-56205962D01*
X82523500Y-55978188D01*
X82523894Y-55793650D01*
X82527480Y-54376239D01*
X82634573Y-54376239D01*
X82741667Y-54376239D01*
X82748025Y-55932241D01*
G37*
G36*
X83192241Y-53433506D02*
G01*
X83219487Y-53448418D01*
X83256319Y-53471082D01*
X83259776Y-53473309D01*
X83353979Y-53549164D01*
X83433713Y-53645504D01*
X83498803Y-53762059D01*
X83549073Y-53898560D01*
X83557528Y-53928968D01*
X83585813Y-54036061D01*
X83585813Y-55799950D01*
X83585813Y-57563839D01*
X83481870Y-57567498D01*
X83377927Y-57571157D01*
X83377667Y-55929601D01*
X83377555Y-55665669D01*
X83377289Y-55425664D01*
X83376848Y-55208317D01*
X83376207Y-55012357D01*
X83375344Y-54836514D01*
X83374237Y-54679517D01*
X83372861Y-54540097D01*
X83371194Y-54416982D01*
X83369212Y-54308903D01*
X83366894Y-54214589D01*
X83364215Y-54132769D01*
X83361153Y-54062175D01*
X83357685Y-54001534D01*
X83353787Y-53949578D01*
X83349437Y-53905035D01*
X83344612Y-53866635D01*
X83339704Y-53835475D01*
X83320298Y-53748184D01*
X83293343Y-53660039D01*
X83261678Y-53578970D01*
X83228147Y-53512907D01*
X83218887Y-53498293D01*
X83196972Y-53464030D01*
X83183106Y-53439009D01*
X83180261Y-53429477D01*
X83192241Y-53433506D01*
G37*
G36*
X83551457Y-53429848D02*
G01*
X83604414Y-53442877D01*
X83666633Y-53461811D01*
X83731280Y-53484377D01*
X83791523Y-53508299D01*
X83840528Y-53531303D01*
X83850588Y-53536854D01*
X83959737Y-53614126D01*
X84052298Y-53709767D01*
X84126868Y-53822037D01*
X84181261Y-53946878D01*
X84215774Y-54048660D01*
X84219179Y-55809399D01*
X84222585Y-57570138D01*
X84121140Y-57570138D01*
X84062377Y-57568393D01*
X84027065Y-57563008D01*
X84013888Y-57554389D01*
X84013171Y-57540126D01*
X84012431Y-57502119D01*
X84011675Y-57441819D01*
X84010911Y-57360681D01*
X84010148Y-57260157D01*
X84009391Y-57141702D01*
X84008650Y-57006768D01*
X84007931Y-56856808D01*
X84007242Y-56693276D01*
X84006591Y-56517626D01*
X84005986Y-56331310D01*
X84005434Y-56135782D01*
X84004943Y-55932494D01*
X84004666Y-55799950D01*
X84001252Y-54061259D01*
X83972179Y-53966855D01*
X83920548Y-53833821D01*
X83852184Y-53718070D01*
X83765360Y-53617549D01*
X83658349Y-53530205D01*
X83549392Y-53464346D01*
X83511136Y-53443605D01*
X83493135Y-53431799D01*
X83493185Y-53426437D01*
X83509083Y-53425027D01*
X83514594Y-53424999D01*
X83551457Y-53429848D01*
G37*
G36*
X84715585Y-58729968D02*
G01*
X84753742Y-58732775D01*
X84778430Y-58738728D01*
X84795501Y-58748873D01*
X84802140Y-58754967D01*
X84823514Y-58780642D01*
X84837214Y-58810208D01*
X84844446Y-58849311D01*
X84846414Y-58903598D01*
X84845196Y-58956713D01*
X84842729Y-59023446D01*
X84843446Y-59069007D01*
X84850952Y-59097416D01*
X84868855Y-59112696D01*
X84900761Y-59118869D01*
X84950277Y-59119957D01*
X84991474Y-59119841D01*
X85129216Y-59119841D01*
X85129216Y-58924553D01*
X85129216Y-58729265D01*
X85261508Y-58729265D01*
X85393800Y-58729265D01*
X85393800Y-59208035D01*
X85393800Y-59686805D01*
X85261508Y-59686805D01*
X85129216Y-59686805D01*
X85129216Y-59485218D01*
X85129216Y-59283630D01*
X84991732Y-59283630D01*
X84854249Y-59283630D01*
X84845536Y-59335197D01*
X84842386Y-59368853D01*
X84840584Y-59420151D01*
X84840294Y-59481565D01*
X84841279Y-59533635D01*
X84845734Y-59680505D01*
X84716592Y-59684096D01*
X84587450Y-59687686D01*
X84587450Y-59255237D01*
X84587364Y-59138455D01*
X84587014Y-59044111D01*
X84586262Y-58969444D01*
X84584972Y-58911695D01*
X84583006Y-58868103D01*
X84580226Y-58835909D01*
X84576496Y-58812351D01*
X84571678Y-58794670D01*
X84565634Y-58780106D01*
X84563610Y-58776026D01*
X84539770Y-58729265D01*
X84658104Y-58729265D01*
X84715585Y-58729968D01*
G37*
G36*
X84747971Y-55941691D02*
G01*
X84747371Y-56174450D01*
X84746780Y-56383375D01*
X84746178Y-56569830D01*
X84745543Y-56735180D01*
X84744853Y-56880788D01*
X84744087Y-57008018D01*
X84743223Y-57118236D01*
X84742240Y-57212805D01*
X84741116Y-57293090D01*
X84739831Y-57360455D01*
X84738361Y-57416263D01*
X84736687Y-57461880D01*
X84734785Y-57498669D01*
X84732636Y-57527995D01*
X84730216Y-57551221D01*
X84727506Y-57569713D01*
X84724482Y-57584835D01*
X84721899Y-57595146D01*
X84678591Y-57717649D01*
X84618748Y-57830948D01*
X84545312Y-57930734D01*
X84461226Y-58012698D01*
X84412761Y-58047818D01*
X84378420Y-58068973D01*
X84352863Y-58083097D01*
X84343684Y-58086706D01*
X84345603Y-58077261D01*
X84358925Y-58052588D01*
X84379120Y-58020560D01*
X84421827Y-57942098D01*
X84459974Y-57843934D01*
X84491686Y-57731421D01*
X84508157Y-57652033D01*
X84511193Y-57632823D01*
X84513935Y-57609877D01*
X84516403Y-57581832D01*
X84518618Y-57547326D01*
X84520599Y-57504996D01*
X84522366Y-57453479D01*
X84523941Y-57391411D01*
X84525342Y-57317430D01*
X84526591Y-57230172D01*
X84527707Y-57128276D01*
X84528711Y-57010377D01*
X84529622Y-56875113D01*
X84530462Y-56721121D01*
X84531250Y-56547037D01*
X84532006Y-56351500D01*
X84532751Y-56133146D01*
X84533312Y-55954290D01*
X84538143Y-54369940D01*
X84645021Y-54369940D01*
X84751900Y-54369940D01*
X84747971Y-55941691D01*
G37*
G36*
X83066130Y-55954290D02*
G01*
X83066774Y-56189077D01*
X83067412Y-56400051D01*
X83068067Y-56588595D01*
X83068758Y-56756095D01*
X83069507Y-56903934D01*
X83070335Y-57033498D01*
X83071263Y-57146170D01*
X83072312Y-57243335D01*
X83073503Y-57326379D01*
X83074857Y-57396685D01*
X83076396Y-57455638D01*
X83078139Y-57504622D01*
X83080109Y-57545022D01*
X83082326Y-57578223D01*
X83084812Y-57605608D01*
X83087587Y-57628564D01*
X83090673Y-57648473D01*
X83092001Y-57655907D01*
X83121354Y-57784247D01*
X83158652Y-57897088D01*
X83202520Y-57990545D01*
X83220887Y-58020560D01*
X83242017Y-58054487D01*
X83254224Y-58078347D01*
X83255045Y-58086706D01*
X83240158Y-58080160D01*
X83211385Y-58063163D01*
X83181813Y-58043952D01*
X83087802Y-57966086D01*
X83005860Y-57868553D01*
X82938441Y-57754978D01*
X82887996Y-57628985D01*
X82878101Y-57595146D01*
X82874819Y-57581703D01*
X82871867Y-57565952D01*
X82869223Y-57546528D01*
X82866865Y-57522067D01*
X82864773Y-57491204D01*
X82862923Y-57452576D01*
X82861296Y-57404817D01*
X82859869Y-57346564D01*
X82858621Y-57276453D01*
X82857531Y-57193119D01*
X82856576Y-57095198D01*
X82855736Y-56981326D01*
X82854988Y-56850138D01*
X82854312Y-56700271D01*
X82853686Y-56530360D01*
X82853089Y-56339041D01*
X82852498Y-56124949D01*
X82852029Y-55941691D01*
X82848100Y-54369940D01*
X82955021Y-54369940D01*
X83061942Y-54369940D01*
X83066130Y-55954290D01*
G37*
G36*
X83381206Y-53446174D02*
G01*
X83435642Y-53470165D01*
X83459821Y-53481270D01*
X83578593Y-53546372D01*
X83676858Y-53623581D01*
X83756847Y-53715464D01*
X83820790Y-53824586D01*
X83870919Y-53953512D01*
X83871172Y-53954318D01*
X83900794Y-54048660D01*
X83900794Y-55806249D01*
X83900794Y-57563839D01*
X83805733Y-57567472D01*
X83758919Y-57568117D01*
X83722324Y-57566493D01*
X83702858Y-57562949D01*
X83701790Y-57562222D01*
X83700715Y-57548777D01*
X83699677Y-57511601D01*
X83698682Y-57452161D01*
X83697739Y-57371922D01*
X83696855Y-57272353D01*
X83696039Y-57154921D01*
X83695297Y-57021091D01*
X83694637Y-56872332D01*
X83694068Y-56710110D01*
X83693597Y-56535893D01*
X83693232Y-56351146D01*
X83692980Y-56157337D01*
X83692850Y-55955933D01*
X83692832Y-55863996D01*
X83692785Y-55616292D01*
X83692658Y-55392516D01*
X83692438Y-55191395D01*
X83692112Y-55011658D01*
X83691667Y-54852034D01*
X83691091Y-54711251D01*
X83690370Y-54588038D01*
X83689492Y-54481122D01*
X83688444Y-54389234D01*
X83687213Y-54311101D01*
X83685786Y-54245452D01*
X83684150Y-54191016D01*
X83682293Y-54146521D01*
X83680201Y-54110695D01*
X83677863Y-54082268D01*
X83675263Y-54059967D01*
X83674535Y-54054960D01*
X83648055Y-53921735D01*
X83610757Y-53806900D01*
X83559975Y-53705004D01*
X83493043Y-53610592D01*
X83416534Y-53527258D01*
X83371041Y-53481502D01*
X83343989Y-53451336D01*
X83336151Y-53435940D01*
X83348300Y-53434492D01*
X83381206Y-53446174D01*
G37*
G36*
X82361846Y-54370968D02*
G01*
X82399171Y-54373712D01*
X82419410Y-54377660D01*
X82421405Y-54379389D01*
X82421578Y-54392960D01*
X82421826Y-54430169D01*
X82422144Y-54489456D01*
X82422525Y-54569263D01*
X82422963Y-54668028D01*
X82423451Y-54784192D01*
X82423983Y-54916195D01*
X82424553Y-55062477D01*
X82425154Y-55221478D01*
X82425781Y-55391639D01*
X82426426Y-55571400D01*
X82427084Y-55759200D01*
X82427523Y-55887048D01*
X82428496Y-56139970D01*
X82429623Y-56372220D01*
X82430896Y-56583347D01*
X82432313Y-56772899D01*
X82433866Y-56940425D01*
X82435550Y-57085472D01*
X82437362Y-57207590D01*
X82439294Y-57306327D01*
X82441342Y-57381231D01*
X82443501Y-57431850D01*
X82445766Y-57457733D01*
X82445819Y-57458035D01*
X82481786Y-57597096D01*
X82536949Y-57720886D01*
X82612230Y-57830662D01*
X82708553Y-57927679D01*
X82826841Y-58013194D01*
X82874015Y-58040870D01*
X82914292Y-58063851D01*
X82934472Y-58077463D01*
X82936798Y-58083990D01*
X82923516Y-58085715D01*
X82918056Y-58085664D01*
X82885868Y-58081781D01*
X82840494Y-58072455D01*
X82800255Y-58062046D01*
X82659858Y-58010675D01*
X82537943Y-57942196D01*
X82434690Y-57856810D01*
X82350277Y-57754718D01*
X82284882Y-57636123D01*
X82238686Y-57501226D01*
X82219264Y-57406349D01*
X82217116Y-57379622D01*
X82215147Y-57328283D01*
X82213363Y-57252916D01*
X82211767Y-57154106D01*
X82210365Y-57032438D01*
X82209162Y-56888497D01*
X82208162Y-56722867D01*
X82207371Y-56536135D01*
X82206793Y-56328884D01*
X82206433Y-56101700D01*
X82206296Y-55855168D01*
X82206296Y-55847197D01*
X82206200Y-54369940D01*
X82313294Y-54369940D01*
X82361846Y-54370968D01*
G37*
G36*
X83956041Y-58706624D02*
G01*
X84039385Y-58720845D01*
X84102381Y-58737137D01*
X84106089Y-58835557D01*
X84107479Y-58884630D01*
X84106413Y-58913112D01*
X84101922Y-58925566D01*
X84093035Y-58926556D01*
X84087190Y-58924413D01*
X83991146Y-58892811D01*
X83899532Y-58880144D01*
X83816477Y-58886665D01*
X83762202Y-58904342D01*
X83694458Y-58948833D01*
X83643609Y-59010410D01*
X83610694Y-59086574D01*
X83596754Y-59174825D01*
X83602828Y-59272665D01*
X83604621Y-59283129D01*
X83630297Y-59379340D01*
X83668417Y-59454252D01*
X83718701Y-59507558D01*
X83780866Y-59538950D01*
X83847472Y-59548214D01*
X83908909Y-59548214D01*
X83904851Y-59360508D01*
X83902884Y-59286150D01*
X83900339Y-59232710D01*
X83896654Y-59195906D01*
X83891269Y-59171458D01*
X83883622Y-59155086D01*
X83876792Y-59146322D01*
X83852791Y-59119841D01*
X83973734Y-59119841D01*
X84031309Y-59120419D01*
X84069962Y-59122966D01*
X84095958Y-59128701D01*
X84115561Y-59138842D01*
X84130027Y-59150234D01*
X84165377Y-59180627D01*
X84168284Y-59420701D01*
X84171191Y-59660775D01*
X84106564Y-59679967D01*
X84051689Y-59691737D01*
X83981709Y-59700400D01*
X83905757Y-59705434D01*
X83832965Y-59706318D01*
X83772466Y-59702529D01*
X83755903Y-59700006D01*
X83638936Y-59667375D01*
X83538974Y-59617405D01*
X83457071Y-59551290D01*
X83394282Y-59470228D01*
X83351659Y-59375412D01*
X83330258Y-59268040D01*
X83327829Y-59214335D01*
X83339002Y-59099993D01*
X83372420Y-58997456D01*
X83427934Y-58907001D01*
X83505391Y-58828908D01*
X83557190Y-58791391D01*
X83642872Y-58748705D01*
X83742918Y-58719616D01*
X83849813Y-58705222D01*
X83956041Y-58706624D01*
G37*
G36*
X82609549Y-58729590D02*
G01*
X82654202Y-58731152D01*
X82684331Y-58734837D01*
X82705272Y-58741528D01*
X82722360Y-58752108D01*
X82732554Y-58760330D01*
X82759859Y-58792749D01*
X82785748Y-58839494D01*
X82795923Y-58864273D01*
X82805742Y-58891477D01*
X82818110Y-58926036D01*
X82833787Y-58970105D01*
X82853538Y-59025845D01*
X82878126Y-59095411D01*
X82908313Y-59180963D01*
X82944862Y-59284658D01*
X82988537Y-59408655D01*
X83018965Y-59495073D01*
X83086753Y-59687617D01*
X82947074Y-59684061D01*
X82807394Y-59680505D01*
X82767861Y-59567112D01*
X82728328Y-59453720D01*
X82572022Y-59453720D01*
X82415715Y-59453720D01*
X82377600Y-59570262D01*
X82339485Y-59686805D01*
X82246296Y-59686805D01*
X82196131Y-59685614D01*
X82167867Y-59681658D01*
X82158307Y-59674360D01*
X82158733Y-59671056D01*
X82163946Y-59655821D01*
X82176259Y-59619523D01*
X82194723Y-59564975D01*
X82218384Y-59494991D01*
X82246293Y-59412384D01*
X82277498Y-59319969D01*
X82290350Y-59281886D01*
X82474569Y-59281886D01*
X82478769Y-59290299D01*
X82494983Y-59294545D01*
X82527882Y-59296047D01*
X82570728Y-59296229D01*
X82617753Y-59295150D01*
X82653241Y-59292281D01*
X82671257Y-59288174D01*
X82672367Y-59286780D01*
X82669772Y-59275746D01*
X82661556Y-59249752D01*
X82647066Y-59206885D01*
X82625650Y-59145235D01*
X82596655Y-59062891D01*
X82576668Y-59006475D01*
X82570511Y-59010208D01*
X82558403Y-59034762D01*
X82541604Y-59076816D01*
X82521370Y-59133045D01*
X82498960Y-59200127D01*
X82477711Y-59267881D01*
X82474569Y-59281886D01*
X82290350Y-59281886D01*
X82307679Y-59230540D01*
X82450999Y-58805773D01*
X82422716Y-58767519D01*
X82394434Y-58729265D01*
X82545035Y-58729265D01*
X82609549Y-58729590D01*
G37*
G36*
X85259550Y-54371811D02*
G01*
X85283557Y-54372580D01*
X85387500Y-54376239D01*
X85391166Y-55837747D01*
X85391729Y-56069701D01*
X85392163Y-56277901D01*
X85392423Y-56463794D01*
X85392466Y-56628825D01*
X85392246Y-56774440D01*
X85391720Y-56902083D01*
X85390842Y-57013200D01*
X85389569Y-57109236D01*
X85387857Y-57191637D01*
X85385660Y-57261849D01*
X85382934Y-57321316D01*
X85379636Y-57371485D01*
X85375720Y-57413799D01*
X85371142Y-57449706D01*
X85365858Y-57480650D01*
X85359824Y-57508076D01*
X85352994Y-57533431D01*
X85345326Y-57558158D01*
X85337623Y-57581209D01*
X85283989Y-57700742D01*
X85209626Y-57807519D01*
X85116436Y-57899861D01*
X85006322Y-57976091D01*
X84881187Y-58034531D01*
X84791881Y-58062391D01*
X84728240Y-58077708D01*
X84688103Y-58084809D01*
X84671044Y-58083373D01*
X84676637Y-58073078D01*
X84704456Y-58053605D01*
X84747028Y-58028598D01*
X84866286Y-57949417D01*
X84964842Y-57857726D01*
X85043492Y-57752249D01*
X85103030Y-57631709D01*
X85144249Y-57494829D01*
X85166578Y-57354313D01*
X85168909Y-57318066D01*
X85171025Y-57257215D01*
X85172920Y-57172350D01*
X85174591Y-57064064D01*
X85176031Y-56932950D01*
X85177236Y-56779599D01*
X85178201Y-56604604D01*
X85178920Y-56408557D01*
X85179389Y-56192051D01*
X85179603Y-55955677D01*
X85179610Y-55819133D01*
X85179570Y-55632726D01*
X85179534Y-55453165D01*
X85179502Y-55282080D01*
X85179475Y-55121104D01*
X85179453Y-54971868D01*
X85179435Y-54836005D01*
X85179424Y-54715145D01*
X85179417Y-54610920D01*
X85179416Y-54524962D01*
X85179421Y-54458902D01*
X85179431Y-54414373D01*
X85179448Y-54393005D01*
X85179453Y-54391479D01*
X85182068Y-54380430D01*
X85193003Y-54374066D01*
X85217188Y-54371491D01*
X85259550Y-54371811D01*
G37*
D12*
%TO.C,C78*%
X120226248Y-53565000D02*
X120748752Y-53565000D01*
X120226248Y-55035000D02*
X120748752Y-55035000D01*
D15*
%TO.C,SW76*%
X130250000Y-57474000D02*
X130250000Y-59826000D01*
X131074000Y-55650000D02*
X135426000Y-55650000D01*
X131074000Y-61650000D02*
X135426000Y-61650000D01*
X136250000Y-57474000D02*
X136250000Y-59826000D01*
D10*
X130100000Y-54646000D02*
G75*
G02*
X129900000Y-54646000I-100000J0D01*
G01*
X129900000Y-54646000D02*
G75*
G02*
X130100000Y-54646000I100000J0D01*
G01*
D12*
%TO.C,J4*%
X46050000Y-98270000D02*
X52050000Y-98270000D01*
X46050000Y-99130000D02*
X46050000Y-98270000D01*
X46050000Y-100810000D02*
X52050000Y-100810000D01*
X46050000Y-101670000D02*
X46050000Y-100810000D01*
X46050000Y-103350000D02*
X52050000Y-103350000D01*
X46050000Y-104210000D02*
X46050000Y-103350000D01*
X52050000Y-97320000D02*
X52050000Y-107700000D01*
X52050000Y-99130000D02*
X46050000Y-99130000D01*
X52050000Y-101670000D02*
X46050000Y-101670000D01*
X52050000Y-104210000D02*
X46050000Y-104210000D01*
X52050000Y-107700000D02*
X54810000Y-107700000D01*
X54810000Y-97320000D02*
X52050000Y-97320000D01*
X54810000Y-99970000D02*
X52050000Y-99970000D01*
X54810000Y-102510000D02*
X52050000Y-102510000D01*
X54810000Y-105050000D02*
X52050000Y-105050000D01*
X54810000Y-107700000D02*
X54810000Y-97320000D01*
X55040000Y-105890000D02*
X54810000Y-105890000D01*
X55040000Y-106750000D02*
X54810000Y-106750000D01*
X55122642Y-98270000D02*
X54810000Y-98270000D01*
X55122642Y-99130000D02*
X54810000Y-99130000D01*
X55122642Y-100810000D02*
X54810000Y-100810000D01*
X55122642Y-101670000D02*
X54810000Y-101670000D01*
X55122642Y-103350000D02*
X54810000Y-103350000D01*
X55122642Y-104210000D02*
X54810000Y-104210000D01*
X57470000Y-106320000D02*
X57470000Y-107590000D01*
X57470000Y-107590000D02*
X56200000Y-107590000D01*
X52050000Y-106750000D02*
X46050000Y-106750000D01*
X46050000Y-105890000D01*
X52050000Y-105890000D01*
X52050000Y-106750000D01*
G36*
X52050000Y-106750000D02*
G01*
X46050000Y-106750000D01*
X46050000Y-105890000D01*
X52050000Y-105890000D01*
X52050000Y-106750000D01*
G37*
%TO.C,C79*%
X132938748Y-53515000D02*
X133461252Y-53515000D01*
X132938748Y-54985000D02*
X133461252Y-54985000D01*
%TO.C,C66*%
X68120000Y-63932600D02*
X72280000Y-63932600D01*
X68120000Y-63972600D02*
X72280000Y-63972600D01*
X68122000Y-63892600D02*
X72278000Y-63892600D01*
X68123000Y-63852600D02*
X72277000Y-63852600D01*
X68126000Y-63812600D02*
X72274000Y-63812600D01*
X68129000Y-63772600D02*
X69360000Y-63772600D01*
X68134000Y-63732600D02*
X69360000Y-63732600D01*
X68139000Y-63692600D02*
X69360000Y-63692600D01*
X68144000Y-63652600D02*
X69360000Y-63652600D01*
X68151000Y-63612600D02*
X69360000Y-63612600D01*
X68158000Y-63572600D02*
X69360000Y-63572600D01*
X68166000Y-63532600D02*
X69360000Y-63532600D01*
X68175000Y-63492600D02*
X69360000Y-63492600D01*
X68185000Y-63452600D02*
X69360000Y-63452600D01*
X68195000Y-63412600D02*
X69360000Y-63412600D01*
X68207000Y-63372600D02*
X69360000Y-63372600D01*
X68219000Y-63332600D02*
X69360000Y-63332600D01*
X68232000Y-63292600D02*
X69360000Y-63292600D01*
X68246000Y-63252600D02*
X69360000Y-63252600D01*
X68261000Y-63212600D02*
X69360000Y-63212600D01*
X68277000Y-63172600D02*
X69360000Y-63172600D01*
X68294000Y-63132600D02*
X69360000Y-63132600D01*
X68311000Y-63092600D02*
X69360000Y-63092600D01*
X68330000Y-63052600D02*
X69360000Y-63052600D01*
X68350000Y-63012600D02*
X69360000Y-63012600D01*
X68371000Y-62972600D02*
X69360000Y-62972600D01*
X68393000Y-62932600D02*
X69360000Y-62932600D01*
X68416000Y-62892600D02*
X69360000Y-62892600D01*
X68440000Y-62852600D02*
X69360000Y-62852600D01*
X68466000Y-62812600D02*
X69360000Y-62812600D01*
X68492000Y-62772600D02*
X69360000Y-62772600D01*
X68520000Y-62732600D02*
X69360000Y-62732600D01*
X68550000Y-62692600D02*
X69360000Y-62692600D01*
X68581000Y-62652600D02*
X69360000Y-62652600D01*
X68614000Y-62612600D02*
X69360000Y-62612600D01*
X68648000Y-62572600D02*
X69360000Y-62572600D01*
X68684000Y-62532600D02*
X69360000Y-62532600D01*
X68722000Y-62492600D02*
X69360000Y-62492600D01*
X68762000Y-62452600D02*
X69360000Y-62452600D01*
X68804000Y-62412600D02*
X69360000Y-62412600D01*
X68805000Y-66042401D02*
X69205000Y-66042401D01*
X68849000Y-62372600D02*
X69360000Y-62372600D01*
X68897000Y-62332600D02*
X69360000Y-62332600D01*
X68947000Y-62292600D02*
X69360000Y-62292600D01*
X69001000Y-62252600D02*
X69360000Y-62252600D01*
X69005000Y-66242401D02*
X69005000Y-65842401D01*
X69058000Y-62212600D02*
X69360000Y-62212600D01*
X69120000Y-62172600D02*
X69360000Y-62172600D01*
X69187000Y-62132600D02*
X71213000Y-62132600D01*
X69260000Y-62092600D02*
X71140000Y-62092600D01*
X69341000Y-62052600D02*
X71059000Y-62052600D01*
X69432000Y-62012600D02*
X70968000Y-62012600D01*
X69537000Y-61972600D02*
X70863000Y-61972600D01*
X69663000Y-61932600D02*
X70737000Y-61932600D01*
X69830000Y-61892600D02*
X70570000Y-61892600D01*
X71040000Y-62172600D02*
X71280000Y-62172600D01*
X71040000Y-62212600D02*
X71342000Y-62212600D01*
X71040000Y-62252600D02*
X71399000Y-62252600D01*
X71040000Y-62292600D02*
X71453000Y-62292600D01*
X71040000Y-62332600D02*
X71503000Y-62332600D01*
X71040000Y-62372600D02*
X71551000Y-62372600D01*
X71040000Y-62412600D02*
X71596000Y-62412600D01*
X71040000Y-62452600D02*
X71638000Y-62452600D01*
X71040000Y-62492600D02*
X71678000Y-62492600D01*
X71040000Y-62532600D02*
X71716000Y-62532600D01*
X71040000Y-62572600D02*
X71752000Y-62572600D01*
X71040000Y-62612600D02*
X71786000Y-62612600D01*
X71040000Y-62652600D02*
X71819000Y-62652600D01*
X71040000Y-62692600D02*
X71850000Y-62692600D01*
X71040000Y-62732600D02*
X71880000Y-62732600D01*
X71040000Y-62772600D02*
X71908000Y-62772600D01*
X71040000Y-62812600D02*
X71934000Y-62812600D01*
X71040000Y-62852600D02*
X71960000Y-62852600D01*
X71040000Y-62892600D02*
X71984000Y-62892600D01*
X71040000Y-62932600D02*
X72007000Y-62932600D01*
X71040000Y-62972600D02*
X72029000Y-62972600D01*
X71040000Y-63012600D02*
X72050000Y-63012600D01*
X71040000Y-63052600D02*
X72070000Y-63052600D01*
X71040000Y-63092600D02*
X72089000Y-63092600D01*
X71040000Y-63132600D02*
X72106000Y-63132600D01*
X71040000Y-63172600D02*
X72123000Y-63172600D01*
X71040000Y-63212600D02*
X72139000Y-63212600D01*
X71040000Y-63252600D02*
X72154000Y-63252600D01*
X71040000Y-63292600D02*
X72168000Y-63292600D01*
X71040000Y-63332600D02*
X72181000Y-63332600D01*
X71040000Y-63372600D02*
X72193000Y-63372600D01*
X71040000Y-63412600D02*
X72205000Y-63412600D01*
X71040000Y-63452600D02*
X72215000Y-63452600D01*
X71040000Y-63492600D02*
X72225000Y-63492600D01*
X71040000Y-63532600D02*
X72234000Y-63532600D01*
X71040000Y-63572600D02*
X72242000Y-63572600D01*
X71040000Y-63612600D02*
X72249000Y-63612600D01*
X71040000Y-63652600D02*
X72256000Y-63652600D01*
X71040000Y-63692600D02*
X72261000Y-63692600D01*
X71040000Y-63732600D02*
X72266000Y-63732600D01*
X71040000Y-63772600D02*
X72271000Y-63772600D01*
X72320000Y-63972600D02*
G75*
G02*
X68080000Y-63972600I-2120000J0D01*
G01*
X68080000Y-63972600D02*
G75*
G02*
X72320000Y-63972600I2120000J0D01*
G01*
D15*
%TO.C,SW74*%
X104850000Y-57424000D02*
X104850000Y-59776000D01*
X105674000Y-55600000D02*
X110026000Y-55600000D01*
X105674000Y-61600000D02*
X110026000Y-61600000D01*
X110850000Y-57424000D02*
X110850000Y-59776000D01*
D10*
X104700000Y-54596000D02*
G75*
G02*
X104500000Y-54596000I-100000J0D01*
G01*
X104500000Y-54596000D02*
G75*
G02*
X104700000Y-54596000I100000J0D01*
G01*
D15*
%TO.C,SW75*%
X117550000Y-57474000D02*
X117550000Y-59826000D01*
X118374000Y-55650000D02*
X122726000Y-55650000D01*
X118374000Y-61650000D02*
X122726000Y-61650000D01*
X123550000Y-57474000D02*
X123550000Y-59826000D01*
D10*
X117400000Y-54646000D02*
G75*
G02*
X117200000Y-54646000I-100000J0D01*
G01*
X117200000Y-54646000D02*
G75*
G02*
X117400000Y-54646000I100000J0D01*
G01*
D12*
%TO.C,C76*%
X94888748Y-53365000D02*
X95411252Y-53365000D01*
X94888748Y-54835000D02*
X95411252Y-54835000D01*
%TO.C,J1*%
X55400000Y-53200000D02*
X64600000Y-53200000D01*
X55400000Y-62000000D02*
X55400000Y-53200000D01*
X55400000Y-67900000D02*
X55400000Y-66000000D01*
X58100000Y-67900000D02*
X55400000Y-67900000D01*
X63750000Y-68100000D02*
X64800000Y-68100000D01*
X64600000Y-53200000D02*
X64600000Y-67900000D01*
X64600000Y-67900000D02*
X62000000Y-67900000D01*
X64800000Y-67050000D02*
X64800000Y-68100000D01*
%TO.C,C77*%
X107588748Y-53365000D02*
X108111252Y-53365000D01*
X107588748Y-54835000D02*
X108111252Y-54835000D01*
%TO.C,J5*%
X46100000Y-73260000D02*
X52100000Y-73260000D01*
X46100000Y-74120000D02*
X46100000Y-73260000D01*
X46100000Y-75800000D02*
X52100000Y-75800000D01*
X46100000Y-76660000D02*
X46100000Y-75800000D01*
X46100000Y-78340000D02*
X52100000Y-78340000D01*
X46100000Y-79200000D02*
X46100000Y-78340000D01*
X52100000Y-72310000D02*
X52100000Y-82690000D01*
X52100000Y-74120000D02*
X46100000Y-74120000D01*
X52100000Y-76660000D02*
X46100000Y-76660000D01*
X52100000Y-79200000D02*
X46100000Y-79200000D01*
X52100000Y-82690000D02*
X54860000Y-82690000D01*
X54860000Y-72310000D02*
X52100000Y-72310000D01*
X54860000Y-74960000D02*
X52100000Y-74960000D01*
X54860000Y-77500000D02*
X52100000Y-77500000D01*
X54860000Y-80040000D02*
X52100000Y-80040000D01*
X54860000Y-82690000D02*
X54860000Y-72310000D01*
X55090000Y-80880000D02*
X54860000Y-80880000D01*
X55090000Y-81740000D02*
X54860000Y-81740000D01*
X55172642Y-73260000D02*
X54860000Y-73260000D01*
X55172642Y-74120000D02*
X54860000Y-74120000D01*
X55172642Y-75800000D02*
X54860000Y-75800000D01*
X55172642Y-76660000D02*
X54860000Y-76660000D01*
X55172642Y-78340000D02*
X54860000Y-78340000D01*
X55172642Y-79200000D02*
X54860000Y-79200000D01*
X57520000Y-81310000D02*
X57520000Y-82580000D01*
X57520000Y-82580000D02*
X56250000Y-82580000D01*
X52100000Y-81740000D02*
X46100000Y-81740000D01*
X46100000Y-80880000D01*
X52100000Y-80880000D01*
X52100000Y-81740000D01*
G36*
X52100000Y-81740000D02*
G01*
X46100000Y-81740000D01*
X46100000Y-80880000D01*
X52100000Y-80880000D01*
X52100000Y-81740000D01*
G37*
D15*
%TO.C,SW73*%
X92150000Y-57424000D02*
X92150000Y-59776000D01*
X92974000Y-55600000D02*
X97326000Y-55600000D01*
X92974000Y-61600000D02*
X97326000Y-61600000D01*
X98150000Y-57424000D02*
X98150000Y-59776000D01*
D10*
X92000000Y-54596000D02*
G75*
G02*
X91800000Y-54596000I-100000J0D01*
G01*
X91800000Y-54596000D02*
G75*
G02*
X92000000Y-54596000I100000J0D01*
G01*
%TD*%
%LPC*%
D16*
%TO.C,C67*%
X76800000Y-65000000D03*
D17*
X76800000Y-63000000D03*
%TD*%
D18*
%TO.C,U10*%
X97680000Y-147500000D03*
X100220000Y-147500000D03*
X102760000Y-147500000D03*
X105300000Y-147500000D03*
X107840000Y-147500000D03*
X110380000Y-147500000D03*
X112920000Y-147500000D03*
X115460000Y-147500000D03*
X118000000Y-147500000D03*
X120540000Y-147500000D03*
X123080000Y-147500000D03*
X125620000Y-147500000D03*
X128160000Y-147500000D03*
X130700000Y-147500000D03*
X110410000Y-66700000D03*
X112950000Y-66700000D03*
X115490000Y-66700000D03*
X118030000Y-66700000D03*
%TD*%
D19*
%TO.C,C78*%
X119450000Y-54300000D03*
X121525000Y-54300000D03*
%TD*%
D20*
%TO.C,SW76*%
X130000000Y-56400000D03*
D21*
X136500000Y-56400000D03*
X130000000Y-60900000D03*
X136500000Y-60900000D03*
%TD*%
D22*
%TO.C,J4*%
X56200000Y-106320000D03*
D23*
X56200000Y-103780000D03*
X56200000Y-101240000D03*
X56200000Y-98700000D03*
%TD*%
D19*
%TO.C,C79*%
X132162500Y-54250000D03*
X134237500Y-54250000D03*
%TD*%
D16*
%TO.C,C66*%
X70200000Y-64972600D03*
D17*
X70200000Y-62972600D03*
%TD*%
D20*
%TO.C,SW74*%
X104600000Y-56350000D03*
D21*
X111100000Y-56350000D03*
X104600000Y-60850000D03*
X111100000Y-60850000D03*
%TD*%
D20*
%TO.C,SW75*%
X117300000Y-56400000D03*
D21*
X123800000Y-56400000D03*
X117300000Y-60900000D03*
X123800000Y-60900000D03*
%TD*%
D19*
%TO.C,C76*%
X94112500Y-54100000D03*
X96187500Y-54100000D03*
%TD*%
D24*
%TO.C,J1*%
X60000000Y-67000000D03*
D25*
X60000000Y-61000000D03*
D26*
X55300000Y-64000000D03*
%TD*%
D19*
%TO.C,C77*%
X106812500Y-54100000D03*
X108887500Y-54100000D03*
%TD*%
D22*
%TO.C,J5*%
X56250000Y-81310000D03*
D23*
X56250000Y-78770000D03*
X56250000Y-76230000D03*
X56250000Y-73690000D03*
%TD*%
D20*
%TO.C,SW73*%
X91900000Y-56350000D03*
D21*
X98400000Y-56350000D03*
X91900000Y-60850000D03*
X98400000Y-60850000D03*
%TD*%
D22*
%TO.C,J7*%
X56250000Y-148250000D03*
%TD*%
D27*
%TO.C,U11*%
X94970000Y-82500000D03*
X147040000Y-115520000D03*
X96240000Y-130760000D03*
D28*
X122660000Y-130760000D03*
D29*
X120120000Y-130760000D03*
X117580000Y-130760000D03*
X115040000Y-130760000D03*
X112500000Y-130760000D03*
X109960000Y-130760000D03*
X107420000Y-130760000D03*
X104880000Y-130760000D03*
X102340000Y-130760000D03*
X99800000Y-130760000D03*
D28*
X108940000Y-82500000D03*
D29*
X111480000Y-82500000D03*
X114020000Y-82500000D03*
X116560000Y-82500000D03*
X119100000Y-82500000D03*
X121640000Y-82500000D03*
X124180000Y-82500000D03*
X126720000Y-82500000D03*
D30*
X98780000Y-74880000D03*
D31*
X98780000Y-77420000D03*
X101320000Y-74880000D03*
X101320000Y-77420000D03*
X103860000Y-74880000D03*
X103860000Y-77420000D03*
X106400000Y-74880000D03*
X106400000Y-77420000D03*
X108940000Y-74880000D03*
X108940000Y-77420000D03*
X111480000Y-74880000D03*
X111480000Y-77420000D03*
X114020000Y-74880000D03*
X114020000Y-77420000D03*
X116560000Y-74880000D03*
X116560000Y-77420000D03*
X119100000Y-74880000D03*
X119100000Y-77420000D03*
X121640000Y-74880000D03*
X121640000Y-77420000D03*
X124180000Y-74880000D03*
X124180000Y-77420000D03*
X126720000Y-74880000D03*
X126720000Y-77420000D03*
X129260000Y-74880000D03*
X129260000Y-77420000D03*
X131800000Y-74880000D03*
X131800000Y-77420000D03*
X134340000Y-74880000D03*
X134340000Y-77420000D03*
X136880000Y-74880000D03*
X136880000Y-77420000D03*
X139420000Y-74880000D03*
X139420000Y-77420000D03*
X141960000Y-74880000D03*
X141960000Y-77420000D03*
X144500000Y-74880000D03*
X144500000Y-77420000D03*
D28*
X131800000Y-82500000D03*
D29*
X134340000Y-82500000D03*
X136880000Y-82500000D03*
X139420000Y-82500000D03*
X141960000Y-82500000D03*
X144500000Y-82500000D03*
D28*
X144500000Y-130760000D03*
D29*
X141960000Y-130760000D03*
X139420000Y-130760000D03*
X136880000Y-130760000D03*
X134340000Y-130760000D03*
X131800000Y-130760000D03*
X129260000Y-130760000D03*
X126720000Y-130760000D03*
D30*
X98780000Y-135840000D03*
D31*
X98780000Y-138380000D03*
X101320000Y-135840000D03*
X101320000Y-138380000D03*
X103860000Y-135840000D03*
X103860000Y-138380000D03*
X106400000Y-135840000D03*
X106400000Y-138380000D03*
X108940000Y-135840000D03*
X108940000Y-138380000D03*
X111480000Y-135840000D03*
X111480000Y-138380000D03*
X114020000Y-135840000D03*
X114020000Y-138380000D03*
X116560000Y-135840000D03*
X116560000Y-138380000D03*
X119100000Y-135840000D03*
X119100000Y-138380000D03*
X121640000Y-135840000D03*
X121640000Y-138380000D03*
X124180000Y-135840000D03*
X124180000Y-138380000D03*
X126720000Y-135840000D03*
X126720000Y-138380000D03*
X129260000Y-135840000D03*
X129260000Y-138380000D03*
X131800000Y-135840000D03*
X131800000Y-138380000D03*
X134340000Y-135840000D03*
X134340000Y-138380000D03*
X136880000Y-135840000D03*
X136880000Y-138380000D03*
X139420000Y-135840000D03*
X139420000Y-138380000D03*
X141960000Y-135840000D03*
X141960000Y-138380000D03*
X144500000Y-135840000D03*
X144500000Y-138380000D03*
X73380000Y-138460000D03*
X70880000Y-138460000D03*
X73380000Y-74890000D03*
X70880000Y-74890000D03*
%TD*%
D22*
%TO.C,J2*%
X56200000Y-143410000D03*
D23*
X56200000Y-140870000D03*
X56200000Y-138330000D03*
X56200000Y-135790000D03*
%TD*%
D22*
%TO.C,J6*%
X56200000Y-113360000D03*
D23*
X56200000Y-115900000D03*
X56200000Y-118440000D03*
%TD*%
D22*
%TO.C,J3*%
X56200000Y-131200000D03*
D23*
X56200000Y-128660000D03*
X56200000Y-126120000D03*
X56200000Y-123580000D03*
%TD*%
%LPD*%
M02*
