%TF.GenerationSoftware,KiCad,Pcbnew,9.0.6*%
%TF.CreationDate,2025-11-14T23:18:00+01:00*%
%TF.ProjectId,uC_screen_power,75435f73-6372-4656-956e-5f706f776572,1*%
%TF.SameCoordinates,Original*%
%TF.FileFunction,Legend,Bot*%
%TF.FilePolarity,Positive*%
%FSLAX46Y46*%
G04 Gerber Fmt 4.6, Leading zero omitted, Abs format (unit mm)*
G04 Created by KiCad (PCBNEW 9.0.6) date 2025-11-14 23:18:00*
%MOMM*%
%LPD*%
G01*
G04 APERTURE LIST*
G04 Aperture macros list*
%AMRoundRect*
0 Rectangle with rounded corners*
0 $1 Rounding radius*
0 $2 $3 $4 $5 $6 $7 $8 $9 X,Y pos of 4 corners*
0 Add a 4 corners polygon primitive as box body*
4,1,4,$2,$3,$4,$5,$6,$7,$8,$9,$2,$3,0*
0 Add four circle primitives for the rounded corners*
1,1,$1+$1,$2,$3*
1,1,$1+$1,$4,$5*
1,1,$1+$1,$6,$7*
1,1,$1+$1,$8,$9*
0 Add four rect primitives between the rounded corners*
20,1,$1+$1,$2,$3,$4,$5,0*
20,1,$1+$1,$4,$5,$6,$7,0*
20,1,$1+$1,$6,$7,$8,$9,0*
20,1,$1+$1,$8,$9,$2,$3,0*%
G04 Aperture macros list end*
%ADD10C,0.150000*%
%ADD11C,0.120000*%
%ADD12C,0.127000*%
%ADD13C,0.200000*%
%ADD14RoundRect,0.250000X0.350000X-0.350000X0.350000X0.350000X-0.350000X0.350000X-0.350000X-0.350000X0*%
%ADD15C,1.200000*%
%ADD16O,1.500000X3.000000*%
%ADD17RoundRect,0.102000X-0.754000X-0.754000X0.754000X-0.754000X0.754000X0.754000X-0.754000X0.754000X0*%
%ADD18C,1.712000*%
%ADD19R,1.700000X1.700000*%
%ADD20C,1.700000*%
%ADD21R,3.500000X3.500000*%
%ADD22RoundRect,0.750000X-1.000000X0.750000X-1.000000X-0.750000X1.000000X-0.750000X1.000000X0.750000X0*%
%ADD23RoundRect,0.875000X-0.875000X0.875000X-0.875000X-0.875000X0.875000X-0.875000X0.875000X0.875000X0*%
%ADD24C,3.000000*%
%ADD25RoundRect,0.102000X-0.802500X0.802500X-0.802500X-0.802500X0.802500X-0.802500X0.802500X0.802500X0*%
%ADD26C,1.809000*%
%ADD27RoundRect,0.102000X-0.765000X0.765000X-0.765000X-0.765000X0.765000X-0.765000X0.765000X0.765000X0*%
%ADD28C,1.734000*%
G04 APERTURE END LIST*
D10*
X56633333Y-150354819D02*
X56633333Y-151069104D01*
X56633333Y-151069104D02*
X56680952Y-151211961D01*
X56680952Y-151211961D02*
X56776190Y-151307200D01*
X56776190Y-151307200D02*
X56919047Y-151354819D01*
X56919047Y-151354819D02*
X57014285Y-151354819D01*
X56252380Y-150354819D02*
X55585714Y-150354819D01*
X55585714Y-150354819D02*
X56014285Y-151354819D01*
X65109819Y-73566905D02*
X65919342Y-73566905D01*
X65919342Y-73566905D02*
X66014580Y-73614524D01*
X66014580Y-73614524D02*
X66062200Y-73662143D01*
X66062200Y-73662143D02*
X66109819Y-73757381D01*
X66109819Y-73757381D02*
X66109819Y-73947857D01*
X66109819Y-73947857D02*
X66062200Y-74043095D01*
X66062200Y-74043095D02*
X66014580Y-74090714D01*
X66014580Y-74090714D02*
X65919342Y-74138333D01*
X65919342Y-74138333D02*
X65109819Y-74138333D01*
X66109819Y-75138333D02*
X66109819Y-74566905D01*
X66109819Y-74852619D02*
X65109819Y-74852619D01*
X65109819Y-74852619D02*
X65252676Y-74757381D01*
X65252676Y-74757381D02*
X65347914Y-74662143D01*
X65347914Y-74662143D02*
X65395533Y-74566905D01*
X66109819Y-76090714D02*
X66109819Y-75519286D01*
X66109819Y-75805000D02*
X65109819Y-75805000D01*
X65109819Y-75805000D02*
X65252676Y-75709762D01*
X65252676Y-75709762D02*
X65347914Y-75614524D01*
X65347914Y-75614524D02*
X65395533Y-75519286D01*
X56533333Y-145244819D02*
X56533333Y-145959104D01*
X56533333Y-145959104D02*
X56580952Y-146101961D01*
X56580952Y-146101961D02*
X56676190Y-146197200D01*
X56676190Y-146197200D02*
X56819047Y-146244819D01*
X56819047Y-146244819D02*
X56914285Y-146244819D01*
X56104761Y-145340057D02*
X56057142Y-145292438D01*
X56057142Y-145292438D02*
X55961904Y-145244819D01*
X55961904Y-145244819D02*
X55723809Y-145244819D01*
X55723809Y-145244819D02*
X55628571Y-145292438D01*
X55628571Y-145292438D02*
X55580952Y-145340057D01*
X55580952Y-145340057D02*
X55533333Y-145435295D01*
X55533333Y-145435295D02*
X55533333Y-145530533D01*
X55533333Y-145530533D02*
X55580952Y-145673390D01*
X55580952Y-145673390D02*
X56152380Y-146244819D01*
X56152380Y-146244819D02*
X55533333Y-146244819D01*
X56533333Y-120394819D02*
X56533333Y-121109104D01*
X56533333Y-121109104D02*
X56580952Y-121251961D01*
X56580952Y-121251961D02*
X56676190Y-121347200D01*
X56676190Y-121347200D02*
X56819047Y-121394819D01*
X56819047Y-121394819D02*
X56914285Y-121394819D01*
X55628571Y-120394819D02*
X55819047Y-120394819D01*
X55819047Y-120394819D02*
X55914285Y-120442438D01*
X55914285Y-120442438D02*
X55961904Y-120490057D01*
X55961904Y-120490057D02*
X56057142Y-120632914D01*
X56057142Y-120632914D02*
X56104761Y-120823390D01*
X56104761Y-120823390D02*
X56104761Y-121204342D01*
X56104761Y-121204342D02*
X56057142Y-121299580D01*
X56057142Y-121299580D02*
X56009523Y-121347200D01*
X56009523Y-121347200D02*
X55914285Y-121394819D01*
X55914285Y-121394819D02*
X55723809Y-121394819D01*
X55723809Y-121394819D02*
X55628571Y-121347200D01*
X55628571Y-121347200D02*
X55580952Y-121299580D01*
X55580952Y-121299580D02*
X55533333Y-121204342D01*
X55533333Y-121204342D02*
X55533333Y-120966247D01*
X55533333Y-120966247D02*
X55580952Y-120871009D01*
X55580952Y-120871009D02*
X55628571Y-120823390D01*
X55628571Y-120823390D02*
X55723809Y-120775771D01*
X55723809Y-120775771D02*
X55914285Y-120775771D01*
X55914285Y-120775771D02*
X56009523Y-120823390D01*
X56009523Y-120823390D02*
X56057142Y-120871009D01*
X56057142Y-120871009D02*
X56104761Y-120966247D01*
X56533333Y-133034819D02*
X56533333Y-133749104D01*
X56533333Y-133749104D02*
X56580952Y-133891961D01*
X56580952Y-133891961D02*
X56676190Y-133987200D01*
X56676190Y-133987200D02*
X56819047Y-134034819D01*
X56819047Y-134034819D02*
X56914285Y-134034819D01*
X56152380Y-133034819D02*
X55533333Y-133034819D01*
X55533333Y-133034819D02*
X55866666Y-133415771D01*
X55866666Y-133415771D02*
X55723809Y-133415771D01*
X55723809Y-133415771D02*
X55628571Y-133463390D01*
X55628571Y-133463390D02*
X55580952Y-133511009D01*
X55580952Y-133511009D02*
X55533333Y-133606247D01*
X55533333Y-133606247D02*
X55533333Y-133844342D01*
X55533333Y-133844342D02*
X55580952Y-133939580D01*
X55580952Y-133939580D02*
X55628571Y-133987200D01*
X55628571Y-133987200D02*
X55723809Y-134034819D01*
X55723809Y-134034819D02*
X56009523Y-134034819D01*
X56009523Y-134034819D02*
X56104761Y-133987200D01*
X56104761Y-133987200D02*
X56152380Y-133939580D01*
D11*
%TO.C,J7*%
X54870000Y-149520000D02*
X54870000Y-149630000D01*
X57630000Y-146870000D02*
X56250000Y-146870000D01*
X57630000Y-148250000D02*
X57630000Y-146870000D01*
X57630000Y-149520000D02*
X54870000Y-149520000D01*
X57630000Y-149520000D02*
X57630000Y-149630000D01*
X57630000Y-149630000D02*
X54870000Y-149630000D01*
D12*
%TO.C,U11*%
X67040000Y-73130000D02*
X67040000Y-140130000D01*
X68540000Y-141630000D02*
X146040000Y-141630000D01*
X97510000Y-73650000D02*
X145770000Y-73650000D01*
X97510000Y-78650000D02*
X97510000Y-73650000D01*
X97510000Y-134610000D02*
X145770000Y-134610000D01*
X97510000Y-139610000D02*
X97510000Y-134610000D01*
X98280000Y-129510000D02*
X124180000Y-129510000D01*
X98280000Y-132010000D02*
X98280000Y-129510000D01*
X107420000Y-81250000D02*
X128240000Y-81250000D01*
X107420000Y-83750000D02*
X107420000Y-81250000D01*
X124180000Y-129510000D02*
X124180000Y-132010000D01*
X124180000Y-132010000D02*
X98280000Y-132010000D01*
X125200000Y-129510000D02*
X146020000Y-129510000D01*
X125200000Y-132010000D02*
X125200000Y-129510000D01*
X128240000Y-81250000D02*
X128240000Y-83750000D01*
X128240000Y-83750000D02*
X107420000Y-83750000D01*
X130280000Y-81250000D02*
X146020000Y-81250000D01*
X130280000Y-83750000D02*
X130280000Y-81250000D01*
X145770000Y-73650000D02*
X145770000Y-78650000D01*
X145770000Y-78650000D02*
X97510000Y-78650000D01*
X145770000Y-134610000D02*
X145770000Y-139610000D01*
X145770000Y-139610000D02*
X97510000Y-139610000D01*
X146020000Y-81250000D02*
X146020000Y-83750000D01*
X146020000Y-83750000D02*
X130280000Y-83750000D01*
X146020000Y-129510000D02*
X146020000Y-132010000D01*
X146020000Y-132010000D02*
X125200000Y-132010000D01*
X146040000Y-71630000D02*
X68540000Y-71630000D01*
X147540000Y-82630000D02*
X147540000Y-73130000D01*
X147540000Y-119630000D02*
X149540000Y-117630000D01*
X147540000Y-140130000D02*
X147540000Y-119630000D01*
X149540000Y-84630000D02*
X147540000Y-82630000D01*
X149540000Y-117630000D02*
X149540000Y-84630000D01*
X67040000Y-73130000D02*
G75*
G02*
X68540000Y-71630000I1500001J-1D01*
G01*
X68540000Y-141630000D02*
G75*
G02*
X67040000Y-140130000I0J1500000D01*
G01*
X146040000Y-71630000D02*
G75*
G02*
X147540000Y-73130000I-1J-1500001D01*
G01*
X147540000Y-140130000D02*
G75*
G02*
X146040000Y-141630000I-1500000J0D01*
G01*
D13*
X98880000Y-73130000D02*
G75*
G02*
X98680000Y-73130000I-100000J0D01*
G01*
X98680000Y-73130000D02*
G75*
G02*
X98880000Y-73130000I100000J0D01*
G01*
X98880000Y-134090000D02*
G75*
G02*
X98680000Y-134090000I-100000J0D01*
G01*
X98680000Y-134090000D02*
G75*
G02*
X98880000Y-134090000I100000J0D01*
G01*
X109040000Y-80750000D02*
G75*
G02*
X108840000Y-80750000I-100000J0D01*
G01*
X108840000Y-80750000D02*
G75*
G02*
X109040000Y-80750000I100000J0D01*
G01*
X122760000Y-132510000D02*
G75*
G02*
X122560000Y-132510000I-100000J0D01*
G01*
X122560000Y-132510000D02*
G75*
G02*
X122760000Y-132510000I100000J0D01*
G01*
X131900000Y-80750000D02*
G75*
G02*
X131700000Y-80750000I-100000J0D01*
G01*
X131700000Y-80750000D02*
G75*
G02*
X131900000Y-80750000I100000J0D01*
G01*
X144600000Y-132510000D02*
G75*
G02*
X144400000Y-132510000I-100000J0D01*
G01*
X144400000Y-132510000D02*
G75*
G02*
X144600000Y-132510000I100000J0D01*
G01*
D11*
%TO.C,J2*%
X54820000Y-134410000D02*
X57580000Y-134410000D01*
X54820000Y-142140000D02*
X54820000Y-134410000D01*
X54820000Y-142140000D02*
X57580000Y-142140000D01*
X54820000Y-143410000D02*
X54820000Y-144790000D01*
X54820000Y-144790000D02*
X56200000Y-144790000D01*
X57580000Y-142140000D02*
X57580000Y-134410000D01*
%TO.C,J6*%
X54820000Y-114630000D02*
X54820000Y-119820000D01*
X57580000Y-111980000D02*
X56200000Y-111980000D01*
X57580000Y-113360000D02*
X57580000Y-111980000D01*
X57580000Y-114630000D02*
X54820000Y-114630000D01*
X57580000Y-114630000D02*
X57580000Y-119820000D01*
X57580000Y-119820000D02*
X54820000Y-119820000D01*
%TO.C,J3*%
X54820000Y-122200000D02*
X57580000Y-122200000D01*
X54820000Y-129930000D02*
X54820000Y-122200000D01*
X54820000Y-129930000D02*
X57580000Y-129930000D01*
X54820000Y-131200000D02*
X54820000Y-132580000D01*
X54820000Y-132580000D02*
X56200000Y-132580000D01*
X57580000Y-129930000D02*
X57580000Y-122200000D01*
%TD*%
%LPC*%
D14*
%TO.C,C67*%
X76800000Y-65000000D03*
D15*
X76800000Y-63000000D03*
%TD*%
D16*
%TO.C,U10*%
X97680000Y-147500000D03*
X100220000Y-147500000D03*
X102760000Y-147500000D03*
X105300000Y-147500000D03*
X107840000Y-147500000D03*
X110380000Y-147500000D03*
X112920000Y-147500000D03*
X115460000Y-147500000D03*
X118000000Y-147500000D03*
X120540000Y-147500000D03*
X123080000Y-147500000D03*
X125620000Y-147500000D03*
X128160000Y-147500000D03*
X130700000Y-147500000D03*
X110410000Y-66700000D03*
X112950000Y-66700000D03*
X115490000Y-66700000D03*
X118030000Y-66700000D03*
%TD*%
D17*
%TO.C,SW76*%
X130000000Y-56400000D03*
D18*
X136500000Y-56400000D03*
X130000000Y-60900000D03*
X136500000Y-60900000D03*
%TD*%
D19*
%TO.C,J4*%
X56200000Y-106320000D03*
D20*
X56200000Y-103780000D03*
X56200000Y-101240000D03*
X56200000Y-98700000D03*
%TD*%
D14*
%TO.C,C66*%
X70200000Y-64972600D03*
D15*
X70200000Y-62972600D03*
%TD*%
D17*
%TO.C,SW74*%
X104600000Y-56350000D03*
D18*
X111100000Y-56350000D03*
X104600000Y-60850000D03*
X111100000Y-60850000D03*
%TD*%
D17*
%TO.C,SW75*%
X117300000Y-56400000D03*
D18*
X123800000Y-56400000D03*
X117300000Y-60900000D03*
X123800000Y-60900000D03*
%TD*%
D21*
%TO.C,J1*%
X60000000Y-67000000D03*
D22*
X60000000Y-61000000D03*
D23*
X55300000Y-64000000D03*
%TD*%
D19*
%TO.C,J5*%
X56250000Y-81310000D03*
D20*
X56250000Y-78770000D03*
X56250000Y-76230000D03*
X56250000Y-73690000D03*
%TD*%
D17*
%TO.C,SW73*%
X91900000Y-56350000D03*
D18*
X98400000Y-56350000D03*
X91900000Y-60850000D03*
X98400000Y-60850000D03*
%TD*%
D19*
%TO.C,J7*%
X56250000Y-148250000D03*
%TD*%
D24*
%TO.C,U11*%
X94970000Y-82500000D03*
X147040000Y-115520000D03*
X96240000Y-130760000D03*
D25*
X122660000Y-130760000D03*
D26*
X120120000Y-130760000D03*
X117580000Y-130760000D03*
X115040000Y-130760000D03*
X112500000Y-130760000D03*
X109960000Y-130760000D03*
X107420000Y-130760000D03*
X104880000Y-130760000D03*
X102340000Y-130760000D03*
X99800000Y-130760000D03*
D25*
X108940000Y-82500000D03*
D26*
X111480000Y-82500000D03*
X114020000Y-82500000D03*
X116560000Y-82500000D03*
X119100000Y-82500000D03*
X121640000Y-82500000D03*
X124180000Y-82500000D03*
X126720000Y-82500000D03*
D27*
X98780000Y-74880000D03*
D28*
X98780000Y-77420000D03*
X101320000Y-74880000D03*
X101320000Y-77420000D03*
X103860000Y-74880000D03*
X103860000Y-77420000D03*
X106400000Y-74880000D03*
X106400000Y-77420000D03*
X108940000Y-74880000D03*
X108940000Y-77420000D03*
X111480000Y-74880000D03*
X111480000Y-77420000D03*
X114020000Y-74880000D03*
X114020000Y-77420000D03*
X116560000Y-74880000D03*
X116560000Y-77420000D03*
X119100000Y-74880000D03*
X119100000Y-77420000D03*
X121640000Y-74880000D03*
X121640000Y-77420000D03*
X124180000Y-74880000D03*
X124180000Y-77420000D03*
X126720000Y-74880000D03*
X126720000Y-77420000D03*
X129260000Y-74880000D03*
X129260000Y-77420000D03*
X131800000Y-74880000D03*
X131800000Y-77420000D03*
X134340000Y-74880000D03*
X134340000Y-77420000D03*
X136880000Y-74880000D03*
X136880000Y-77420000D03*
X139420000Y-74880000D03*
X139420000Y-77420000D03*
X141960000Y-74880000D03*
X141960000Y-77420000D03*
X144500000Y-74880000D03*
X144500000Y-77420000D03*
D25*
X131800000Y-82500000D03*
D26*
X134340000Y-82500000D03*
X136880000Y-82500000D03*
X139420000Y-82500000D03*
X141960000Y-82500000D03*
X144500000Y-82500000D03*
D25*
X144500000Y-130760000D03*
D26*
X141960000Y-130760000D03*
X139420000Y-130760000D03*
X136880000Y-130760000D03*
X134340000Y-130760000D03*
X131800000Y-130760000D03*
X129260000Y-130760000D03*
X126720000Y-130760000D03*
D27*
X98780000Y-135840000D03*
D28*
X98780000Y-138380000D03*
X101320000Y-135840000D03*
X101320000Y-138380000D03*
X103860000Y-135840000D03*
X103860000Y-138380000D03*
X106400000Y-135840000D03*
X106400000Y-138380000D03*
X108940000Y-135840000D03*
X108940000Y-138380000D03*
X111480000Y-135840000D03*
X111480000Y-138380000D03*
X114020000Y-135840000D03*
X114020000Y-138380000D03*
X116560000Y-135840000D03*
X116560000Y-138380000D03*
X119100000Y-135840000D03*
X119100000Y-138380000D03*
X121640000Y-135840000D03*
X121640000Y-138380000D03*
X124180000Y-135840000D03*
X124180000Y-138380000D03*
X126720000Y-135840000D03*
X126720000Y-138380000D03*
X129260000Y-135840000D03*
X129260000Y-138380000D03*
X131800000Y-135840000D03*
X131800000Y-138380000D03*
X134340000Y-135840000D03*
X134340000Y-138380000D03*
X136880000Y-135840000D03*
X136880000Y-138380000D03*
X139420000Y-135840000D03*
X139420000Y-138380000D03*
X141960000Y-135840000D03*
X141960000Y-138380000D03*
X144500000Y-135840000D03*
X144500000Y-138380000D03*
X73380000Y-138460000D03*
X70880000Y-138460000D03*
X73380000Y-74890000D03*
X70880000Y-74890000D03*
%TD*%
D19*
%TO.C,J2*%
X56200000Y-143410000D03*
D20*
X56200000Y-140870000D03*
X56200000Y-138330000D03*
X56200000Y-135790000D03*
%TD*%
D19*
%TO.C,J6*%
X56200000Y-113360000D03*
D20*
X56200000Y-115900000D03*
X56200000Y-118440000D03*
%TD*%
D19*
%TO.C,J3*%
X56200000Y-131200000D03*
D20*
X56200000Y-128660000D03*
X56200000Y-126120000D03*
X56200000Y-123580000D03*
%TD*%
%LPD*%
M02*
