%TF.GenerationSoftware,KiCad,Pcbnew,9.0.6*%
%TF.CreationDate,2025-11-14T23:18:00+01:00*%
%TF.ProjectId,uC_screen_power,75435f73-6372-4656-956e-5f706f776572,1*%
%TF.SameCoordinates,Original*%
%TF.FileFunction,Soldermask,Top*%
%TF.FilePolarity,Negative*%
%FSLAX46Y46*%
G04 Gerber Fmt 4.6, Leading zero omitted, Abs format (unit mm)*
G04 Created by KiCad (PCBNEW 9.0.6) date 2025-11-14 23:18:00*
%MOMM*%
%LPD*%
G01*
G04 APERTURE LIST*
G04 Aperture macros list*
%AMRoundRect*
0 Rectangle with rounded corners*
0 $1 Rounding radius*
0 $2 $3 $4 $5 $6 $7 $8 $9 X,Y pos of 4 corners*
0 Add a 4 corners polygon primitive as box body*
4,1,4,$2,$3,$4,$5,$6,$7,$8,$9,$2,$3,0*
0 Add four circle primitives for the rounded corners*
1,1,$1+$1,$2,$3*
1,1,$1+$1,$4,$5*
1,1,$1+$1,$6,$7*
1,1,$1+$1,$8,$9*
0 Add four rect primitives between the rounded corners*
20,1,$1+$1,$2,$3,$4,$5,0*
20,1,$1+$1,$4,$5,$6,$7,0*
20,1,$1+$1,$6,$7,$8,$9,0*
20,1,$1+$1,$8,$9,$2,$3,0*%
G04 Aperture macros list end*
%ADD10RoundRect,0.250000X0.350000X-0.350000X0.350000X0.350000X-0.350000X0.350000X-0.350000X-0.350000X0*%
%ADD11C,1.200000*%
%ADD12O,1.500000X3.000000*%
%ADD13RoundRect,0.250000X-0.337500X-0.475000X0.337500X-0.475000X0.337500X0.475000X-0.337500X0.475000X0*%
%ADD14RoundRect,0.102000X-0.754000X-0.754000X0.754000X-0.754000X0.754000X0.754000X-0.754000X0.754000X0*%
%ADD15C,1.712000*%
%ADD16R,1.700000X1.700000*%
%ADD17C,1.700000*%
%ADD18R,3.500000X3.500000*%
%ADD19RoundRect,0.750000X-1.000000X0.750000X-1.000000X-0.750000X1.000000X-0.750000X1.000000X0.750000X0*%
%ADD20RoundRect,0.875000X-0.875000X0.875000X-0.875000X-0.875000X0.875000X-0.875000X0.875000X0.875000X0*%
%ADD21C,3.000000*%
%ADD22RoundRect,0.102000X-0.802500X0.802500X-0.802500X-0.802500X0.802500X-0.802500X0.802500X0.802500X0*%
%ADD23C,1.809000*%
%ADD24RoundRect,0.102000X-0.765000X0.765000X-0.765000X-0.765000X0.765000X-0.765000X0.765000X0.765000X0*%
%ADD25C,1.734000*%
G04 APERTURE END LIST*
D10*
%TO.C,C67*%
X76800000Y-65000000D03*
D11*
X76800000Y-63000000D03*
%TD*%
D12*
%TO.C,U10*%
X97680000Y-147500000D03*
X100220000Y-147500000D03*
X102760000Y-147500000D03*
X105300000Y-147500000D03*
X107840000Y-147500000D03*
X110380000Y-147500000D03*
X112920000Y-147500000D03*
X115460000Y-147500000D03*
X118000000Y-147500000D03*
X120540000Y-147500000D03*
X123080000Y-147500000D03*
X125620000Y-147500000D03*
X128160000Y-147500000D03*
X130700000Y-147500000D03*
X110410000Y-66700000D03*
X112950000Y-66700000D03*
X115490000Y-66700000D03*
X118030000Y-66700000D03*
%TD*%
D13*
%TO.C,C78*%
X119450000Y-54300000D03*
X121525000Y-54300000D03*
%TD*%
D14*
%TO.C,SW76*%
X130000000Y-56400000D03*
D15*
X136500000Y-56400000D03*
X130000000Y-60900000D03*
X136500000Y-60900000D03*
%TD*%
D16*
%TO.C,J4*%
X56200000Y-106320000D03*
D17*
X56200000Y-103780000D03*
X56200000Y-101240000D03*
X56200000Y-98700000D03*
%TD*%
D13*
%TO.C,C79*%
X132162500Y-54250000D03*
X134237500Y-54250000D03*
%TD*%
D10*
%TO.C,C66*%
X70200000Y-64972600D03*
D11*
X70200000Y-62972600D03*
%TD*%
D14*
%TO.C,SW74*%
X104600000Y-56350000D03*
D15*
X111100000Y-56350000D03*
X104600000Y-60850000D03*
X111100000Y-60850000D03*
%TD*%
D14*
%TO.C,SW75*%
X117300000Y-56400000D03*
D15*
X123800000Y-56400000D03*
X117300000Y-60900000D03*
X123800000Y-60900000D03*
%TD*%
D13*
%TO.C,C76*%
X94112500Y-54100000D03*
X96187500Y-54100000D03*
%TD*%
D18*
%TO.C,J1*%
X60000000Y-67000000D03*
D19*
X60000000Y-61000000D03*
D20*
X55300000Y-64000000D03*
%TD*%
D13*
%TO.C,C77*%
X106812500Y-54100000D03*
X108887500Y-54100000D03*
%TD*%
D16*
%TO.C,J5*%
X56250000Y-81310000D03*
D17*
X56250000Y-78770000D03*
X56250000Y-76230000D03*
X56250000Y-73690000D03*
%TD*%
D14*
%TO.C,SW73*%
X91900000Y-56350000D03*
D15*
X98400000Y-56350000D03*
X91900000Y-60850000D03*
X98400000Y-60850000D03*
%TD*%
D16*
%TO.C,J7*%
X56250000Y-148250000D03*
%TD*%
D21*
%TO.C,U11*%
X94970000Y-82500000D03*
X147040000Y-115520000D03*
X96240000Y-130760000D03*
D22*
X122660000Y-130760000D03*
D23*
X120120000Y-130760000D03*
X117580000Y-130760000D03*
X115040000Y-130760000D03*
X112500000Y-130760000D03*
X109960000Y-130760000D03*
X107420000Y-130760000D03*
X104880000Y-130760000D03*
X102340000Y-130760000D03*
X99800000Y-130760000D03*
D22*
X108940000Y-82500000D03*
D23*
X111480000Y-82500000D03*
X114020000Y-82500000D03*
X116560000Y-82500000D03*
X119100000Y-82500000D03*
X121640000Y-82500000D03*
X124180000Y-82500000D03*
X126720000Y-82500000D03*
D24*
X98780000Y-74880000D03*
D25*
X98780000Y-77420000D03*
X101320000Y-74880000D03*
X101320000Y-77420000D03*
X103860000Y-74880000D03*
X103860000Y-77420000D03*
X106400000Y-74880000D03*
X106400000Y-77420000D03*
X108940000Y-74880000D03*
X108940000Y-77420000D03*
X111480000Y-74880000D03*
X111480000Y-77420000D03*
X114020000Y-74880000D03*
X114020000Y-77420000D03*
X116560000Y-74880000D03*
X116560000Y-77420000D03*
X119100000Y-74880000D03*
X119100000Y-77420000D03*
X121640000Y-74880000D03*
X121640000Y-77420000D03*
X124180000Y-74880000D03*
X124180000Y-77420000D03*
X126720000Y-74880000D03*
X126720000Y-77420000D03*
X129260000Y-74880000D03*
X129260000Y-77420000D03*
X131800000Y-74880000D03*
X131800000Y-77420000D03*
X134340000Y-74880000D03*
X134340000Y-77420000D03*
X136880000Y-74880000D03*
X136880000Y-77420000D03*
X139420000Y-74880000D03*
X139420000Y-77420000D03*
X141960000Y-74880000D03*
X141960000Y-77420000D03*
X144500000Y-74880000D03*
X144500000Y-77420000D03*
D22*
X131800000Y-82500000D03*
D23*
X134340000Y-82500000D03*
X136880000Y-82500000D03*
X139420000Y-82500000D03*
X141960000Y-82500000D03*
X144500000Y-82500000D03*
D22*
X144500000Y-130760000D03*
D23*
X141960000Y-130760000D03*
X139420000Y-130760000D03*
X136880000Y-130760000D03*
X134340000Y-130760000D03*
X131800000Y-130760000D03*
X129260000Y-130760000D03*
X126720000Y-130760000D03*
D24*
X98780000Y-135840000D03*
D25*
X98780000Y-138380000D03*
X101320000Y-135840000D03*
X101320000Y-138380000D03*
X103860000Y-135840000D03*
X103860000Y-138380000D03*
X106400000Y-135840000D03*
X106400000Y-138380000D03*
X108940000Y-135840000D03*
X108940000Y-138380000D03*
X111480000Y-135840000D03*
X111480000Y-138380000D03*
X114020000Y-135840000D03*
X114020000Y-138380000D03*
X116560000Y-135840000D03*
X116560000Y-138380000D03*
X119100000Y-135840000D03*
X119100000Y-138380000D03*
X121640000Y-135840000D03*
X121640000Y-138380000D03*
X124180000Y-135840000D03*
X124180000Y-138380000D03*
X126720000Y-135840000D03*
X126720000Y-138380000D03*
X129260000Y-135840000D03*
X129260000Y-138380000D03*
X131800000Y-135840000D03*
X131800000Y-138380000D03*
X134340000Y-135840000D03*
X134340000Y-138380000D03*
X136880000Y-135840000D03*
X136880000Y-138380000D03*
X139420000Y-135840000D03*
X139420000Y-138380000D03*
X141960000Y-135840000D03*
X141960000Y-138380000D03*
X144500000Y-135840000D03*
X144500000Y-138380000D03*
X73380000Y-138460000D03*
X70880000Y-138460000D03*
X73380000Y-74890000D03*
X70880000Y-74890000D03*
%TD*%
D16*
%TO.C,J2*%
X56200000Y-143410000D03*
D17*
X56200000Y-140870000D03*
X56200000Y-138330000D03*
X56200000Y-135790000D03*
%TD*%
D16*
%TO.C,J6*%
X56200000Y-113360000D03*
D17*
X56200000Y-115900000D03*
X56200000Y-118440000D03*
%TD*%
D16*
%TO.C,J3*%
X56200000Y-131200000D03*
D17*
X56200000Y-128660000D03*
X56200000Y-126120000D03*
X56200000Y-123580000D03*
%TD*%
M02*
