%TF.GenerationSoftware,KiCad,Pcbnew,9.0.6*%
%TF.CreationDate,2025-11-15T09:42:20+01:00*%
%TF.ProjectId,mux_led_reed,6d75785f-6c65-4645-9f72-6565642e6b69,1*%
%TF.SameCoordinates,Original*%
%TF.FileFunction,Drillmap*%
%TF.FilePolarity,Positive*%
%FSLAX45Y45*%
G04 Gerber Fmt 4.5, Leading zero omitted, Abs format (unit mm)*
G04 Created by KiCad (PCBNEW 9.0.6) date 2025-11-15 09:42:20*
%MOMM*%
%LPD*%
G01*
G04 APERTURE LIST*
%ADD10C,0.050000*%
%ADD11C,0.200000*%
%ADD12C,0.100000*%
G04 APERTURE END LIST*
D10*
X8062000Y-4458000D02*
X18062000Y-4458000D01*
X18062000Y-14458000D01*
X8062000Y-14458000D01*
X8062000Y-4458000D01*
D11*
D12*
X8937000Y-12933000D02*
X8967000Y-12963000D01*
X8967000Y-12933000D02*
X8937000Y-12963000D01*
X9663667Y-8809667D02*
X9693667Y-8839667D01*
X9693667Y-8809667D02*
X9663667Y-8839667D01*
X9663667Y-13809667D02*
X9693667Y-13839667D01*
X9693667Y-13809667D02*
X9663667Y-13839667D01*
X9997000Y-13493000D02*
X10027000Y-13523000D01*
X10027000Y-13493000D02*
X9997000Y-13523000D01*
X11479059Y-12940941D02*
X11509059Y-12970941D01*
X11509059Y-12940941D02*
X11479059Y-12970941D01*
X12147000Y-11243000D02*
X12177000Y-11273000D01*
X12177000Y-11243000D02*
X12147000Y-11273000D01*
X12147000Y-11593000D02*
X12177000Y-11623000D01*
X12177000Y-11593000D02*
X12147000Y-11623000D01*
X12153042Y-8824792D02*
X12183042Y-8854792D01*
X12183042Y-8824792D02*
X12153042Y-8854792D01*
X12197000Y-13793000D02*
X12227000Y-13823000D01*
X12227000Y-13793000D02*
X12197000Y-13823000D01*
X12247000Y-6343000D02*
X12277000Y-6373000D01*
X12277000Y-6343000D02*
X12247000Y-6373000D01*
X12247000Y-6693000D02*
X12277000Y-6723000D01*
X12277000Y-6693000D02*
X12247000Y-6723000D01*
X12397000Y-11493000D02*
X12427000Y-11523000D01*
X12427000Y-11493000D02*
X12397000Y-11523000D01*
X12497000Y-6543000D02*
X12527000Y-6573000D01*
X12527000Y-6543000D02*
X12497000Y-6573000D01*
X12497000Y-12343000D02*
X12527000Y-12373000D01*
X12527000Y-12343000D02*
X12497000Y-12373000D01*
X12547000Y-7343000D02*
X12577000Y-7373000D01*
X12577000Y-7343000D02*
X12547000Y-7373000D01*
X12747000Y-13643000D02*
X12777000Y-13673000D01*
X12777000Y-13643000D02*
X12747000Y-13673000D01*
X14653042Y-8805292D02*
X14683042Y-8835292D01*
X14683042Y-8805292D02*
X14653042Y-8835292D01*
X14672063Y-13842148D02*
X14702063Y-13872148D01*
X14702063Y-13842148D02*
X14672063Y-13872148D01*
X17163542Y-8826667D02*
X17193542Y-8856667D01*
X17193542Y-8826667D02*
X17163542Y-8856667D01*
X17188750Y-13824000D02*
X17218750Y-13854000D01*
X17218750Y-13824000D02*
X17188750Y-13854000D01*
X8432000Y-5258000D02*
G75*
G02*
X8392000Y-5258000I-20000J0D01*
G01*
X8392000Y-5258000D02*
G75*
G02*
X8432000Y-5258000I20000J0D01*
G01*
X8500000Y-5150000D02*
G75*
G02*
X8460000Y-5150000I-20000J0D01*
G01*
X8460000Y-5150000D02*
G75*
G02*
X8500000Y-5150000I20000J0D01*
G01*
X8500000Y-10360000D02*
G75*
G02*
X8460000Y-10360000I-20000J0D01*
G01*
X8460000Y-10360000D02*
G75*
G02*
X8500000Y-10360000I20000J0D01*
G01*
X8632000Y-10408000D02*
G75*
G02*
X8592000Y-10408000I-20000J0D01*
G01*
X8592000Y-10408000D02*
G75*
G02*
X8632000Y-10408000I20000J0D01*
G01*
X8760000Y-5000000D02*
G75*
G02*
X8720000Y-5000000I-20000J0D01*
G01*
X8720000Y-5000000D02*
G75*
G02*
X8760000Y-5000000I20000J0D01*
G01*
X8770000Y-10050000D02*
G75*
G02*
X8730000Y-10050000I-20000J0D01*
G01*
X8730000Y-10050000D02*
G75*
G02*
X8770000Y-10050000I20000J0D01*
G01*
X8932000Y-8908000D02*
G75*
G02*
X8892000Y-8908000I-20000J0D01*
G01*
X8892000Y-8908000D02*
G75*
G02*
X8932000Y-8908000I20000J0D01*
G01*
X8932000Y-9958000D02*
G75*
G02*
X8892000Y-9958000I-20000J0D01*
G01*
X8892000Y-9958000D02*
G75*
G02*
X8932000Y-9958000I20000J0D01*
G01*
X8970000Y-13100000D02*
G75*
G02*
X8930000Y-13100000I-20000J0D01*
G01*
X8930000Y-13100000D02*
G75*
G02*
X8970000Y-13100000I20000J0D01*
G01*
X8982000Y-5008000D02*
G75*
G02*
X8942000Y-5008000I-20000J0D01*
G01*
X8942000Y-5008000D02*
G75*
G02*
X8982000Y-5008000I20000J0D01*
G01*
X9003000Y-8117000D02*
G75*
G02*
X8963000Y-8117000I-20000J0D01*
G01*
X8963000Y-8117000D02*
G75*
G02*
X9003000Y-8117000I20000J0D01*
G01*
X9005000Y-7915000D02*
G75*
G02*
X8965000Y-7915000I-20000J0D01*
G01*
X8965000Y-7915000D02*
G75*
G02*
X9005000Y-7915000I20000J0D01*
G01*
X9020000Y-10100000D02*
G75*
G02*
X8980000Y-10100000I-20000J0D01*
G01*
X8980000Y-10100000D02*
G75*
G02*
X9020000Y-10100000I20000J0D01*
G01*
X9032000Y-13908000D02*
G75*
G02*
X8992000Y-13908000I-20000J0D01*
G01*
X8992000Y-13908000D02*
G75*
G02*
X9032000Y-13908000I20000J0D01*
G01*
X9060000Y-5220000D02*
G75*
G02*
X9020000Y-5220000I-20000J0D01*
G01*
X9020000Y-5220000D02*
G75*
G02*
X9060000Y-5220000I20000J0D01*
G01*
X9170000Y-12950000D02*
G75*
G02*
X9130000Y-12950000I-20000J0D01*
G01*
X9130000Y-12950000D02*
G75*
G02*
X9170000Y-12950000I20000J0D01*
G01*
X9170000Y-13100000D02*
G75*
G02*
X9130000Y-13100000I-20000J0D01*
G01*
X9130000Y-13100000D02*
G75*
G02*
X9170000Y-13100000I20000J0D01*
G01*
X9203000Y-7917000D02*
G75*
G02*
X9163000Y-7917000I-20000J0D01*
G01*
X9163000Y-7917000D02*
G75*
G02*
X9203000Y-7917000I20000J0D01*
G01*
X9203000Y-8117000D02*
G75*
G02*
X9163000Y-8117000I-20000J0D01*
G01*
X9163000Y-8117000D02*
G75*
G02*
X9203000Y-8117000I20000J0D01*
G01*
X9420000Y-5800000D02*
G75*
G02*
X9380000Y-5800000I-20000J0D01*
G01*
X9380000Y-5800000D02*
G75*
G02*
X9420000Y-5800000I20000J0D01*
G01*
X9470000Y-11000000D02*
G75*
G02*
X9430000Y-11000000I-20000J0D01*
G01*
X9430000Y-11000000D02*
G75*
G02*
X9470000Y-11000000I20000J0D01*
G01*
X9472000Y-10798000D02*
G75*
G02*
X9432000Y-10798000I-20000J0D01*
G01*
X9432000Y-10798000D02*
G75*
G02*
X9472000Y-10798000I20000J0D01*
G01*
X9495355Y-6048787D02*
G75*
G02*
X9455355Y-6048787I-20000J0D01*
G01*
X9455355Y-6048787D02*
G75*
G02*
X9495355Y-6048787I20000J0D01*
G01*
X9620000Y-8700000D02*
G75*
G02*
X9580000Y-8700000I-20000J0D01*
G01*
X9580000Y-8700000D02*
G75*
G02*
X9620000Y-8700000I20000J0D01*
G01*
X9620000Y-13700000D02*
G75*
G02*
X9580000Y-13700000I-20000J0D01*
G01*
X9580000Y-13700000D02*
G75*
G02*
X9620000Y-13700000I20000J0D01*
G01*
X9670000Y-10800000D02*
G75*
G02*
X9630000Y-10800000I-20000J0D01*
G01*
X9630000Y-10800000D02*
G75*
G02*
X9670000Y-10800000I20000J0D01*
G01*
X9670000Y-11000000D02*
G75*
G02*
X9630000Y-11000000I-20000J0D01*
G01*
X9630000Y-11000000D02*
G75*
G02*
X9670000Y-11000000I20000J0D01*
G01*
X9695355Y-5848787D02*
G75*
G02*
X9655355Y-5848787I-20000J0D01*
G01*
X9655355Y-5848787D02*
G75*
G02*
X9695355Y-5848787I20000J0D01*
G01*
X9695355Y-6048787D02*
G75*
G02*
X9655355Y-6048787I-20000J0D01*
G01*
X9655355Y-6048787D02*
G75*
G02*
X9695355Y-6048787I20000J0D01*
G01*
X9782000Y-5008000D02*
G75*
G02*
X9742000Y-5008000I-20000J0D01*
G01*
X9742000Y-5008000D02*
G75*
G02*
X9782000Y-5008000I20000J0D01*
G01*
X9782000Y-10008000D02*
G75*
G02*
X9742000Y-10008000I-20000J0D01*
G01*
X9742000Y-10008000D02*
G75*
G02*
X9782000Y-10008000I20000J0D01*
G01*
X9870000Y-8850000D02*
G75*
G02*
X9830000Y-8850000I-20000J0D01*
G01*
X9830000Y-8850000D02*
G75*
G02*
X9870000Y-8850000I20000J0D01*
G01*
X9870000Y-13850000D02*
G75*
G02*
X9830000Y-13850000I-20000J0D01*
G01*
X9830000Y-13850000D02*
G75*
G02*
X9870000Y-13850000I20000J0D01*
G01*
X10170000Y-13530000D02*
G75*
G02*
X10130000Y-13530000I-20000J0D01*
G01*
X10130000Y-13530000D02*
G75*
G02*
X10170000Y-13530000I20000J0D01*
G01*
X10230000Y-8530000D02*
G75*
G02*
X10190000Y-8530000I-20000J0D01*
G01*
X10190000Y-8530000D02*
G75*
G02*
X10230000Y-8530000I20000J0D01*
G01*
X10332000Y-8658000D02*
G75*
G02*
X10292000Y-8658000I-20000J0D01*
G01*
X10292000Y-8658000D02*
G75*
G02*
X10332000Y-8658000I20000J0D01*
G01*
X10432000Y-5058000D02*
G75*
G02*
X10392000Y-5058000I-20000J0D01*
G01*
X10392000Y-5058000D02*
G75*
G02*
X10432000Y-5058000I20000J0D01*
G01*
X10832000Y-10258000D02*
G75*
G02*
X10792000Y-10258000I-20000J0D01*
G01*
X10792000Y-10258000D02*
G75*
G02*
X10832000Y-10258000I20000J0D01*
G01*
X10930000Y-10130000D02*
G75*
G02*
X10890000Y-10130000I-20000J0D01*
G01*
X10890000Y-10130000D02*
G75*
G02*
X10930000Y-10130000I20000J0D01*
G01*
X10932000Y-5058000D02*
G75*
G02*
X10892000Y-5058000I-20000J0D01*
G01*
X10892000Y-5058000D02*
G75*
G02*
X10932000Y-5058000I20000J0D01*
G01*
X11000000Y-5450000D02*
G75*
G02*
X10960000Y-5450000I-20000J0D01*
G01*
X10960000Y-5450000D02*
G75*
G02*
X11000000Y-5450000I20000J0D01*
G01*
X11132000Y-5458000D02*
G75*
G02*
X11092000Y-5458000I-20000J0D01*
G01*
X11092000Y-5458000D02*
G75*
G02*
X11132000Y-5458000I20000J0D01*
G01*
X11204250Y-9951880D02*
G75*
G02*
X11164250Y-9951880I-20000J0D01*
G01*
X11164250Y-9951880D02*
G75*
G02*
X11204250Y-9951880I20000J0D01*
G01*
X11240000Y-5060000D02*
G75*
G02*
X11200000Y-5060000I-20000J0D01*
G01*
X11200000Y-5060000D02*
G75*
G02*
X11240000Y-5060000I20000J0D01*
G01*
X11416250Y-9959880D02*
G75*
G02*
X11376250Y-9959880I-20000J0D01*
G01*
X11376250Y-9959880D02*
G75*
G02*
X11416250Y-9959880I20000J0D01*
G01*
X11470000Y-13150000D02*
G75*
G02*
X11430000Y-13150000I-20000J0D01*
G01*
X11430000Y-13150000D02*
G75*
G02*
X11470000Y-13150000I20000J0D01*
G01*
X11482000Y-5008000D02*
G75*
G02*
X11442000Y-5008000I-20000J0D01*
G01*
X11442000Y-5008000D02*
G75*
G02*
X11482000Y-5008000I20000J0D01*
G01*
X11482000Y-8908000D02*
G75*
G02*
X11442000Y-8908000I-20000J0D01*
G01*
X11442000Y-8908000D02*
G75*
G02*
X11482000Y-8908000I20000J0D01*
G01*
X11520000Y-8150000D02*
G75*
G02*
X11480000Y-8150000I-20000J0D01*
G01*
X11480000Y-8150000D02*
G75*
G02*
X11520000Y-8150000I20000J0D01*
G01*
X11522000Y-7948000D02*
G75*
G02*
X11482000Y-7948000I-20000J0D01*
G01*
X11482000Y-7948000D02*
G75*
G02*
X11522000Y-7948000I20000J0D01*
G01*
X11529250Y-10076880D02*
G75*
G02*
X11489250Y-10076880I-20000J0D01*
G01*
X11489250Y-10076880D02*
G75*
G02*
X11529250Y-10076880I20000J0D01*
G01*
X11532000Y-13908000D02*
G75*
G02*
X11492000Y-13908000I-20000J0D01*
G01*
X11492000Y-13908000D02*
G75*
G02*
X11532000Y-13908000I20000J0D01*
G01*
X11540000Y-5240000D02*
G75*
G02*
X11500000Y-5240000I-20000J0D01*
G01*
X11500000Y-5240000D02*
G75*
G02*
X11540000Y-5240000I20000J0D01*
G01*
X11670000Y-12950000D02*
G75*
G02*
X11630000Y-12950000I-20000J0D01*
G01*
X11630000Y-12950000D02*
G75*
G02*
X11670000Y-12950000I20000J0D01*
G01*
X11670000Y-13150000D02*
G75*
G02*
X11630000Y-13150000I-20000J0D01*
G01*
X11630000Y-13150000D02*
G75*
G02*
X11670000Y-13150000I20000J0D01*
G01*
X11720000Y-7950000D02*
G75*
G02*
X11680000Y-7950000I-20000J0D01*
G01*
X11680000Y-7950000D02*
G75*
G02*
X11720000Y-7950000I20000J0D01*
G01*
X11720000Y-8150000D02*
G75*
G02*
X11680000Y-8150000I-20000J0D01*
G01*
X11680000Y-8150000D02*
G75*
G02*
X11720000Y-8150000I20000J0D01*
G01*
X11961429Y-5958429D02*
G75*
G02*
X11921429Y-5958429I-20000J0D01*
G01*
X11921429Y-5958429D02*
G75*
G02*
X11961429Y-5958429I20000J0D01*
G01*
X11963429Y-5756429D02*
G75*
G02*
X11923429Y-5756429I-20000J0D01*
G01*
X11923429Y-5756429D02*
G75*
G02*
X11963429Y-5756429I20000J0D01*
G01*
X11970000Y-10950000D02*
G75*
G02*
X11930000Y-10950000I-20000J0D01*
G01*
X11930000Y-10950000D02*
G75*
G02*
X11970000Y-10950000I20000J0D01*
G01*
X11972000Y-10748000D02*
G75*
G02*
X11932000Y-10748000I-20000J0D01*
G01*
X11932000Y-10748000D02*
G75*
G02*
X11972000Y-10748000I20000J0D01*
G01*
X12109375Y-8715125D02*
G75*
G02*
X12069375Y-8715125I-20000J0D01*
G01*
X12069375Y-8715125D02*
G75*
G02*
X12109375Y-8715125I20000J0D01*
G01*
X12120000Y-13700000D02*
G75*
G02*
X12080000Y-13700000I-20000J0D01*
G01*
X12080000Y-13700000D02*
G75*
G02*
X12120000Y-13700000I20000J0D01*
G01*
X12161429Y-5758429D02*
G75*
G02*
X12121429Y-5758429I-20000J0D01*
G01*
X12121429Y-5758429D02*
G75*
G02*
X12161429Y-5758429I20000J0D01*
G01*
X12161429Y-5958429D02*
G75*
G02*
X12121429Y-5958429I-20000J0D01*
G01*
X12121429Y-5958429D02*
G75*
G02*
X12161429Y-5958429I20000J0D01*
G01*
X12170000Y-10750000D02*
G75*
G02*
X12130000Y-10750000I-20000J0D01*
G01*
X12130000Y-10750000D02*
G75*
G02*
X12170000Y-10750000I20000J0D01*
G01*
X12170000Y-10950000D02*
G75*
G02*
X12130000Y-10950000I-20000J0D01*
G01*
X12130000Y-10950000D02*
G75*
G02*
X12170000Y-10950000I20000J0D01*
G01*
X12232000Y-10008000D02*
G75*
G02*
X12192000Y-10008000I-20000J0D01*
G01*
X12192000Y-10008000D02*
G75*
G02*
X12232000Y-10008000I20000J0D01*
G01*
X12282000Y-5008000D02*
G75*
G02*
X12242000Y-5008000I-20000J0D01*
G01*
X12242000Y-5008000D02*
G75*
G02*
X12282000Y-5008000I20000J0D01*
G01*
X12359375Y-8865125D02*
G75*
G02*
X12319375Y-8865125I-20000J0D01*
G01*
X12319375Y-8865125D02*
G75*
G02*
X12359375Y-8865125I20000J0D01*
G01*
X12420000Y-13850000D02*
G75*
G02*
X12380000Y-13850000I-20000J0D01*
G01*
X12380000Y-13850000D02*
G75*
G02*
X12420000Y-13850000I20000J0D01*
G01*
X12690000Y-13570000D02*
G75*
G02*
X12650000Y-13570000I-20000J0D01*
G01*
X12650000Y-13570000D02*
G75*
G02*
X12690000Y-13570000I20000J0D01*
G01*
X12700000Y-8540000D02*
G75*
G02*
X12660000Y-8540000I-20000J0D01*
G01*
X12660000Y-8540000D02*
G75*
G02*
X12700000Y-8540000I20000J0D01*
G01*
X12732000Y-6308000D02*
G75*
G02*
X12692000Y-6308000I-20000J0D01*
G01*
X12692000Y-6308000D02*
G75*
G02*
X12732000Y-6308000I20000J0D01*
G01*
X12732000Y-11308000D02*
G75*
G02*
X12692000Y-11308000I-20000J0D01*
G01*
X12692000Y-11308000D02*
G75*
G02*
X12732000Y-11308000I20000J0D01*
G01*
X12782000Y-8658000D02*
G75*
G02*
X12742000Y-8658000I-20000J0D01*
G01*
X12742000Y-8658000D02*
G75*
G02*
X12782000Y-8658000I20000J0D01*
G01*
X13332000Y-10258000D02*
G75*
G02*
X13292000Y-10258000I-20000J0D01*
G01*
X13292000Y-10258000D02*
G75*
G02*
X13332000Y-10258000I20000J0D01*
G01*
X13450000Y-10130000D02*
G75*
G02*
X13410000Y-10130000I-20000J0D01*
G01*
X13410000Y-10130000D02*
G75*
G02*
X13450000Y-10130000I20000J0D01*
G01*
X13472000Y-5733000D02*
G75*
G02*
X13432000Y-5733000I-20000J0D01*
G01*
X13432000Y-5733000D02*
G75*
G02*
X13472000Y-5733000I20000J0D01*
G01*
X13520000Y-5600000D02*
G75*
G02*
X13480000Y-5600000I-20000J0D01*
G01*
X13480000Y-5600000D02*
G75*
G02*
X13520000Y-5600000I20000J0D01*
G01*
X13582000Y-7858000D02*
G75*
G02*
X13542000Y-7858000I-20000J0D01*
G01*
X13542000Y-7858000D02*
G75*
G02*
X13582000Y-7858000I20000J0D01*
G01*
X13582000Y-12908000D02*
G75*
G02*
X13542000Y-12908000I-20000J0D01*
G01*
X13542000Y-12908000D02*
G75*
G02*
X13582000Y-12908000I20000J0D01*
G01*
X13704250Y-5504875D02*
G75*
G02*
X13664250Y-5504875I-20000J0D01*
G01*
X13664250Y-5504875D02*
G75*
G02*
X13704250Y-5504875I20000J0D01*
G01*
X13712125Y-9942125D02*
G75*
G02*
X13672125Y-9942125I-20000J0D01*
G01*
X13672125Y-9942125D02*
G75*
G02*
X13712125Y-9942125I20000J0D01*
G01*
X13764250Y-5384875D02*
G75*
G02*
X13724250Y-5384875I-20000J0D01*
G01*
X13724250Y-5384875D02*
G75*
G02*
X13764250Y-5384875I20000J0D01*
G01*
X13882000Y-7458000D02*
G75*
G02*
X13842000Y-7458000I-20000J0D01*
G01*
X13842000Y-7458000D02*
G75*
G02*
X13882000Y-7458000I20000J0D01*
G01*
X13882000Y-12508000D02*
G75*
G02*
X13842000Y-12508000I-20000J0D01*
G01*
X13842000Y-12508000D02*
G75*
G02*
X13882000Y-12508000I20000J0D01*
G01*
X13924125Y-9950125D02*
G75*
G02*
X13884125Y-9950125I-20000J0D01*
G01*
X13884125Y-9950125D02*
G75*
G02*
X13924125Y-9950125I20000J0D01*
G01*
X13944250Y-5344875D02*
G75*
G02*
X13904250Y-5344875I-20000J0D01*
G01*
X13904250Y-5344875D02*
G75*
G02*
X13944250Y-5344875I20000J0D01*
G01*
X13970000Y-13100000D02*
G75*
G02*
X13930000Y-13100000I-20000J0D01*
G01*
X13930000Y-13100000D02*
G75*
G02*
X13970000Y-13100000I20000J0D01*
G01*
X13982000Y-8908000D02*
G75*
G02*
X13942000Y-8908000I-20000J0D01*
G01*
X13942000Y-8908000D02*
G75*
G02*
X13982000Y-8908000I20000J0D01*
G01*
X13982000Y-12938000D02*
G75*
G02*
X13942000Y-12938000I-20000J0D01*
G01*
X13942000Y-12938000D02*
G75*
G02*
X13982000Y-12938000I20000J0D01*
G01*
X13982000Y-13908000D02*
G75*
G02*
X13942000Y-13908000I-20000J0D01*
G01*
X13942000Y-13908000D02*
G75*
G02*
X13982000Y-13908000I20000J0D01*
G01*
X13998500Y-8128500D02*
G75*
G02*
X13958500Y-8128500I-20000J0D01*
G01*
X13958500Y-8128500D02*
G75*
G02*
X13998500Y-8128500I20000J0D01*
G01*
X14000500Y-7926500D02*
G75*
G02*
X13960500Y-7926500I-20000J0D01*
G01*
X13960500Y-7926500D02*
G75*
G02*
X14000500Y-7926500I20000J0D01*
G01*
X14037125Y-10067125D02*
G75*
G02*
X13997125Y-10067125I-20000J0D01*
G01*
X13997125Y-10067125D02*
G75*
G02*
X14037125Y-10067125I20000J0D01*
G01*
X14170000Y-12950000D02*
G75*
G02*
X14130000Y-12950000I-20000J0D01*
G01*
X14130000Y-12950000D02*
G75*
G02*
X14170000Y-12950000I20000J0D01*
G01*
X14170000Y-13100000D02*
G75*
G02*
X14130000Y-13100000I-20000J0D01*
G01*
X14130000Y-13100000D02*
G75*
G02*
X14170000Y-13100000I20000J0D01*
G01*
X14198500Y-7928500D02*
G75*
G02*
X14158500Y-7928500I-20000J0D01*
G01*
X14158500Y-7928500D02*
G75*
G02*
X14198500Y-7928500I20000J0D01*
G01*
X14198500Y-8128500D02*
G75*
G02*
X14158500Y-8128500I-20000J0D01*
G01*
X14158500Y-8128500D02*
G75*
G02*
X14198500Y-8128500I20000J0D01*
G01*
X14390000Y-5940000D02*
G75*
G02*
X14350000Y-5940000I-20000J0D01*
G01*
X14350000Y-5940000D02*
G75*
G02*
X14390000Y-5940000I20000J0D01*
G01*
X14420000Y-10960000D02*
G75*
G02*
X14380000Y-10960000I-20000J0D01*
G01*
X14380000Y-10960000D02*
G75*
G02*
X14420000Y-10960000I20000J0D01*
G01*
X14456500Y-5776500D02*
G75*
G02*
X14416500Y-5776500I-20000J0D01*
G01*
X14416500Y-5776500D02*
G75*
G02*
X14456500Y-5776500I20000J0D01*
G01*
X14472000Y-10798000D02*
G75*
G02*
X14432000Y-10798000I-20000J0D01*
G01*
X14432000Y-10798000D02*
G75*
G02*
X14472000Y-10798000I20000J0D01*
G01*
X14595063Y-13749148D02*
G75*
G02*
X14555063Y-13749148I-20000J0D01*
G01*
X14555063Y-13749148D02*
G75*
G02*
X14595063Y-13749148I20000J0D01*
G01*
X14609375Y-8695625D02*
G75*
G02*
X14569375Y-8695625I-20000J0D01*
G01*
X14569375Y-8695625D02*
G75*
G02*
X14609375Y-8695625I20000J0D01*
G01*
X14654500Y-5778500D02*
G75*
G02*
X14614500Y-5778500I-20000J0D01*
G01*
X14614500Y-5778500D02*
G75*
G02*
X14654500Y-5778500I20000J0D01*
G01*
X14670000Y-10800000D02*
G75*
G02*
X14630000Y-10800000I-20000J0D01*
G01*
X14630000Y-10800000D02*
G75*
G02*
X14670000Y-10800000I20000J0D01*
G01*
X14670000Y-11000000D02*
G75*
G02*
X14630000Y-11000000I-20000J0D01*
G01*
X14630000Y-11000000D02*
G75*
G02*
X14670000Y-11000000I20000J0D01*
G01*
X14720000Y-5960000D02*
G75*
G02*
X14680000Y-5960000I-20000J0D01*
G01*
X14680000Y-5960000D02*
G75*
G02*
X14720000Y-5960000I20000J0D01*
G01*
X14732000Y-10008000D02*
G75*
G02*
X14692000Y-10008000I-20000J0D01*
G01*
X14692000Y-10008000D02*
G75*
G02*
X14732000Y-10008000I20000J0D01*
G01*
X14782000Y-5008000D02*
G75*
G02*
X14742000Y-5008000I-20000J0D01*
G01*
X14742000Y-5008000D02*
G75*
G02*
X14782000Y-5008000I20000J0D01*
G01*
X14859375Y-8845625D02*
G75*
G02*
X14819375Y-8845625I-20000J0D01*
G01*
X14819375Y-8845625D02*
G75*
G02*
X14859375Y-8845625I20000J0D01*
G01*
X14895063Y-13899148D02*
G75*
G02*
X14855063Y-13899148I-20000J0D01*
G01*
X14855063Y-13899148D02*
G75*
G02*
X14895063Y-13899148I20000J0D01*
G01*
X15032000Y-13508000D02*
G75*
G02*
X14992000Y-13508000I-20000J0D01*
G01*
X14992000Y-13508000D02*
G75*
G02*
X15032000Y-13508000I20000J0D01*
G01*
X15180000Y-8540000D02*
G75*
G02*
X15140000Y-8540000I-20000J0D01*
G01*
X15140000Y-8540000D02*
G75*
G02*
X15180000Y-8540000I20000J0D01*
G01*
X15200000Y-13570000D02*
G75*
G02*
X15160000Y-13570000I-20000J0D01*
G01*
X15160000Y-13570000D02*
G75*
G02*
X15200000Y-13570000I20000J0D01*
G01*
X15282000Y-8658000D02*
G75*
G02*
X15242000Y-8658000I-20000J0D01*
G01*
X15242000Y-8658000D02*
G75*
G02*
X15282000Y-8658000I20000J0D01*
G01*
X15832000Y-10258000D02*
G75*
G02*
X15792000Y-10258000I-20000J0D01*
G01*
X15792000Y-10258000D02*
G75*
G02*
X15832000Y-10258000I20000J0D01*
G01*
X15962000Y-5728000D02*
G75*
G02*
X15922000Y-5728000I-20000J0D01*
G01*
X15922000Y-5728000D02*
G75*
G02*
X15962000Y-5728000I20000J0D01*
G01*
X15980000Y-10150000D02*
G75*
G02*
X15940000Y-10150000I-20000J0D01*
G01*
X15940000Y-10150000D02*
G75*
G02*
X15980000Y-10150000I20000J0D01*
G01*
X16020000Y-5620000D02*
G75*
G02*
X15980000Y-5620000I-20000J0D01*
G01*
X15980000Y-5620000D02*
G75*
G02*
X16020000Y-5620000I20000J0D01*
G01*
X16200000Y-5520000D02*
G75*
G02*
X16160000Y-5520000I-20000J0D01*
G01*
X16160000Y-5520000D02*
G75*
G02*
X16200000Y-5520000I20000J0D01*
G01*
X16220000Y-10000000D02*
G75*
G02*
X16180000Y-10000000I-20000J0D01*
G01*
X16180000Y-10000000D02*
G75*
G02*
X16220000Y-10000000I20000J0D01*
G01*
X16260000Y-5400000D02*
G75*
G02*
X16220000Y-5400000I-20000J0D01*
G01*
X16220000Y-5400000D02*
G75*
G02*
X16260000Y-5400000I20000J0D01*
G01*
X16432000Y-10008000D02*
G75*
G02*
X16392000Y-10008000I-20000J0D01*
G01*
X16392000Y-10008000D02*
G75*
G02*
X16432000Y-10008000I20000J0D01*
G01*
X16432000Y-13908000D02*
G75*
G02*
X16392000Y-13908000I-20000J0D01*
G01*
X16392000Y-13908000D02*
G75*
G02*
X16432000Y-13908000I20000J0D01*
G01*
X16440000Y-5360000D02*
G75*
G02*
X16400000Y-5360000I-20000J0D01*
G01*
X16400000Y-5360000D02*
G75*
G02*
X16440000Y-5360000I20000J0D01*
G01*
X16470000Y-13100000D02*
G75*
G02*
X16430000Y-13100000I-20000J0D01*
G01*
X16430000Y-13100000D02*
G75*
G02*
X16470000Y-13100000I20000J0D01*
G01*
X16472000Y-12898000D02*
G75*
G02*
X16432000Y-12898000I-20000J0D01*
G01*
X16432000Y-12898000D02*
G75*
G02*
X16472000Y-12898000I20000J0D01*
G01*
X16482000Y-8908000D02*
G75*
G02*
X16442000Y-8908000I-20000J0D01*
G01*
X16442000Y-8908000D02*
G75*
G02*
X16482000Y-8908000I20000J0D01*
G01*
X16520000Y-8150000D02*
G75*
G02*
X16480000Y-8150000I-20000J0D01*
G01*
X16480000Y-8150000D02*
G75*
G02*
X16520000Y-8150000I20000J0D01*
G01*
X16522000Y-7948000D02*
G75*
G02*
X16482000Y-7948000I-20000J0D01*
G01*
X16482000Y-7948000D02*
G75*
G02*
X16522000Y-7948000I20000J0D01*
G01*
X16545000Y-10125000D02*
G75*
G02*
X16505000Y-10125000I-20000J0D01*
G01*
X16505000Y-10125000D02*
G75*
G02*
X16545000Y-10125000I20000J0D01*
G01*
X16670000Y-12900000D02*
G75*
G02*
X16630000Y-12900000I-20000J0D01*
G01*
X16630000Y-12900000D02*
G75*
G02*
X16670000Y-12900000I20000J0D01*
G01*
X16670000Y-13100000D02*
G75*
G02*
X16630000Y-13100000I-20000J0D01*
G01*
X16630000Y-13100000D02*
G75*
G02*
X16670000Y-13100000I20000J0D01*
G01*
X16720000Y-7950000D02*
G75*
G02*
X16680000Y-7950000I-20000J0D01*
G01*
X16680000Y-7950000D02*
G75*
G02*
X16720000Y-7950000I20000J0D01*
G01*
X16720000Y-8150000D02*
G75*
G02*
X16680000Y-8150000I-20000J0D01*
G01*
X16680000Y-8150000D02*
G75*
G02*
X16720000Y-8150000I20000J0D01*
G01*
X16941500Y-5985500D02*
G75*
G02*
X16901500Y-5985500I-20000J0D01*
G01*
X16901500Y-5985500D02*
G75*
G02*
X16941500Y-5985500I20000J0D01*
G01*
X16943500Y-5783500D02*
G75*
G02*
X16903500Y-5783500I-20000J0D01*
G01*
X16903500Y-5783500D02*
G75*
G02*
X16943500Y-5783500I20000J0D01*
G01*
X16961500Y-10958500D02*
G75*
G02*
X16921500Y-10958500I-20000J0D01*
G01*
X16921500Y-10958500D02*
G75*
G02*
X16961500Y-10958500I20000J0D01*
G01*
X16963500Y-10756500D02*
G75*
G02*
X16923500Y-10756500I-20000J0D01*
G01*
X16923500Y-10756500D02*
G75*
G02*
X16963500Y-10756500I20000J0D01*
G01*
X17111750Y-13731000D02*
G75*
G02*
X17071750Y-13731000I-20000J0D01*
G01*
X17071750Y-13731000D02*
G75*
G02*
X17111750Y-13731000I20000J0D01*
G01*
X17119875Y-8717000D02*
G75*
G02*
X17079875Y-8717000I-20000J0D01*
G01*
X17079875Y-8717000D02*
G75*
G02*
X17119875Y-8717000I20000J0D01*
G01*
X17141500Y-5785500D02*
G75*
G02*
X17101500Y-5785500I-20000J0D01*
G01*
X17101500Y-5785500D02*
G75*
G02*
X17141500Y-5785500I20000J0D01*
G01*
X17141500Y-5985500D02*
G75*
G02*
X17101500Y-5985500I-20000J0D01*
G01*
X17101500Y-5985500D02*
G75*
G02*
X17141500Y-5985500I20000J0D01*
G01*
X17161500Y-10758500D02*
G75*
G02*
X17121500Y-10758500I-20000J0D01*
G01*
X17121500Y-10758500D02*
G75*
G02*
X17161500Y-10758500I20000J0D01*
G01*
X17161500Y-10958500D02*
G75*
G02*
X17121500Y-10958500I-20000J0D01*
G01*
X17121500Y-10958500D02*
G75*
G02*
X17161500Y-10958500I20000J0D01*
G01*
X17282000Y-5008000D02*
G75*
G02*
X17242000Y-5008000I-20000J0D01*
G01*
X17242000Y-5008000D02*
G75*
G02*
X17282000Y-5008000I20000J0D01*
G01*
X17282000Y-10008000D02*
G75*
G02*
X17242000Y-10008000I-20000J0D01*
G01*
X17242000Y-10008000D02*
G75*
G02*
X17282000Y-10008000I20000J0D01*
G01*
X17369875Y-8867000D02*
G75*
G02*
X17329875Y-8867000I-20000J0D01*
G01*
X17329875Y-8867000D02*
G75*
G02*
X17369875Y-8867000I20000J0D01*
G01*
X17411750Y-13881000D02*
G75*
G02*
X17371750Y-13881000I-20000J0D01*
G01*
X17371750Y-13881000D02*
G75*
G02*
X17411750Y-13881000I20000J0D01*
G01*
X17680000Y-8550000D02*
G75*
G02*
X17640000Y-8550000I-20000J0D01*
G01*
X17640000Y-8550000D02*
G75*
G02*
X17680000Y-8550000I20000J0D01*
G01*
X17700000Y-13790000D02*
G75*
G02*
X17660000Y-13790000I-20000J0D01*
G01*
X17660000Y-13790000D02*
G75*
G02*
X17700000Y-13790000I20000J0D01*
G01*
X17782000Y-8658000D02*
G75*
G02*
X17742000Y-8658000I-20000J0D01*
G01*
X17742000Y-8658000D02*
G75*
G02*
X17782000Y-8658000I20000J0D01*
G01*
X17782000Y-13658000D02*
G75*
G02*
X17742000Y-13658000I-20000J0D01*
G01*
X17742000Y-13658000D02*
G75*
G02*
X17782000Y-13658000I20000J0D01*
G01*
X10412000Y-13828000D02*
X10412000Y-13888000D01*
X10382000Y-13858000D02*
X10442000Y-13858000D01*
X10912000Y-13828000D02*
X10912000Y-13888000D01*
X10882000Y-13858000D02*
X10942000Y-13858000D01*
X9343820Y-5039820D02*
X9343820Y-4976180D01*
X9280180Y-4976180D01*
X9280180Y-5039820D01*
X9343820Y-5039820D01*
X9343820Y-6439820D02*
X9343820Y-6376180D01*
X9280180Y-6376180D01*
X9280180Y-6439820D01*
X9343820Y-6439820D01*
X9343820Y-7539820D02*
X9343820Y-7476180D01*
X9280180Y-7476180D01*
X9280180Y-7539820D01*
X9343820Y-7539820D01*
X9343820Y-8939820D02*
X9343820Y-8876180D01*
X9280180Y-8876180D01*
X9280180Y-8939820D01*
X9343820Y-8939820D01*
X9343820Y-10039820D02*
X9343820Y-9976180D01*
X9280180Y-9976180D01*
X9280180Y-10039820D01*
X9343820Y-10039820D01*
X9343820Y-11439820D02*
X9343820Y-11376180D01*
X9280180Y-11376180D01*
X9280180Y-11439820D01*
X9343820Y-11439820D01*
X9343820Y-12539820D02*
X9343820Y-12476180D01*
X9280180Y-12476180D01*
X9280180Y-12539820D01*
X9343820Y-12539820D01*
X9343820Y-13939820D02*
X9343820Y-13876180D01*
X9280180Y-13876180D01*
X9280180Y-13939820D01*
X9343820Y-13939820D01*
X11843820Y-5039820D02*
X11843820Y-4976180D01*
X11780180Y-4976180D01*
X11780180Y-5039820D01*
X11843820Y-5039820D01*
X11843820Y-6439820D02*
X11843820Y-6376180D01*
X11780180Y-6376180D01*
X11780180Y-6439820D01*
X11843820Y-6439820D01*
X11843820Y-7539820D02*
X11843820Y-7476180D01*
X11780180Y-7476180D01*
X11780180Y-7539820D01*
X11843820Y-7539820D01*
X11843820Y-8939820D02*
X11843820Y-8876180D01*
X11780180Y-8876180D01*
X11780180Y-8939820D01*
X11843820Y-8939820D01*
X11843820Y-10039820D02*
X11843820Y-9976180D01*
X11780180Y-9976180D01*
X11780180Y-10039820D01*
X11843820Y-10039820D01*
X11843820Y-11439820D02*
X11843820Y-11376180D01*
X11780180Y-11376180D01*
X11780180Y-11439820D01*
X11843820Y-11439820D01*
X11843820Y-12539820D02*
X11843820Y-12476180D01*
X11780180Y-12476180D01*
X11780180Y-12539820D01*
X11843820Y-12539820D01*
X11843820Y-13939820D02*
X11843820Y-13876180D01*
X11780180Y-13876180D01*
X11780180Y-13939820D01*
X11843820Y-13939820D01*
X14343820Y-5039820D02*
X14343820Y-4976180D01*
X14280180Y-4976180D01*
X14280180Y-5039820D01*
X14343820Y-5039820D01*
X14343820Y-6439820D02*
X14343820Y-6376180D01*
X14280180Y-6376180D01*
X14280180Y-6439820D01*
X14343820Y-6439820D01*
X14343820Y-7539820D02*
X14343820Y-7476180D01*
X14280180Y-7476180D01*
X14280180Y-7539820D01*
X14343820Y-7539820D01*
X14343820Y-8939820D02*
X14343820Y-8876180D01*
X14280180Y-8876180D01*
X14280180Y-8939820D01*
X14343820Y-8939820D01*
X14343820Y-10039820D02*
X14343820Y-9976180D01*
X14280180Y-9976180D01*
X14280180Y-10039820D01*
X14343820Y-10039820D01*
X14343820Y-11439820D02*
X14343820Y-11376180D01*
X14280180Y-11376180D01*
X14280180Y-11439820D01*
X14343820Y-11439820D01*
X14343820Y-12539820D02*
X14343820Y-12476180D01*
X14280180Y-12476180D01*
X14280180Y-12539820D01*
X14343820Y-12539820D01*
X14343820Y-13939820D02*
X14343820Y-13876180D01*
X14280180Y-13876180D01*
X14280180Y-13939820D01*
X14343820Y-13939820D01*
X16843820Y-5039820D02*
X16843820Y-4976180D01*
X16780180Y-4976180D01*
X16780180Y-5039820D01*
X16843820Y-5039820D01*
X16843820Y-6439820D02*
X16843820Y-6376180D01*
X16780180Y-6376180D01*
X16780180Y-6439820D01*
X16843820Y-6439820D01*
X16843820Y-7539820D02*
X16843820Y-7476180D01*
X16780180Y-7476180D01*
X16780180Y-7539820D01*
X16843820Y-7539820D01*
X16843820Y-8939820D02*
X16843820Y-8876180D01*
X16780180Y-8876180D01*
X16780180Y-8939820D01*
X16843820Y-8939820D01*
X16843820Y-10039820D02*
X16843820Y-9976180D01*
X16780180Y-9976180D01*
X16780180Y-10039820D01*
X16843820Y-10039820D01*
X16843820Y-11439820D02*
X16843820Y-11376180D01*
X16780180Y-11376180D01*
X16780180Y-11439820D01*
X16843820Y-11439820D01*
X16843820Y-12539820D02*
X16843820Y-12476180D01*
X16780180Y-12476180D01*
X16780180Y-12539820D01*
X16843820Y-12539820D01*
X16843820Y-13939820D02*
X16843820Y-13876180D01*
X16780180Y-13876180D01*
X16780180Y-13939820D01*
X16843820Y-13939820D01*
X8475500Y-6628000D02*
X8525500Y-6578000D01*
X8475500Y-6528000D01*
X8425500Y-6578000D01*
X8475500Y-6628000D01*
X8475500Y-6882000D02*
X8525500Y-6832000D01*
X8475500Y-6782000D01*
X8425500Y-6832000D01*
X8475500Y-6882000D01*
X8475500Y-7136000D02*
X8525500Y-7086000D01*
X8475500Y-7036000D01*
X8425500Y-7086000D01*
X8475500Y-7136000D01*
X8475500Y-7390000D02*
X8525500Y-7340000D01*
X8475500Y-7290000D01*
X8425500Y-7340000D01*
X8475500Y-7390000D01*
X8482000Y-9128000D02*
X8532000Y-9078000D01*
X8482000Y-9028000D01*
X8432000Y-9078000D01*
X8482000Y-9128000D01*
X8482000Y-9382000D02*
X8532000Y-9332000D01*
X8482000Y-9282000D01*
X8432000Y-9332000D01*
X8482000Y-9382000D01*
X8482000Y-9636000D02*
X8532000Y-9586000D01*
X8482000Y-9536000D01*
X8432000Y-9586000D01*
X8482000Y-9636000D01*
X8482000Y-9890000D02*
X8532000Y-9840000D01*
X8482000Y-9790000D01*
X8432000Y-9840000D01*
X8482000Y-9890000D01*
X12852000Y-4932000D02*
X12902000Y-4882000D01*
X12852000Y-4832000D01*
X12802000Y-4882000D01*
X12852000Y-4932000D01*
X12852000Y-14087000D02*
X12902000Y-14037000D01*
X12852000Y-13987000D01*
X12802000Y-14037000D01*
X12852000Y-14087000D01*
X13106000Y-4932000D02*
X13156000Y-4882000D01*
X13106000Y-4832000D01*
X13056000Y-4882000D01*
X13106000Y-4932000D01*
X13106000Y-14087000D02*
X13156000Y-14037000D01*
X13106000Y-13987000D01*
X13056000Y-14037000D01*
X13106000Y-14087000D01*
X13360000Y-4932000D02*
X13410000Y-4882000D01*
X13360000Y-4832000D01*
X13310000Y-4882000D01*
X13360000Y-4932000D01*
X13360000Y-14087000D02*
X13410000Y-14037000D01*
X13360000Y-13987000D01*
X13310000Y-14037000D01*
X13360000Y-14087000D01*
X13614000Y-4932000D02*
X13664000Y-4882000D01*
X13614000Y-4832000D01*
X13564000Y-4882000D01*
X13614000Y-4932000D01*
X13614000Y-14087000D02*
X13664000Y-14037000D01*
X13614000Y-13987000D01*
X13564000Y-14037000D01*
X13614000Y-14087000D01*
X15348000Y-4932000D02*
X15398000Y-4882000D01*
X15348000Y-4832000D01*
X15298000Y-4882000D01*
X15348000Y-4932000D01*
X15348000Y-14086000D02*
X15398000Y-14036000D01*
X15348000Y-13986000D01*
X15298000Y-14036000D01*
X15348000Y-14086000D01*
X15562000Y-6308000D02*
X15612000Y-6258000D01*
X15562000Y-6208000D01*
X15512000Y-6258000D01*
X15562000Y-6308000D01*
X15562000Y-6700000D02*
X15612000Y-6650000D01*
X15562000Y-6600000D01*
X15512000Y-6650000D01*
X15562000Y-6700000D01*
X15562000Y-6954000D02*
X15612000Y-6904000D01*
X15562000Y-6854000D01*
X15512000Y-6904000D01*
X15562000Y-6954000D01*
X15562000Y-7208000D02*
X15612000Y-7158000D01*
X15562000Y-7108000D01*
X15512000Y-7158000D01*
X15562000Y-7208000D01*
X15562000Y-11258000D02*
X15612000Y-11208000D01*
X15562000Y-11158000D01*
X15512000Y-11208000D01*
X15562000Y-11258000D01*
X15562000Y-11650000D02*
X15612000Y-11600000D01*
X15562000Y-11550000D01*
X15512000Y-11600000D01*
X15562000Y-11650000D01*
X15562000Y-11904000D02*
X15612000Y-11854000D01*
X15562000Y-11804000D01*
X15512000Y-11854000D01*
X15562000Y-11904000D01*
X15562000Y-12158000D02*
X15612000Y-12108000D01*
X15562000Y-12058000D01*
X15512000Y-12108000D01*
X15562000Y-12158000D01*
X15602000Y-4932000D02*
X15652000Y-4882000D01*
X15602000Y-4832000D01*
X15552000Y-4882000D01*
X15602000Y-4932000D01*
X15602000Y-14086000D02*
X15652000Y-14036000D01*
X15602000Y-13986000D01*
X15552000Y-14036000D01*
X15602000Y-14086000D01*
X15856000Y-4932000D02*
X15906000Y-4882000D01*
X15856000Y-4832000D01*
X15806000Y-4882000D01*
X15856000Y-4932000D01*
X15856000Y-14086000D02*
X15906000Y-14036000D01*
X15856000Y-13986000D01*
X15806000Y-14036000D01*
X15856000Y-14086000D01*
X16110000Y-4932000D02*
X16160000Y-4882000D01*
X16110000Y-4832000D01*
X16060000Y-4882000D01*
X16110000Y-4932000D01*
X16110000Y-14086000D02*
X16160000Y-14036000D01*
X16110000Y-13986000D01*
X16060000Y-14036000D01*
X16110000Y-14086000D01*
X17642000Y-6628000D02*
X17692000Y-6578000D01*
X17642000Y-6528000D01*
X17592000Y-6578000D01*
X17642000Y-6628000D01*
X17642000Y-6882000D02*
X17692000Y-6832000D01*
X17642000Y-6782000D01*
X17592000Y-6832000D01*
X17642000Y-6882000D01*
X17642000Y-7136000D02*
X17692000Y-7086000D01*
X17642000Y-7036000D01*
X17592000Y-7086000D01*
X17642000Y-7136000D01*
X17642000Y-7390000D02*
X17692000Y-7340000D01*
X17642000Y-7290000D01*
X17592000Y-7340000D01*
X17642000Y-7390000D01*
X17642000Y-9128000D02*
X17692000Y-9078000D01*
X17642000Y-9028000D01*
X17592000Y-9078000D01*
X17642000Y-9128000D01*
X17642000Y-9382000D02*
X17692000Y-9332000D01*
X17642000Y-9282000D01*
X17592000Y-9332000D01*
X17642000Y-9382000D01*
X17642000Y-9636000D02*
X17692000Y-9586000D01*
X17642000Y-9536000D01*
X17592000Y-9586000D01*
X17642000Y-9636000D01*
X17642000Y-9890000D02*
X17692000Y-9840000D01*
X17642000Y-9790000D01*
X17592000Y-9840000D01*
X17642000Y-9890000D01*
D11*
X8320277Y-14771984D02*
X8320277Y-14571984D01*
X8320277Y-14571984D02*
X8367896Y-14571984D01*
X8367896Y-14571984D02*
X8396467Y-14581508D01*
X8396467Y-14581508D02*
X8415515Y-14600555D01*
X8415515Y-14600555D02*
X8425039Y-14619603D01*
X8425039Y-14619603D02*
X8434563Y-14657698D01*
X8434563Y-14657698D02*
X8434563Y-14686269D01*
X8434563Y-14686269D02*
X8425039Y-14724365D01*
X8425039Y-14724365D02*
X8415515Y-14743412D01*
X8415515Y-14743412D02*
X8396467Y-14762460D01*
X8396467Y-14762460D02*
X8367896Y-14771984D01*
X8367896Y-14771984D02*
X8320277Y-14771984D01*
X8520277Y-14771984D02*
X8520277Y-14638650D01*
X8520277Y-14676746D02*
X8529801Y-14657698D01*
X8529801Y-14657698D02*
X8539324Y-14648174D01*
X8539324Y-14648174D02*
X8558372Y-14638650D01*
X8558372Y-14638650D02*
X8577420Y-14638650D01*
X8644086Y-14771984D02*
X8644086Y-14638650D01*
X8644086Y-14571984D02*
X8634563Y-14581508D01*
X8634563Y-14581508D02*
X8644086Y-14591031D01*
X8644086Y-14591031D02*
X8653610Y-14581508D01*
X8653610Y-14581508D02*
X8644086Y-14571984D01*
X8644086Y-14571984D02*
X8644086Y-14591031D01*
X8767896Y-14771984D02*
X8748848Y-14762460D01*
X8748848Y-14762460D02*
X8739324Y-14743412D01*
X8739324Y-14743412D02*
X8739324Y-14571984D01*
X8872658Y-14771984D02*
X8853610Y-14762460D01*
X8853610Y-14762460D02*
X8844086Y-14743412D01*
X8844086Y-14743412D02*
X8844086Y-14571984D01*
X9101229Y-14771984D02*
X9101229Y-14571984D01*
X9101229Y-14571984D02*
X9167896Y-14714841D01*
X9167896Y-14714841D02*
X9234563Y-14571984D01*
X9234563Y-14571984D02*
X9234563Y-14771984D01*
X9415515Y-14771984D02*
X9415515Y-14667222D01*
X9415515Y-14667222D02*
X9405991Y-14648174D01*
X9405991Y-14648174D02*
X9386944Y-14638650D01*
X9386944Y-14638650D02*
X9348848Y-14638650D01*
X9348848Y-14638650D02*
X9329801Y-14648174D01*
X9415515Y-14762460D02*
X9396467Y-14771984D01*
X9396467Y-14771984D02*
X9348848Y-14771984D01*
X9348848Y-14771984D02*
X9329801Y-14762460D01*
X9329801Y-14762460D02*
X9320277Y-14743412D01*
X9320277Y-14743412D02*
X9320277Y-14724365D01*
X9320277Y-14724365D02*
X9329801Y-14705317D01*
X9329801Y-14705317D02*
X9348848Y-14695793D01*
X9348848Y-14695793D02*
X9396467Y-14695793D01*
X9396467Y-14695793D02*
X9415515Y-14686269D01*
X9510753Y-14638650D02*
X9510753Y-14838650D01*
X9510753Y-14648174D02*
X9529801Y-14638650D01*
X9529801Y-14638650D02*
X9567896Y-14638650D01*
X9567896Y-14638650D02*
X9586944Y-14648174D01*
X9586944Y-14648174D02*
X9596467Y-14657698D01*
X9596467Y-14657698D02*
X9605991Y-14676746D01*
X9605991Y-14676746D02*
X9605991Y-14733888D01*
X9605991Y-14733888D02*
X9596467Y-14752936D01*
X9596467Y-14752936D02*
X9586944Y-14762460D01*
X9586944Y-14762460D02*
X9567896Y-14771984D01*
X9567896Y-14771984D02*
X9529801Y-14771984D01*
X9529801Y-14771984D02*
X9510753Y-14762460D01*
X9691705Y-14752936D02*
X9701229Y-14762460D01*
X9701229Y-14762460D02*
X9691705Y-14771984D01*
X9691705Y-14771984D02*
X9682182Y-14762460D01*
X9682182Y-14762460D02*
X9691705Y-14752936D01*
X9691705Y-14752936D02*
X9691705Y-14771984D01*
X9691705Y-14648174D02*
X9701229Y-14657698D01*
X9701229Y-14657698D02*
X9691705Y-14667222D01*
X9691705Y-14667222D02*
X9682182Y-14657698D01*
X9682182Y-14657698D02*
X9691705Y-14648174D01*
X9691705Y-14648174D02*
X9691705Y-14667222D01*
D12*
X8029500Y-15085500D02*
X8059500Y-15115500D01*
X8059500Y-15085500D02*
X8029500Y-15115500D01*
D11*
X8358372Y-14991984D02*
X8377420Y-14991984D01*
X8377420Y-14991984D02*
X8396467Y-15001508D01*
X8396467Y-15001508D02*
X8405991Y-15011031D01*
X8405991Y-15011031D02*
X8415515Y-15030079D01*
X8415515Y-15030079D02*
X8425039Y-15068174D01*
X8425039Y-15068174D02*
X8425039Y-15115793D01*
X8425039Y-15115793D02*
X8415515Y-15153888D01*
X8415515Y-15153888D02*
X8405991Y-15172936D01*
X8405991Y-15172936D02*
X8396467Y-15182460D01*
X8396467Y-15182460D02*
X8377420Y-15191984D01*
X8377420Y-15191984D02*
X8358372Y-15191984D01*
X8358372Y-15191984D02*
X8339324Y-15182460D01*
X8339324Y-15182460D02*
X8329801Y-15172936D01*
X8329801Y-15172936D02*
X8320277Y-15153888D01*
X8320277Y-15153888D02*
X8310753Y-15115793D01*
X8310753Y-15115793D02*
X8310753Y-15068174D01*
X8310753Y-15068174D02*
X8320277Y-15030079D01*
X8320277Y-15030079D02*
X8329801Y-15011031D01*
X8329801Y-15011031D02*
X8339324Y-15001508D01*
X8339324Y-15001508D02*
X8358372Y-14991984D01*
X8510753Y-15172936D02*
X8520277Y-15182460D01*
X8520277Y-15182460D02*
X8510753Y-15191984D01*
X8510753Y-15191984D02*
X8501229Y-15182460D01*
X8501229Y-15182460D02*
X8510753Y-15172936D01*
X8510753Y-15172936D02*
X8510753Y-15191984D01*
X8586944Y-14991984D02*
X8710753Y-14991984D01*
X8710753Y-14991984D02*
X8644086Y-15068174D01*
X8644086Y-15068174D02*
X8672658Y-15068174D01*
X8672658Y-15068174D02*
X8691705Y-15077698D01*
X8691705Y-15077698D02*
X8701229Y-15087222D01*
X8701229Y-15087222D02*
X8710753Y-15106269D01*
X8710753Y-15106269D02*
X8710753Y-15153888D01*
X8710753Y-15153888D02*
X8701229Y-15172936D01*
X8701229Y-15172936D02*
X8691705Y-15182460D01*
X8691705Y-15182460D02*
X8672658Y-15191984D01*
X8672658Y-15191984D02*
X8615515Y-15191984D01*
X8615515Y-15191984D02*
X8596467Y-15182460D01*
X8596467Y-15182460D02*
X8586944Y-15172936D01*
X8834563Y-14991984D02*
X8853610Y-14991984D01*
X8853610Y-14991984D02*
X8872658Y-15001508D01*
X8872658Y-15001508D02*
X8882182Y-15011031D01*
X8882182Y-15011031D02*
X8891705Y-15030079D01*
X8891705Y-15030079D02*
X8901229Y-15068174D01*
X8901229Y-15068174D02*
X8901229Y-15115793D01*
X8901229Y-15115793D02*
X8891705Y-15153888D01*
X8891705Y-15153888D02*
X8882182Y-15172936D01*
X8882182Y-15172936D02*
X8872658Y-15182460D01*
X8872658Y-15182460D02*
X8853610Y-15191984D01*
X8853610Y-15191984D02*
X8834563Y-15191984D01*
X8834563Y-15191984D02*
X8815515Y-15182460D01*
X8815515Y-15182460D02*
X8805991Y-15172936D01*
X8805991Y-15172936D02*
X8796467Y-15153888D01*
X8796467Y-15153888D02*
X8786944Y-15115793D01*
X8786944Y-15115793D02*
X8786944Y-15068174D01*
X8786944Y-15068174D02*
X8796467Y-15030079D01*
X8796467Y-15030079D02*
X8805991Y-15011031D01*
X8805991Y-15011031D02*
X8815515Y-15001508D01*
X8815515Y-15001508D02*
X8834563Y-14991984D01*
X9025039Y-14991984D02*
X9044086Y-14991984D01*
X9044086Y-14991984D02*
X9063134Y-15001508D01*
X9063134Y-15001508D02*
X9072658Y-15011031D01*
X9072658Y-15011031D02*
X9082182Y-15030079D01*
X9082182Y-15030079D02*
X9091705Y-15068174D01*
X9091705Y-15068174D02*
X9091705Y-15115793D01*
X9091705Y-15115793D02*
X9082182Y-15153888D01*
X9082182Y-15153888D02*
X9072658Y-15172936D01*
X9072658Y-15172936D02*
X9063134Y-15182460D01*
X9063134Y-15182460D02*
X9044086Y-15191984D01*
X9044086Y-15191984D02*
X9025039Y-15191984D01*
X9025039Y-15191984D02*
X9005991Y-15182460D01*
X9005991Y-15182460D02*
X8996467Y-15172936D01*
X8996467Y-15172936D02*
X8986944Y-15153888D01*
X8986944Y-15153888D02*
X8977420Y-15115793D01*
X8977420Y-15115793D02*
X8977420Y-15068174D01*
X8977420Y-15068174D02*
X8986944Y-15030079D01*
X8986944Y-15030079D02*
X8996467Y-15011031D01*
X8996467Y-15011031D02*
X9005991Y-15001508D01*
X9005991Y-15001508D02*
X9025039Y-14991984D01*
X9177420Y-15191984D02*
X9177420Y-15058650D01*
X9177420Y-15077698D02*
X9186944Y-15068174D01*
X9186944Y-15068174D02*
X9205991Y-15058650D01*
X9205991Y-15058650D02*
X9234563Y-15058650D01*
X9234563Y-15058650D02*
X9253610Y-15068174D01*
X9253610Y-15068174D02*
X9263134Y-15087222D01*
X9263134Y-15087222D02*
X9263134Y-15191984D01*
X9263134Y-15087222D02*
X9272658Y-15068174D01*
X9272658Y-15068174D02*
X9291705Y-15058650D01*
X9291705Y-15058650D02*
X9320277Y-15058650D01*
X9320277Y-15058650D02*
X9339325Y-15068174D01*
X9339325Y-15068174D02*
X9348848Y-15087222D01*
X9348848Y-15087222D02*
X9348848Y-15191984D01*
X9444086Y-15191984D02*
X9444086Y-15058650D01*
X9444086Y-15077698D02*
X9453610Y-15068174D01*
X9453610Y-15068174D02*
X9472658Y-15058650D01*
X9472658Y-15058650D02*
X9501229Y-15058650D01*
X9501229Y-15058650D02*
X9520277Y-15068174D01*
X9520277Y-15068174D02*
X9529801Y-15087222D01*
X9529801Y-15087222D02*
X9529801Y-15191984D01*
X9529801Y-15087222D02*
X9539325Y-15068174D01*
X9539325Y-15068174D02*
X9558372Y-15058650D01*
X9558372Y-15058650D02*
X9586944Y-15058650D01*
X9586944Y-15058650D02*
X9605991Y-15068174D01*
X9605991Y-15068174D02*
X9615515Y-15087222D01*
X9615515Y-15087222D02*
X9615515Y-15191984D01*
X10005991Y-14982460D02*
X9834563Y-15239603D01*
X10263134Y-14991984D02*
X10282182Y-14991984D01*
X10282182Y-14991984D02*
X10301229Y-15001508D01*
X10301229Y-15001508D02*
X10310753Y-15011031D01*
X10310753Y-15011031D02*
X10320277Y-15030079D01*
X10320277Y-15030079D02*
X10329801Y-15068174D01*
X10329801Y-15068174D02*
X10329801Y-15115793D01*
X10329801Y-15115793D02*
X10320277Y-15153888D01*
X10320277Y-15153888D02*
X10310753Y-15172936D01*
X10310753Y-15172936D02*
X10301229Y-15182460D01*
X10301229Y-15182460D02*
X10282182Y-15191984D01*
X10282182Y-15191984D02*
X10263134Y-15191984D01*
X10263134Y-15191984D02*
X10244087Y-15182460D01*
X10244087Y-15182460D02*
X10234563Y-15172936D01*
X10234563Y-15172936D02*
X10225039Y-15153888D01*
X10225039Y-15153888D02*
X10215515Y-15115793D01*
X10215515Y-15115793D02*
X10215515Y-15068174D01*
X10215515Y-15068174D02*
X10225039Y-15030079D01*
X10225039Y-15030079D02*
X10234563Y-15011031D01*
X10234563Y-15011031D02*
X10244087Y-15001508D01*
X10244087Y-15001508D02*
X10263134Y-14991984D01*
X10415515Y-15172936D02*
X10425039Y-15182460D01*
X10425039Y-15182460D02*
X10415515Y-15191984D01*
X10415515Y-15191984D02*
X10405991Y-15182460D01*
X10405991Y-15182460D02*
X10415515Y-15172936D01*
X10415515Y-15172936D02*
X10415515Y-15191984D01*
X10548848Y-14991984D02*
X10567896Y-14991984D01*
X10567896Y-14991984D02*
X10586944Y-15001508D01*
X10586944Y-15001508D02*
X10596468Y-15011031D01*
X10596468Y-15011031D02*
X10605991Y-15030079D01*
X10605991Y-15030079D02*
X10615515Y-15068174D01*
X10615515Y-15068174D02*
X10615515Y-15115793D01*
X10615515Y-15115793D02*
X10605991Y-15153888D01*
X10605991Y-15153888D02*
X10596468Y-15172936D01*
X10596468Y-15172936D02*
X10586944Y-15182460D01*
X10586944Y-15182460D02*
X10567896Y-15191984D01*
X10567896Y-15191984D02*
X10548848Y-15191984D01*
X10548848Y-15191984D02*
X10529801Y-15182460D01*
X10529801Y-15182460D02*
X10520277Y-15172936D01*
X10520277Y-15172936D02*
X10510753Y-15153888D01*
X10510753Y-15153888D02*
X10501229Y-15115793D01*
X10501229Y-15115793D02*
X10501229Y-15068174D01*
X10501229Y-15068174D02*
X10510753Y-15030079D01*
X10510753Y-15030079D02*
X10520277Y-15011031D01*
X10520277Y-15011031D02*
X10529801Y-15001508D01*
X10529801Y-15001508D02*
X10548848Y-14991984D01*
X10805991Y-15191984D02*
X10691706Y-15191984D01*
X10748848Y-15191984D02*
X10748848Y-14991984D01*
X10748848Y-14991984D02*
X10729801Y-15020555D01*
X10729801Y-15020555D02*
X10710753Y-15039603D01*
X10710753Y-15039603D02*
X10691706Y-15049127D01*
X10996468Y-15191984D02*
X10882182Y-15191984D01*
X10939325Y-15191984D02*
X10939325Y-14991984D01*
X10939325Y-14991984D02*
X10920277Y-15020555D01*
X10920277Y-15020555D02*
X10901229Y-15039603D01*
X10901229Y-15039603D02*
X10882182Y-15049127D01*
X11110753Y-15077698D02*
X11091706Y-15068174D01*
X11091706Y-15068174D02*
X11082182Y-15058650D01*
X11082182Y-15058650D02*
X11072658Y-15039603D01*
X11072658Y-15039603D02*
X11072658Y-15030079D01*
X11072658Y-15030079D02*
X11082182Y-15011031D01*
X11082182Y-15011031D02*
X11091706Y-15001508D01*
X11091706Y-15001508D02*
X11110753Y-14991984D01*
X11110753Y-14991984D02*
X11148849Y-14991984D01*
X11148849Y-14991984D02*
X11167896Y-15001508D01*
X11167896Y-15001508D02*
X11177420Y-15011031D01*
X11177420Y-15011031D02*
X11186944Y-15030079D01*
X11186944Y-15030079D02*
X11186944Y-15039603D01*
X11186944Y-15039603D02*
X11177420Y-15058650D01*
X11177420Y-15058650D02*
X11167896Y-15068174D01*
X11167896Y-15068174D02*
X11148849Y-15077698D01*
X11148849Y-15077698D02*
X11110753Y-15077698D01*
X11110753Y-15077698D02*
X11091706Y-15087222D01*
X11091706Y-15087222D02*
X11082182Y-15096746D01*
X11082182Y-15096746D02*
X11072658Y-15115793D01*
X11072658Y-15115793D02*
X11072658Y-15153888D01*
X11072658Y-15153888D02*
X11082182Y-15172936D01*
X11082182Y-15172936D02*
X11091706Y-15182460D01*
X11091706Y-15182460D02*
X11110753Y-15191984D01*
X11110753Y-15191984D02*
X11148849Y-15191984D01*
X11148849Y-15191984D02*
X11167896Y-15182460D01*
X11167896Y-15182460D02*
X11177420Y-15172936D01*
X11177420Y-15172936D02*
X11186944Y-15153888D01*
X11186944Y-15153888D02*
X11186944Y-15115793D01*
X11186944Y-15115793D02*
X11177420Y-15096746D01*
X11177420Y-15096746D02*
X11167896Y-15087222D01*
X11167896Y-15087222D02*
X11148849Y-15077698D01*
X11263134Y-14991984D02*
X11263134Y-15030079D01*
X11339325Y-14991984D02*
X11339325Y-15030079D01*
X11634563Y-15268174D02*
X11625039Y-15258650D01*
X11625039Y-15258650D02*
X11605991Y-15230079D01*
X11605991Y-15230079D02*
X11596468Y-15211031D01*
X11596468Y-15211031D02*
X11586944Y-15182460D01*
X11586944Y-15182460D02*
X11577420Y-15134841D01*
X11577420Y-15134841D02*
X11577420Y-15096746D01*
X11577420Y-15096746D02*
X11586944Y-15049127D01*
X11586944Y-15049127D02*
X11596468Y-15020555D01*
X11596468Y-15020555D02*
X11605991Y-15001508D01*
X11605991Y-15001508D02*
X11625039Y-14972936D01*
X11625039Y-14972936D02*
X11634563Y-14963412D01*
X11701229Y-15011031D02*
X11710753Y-15001508D01*
X11710753Y-15001508D02*
X11729801Y-14991984D01*
X11729801Y-14991984D02*
X11777420Y-14991984D01*
X11777420Y-14991984D02*
X11796468Y-15001508D01*
X11796468Y-15001508D02*
X11805991Y-15011031D01*
X11805991Y-15011031D02*
X11815515Y-15030079D01*
X11815515Y-15030079D02*
X11815515Y-15049127D01*
X11815515Y-15049127D02*
X11805991Y-15077698D01*
X11805991Y-15077698D02*
X11691706Y-15191984D01*
X11691706Y-15191984D02*
X11815515Y-15191984D01*
X11939325Y-14991984D02*
X11958372Y-14991984D01*
X11958372Y-14991984D02*
X11977420Y-15001508D01*
X11977420Y-15001508D02*
X11986944Y-15011031D01*
X11986944Y-15011031D02*
X11996468Y-15030079D01*
X11996468Y-15030079D02*
X12005991Y-15068174D01*
X12005991Y-15068174D02*
X12005991Y-15115793D01*
X12005991Y-15115793D02*
X11996468Y-15153888D01*
X11996468Y-15153888D02*
X11986944Y-15172936D01*
X11986944Y-15172936D02*
X11977420Y-15182460D01*
X11977420Y-15182460D02*
X11958372Y-15191984D01*
X11958372Y-15191984D02*
X11939325Y-15191984D01*
X11939325Y-15191984D02*
X11920277Y-15182460D01*
X11920277Y-15182460D02*
X11910753Y-15172936D01*
X11910753Y-15172936D02*
X11901229Y-15153888D01*
X11901229Y-15153888D02*
X11891706Y-15115793D01*
X11891706Y-15115793D02*
X11891706Y-15068174D01*
X11891706Y-15068174D02*
X11901229Y-15030079D01*
X11901229Y-15030079D02*
X11910753Y-15011031D01*
X11910753Y-15011031D02*
X11920277Y-15001508D01*
X11920277Y-15001508D02*
X11939325Y-14991984D01*
X12244087Y-15191984D02*
X12244087Y-14991984D01*
X12329801Y-15191984D02*
X12329801Y-15087222D01*
X12329801Y-15087222D02*
X12320277Y-15068174D01*
X12320277Y-15068174D02*
X12301230Y-15058650D01*
X12301230Y-15058650D02*
X12272658Y-15058650D01*
X12272658Y-15058650D02*
X12253610Y-15068174D01*
X12253610Y-15068174D02*
X12244087Y-15077698D01*
X12453610Y-15191984D02*
X12434563Y-15182460D01*
X12434563Y-15182460D02*
X12425039Y-15172936D01*
X12425039Y-15172936D02*
X12415515Y-15153888D01*
X12415515Y-15153888D02*
X12415515Y-15096746D01*
X12415515Y-15096746D02*
X12425039Y-15077698D01*
X12425039Y-15077698D02*
X12434563Y-15068174D01*
X12434563Y-15068174D02*
X12453610Y-15058650D01*
X12453610Y-15058650D02*
X12482182Y-15058650D01*
X12482182Y-15058650D02*
X12501230Y-15068174D01*
X12501230Y-15068174D02*
X12510753Y-15077698D01*
X12510753Y-15077698D02*
X12520277Y-15096746D01*
X12520277Y-15096746D02*
X12520277Y-15153888D01*
X12520277Y-15153888D02*
X12510753Y-15172936D01*
X12510753Y-15172936D02*
X12501230Y-15182460D01*
X12501230Y-15182460D02*
X12482182Y-15191984D01*
X12482182Y-15191984D02*
X12453610Y-15191984D01*
X12634563Y-15191984D02*
X12615515Y-15182460D01*
X12615515Y-15182460D02*
X12605991Y-15163412D01*
X12605991Y-15163412D02*
X12605991Y-14991984D01*
X12786944Y-15182460D02*
X12767896Y-15191984D01*
X12767896Y-15191984D02*
X12729801Y-15191984D01*
X12729801Y-15191984D02*
X12710753Y-15182460D01*
X12710753Y-15182460D02*
X12701230Y-15163412D01*
X12701230Y-15163412D02*
X12701230Y-15087222D01*
X12701230Y-15087222D02*
X12710753Y-15068174D01*
X12710753Y-15068174D02*
X12729801Y-15058650D01*
X12729801Y-15058650D02*
X12767896Y-15058650D01*
X12767896Y-15058650D02*
X12786944Y-15068174D01*
X12786944Y-15068174D02*
X12796468Y-15087222D01*
X12796468Y-15087222D02*
X12796468Y-15106269D01*
X12796468Y-15106269D02*
X12701230Y-15125317D01*
X12872658Y-15182460D02*
X12891706Y-15191984D01*
X12891706Y-15191984D02*
X12929801Y-15191984D01*
X12929801Y-15191984D02*
X12948849Y-15182460D01*
X12948849Y-15182460D02*
X12958372Y-15163412D01*
X12958372Y-15163412D02*
X12958372Y-15153888D01*
X12958372Y-15153888D02*
X12948849Y-15134841D01*
X12948849Y-15134841D02*
X12929801Y-15125317D01*
X12929801Y-15125317D02*
X12901230Y-15125317D01*
X12901230Y-15125317D02*
X12882182Y-15115793D01*
X12882182Y-15115793D02*
X12872658Y-15096746D01*
X12872658Y-15096746D02*
X12872658Y-15087222D01*
X12872658Y-15087222D02*
X12882182Y-15068174D01*
X12882182Y-15068174D02*
X12901230Y-15058650D01*
X12901230Y-15058650D02*
X12929801Y-15058650D01*
X12929801Y-15058650D02*
X12948849Y-15068174D01*
X13025039Y-15268174D02*
X13034563Y-15258650D01*
X13034563Y-15258650D02*
X13053611Y-15230079D01*
X13053611Y-15230079D02*
X13063134Y-15211031D01*
X13063134Y-15211031D02*
X13072658Y-15182460D01*
X13072658Y-15182460D02*
X13082182Y-15134841D01*
X13082182Y-15134841D02*
X13082182Y-15096746D01*
X13082182Y-15096746D02*
X13072658Y-15049127D01*
X13072658Y-15049127D02*
X13063134Y-15020555D01*
X13063134Y-15020555D02*
X13053611Y-15001508D01*
X13053611Y-15001508D02*
X13034563Y-14972936D01*
X13034563Y-14972936D02*
X13025039Y-14963412D01*
D12*
X8059500Y-15364500D02*
G75*
G02*
X8019500Y-15364500I-20000J0D01*
G01*
X8019500Y-15364500D02*
G75*
G02*
X8059500Y-15364500I20000J0D01*
G01*
D11*
X8358372Y-15255984D02*
X8377420Y-15255984D01*
X8377420Y-15255984D02*
X8396467Y-15265508D01*
X8396467Y-15265508D02*
X8405991Y-15275031D01*
X8405991Y-15275031D02*
X8415515Y-15294079D01*
X8415515Y-15294079D02*
X8425039Y-15332174D01*
X8425039Y-15332174D02*
X8425039Y-15379793D01*
X8425039Y-15379793D02*
X8415515Y-15417888D01*
X8415515Y-15417888D02*
X8405991Y-15436936D01*
X8405991Y-15436936D02*
X8396467Y-15446460D01*
X8396467Y-15446460D02*
X8377420Y-15455984D01*
X8377420Y-15455984D02*
X8358372Y-15455984D01*
X8358372Y-15455984D02*
X8339324Y-15446460D01*
X8339324Y-15446460D02*
X8329801Y-15436936D01*
X8329801Y-15436936D02*
X8320277Y-15417888D01*
X8320277Y-15417888D02*
X8310753Y-15379793D01*
X8310753Y-15379793D02*
X8310753Y-15332174D01*
X8310753Y-15332174D02*
X8320277Y-15294079D01*
X8320277Y-15294079D02*
X8329801Y-15275031D01*
X8329801Y-15275031D02*
X8339324Y-15265508D01*
X8339324Y-15265508D02*
X8358372Y-15255984D01*
X8510753Y-15436936D02*
X8520277Y-15446460D01*
X8520277Y-15446460D02*
X8510753Y-15455984D01*
X8510753Y-15455984D02*
X8501229Y-15446460D01*
X8501229Y-15446460D02*
X8510753Y-15436936D01*
X8510753Y-15436936D02*
X8510753Y-15455984D01*
X8691705Y-15322650D02*
X8691705Y-15455984D01*
X8644086Y-15246460D02*
X8596467Y-15389317D01*
X8596467Y-15389317D02*
X8720277Y-15389317D01*
X8834563Y-15255984D02*
X8853610Y-15255984D01*
X8853610Y-15255984D02*
X8872658Y-15265508D01*
X8872658Y-15265508D02*
X8882182Y-15275031D01*
X8882182Y-15275031D02*
X8891705Y-15294079D01*
X8891705Y-15294079D02*
X8901229Y-15332174D01*
X8901229Y-15332174D02*
X8901229Y-15379793D01*
X8901229Y-15379793D02*
X8891705Y-15417888D01*
X8891705Y-15417888D02*
X8882182Y-15436936D01*
X8882182Y-15436936D02*
X8872658Y-15446460D01*
X8872658Y-15446460D02*
X8853610Y-15455984D01*
X8853610Y-15455984D02*
X8834563Y-15455984D01*
X8834563Y-15455984D02*
X8815515Y-15446460D01*
X8815515Y-15446460D02*
X8805991Y-15436936D01*
X8805991Y-15436936D02*
X8796467Y-15417888D01*
X8796467Y-15417888D02*
X8786944Y-15379793D01*
X8786944Y-15379793D02*
X8786944Y-15332174D01*
X8786944Y-15332174D02*
X8796467Y-15294079D01*
X8796467Y-15294079D02*
X8805991Y-15275031D01*
X8805991Y-15275031D02*
X8815515Y-15265508D01*
X8815515Y-15265508D02*
X8834563Y-15255984D01*
X9025039Y-15255984D02*
X9044086Y-15255984D01*
X9044086Y-15255984D02*
X9063134Y-15265508D01*
X9063134Y-15265508D02*
X9072658Y-15275031D01*
X9072658Y-15275031D02*
X9082182Y-15294079D01*
X9082182Y-15294079D02*
X9091705Y-15332174D01*
X9091705Y-15332174D02*
X9091705Y-15379793D01*
X9091705Y-15379793D02*
X9082182Y-15417888D01*
X9082182Y-15417888D02*
X9072658Y-15436936D01*
X9072658Y-15436936D02*
X9063134Y-15446460D01*
X9063134Y-15446460D02*
X9044086Y-15455984D01*
X9044086Y-15455984D02*
X9025039Y-15455984D01*
X9025039Y-15455984D02*
X9005991Y-15446460D01*
X9005991Y-15446460D02*
X8996467Y-15436936D01*
X8996467Y-15436936D02*
X8986944Y-15417888D01*
X8986944Y-15417888D02*
X8977420Y-15379793D01*
X8977420Y-15379793D02*
X8977420Y-15332174D01*
X8977420Y-15332174D02*
X8986944Y-15294079D01*
X8986944Y-15294079D02*
X8996467Y-15275031D01*
X8996467Y-15275031D02*
X9005991Y-15265508D01*
X9005991Y-15265508D02*
X9025039Y-15255984D01*
X9177420Y-15455984D02*
X9177420Y-15322650D01*
X9177420Y-15341698D02*
X9186944Y-15332174D01*
X9186944Y-15332174D02*
X9205991Y-15322650D01*
X9205991Y-15322650D02*
X9234563Y-15322650D01*
X9234563Y-15322650D02*
X9253610Y-15332174D01*
X9253610Y-15332174D02*
X9263134Y-15351222D01*
X9263134Y-15351222D02*
X9263134Y-15455984D01*
X9263134Y-15351222D02*
X9272658Y-15332174D01*
X9272658Y-15332174D02*
X9291705Y-15322650D01*
X9291705Y-15322650D02*
X9320277Y-15322650D01*
X9320277Y-15322650D02*
X9339325Y-15332174D01*
X9339325Y-15332174D02*
X9348848Y-15351222D01*
X9348848Y-15351222D02*
X9348848Y-15455984D01*
X9444086Y-15455984D02*
X9444086Y-15322650D01*
X9444086Y-15341698D02*
X9453610Y-15332174D01*
X9453610Y-15332174D02*
X9472658Y-15322650D01*
X9472658Y-15322650D02*
X9501229Y-15322650D01*
X9501229Y-15322650D02*
X9520277Y-15332174D01*
X9520277Y-15332174D02*
X9529801Y-15351222D01*
X9529801Y-15351222D02*
X9529801Y-15455984D01*
X9529801Y-15351222D02*
X9539325Y-15332174D01*
X9539325Y-15332174D02*
X9558372Y-15322650D01*
X9558372Y-15322650D02*
X9586944Y-15322650D01*
X9586944Y-15322650D02*
X9605991Y-15332174D01*
X9605991Y-15332174D02*
X9615515Y-15351222D01*
X9615515Y-15351222D02*
X9615515Y-15455984D01*
X10005991Y-15246460D02*
X9834563Y-15503603D01*
X10263134Y-15255984D02*
X10282182Y-15255984D01*
X10282182Y-15255984D02*
X10301229Y-15265508D01*
X10301229Y-15265508D02*
X10310753Y-15275031D01*
X10310753Y-15275031D02*
X10320277Y-15294079D01*
X10320277Y-15294079D02*
X10329801Y-15332174D01*
X10329801Y-15332174D02*
X10329801Y-15379793D01*
X10329801Y-15379793D02*
X10320277Y-15417888D01*
X10320277Y-15417888D02*
X10310753Y-15436936D01*
X10310753Y-15436936D02*
X10301229Y-15446460D01*
X10301229Y-15446460D02*
X10282182Y-15455984D01*
X10282182Y-15455984D02*
X10263134Y-15455984D01*
X10263134Y-15455984D02*
X10244087Y-15446460D01*
X10244087Y-15446460D02*
X10234563Y-15436936D01*
X10234563Y-15436936D02*
X10225039Y-15417888D01*
X10225039Y-15417888D02*
X10215515Y-15379793D01*
X10215515Y-15379793D02*
X10215515Y-15332174D01*
X10215515Y-15332174D02*
X10225039Y-15294079D01*
X10225039Y-15294079D02*
X10234563Y-15275031D01*
X10234563Y-15275031D02*
X10244087Y-15265508D01*
X10244087Y-15265508D02*
X10263134Y-15255984D01*
X10415515Y-15436936D02*
X10425039Y-15446460D01*
X10425039Y-15446460D02*
X10415515Y-15455984D01*
X10415515Y-15455984D02*
X10405991Y-15446460D01*
X10405991Y-15446460D02*
X10415515Y-15436936D01*
X10415515Y-15436936D02*
X10415515Y-15455984D01*
X10548848Y-15255984D02*
X10567896Y-15255984D01*
X10567896Y-15255984D02*
X10586944Y-15265508D01*
X10586944Y-15265508D02*
X10596468Y-15275031D01*
X10596468Y-15275031D02*
X10605991Y-15294079D01*
X10605991Y-15294079D02*
X10615515Y-15332174D01*
X10615515Y-15332174D02*
X10615515Y-15379793D01*
X10615515Y-15379793D02*
X10605991Y-15417888D01*
X10605991Y-15417888D02*
X10596468Y-15436936D01*
X10596468Y-15436936D02*
X10586944Y-15446460D01*
X10586944Y-15446460D02*
X10567896Y-15455984D01*
X10567896Y-15455984D02*
X10548848Y-15455984D01*
X10548848Y-15455984D02*
X10529801Y-15446460D01*
X10529801Y-15446460D02*
X10520277Y-15436936D01*
X10520277Y-15436936D02*
X10510753Y-15417888D01*
X10510753Y-15417888D02*
X10501229Y-15379793D01*
X10501229Y-15379793D02*
X10501229Y-15332174D01*
X10501229Y-15332174D02*
X10510753Y-15294079D01*
X10510753Y-15294079D02*
X10520277Y-15275031D01*
X10520277Y-15275031D02*
X10529801Y-15265508D01*
X10529801Y-15265508D02*
X10548848Y-15255984D01*
X10805991Y-15455984D02*
X10691706Y-15455984D01*
X10748848Y-15455984D02*
X10748848Y-15255984D01*
X10748848Y-15255984D02*
X10729801Y-15284555D01*
X10729801Y-15284555D02*
X10710753Y-15303603D01*
X10710753Y-15303603D02*
X10691706Y-15313127D01*
X10986944Y-15255984D02*
X10891706Y-15255984D01*
X10891706Y-15255984D02*
X10882182Y-15351222D01*
X10882182Y-15351222D02*
X10891706Y-15341698D01*
X10891706Y-15341698D02*
X10910753Y-15332174D01*
X10910753Y-15332174D02*
X10958372Y-15332174D01*
X10958372Y-15332174D02*
X10977420Y-15341698D01*
X10977420Y-15341698D02*
X10986944Y-15351222D01*
X10986944Y-15351222D02*
X10996468Y-15370269D01*
X10996468Y-15370269D02*
X10996468Y-15417888D01*
X10996468Y-15417888D02*
X10986944Y-15436936D01*
X10986944Y-15436936D02*
X10977420Y-15446460D01*
X10977420Y-15446460D02*
X10958372Y-15455984D01*
X10958372Y-15455984D02*
X10910753Y-15455984D01*
X10910753Y-15455984D02*
X10891706Y-15446460D01*
X10891706Y-15446460D02*
X10882182Y-15436936D01*
X11063134Y-15255984D02*
X11196467Y-15255984D01*
X11196467Y-15255984D02*
X11110753Y-15455984D01*
X11263134Y-15255984D02*
X11263134Y-15294079D01*
X11339325Y-15255984D02*
X11339325Y-15294079D01*
X11634563Y-15532174D02*
X11625039Y-15522650D01*
X11625039Y-15522650D02*
X11605991Y-15494079D01*
X11605991Y-15494079D02*
X11596468Y-15475031D01*
X11596468Y-15475031D02*
X11586944Y-15446460D01*
X11586944Y-15446460D02*
X11577420Y-15398841D01*
X11577420Y-15398841D02*
X11577420Y-15360746D01*
X11577420Y-15360746D02*
X11586944Y-15313127D01*
X11586944Y-15313127D02*
X11596468Y-15284555D01*
X11596468Y-15284555D02*
X11605991Y-15265508D01*
X11605991Y-15265508D02*
X11625039Y-15236936D01*
X11625039Y-15236936D02*
X11634563Y-15227412D01*
X11815515Y-15455984D02*
X11701229Y-15455984D01*
X11758372Y-15455984D02*
X11758372Y-15255984D01*
X11758372Y-15255984D02*
X11739325Y-15284555D01*
X11739325Y-15284555D02*
X11720277Y-15303603D01*
X11720277Y-15303603D02*
X11701229Y-15313127D01*
X11996468Y-15255984D02*
X11901229Y-15255984D01*
X11901229Y-15255984D02*
X11891706Y-15351222D01*
X11891706Y-15351222D02*
X11901229Y-15341698D01*
X11901229Y-15341698D02*
X11920277Y-15332174D01*
X11920277Y-15332174D02*
X11967896Y-15332174D01*
X11967896Y-15332174D02*
X11986944Y-15341698D01*
X11986944Y-15341698D02*
X11996468Y-15351222D01*
X11996468Y-15351222D02*
X12005991Y-15370269D01*
X12005991Y-15370269D02*
X12005991Y-15417888D01*
X12005991Y-15417888D02*
X11996468Y-15436936D01*
X11996468Y-15436936D02*
X11986944Y-15446460D01*
X11986944Y-15446460D02*
X11967896Y-15455984D01*
X11967896Y-15455984D02*
X11920277Y-15455984D01*
X11920277Y-15455984D02*
X11901229Y-15446460D01*
X11901229Y-15446460D02*
X11891706Y-15436936D01*
X12177420Y-15255984D02*
X12139325Y-15255984D01*
X12139325Y-15255984D02*
X12120277Y-15265508D01*
X12120277Y-15265508D02*
X12110753Y-15275031D01*
X12110753Y-15275031D02*
X12091706Y-15303603D01*
X12091706Y-15303603D02*
X12082182Y-15341698D01*
X12082182Y-15341698D02*
X12082182Y-15417888D01*
X12082182Y-15417888D02*
X12091706Y-15436936D01*
X12091706Y-15436936D02*
X12101229Y-15446460D01*
X12101229Y-15446460D02*
X12120277Y-15455984D01*
X12120277Y-15455984D02*
X12158372Y-15455984D01*
X12158372Y-15455984D02*
X12177420Y-15446460D01*
X12177420Y-15446460D02*
X12186944Y-15436936D01*
X12186944Y-15436936D02*
X12196468Y-15417888D01*
X12196468Y-15417888D02*
X12196468Y-15370269D01*
X12196468Y-15370269D02*
X12186944Y-15351222D01*
X12186944Y-15351222D02*
X12177420Y-15341698D01*
X12177420Y-15341698D02*
X12158372Y-15332174D01*
X12158372Y-15332174D02*
X12120277Y-15332174D01*
X12120277Y-15332174D02*
X12101229Y-15341698D01*
X12101229Y-15341698D02*
X12091706Y-15351222D01*
X12091706Y-15351222D02*
X12082182Y-15370269D01*
X12434563Y-15455984D02*
X12434563Y-15255984D01*
X12520277Y-15455984D02*
X12520277Y-15351222D01*
X12520277Y-15351222D02*
X12510753Y-15332174D01*
X12510753Y-15332174D02*
X12491706Y-15322650D01*
X12491706Y-15322650D02*
X12463134Y-15322650D01*
X12463134Y-15322650D02*
X12444087Y-15332174D01*
X12444087Y-15332174D02*
X12434563Y-15341698D01*
X12644087Y-15455984D02*
X12625039Y-15446460D01*
X12625039Y-15446460D02*
X12615515Y-15436936D01*
X12615515Y-15436936D02*
X12605991Y-15417888D01*
X12605991Y-15417888D02*
X12605991Y-15360746D01*
X12605991Y-15360746D02*
X12615515Y-15341698D01*
X12615515Y-15341698D02*
X12625039Y-15332174D01*
X12625039Y-15332174D02*
X12644087Y-15322650D01*
X12644087Y-15322650D02*
X12672658Y-15322650D01*
X12672658Y-15322650D02*
X12691706Y-15332174D01*
X12691706Y-15332174D02*
X12701230Y-15341698D01*
X12701230Y-15341698D02*
X12710753Y-15360746D01*
X12710753Y-15360746D02*
X12710753Y-15417888D01*
X12710753Y-15417888D02*
X12701230Y-15436936D01*
X12701230Y-15436936D02*
X12691706Y-15446460D01*
X12691706Y-15446460D02*
X12672658Y-15455984D01*
X12672658Y-15455984D02*
X12644087Y-15455984D01*
X12825039Y-15455984D02*
X12805991Y-15446460D01*
X12805991Y-15446460D02*
X12796468Y-15427412D01*
X12796468Y-15427412D02*
X12796468Y-15255984D01*
X12977420Y-15446460D02*
X12958372Y-15455984D01*
X12958372Y-15455984D02*
X12920277Y-15455984D01*
X12920277Y-15455984D02*
X12901230Y-15446460D01*
X12901230Y-15446460D02*
X12891706Y-15427412D01*
X12891706Y-15427412D02*
X12891706Y-15351222D01*
X12891706Y-15351222D02*
X12901230Y-15332174D01*
X12901230Y-15332174D02*
X12920277Y-15322650D01*
X12920277Y-15322650D02*
X12958372Y-15322650D01*
X12958372Y-15322650D02*
X12977420Y-15332174D01*
X12977420Y-15332174D02*
X12986944Y-15351222D01*
X12986944Y-15351222D02*
X12986944Y-15370269D01*
X12986944Y-15370269D02*
X12891706Y-15389317D01*
X13063134Y-15446460D02*
X13082182Y-15455984D01*
X13082182Y-15455984D02*
X13120277Y-15455984D01*
X13120277Y-15455984D02*
X13139325Y-15446460D01*
X13139325Y-15446460D02*
X13148849Y-15427412D01*
X13148849Y-15427412D02*
X13148849Y-15417888D01*
X13148849Y-15417888D02*
X13139325Y-15398841D01*
X13139325Y-15398841D02*
X13120277Y-15389317D01*
X13120277Y-15389317D02*
X13091706Y-15389317D01*
X13091706Y-15389317D02*
X13072658Y-15379793D01*
X13072658Y-15379793D02*
X13063134Y-15360746D01*
X13063134Y-15360746D02*
X13063134Y-15351222D01*
X13063134Y-15351222D02*
X13072658Y-15332174D01*
X13072658Y-15332174D02*
X13091706Y-15322650D01*
X13091706Y-15322650D02*
X13120277Y-15322650D01*
X13120277Y-15322650D02*
X13139325Y-15332174D01*
X13215515Y-15532174D02*
X13225039Y-15522650D01*
X13225039Y-15522650D02*
X13244087Y-15494079D01*
X13244087Y-15494079D02*
X13253611Y-15475031D01*
X13253611Y-15475031D02*
X13263134Y-15446460D01*
X13263134Y-15446460D02*
X13272658Y-15398841D01*
X13272658Y-15398841D02*
X13272658Y-15360746D01*
X13272658Y-15360746D02*
X13263134Y-15313127D01*
X13263134Y-15313127D02*
X13253611Y-15284555D01*
X13253611Y-15284555D02*
X13244087Y-15265508D01*
X13244087Y-15265508D02*
X13225039Y-15236936D01*
X13225039Y-15236936D02*
X13215515Y-15227412D01*
D12*
X8029500Y-15598500D02*
X8029500Y-15658500D01*
X7999500Y-15628500D02*
X8059500Y-15628500D01*
D11*
X8358372Y-15519984D02*
X8377420Y-15519984D01*
X8377420Y-15519984D02*
X8396467Y-15529508D01*
X8396467Y-15529508D02*
X8405991Y-15539031D01*
X8405991Y-15539031D02*
X8415515Y-15558079D01*
X8415515Y-15558079D02*
X8425039Y-15596174D01*
X8425039Y-15596174D02*
X8425039Y-15643793D01*
X8425039Y-15643793D02*
X8415515Y-15681888D01*
X8415515Y-15681888D02*
X8405991Y-15700936D01*
X8405991Y-15700936D02*
X8396467Y-15710460D01*
X8396467Y-15710460D02*
X8377420Y-15719984D01*
X8377420Y-15719984D02*
X8358372Y-15719984D01*
X8358372Y-15719984D02*
X8339324Y-15710460D01*
X8339324Y-15710460D02*
X8329801Y-15700936D01*
X8329801Y-15700936D02*
X8320277Y-15681888D01*
X8320277Y-15681888D02*
X8310753Y-15643793D01*
X8310753Y-15643793D02*
X8310753Y-15596174D01*
X8310753Y-15596174D02*
X8320277Y-15558079D01*
X8320277Y-15558079D02*
X8329801Y-15539031D01*
X8329801Y-15539031D02*
X8339324Y-15529508D01*
X8339324Y-15529508D02*
X8358372Y-15519984D01*
X8510753Y-15700936D02*
X8520277Y-15710460D01*
X8520277Y-15710460D02*
X8510753Y-15719984D01*
X8510753Y-15719984D02*
X8501229Y-15710460D01*
X8501229Y-15710460D02*
X8510753Y-15700936D01*
X8510753Y-15700936D02*
X8510753Y-15719984D01*
X8691705Y-15519984D02*
X8653610Y-15519984D01*
X8653610Y-15519984D02*
X8634563Y-15529508D01*
X8634563Y-15529508D02*
X8625039Y-15539031D01*
X8625039Y-15539031D02*
X8605991Y-15567603D01*
X8605991Y-15567603D02*
X8596467Y-15605698D01*
X8596467Y-15605698D02*
X8596467Y-15681888D01*
X8596467Y-15681888D02*
X8605991Y-15700936D01*
X8605991Y-15700936D02*
X8615515Y-15710460D01*
X8615515Y-15710460D02*
X8634563Y-15719984D01*
X8634563Y-15719984D02*
X8672658Y-15719984D01*
X8672658Y-15719984D02*
X8691705Y-15710460D01*
X8691705Y-15710460D02*
X8701229Y-15700936D01*
X8701229Y-15700936D02*
X8710753Y-15681888D01*
X8710753Y-15681888D02*
X8710753Y-15634269D01*
X8710753Y-15634269D02*
X8701229Y-15615222D01*
X8701229Y-15615222D02*
X8691705Y-15605698D01*
X8691705Y-15605698D02*
X8672658Y-15596174D01*
X8672658Y-15596174D02*
X8634563Y-15596174D01*
X8634563Y-15596174D02*
X8615515Y-15605698D01*
X8615515Y-15605698D02*
X8605991Y-15615222D01*
X8605991Y-15615222D02*
X8596467Y-15634269D01*
X8834563Y-15519984D02*
X8853610Y-15519984D01*
X8853610Y-15519984D02*
X8872658Y-15529508D01*
X8872658Y-15529508D02*
X8882182Y-15539031D01*
X8882182Y-15539031D02*
X8891705Y-15558079D01*
X8891705Y-15558079D02*
X8901229Y-15596174D01*
X8901229Y-15596174D02*
X8901229Y-15643793D01*
X8901229Y-15643793D02*
X8891705Y-15681888D01*
X8891705Y-15681888D02*
X8882182Y-15700936D01*
X8882182Y-15700936D02*
X8872658Y-15710460D01*
X8872658Y-15710460D02*
X8853610Y-15719984D01*
X8853610Y-15719984D02*
X8834563Y-15719984D01*
X8834563Y-15719984D02*
X8815515Y-15710460D01*
X8815515Y-15710460D02*
X8805991Y-15700936D01*
X8805991Y-15700936D02*
X8796467Y-15681888D01*
X8796467Y-15681888D02*
X8786944Y-15643793D01*
X8786944Y-15643793D02*
X8786944Y-15596174D01*
X8786944Y-15596174D02*
X8796467Y-15558079D01*
X8796467Y-15558079D02*
X8805991Y-15539031D01*
X8805991Y-15539031D02*
X8815515Y-15529508D01*
X8815515Y-15529508D02*
X8834563Y-15519984D01*
X9025039Y-15519984D02*
X9044086Y-15519984D01*
X9044086Y-15519984D02*
X9063134Y-15529508D01*
X9063134Y-15529508D02*
X9072658Y-15539031D01*
X9072658Y-15539031D02*
X9082182Y-15558079D01*
X9082182Y-15558079D02*
X9091705Y-15596174D01*
X9091705Y-15596174D02*
X9091705Y-15643793D01*
X9091705Y-15643793D02*
X9082182Y-15681888D01*
X9082182Y-15681888D02*
X9072658Y-15700936D01*
X9072658Y-15700936D02*
X9063134Y-15710460D01*
X9063134Y-15710460D02*
X9044086Y-15719984D01*
X9044086Y-15719984D02*
X9025039Y-15719984D01*
X9025039Y-15719984D02*
X9005991Y-15710460D01*
X9005991Y-15710460D02*
X8996467Y-15700936D01*
X8996467Y-15700936D02*
X8986944Y-15681888D01*
X8986944Y-15681888D02*
X8977420Y-15643793D01*
X8977420Y-15643793D02*
X8977420Y-15596174D01*
X8977420Y-15596174D02*
X8986944Y-15558079D01*
X8986944Y-15558079D02*
X8996467Y-15539031D01*
X8996467Y-15539031D02*
X9005991Y-15529508D01*
X9005991Y-15529508D02*
X9025039Y-15519984D01*
X9177420Y-15719984D02*
X9177420Y-15586650D01*
X9177420Y-15605698D02*
X9186944Y-15596174D01*
X9186944Y-15596174D02*
X9205991Y-15586650D01*
X9205991Y-15586650D02*
X9234563Y-15586650D01*
X9234563Y-15586650D02*
X9253610Y-15596174D01*
X9253610Y-15596174D02*
X9263134Y-15615222D01*
X9263134Y-15615222D02*
X9263134Y-15719984D01*
X9263134Y-15615222D02*
X9272658Y-15596174D01*
X9272658Y-15596174D02*
X9291705Y-15586650D01*
X9291705Y-15586650D02*
X9320277Y-15586650D01*
X9320277Y-15586650D02*
X9339325Y-15596174D01*
X9339325Y-15596174D02*
X9348848Y-15615222D01*
X9348848Y-15615222D02*
X9348848Y-15719984D01*
X9444086Y-15719984D02*
X9444086Y-15586650D01*
X9444086Y-15605698D02*
X9453610Y-15596174D01*
X9453610Y-15596174D02*
X9472658Y-15586650D01*
X9472658Y-15586650D02*
X9501229Y-15586650D01*
X9501229Y-15586650D02*
X9520277Y-15596174D01*
X9520277Y-15596174D02*
X9529801Y-15615222D01*
X9529801Y-15615222D02*
X9529801Y-15719984D01*
X9529801Y-15615222D02*
X9539325Y-15596174D01*
X9539325Y-15596174D02*
X9558372Y-15586650D01*
X9558372Y-15586650D02*
X9586944Y-15586650D01*
X9586944Y-15586650D02*
X9605991Y-15596174D01*
X9605991Y-15596174D02*
X9615515Y-15615222D01*
X9615515Y-15615222D02*
X9615515Y-15719984D01*
X10005991Y-15510460D02*
X9834563Y-15767603D01*
X10263134Y-15519984D02*
X10282182Y-15519984D01*
X10282182Y-15519984D02*
X10301229Y-15529508D01*
X10301229Y-15529508D02*
X10310753Y-15539031D01*
X10310753Y-15539031D02*
X10320277Y-15558079D01*
X10320277Y-15558079D02*
X10329801Y-15596174D01*
X10329801Y-15596174D02*
X10329801Y-15643793D01*
X10329801Y-15643793D02*
X10320277Y-15681888D01*
X10320277Y-15681888D02*
X10310753Y-15700936D01*
X10310753Y-15700936D02*
X10301229Y-15710460D01*
X10301229Y-15710460D02*
X10282182Y-15719984D01*
X10282182Y-15719984D02*
X10263134Y-15719984D01*
X10263134Y-15719984D02*
X10244087Y-15710460D01*
X10244087Y-15710460D02*
X10234563Y-15700936D01*
X10234563Y-15700936D02*
X10225039Y-15681888D01*
X10225039Y-15681888D02*
X10215515Y-15643793D01*
X10215515Y-15643793D02*
X10215515Y-15596174D01*
X10215515Y-15596174D02*
X10225039Y-15558079D01*
X10225039Y-15558079D02*
X10234563Y-15539031D01*
X10234563Y-15539031D02*
X10244087Y-15529508D01*
X10244087Y-15529508D02*
X10263134Y-15519984D01*
X10415515Y-15700936D02*
X10425039Y-15710460D01*
X10425039Y-15710460D02*
X10415515Y-15719984D01*
X10415515Y-15719984D02*
X10405991Y-15710460D01*
X10405991Y-15710460D02*
X10415515Y-15700936D01*
X10415515Y-15700936D02*
X10415515Y-15719984D01*
X10548848Y-15519984D02*
X10567896Y-15519984D01*
X10567896Y-15519984D02*
X10586944Y-15529508D01*
X10586944Y-15529508D02*
X10596468Y-15539031D01*
X10596468Y-15539031D02*
X10605991Y-15558079D01*
X10605991Y-15558079D02*
X10615515Y-15596174D01*
X10615515Y-15596174D02*
X10615515Y-15643793D01*
X10615515Y-15643793D02*
X10605991Y-15681888D01*
X10605991Y-15681888D02*
X10596468Y-15700936D01*
X10596468Y-15700936D02*
X10586944Y-15710460D01*
X10586944Y-15710460D02*
X10567896Y-15719984D01*
X10567896Y-15719984D02*
X10548848Y-15719984D01*
X10548848Y-15719984D02*
X10529801Y-15710460D01*
X10529801Y-15710460D02*
X10520277Y-15700936D01*
X10520277Y-15700936D02*
X10510753Y-15681888D01*
X10510753Y-15681888D02*
X10501229Y-15643793D01*
X10501229Y-15643793D02*
X10501229Y-15596174D01*
X10501229Y-15596174D02*
X10510753Y-15558079D01*
X10510753Y-15558079D02*
X10520277Y-15539031D01*
X10520277Y-15539031D02*
X10529801Y-15529508D01*
X10529801Y-15529508D02*
X10548848Y-15519984D01*
X10691706Y-15539031D02*
X10701229Y-15529508D01*
X10701229Y-15529508D02*
X10720277Y-15519984D01*
X10720277Y-15519984D02*
X10767896Y-15519984D01*
X10767896Y-15519984D02*
X10786944Y-15529508D01*
X10786944Y-15529508D02*
X10796468Y-15539031D01*
X10796468Y-15539031D02*
X10805991Y-15558079D01*
X10805991Y-15558079D02*
X10805991Y-15577127D01*
X10805991Y-15577127D02*
X10796468Y-15605698D01*
X10796468Y-15605698D02*
X10682182Y-15719984D01*
X10682182Y-15719984D02*
X10805991Y-15719984D01*
X10872658Y-15519984D02*
X10996468Y-15519984D01*
X10996468Y-15519984D02*
X10929801Y-15596174D01*
X10929801Y-15596174D02*
X10958372Y-15596174D01*
X10958372Y-15596174D02*
X10977420Y-15605698D01*
X10977420Y-15605698D02*
X10986944Y-15615222D01*
X10986944Y-15615222D02*
X10996468Y-15634269D01*
X10996468Y-15634269D02*
X10996468Y-15681888D01*
X10996468Y-15681888D02*
X10986944Y-15700936D01*
X10986944Y-15700936D02*
X10977420Y-15710460D01*
X10977420Y-15710460D02*
X10958372Y-15719984D01*
X10958372Y-15719984D02*
X10901229Y-15719984D01*
X10901229Y-15719984D02*
X10882182Y-15710460D01*
X10882182Y-15710460D02*
X10872658Y-15700936D01*
X11167896Y-15519984D02*
X11129801Y-15519984D01*
X11129801Y-15519984D02*
X11110753Y-15529508D01*
X11110753Y-15529508D02*
X11101229Y-15539031D01*
X11101229Y-15539031D02*
X11082182Y-15567603D01*
X11082182Y-15567603D02*
X11072658Y-15605698D01*
X11072658Y-15605698D02*
X11072658Y-15681888D01*
X11072658Y-15681888D02*
X11082182Y-15700936D01*
X11082182Y-15700936D02*
X11091706Y-15710460D01*
X11091706Y-15710460D02*
X11110753Y-15719984D01*
X11110753Y-15719984D02*
X11148849Y-15719984D01*
X11148849Y-15719984D02*
X11167896Y-15710460D01*
X11167896Y-15710460D02*
X11177420Y-15700936D01*
X11177420Y-15700936D02*
X11186944Y-15681888D01*
X11186944Y-15681888D02*
X11186944Y-15634269D01*
X11186944Y-15634269D02*
X11177420Y-15615222D01*
X11177420Y-15615222D02*
X11167896Y-15605698D01*
X11167896Y-15605698D02*
X11148849Y-15596174D01*
X11148849Y-15596174D02*
X11110753Y-15596174D01*
X11110753Y-15596174D02*
X11091706Y-15605698D01*
X11091706Y-15605698D02*
X11082182Y-15615222D01*
X11082182Y-15615222D02*
X11072658Y-15634269D01*
X11263134Y-15519984D02*
X11263134Y-15558079D01*
X11339325Y-15519984D02*
X11339325Y-15558079D01*
X11634563Y-15796174D02*
X11625039Y-15786650D01*
X11625039Y-15786650D02*
X11605991Y-15758079D01*
X11605991Y-15758079D02*
X11596468Y-15739031D01*
X11596468Y-15739031D02*
X11586944Y-15710460D01*
X11586944Y-15710460D02*
X11577420Y-15662841D01*
X11577420Y-15662841D02*
X11577420Y-15624746D01*
X11577420Y-15624746D02*
X11586944Y-15577127D01*
X11586944Y-15577127D02*
X11596468Y-15548555D01*
X11596468Y-15548555D02*
X11605991Y-15529508D01*
X11605991Y-15529508D02*
X11625039Y-15500936D01*
X11625039Y-15500936D02*
X11634563Y-15491412D01*
X11701229Y-15539031D02*
X11710753Y-15529508D01*
X11710753Y-15529508D02*
X11729801Y-15519984D01*
X11729801Y-15519984D02*
X11777420Y-15519984D01*
X11777420Y-15519984D02*
X11796468Y-15529508D01*
X11796468Y-15529508D02*
X11805991Y-15539031D01*
X11805991Y-15539031D02*
X11815515Y-15558079D01*
X11815515Y-15558079D02*
X11815515Y-15577127D01*
X11815515Y-15577127D02*
X11805991Y-15605698D01*
X11805991Y-15605698D02*
X11691706Y-15719984D01*
X11691706Y-15719984D02*
X11815515Y-15719984D01*
X12053610Y-15719984D02*
X12053610Y-15519984D01*
X12139325Y-15719984D02*
X12139325Y-15615222D01*
X12139325Y-15615222D02*
X12129801Y-15596174D01*
X12129801Y-15596174D02*
X12110753Y-15586650D01*
X12110753Y-15586650D02*
X12082182Y-15586650D01*
X12082182Y-15586650D02*
X12063134Y-15596174D01*
X12063134Y-15596174D02*
X12053610Y-15605698D01*
X12263134Y-15719984D02*
X12244087Y-15710460D01*
X12244087Y-15710460D02*
X12234563Y-15700936D01*
X12234563Y-15700936D02*
X12225039Y-15681888D01*
X12225039Y-15681888D02*
X12225039Y-15624746D01*
X12225039Y-15624746D02*
X12234563Y-15605698D01*
X12234563Y-15605698D02*
X12244087Y-15596174D01*
X12244087Y-15596174D02*
X12263134Y-15586650D01*
X12263134Y-15586650D02*
X12291706Y-15586650D01*
X12291706Y-15586650D02*
X12310753Y-15596174D01*
X12310753Y-15596174D02*
X12320277Y-15605698D01*
X12320277Y-15605698D02*
X12329801Y-15624746D01*
X12329801Y-15624746D02*
X12329801Y-15681888D01*
X12329801Y-15681888D02*
X12320277Y-15700936D01*
X12320277Y-15700936D02*
X12310753Y-15710460D01*
X12310753Y-15710460D02*
X12291706Y-15719984D01*
X12291706Y-15719984D02*
X12263134Y-15719984D01*
X12444087Y-15719984D02*
X12425039Y-15710460D01*
X12425039Y-15710460D02*
X12415515Y-15691412D01*
X12415515Y-15691412D02*
X12415515Y-15519984D01*
X12596468Y-15710460D02*
X12577420Y-15719984D01*
X12577420Y-15719984D02*
X12539325Y-15719984D01*
X12539325Y-15719984D02*
X12520277Y-15710460D01*
X12520277Y-15710460D02*
X12510753Y-15691412D01*
X12510753Y-15691412D02*
X12510753Y-15615222D01*
X12510753Y-15615222D02*
X12520277Y-15596174D01*
X12520277Y-15596174D02*
X12539325Y-15586650D01*
X12539325Y-15586650D02*
X12577420Y-15586650D01*
X12577420Y-15586650D02*
X12596468Y-15596174D01*
X12596468Y-15596174D02*
X12605991Y-15615222D01*
X12605991Y-15615222D02*
X12605991Y-15634269D01*
X12605991Y-15634269D02*
X12510753Y-15653317D01*
X12682182Y-15710460D02*
X12701230Y-15719984D01*
X12701230Y-15719984D02*
X12739325Y-15719984D01*
X12739325Y-15719984D02*
X12758372Y-15710460D01*
X12758372Y-15710460D02*
X12767896Y-15691412D01*
X12767896Y-15691412D02*
X12767896Y-15681888D01*
X12767896Y-15681888D02*
X12758372Y-15662841D01*
X12758372Y-15662841D02*
X12739325Y-15653317D01*
X12739325Y-15653317D02*
X12710753Y-15653317D01*
X12710753Y-15653317D02*
X12691706Y-15643793D01*
X12691706Y-15643793D02*
X12682182Y-15624746D01*
X12682182Y-15624746D02*
X12682182Y-15615222D01*
X12682182Y-15615222D02*
X12691706Y-15596174D01*
X12691706Y-15596174D02*
X12710753Y-15586650D01*
X12710753Y-15586650D02*
X12739325Y-15586650D01*
X12739325Y-15586650D02*
X12758372Y-15596174D01*
X12834563Y-15796174D02*
X12844087Y-15786650D01*
X12844087Y-15786650D02*
X12863134Y-15758079D01*
X12863134Y-15758079D02*
X12872658Y-15739031D01*
X12872658Y-15739031D02*
X12882182Y-15710460D01*
X12882182Y-15710460D02*
X12891706Y-15662841D01*
X12891706Y-15662841D02*
X12891706Y-15624746D01*
X12891706Y-15624746D02*
X12882182Y-15577127D01*
X12882182Y-15577127D02*
X12872658Y-15548555D01*
X12872658Y-15548555D02*
X12863134Y-15529508D01*
X12863134Y-15529508D02*
X12844087Y-15500936D01*
X12844087Y-15500936D02*
X12834563Y-15491412D01*
D12*
X8046320Y-15924320D02*
X8046320Y-15860680D01*
X7982680Y-15860680D01*
X7982680Y-15924320D01*
X8046320Y-15924320D01*
D11*
X8358372Y-15783984D02*
X8377420Y-15783984D01*
X8377420Y-15783984D02*
X8396467Y-15793508D01*
X8396467Y-15793508D02*
X8405991Y-15803031D01*
X8405991Y-15803031D02*
X8415515Y-15822079D01*
X8415515Y-15822079D02*
X8425039Y-15860174D01*
X8425039Y-15860174D02*
X8425039Y-15907793D01*
X8425039Y-15907793D02*
X8415515Y-15945888D01*
X8415515Y-15945888D02*
X8405991Y-15964936D01*
X8405991Y-15964936D02*
X8396467Y-15974460D01*
X8396467Y-15974460D02*
X8377420Y-15983984D01*
X8377420Y-15983984D02*
X8358372Y-15983984D01*
X8358372Y-15983984D02*
X8339324Y-15974460D01*
X8339324Y-15974460D02*
X8329801Y-15964936D01*
X8329801Y-15964936D02*
X8320277Y-15945888D01*
X8320277Y-15945888D02*
X8310753Y-15907793D01*
X8310753Y-15907793D02*
X8310753Y-15860174D01*
X8310753Y-15860174D02*
X8320277Y-15822079D01*
X8320277Y-15822079D02*
X8329801Y-15803031D01*
X8329801Y-15803031D02*
X8339324Y-15793508D01*
X8339324Y-15793508D02*
X8358372Y-15783984D01*
X8510753Y-15964936D02*
X8520277Y-15974460D01*
X8520277Y-15974460D02*
X8510753Y-15983984D01*
X8510753Y-15983984D02*
X8501229Y-15974460D01*
X8501229Y-15974460D02*
X8510753Y-15964936D01*
X8510753Y-15964936D02*
X8510753Y-15983984D01*
X8615515Y-15983984D02*
X8653610Y-15983984D01*
X8653610Y-15983984D02*
X8672658Y-15974460D01*
X8672658Y-15974460D02*
X8682182Y-15964936D01*
X8682182Y-15964936D02*
X8701229Y-15936365D01*
X8701229Y-15936365D02*
X8710753Y-15898269D01*
X8710753Y-15898269D02*
X8710753Y-15822079D01*
X8710753Y-15822079D02*
X8701229Y-15803031D01*
X8701229Y-15803031D02*
X8691705Y-15793508D01*
X8691705Y-15793508D02*
X8672658Y-15783984D01*
X8672658Y-15783984D02*
X8634563Y-15783984D01*
X8634563Y-15783984D02*
X8615515Y-15793508D01*
X8615515Y-15793508D02*
X8605991Y-15803031D01*
X8605991Y-15803031D02*
X8596467Y-15822079D01*
X8596467Y-15822079D02*
X8596467Y-15869698D01*
X8596467Y-15869698D02*
X8605991Y-15888746D01*
X8605991Y-15888746D02*
X8615515Y-15898269D01*
X8615515Y-15898269D02*
X8634563Y-15907793D01*
X8634563Y-15907793D02*
X8672658Y-15907793D01*
X8672658Y-15907793D02*
X8691705Y-15898269D01*
X8691705Y-15898269D02*
X8701229Y-15888746D01*
X8701229Y-15888746D02*
X8710753Y-15869698D01*
X8834563Y-15783984D02*
X8853610Y-15783984D01*
X8853610Y-15783984D02*
X8872658Y-15793508D01*
X8872658Y-15793508D02*
X8882182Y-15803031D01*
X8882182Y-15803031D02*
X8891705Y-15822079D01*
X8891705Y-15822079D02*
X8901229Y-15860174D01*
X8901229Y-15860174D02*
X8901229Y-15907793D01*
X8901229Y-15907793D02*
X8891705Y-15945888D01*
X8891705Y-15945888D02*
X8882182Y-15964936D01*
X8882182Y-15964936D02*
X8872658Y-15974460D01*
X8872658Y-15974460D02*
X8853610Y-15983984D01*
X8853610Y-15983984D02*
X8834563Y-15983984D01*
X8834563Y-15983984D02*
X8815515Y-15974460D01*
X8815515Y-15974460D02*
X8805991Y-15964936D01*
X8805991Y-15964936D02*
X8796467Y-15945888D01*
X8796467Y-15945888D02*
X8786944Y-15907793D01*
X8786944Y-15907793D02*
X8786944Y-15860174D01*
X8786944Y-15860174D02*
X8796467Y-15822079D01*
X8796467Y-15822079D02*
X8805991Y-15803031D01*
X8805991Y-15803031D02*
X8815515Y-15793508D01*
X8815515Y-15793508D02*
X8834563Y-15783984D01*
X9025039Y-15783984D02*
X9044086Y-15783984D01*
X9044086Y-15783984D02*
X9063134Y-15793508D01*
X9063134Y-15793508D02*
X9072658Y-15803031D01*
X9072658Y-15803031D02*
X9082182Y-15822079D01*
X9082182Y-15822079D02*
X9091705Y-15860174D01*
X9091705Y-15860174D02*
X9091705Y-15907793D01*
X9091705Y-15907793D02*
X9082182Y-15945888D01*
X9082182Y-15945888D02*
X9072658Y-15964936D01*
X9072658Y-15964936D02*
X9063134Y-15974460D01*
X9063134Y-15974460D02*
X9044086Y-15983984D01*
X9044086Y-15983984D02*
X9025039Y-15983984D01*
X9025039Y-15983984D02*
X9005991Y-15974460D01*
X9005991Y-15974460D02*
X8996467Y-15964936D01*
X8996467Y-15964936D02*
X8986944Y-15945888D01*
X8986944Y-15945888D02*
X8977420Y-15907793D01*
X8977420Y-15907793D02*
X8977420Y-15860174D01*
X8977420Y-15860174D02*
X8986944Y-15822079D01*
X8986944Y-15822079D02*
X8996467Y-15803031D01*
X8996467Y-15803031D02*
X9005991Y-15793508D01*
X9005991Y-15793508D02*
X9025039Y-15783984D01*
X9177420Y-15983984D02*
X9177420Y-15850650D01*
X9177420Y-15869698D02*
X9186944Y-15860174D01*
X9186944Y-15860174D02*
X9205991Y-15850650D01*
X9205991Y-15850650D02*
X9234563Y-15850650D01*
X9234563Y-15850650D02*
X9253610Y-15860174D01*
X9253610Y-15860174D02*
X9263134Y-15879222D01*
X9263134Y-15879222D02*
X9263134Y-15983984D01*
X9263134Y-15879222D02*
X9272658Y-15860174D01*
X9272658Y-15860174D02*
X9291705Y-15850650D01*
X9291705Y-15850650D02*
X9320277Y-15850650D01*
X9320277Y-15850650D02*
X9339325Y-15860174D01*
X9339325Y-15860174D02*
X9348848Y-15879222D01*
X9348848Y-15879222D02*
X9348848Y-15983984D01*
X9444086Y-15983984D02*
X9444086Y-15850650D01*
X9444086Y-15869698D02*
X9453610Y-15860174D01*
X9453610Y-15860174D02*
X9472658Y-15850650D01*
X9472658Y-15850650D02*
X9501229Y-15850650D01*
X9501229Y-15850650D02*
X9520277Y-15860174D01*
X9520277Y-15860174D02*
X9529801Y-15879222D01*
X9529801Y-15879222D02*
X9529801Y-15983984D01*
X9529801Y-15879222D02*
X9539325Y-15860174D01*
X9539325Y-15860174D02*
X9558372Y-15850650D01*
X9558372Y-15850650D02*
X9586944Y-15850650D01*
X9586944Y-15850650D02*
X9605991Y-15860174D01*
X9605991Y-15860174D02*
X9615515Y-15879222D01*
X9615515Y-15879222D02*
X9615515Y-15983984D01*
X10005991Y-15774460D02*
X9834563Y-16031603D01*
X10263134Y-15783984D02*
X10282182Y-15783984D01*
X10282182Y-15783984D02*
X10301229Y-15793508D01*
X10301229Y-15793508D02*
X10310753Y-15803031D01*
X10310753Y-15803031D02*
X10320277Y-15822079D01*
X10320277Y-15822079D02*
X10329801Y-15860174D01*
X10329801Y-15860174D02*
X10329801Y-15907793D01*
X10329801Y-15907793D02*
X10320277Y-15945888D01*
X10320277Y-15945888D02*
X10310753Y-15964936D01*
X10310753Y-15964936D02*
X10301229Y-15974460D01*
X10301229Y-15974460D02*
X10282182Y-15983984D01*
X10282182Y-15983984D02*
X10263134Y-15983984D01*
X10263134Y-15983984D02*
X10244087Y-15974460D01*
X10244087Y-15974460D02*
X10234563Y-15964936D01*
X10234563Y-15964936D02*
X10225039Y-15945888D01*
X10225039Y-15945888D02*
X10215515Y-15907793D01*
X10215515Y-15907793D02*
X10215515Y-15860174D01*
X10215515Y-15860174D02*
X10225039Y-15822079D01*
X10225039Y-15822079D02*
X10234563Y-15803031D01*
X10234563Y-15803031D02*
X10244087Y-15793508D01*
X10244087Y-15793508D02*
X10263134Y-15783984D01*
X10415515Y-15964936D02*
X10425039Y-15974460D01*
X10425039Y-15974460D02*
X10415515Y-15983984D01*
X10415515Y-15983984D02*
X10405991Y-15974460D01*
X10405991Y-15974460D02*
X10415515Y-15964936D01*
X10415515Y-15964936D02*
X10415515Y-15983984D01*
X10548848Y-15783984D02*
X10567896Y-15783984D01*
X10567896Y-15783984D02*
X10586944Y-15793508D01*
X10586944Y-15793508D02*
X10596468Y-15803031D01*
X10596468Y-15803031D02*
X10605991Y-15822079D01*
X10605991Y-15822079D02*
X10615515Y-15860174D01*
X10615515Y-15860174D02*
X10615515Y-15907793D01*
X10615515Y-15907793D02*
X10605991Y-15945888D01*
X10605991Y-15945888D02*
X10596468Y-15964936D01*
X10596468Y-15964936D02*
X10586944Y-15974460D01*
X10586944Y-15974460D02*
X10567896Y-15983984D01*
X10567896Y-15983984D02*
X10548848Y-15983984D01*
X10548848Y-15983984D02*
X10529801Y-15974460D01*
X10529801Y-15974460D02*
X10520277Y-15964936D01*
X10520277Y-15964936D02*
X10510753Y-15945888D01*
X10510753Y-15945888D02*
X10501229Y-15907793D01*
X10501229Y-15907793D02*
X10501229Y-15860174D01*
X10501229Y-15860174D02*
X10510753Y-15822079D01*
X10510753Y-15822079D02*
X10520277Y-15803031D01*
X10520277Y-15803031D02*
X10529801Y-15793508D01*
X10529801Y-15793508D02*
X10548848Y-15783984D01*
X10682182Y-15783984D02*
X10805991Y-15783984D01*
X10805991Y-15783984D02*
X10739325Y-15860174D01*
X10739325Y-15860174D02*
X10767896Y-15860174D01*
X10767896Y-15860174D02*
X10786944Y-15869698D01*
X10786944Y-15869698D02*
X10796468Y-15879222D01*
X10796468Y-15879222D02*
X10805991Y-15898269D01*
X10805991Y-15898269D02*
X10805991Y-15945888D01*
X10805991Y-15945888D02*
X10796468Y-15964936D01*
X10796468Y-15964936D02*
X10786944Y-15974460D01*
X10786944Y-15974460D02*
X10767896Y-15983984D01*
X10767896Y-15983984D02*
X10710753Y-15983984D01*
X10710753Y-15983984D02*
X10691706Y-15974460D01*
X10691706Y-15974460D02*
X10682182Y-15964936D01*
X10986944Y-15783984D02*
X10891706Y-15783984D01*
X10891706Y-15783984D02*
X10882182Y-15879222D01*
X10882182Y-15879222D02*
X10891706Y-15869698D01*
X10891706Y-15869698D02*
X10910753Y-15860174D01*
X10910753Y-15860174D02*
X10958372Y-15860174D01*
X10958372Y-15860174D02*
X10977420Y-15869698D01*
X10977420Y-15869698D02*
X10986944Y-15879222D01*
X10986944Y-15879222D02*
X10996468Y-15898269D01*
X10996468Y-15898269D02*
X10996468Y-15945888D01*
X10996468Y-15945888D02*
X10986944Y-15964936D01*
X10986944Y-15964936D02*
X10977420Y-15974460D01*
X10977420Y-15974460D02*
X10958372Y-15983984D01*
X10958372Y-15983984D02*
X10910753Y-15983984D01*
X10910753Y-15983984D02*
X10891706Y-15974460D01*
X10891706Y-15974460D02*
X10882182Y-15964936D01*
X11167896Y-15850650D02*
X11167896Y-15983984D01*
X11120277Y-15774460D02*
X11072658Y-15917317D01*
X11072658Y-15917317D02*
X11196467Y-15917317D01*
X11263134Y-15783984D02*
X11263134Y-15822079D01*
X11339325Y-15783984D02*
X11339325Y-15822079D01*
X11634563Y-16060174D02*
X11625039Y-16050650D01*
X11625039Y-16050650D02*
X11605991Y-16022079D01*
X11605991Y-16022079D02*
X11596468Y-16003031D01*
X11596468Y-16003031D02*
X11586944Y-15974460D01*
X11586944Y-15974460D02*
X11577420Y-15926841D01*
X11577420Y-15926841D02*
X11577420Y-15888746D01*
X11577420Y-15888746D02*
X11586944Y-15841127D01*
X11586944Y-15841127D02*
X11596468Y-15812555D01*
X11596468Y-15812555D02*
X11605991Y-15793508D01*
X11605991Y-15793508D02*
X11625039Y-15764936D01*
X11625039Y-15764936D02*
X11634563Y-15755412D01*
X11691706Y-15783984D02*
X11815515Y-15783984D01*
X11815515Y-15783984D02*
X11748848Y-15860174D01*
X11748848Y-15860174D02*
X11777420Y-15860174D01*
X11777420Y-15860174D02*
X11796468Y-15869698D01*
X11796468Y-15869698D02*
X11805991Y-15879222D01*
X11805991Y-15879222D02*
X11815515Y-15898269D01*
X11815515Y-15898269D02*
X11815515Y-15945888D01*
X11815515Y-15945888D02*
X11805991Y-15964936D01*
X11805991Y-15964936D02*
X11796468Y-15974460D01*
X11796468Y-15974460D02*
X11777420Y-15983984D01*
X11777420Y-15983984D02*
X11720277Y-15983984D01*
X11720277Y-15983984D02*
X11701229Y-15974460D01*
X11701229Y-15974460D02*
X11691706Y-15964936D01*
X11891706Y-15803031D02*
X11901229Y-15793508D01*
X11901229Y-15793508D02*
X11920277Y-15783984D01*
X11920277Y-15783984D02*
X11967896Y-15783984D01*
X11967896Y-15783984D02*
X11986944Y-15793508D01*
X11986944Y-15793508D02*
X11996468Y-15803031D01*
X11996468Y-15803031D02*
X12005991Y-15822079D01*
X12005991Y-15822079D02*
X12005991Y-15841127D01*
X12005991Y-15841127D02*
X11996468Y-15869698D01*
X11996468Y-15869698D02*
X11882182Y-15983984D01*
X11882182Y-15983984D02*
X12005991Y-15983984D01*
X12244087Y-15983984D02*
X12244087Y-15783984D01*
X12329801Y-15983984D02*
X12329801Y-15879222D01*
X12329801Y-15879222D02*
X12320277Y-15860174D01*
X12320277Y-15860174D02*
X12301230Y-15850650D01*
X12301230Y-15850650D02*
X12272658Y-15850650D01*
X12272658Y-15850650D02*
X12253610Y-15860174D01*
X12253610Y-15860174D02*
X12244087Y-15869698D01*
X12453610Y-15983984D02*
X12434563Y-15974460D01*
X12434563Y-15974460D02*
X12425039Y-15964936D01*
X12425039Y-15964936D02*
X12415515Y-15945888D01*
X12415515Y-15945888D02*
X12415515Y-15888746D01*
X12415515Y-15888746D02*
X12425039Y-15869698D01*
X12425039Y-15869698D02*
X12434563Y-15860174D01*
X12434563Y-15860174D02*
X12453610Y-15850650D01*
X12453610Y-15850650D02*
X12482182Y-15850650D01*
X12482182Y-15850650D02*
X12501230Y-15860174D01*
X12501230Y-15860174D02*
X12510753Y-15869698D01*
X12510753Y-15869698D02*
X12520277Y-15888746D01*
X12520277Y-15888746D02*
X12520277Y-15945888D01*
X12520277Y-15945888D02*
X12510753Y-15964936D01*
X12510753Y-15964936D02*
X12501230Y-15974460D01*
X12501230Y-15974460D02*
X12482182Y-15983984D01*
X12482182Y-15983984D02*
X12453610Y-15983984D01*
X12634563Y-15983984D02*
X12615515Y-15974460D01*
X12615515Y-15974460D02*
X12605991Y-15955412D01*
X12605991Y-15955412D02*
X12605991Y-15783984D01*
X12786944Y-15974460D02*
X12767896Y-15983984D01*
X12767896Y-15983984D02*
X12729801Y-15983984D01*
X12729801Y-15983984D02*
X12710753Y-15974460D01*
X12710753Y-15974460D02*
X12701230Y-15955412D01*
X12701230Y-15955412D02*
X12701230Y-15879222D01*
X12701230Y-15879222D02*
X12710753Y-15860174D01*
X12710753Y-15860174D02*
X12729801Y-15850650D01*
X12729801Y-15850650D02*
X12767896Y-15850650D01*
X12767896Y-15850650D02*
X12786944Y-15860174D01*
X12786944Y-15860174D02*
X12796468Y-15879222D01*
X12796468Y-15879222D02*
X12796468Y-15898269D01*
X12796468Y-15898269D02*
X12701230Y-15917317D01*
X12872658Y-15974460D02*
X12891706Y-15983984D01*
X12891706Y-15983984D02*
X12929801Y-15983984D01*
X12929801Y-15983984D02*
X12948849Y-15974460D01*
X12948849Y-15974460D02*
X12958372Y-15955412D01*
X12958372Y-15955412D02*
X12958372Y-15945888D01*
X12958372Y-15945888D02*
X12948849Y-15926841D01*
X12948849Y-15926841D02*
X12929801Y-15917317D01*
X12929801Y-15917317D02*
X12901230Y-15917317D01*
X12901230Y-15917317D02*
X12882182Y-15907793D01*
X12882182Y-15907793D02*
X12872658Y-15888746D01*
X12872658Y-15888746D02*
X12872658Y-15879222D01*
X12872658Y-15879222D02*
X12882182Y-15860174D01*
X12882182Y-15860174D02*
X12901230Y-15850650D01*
X12901230Y-15850650D02*
X12929801Y-15850650D01*
X12929801Y-15850650D02*
X12948849Y-15860174D01*
X13025039Y-16060174D02*
X13034563Y-16050650D01*
X13034563Y-16050650D02*
X13053611Y-16022079D01*
X13053611Y-16022079D02*
X13063134Y-16003031D01*
X13063134Y-16003031D02*
X13072658Y-15974460D01*
X13072658Y-15974460D02*
X13082182Y-15926841D01*
X13082182Y-15926841D02*
X13082182Y-15888746D01*
X13082182Y-15888746D02*
X13072658Y-15841127D01*
X13072658Y-15841127D02*
X13063134Y-15812555D01*
X13063134Y-15812555D02*
X13053611Y-15793508D01*
X13053611Y-15793508D02*
X13034563Y-15764936D01*
X13034563Y-15764936D02*
X13025039Y-15755412D01*
D12*
X8009500Y-16206500D02*
X8059500Y-16156500D01*
X8009500Y-16106500D01*
X7959500Y-16156500D01*
X8009500Y-16206500D01*
D11*
X8425039Y-16247984D02*
X8310753Y-16247984D01*
X8367896Y-16247984D02*
X8367896Y-16047984D01*
X8367896Y-16047984D02*
X8348848Y-16076555D01*
X8348848Y-16076555D02*
X8329801Y-16095603D01*
X8329801Y-16095603D02*
X8310753Y-16105127D01*
X8510753Y-16228936D02*
X8520277Y-16238460D01*
X8520277Y-16238460D02*
X8510753Y-16247984D01*
X8510753Y-16247984D02*
X8501229Y-16238460D01*
X8501229Y-16238460D02*
X8510753Y-16228936D01*
X8510753Y-16228936D02*
X8510753Y-16247984D01*
X8644086Y-16047984D02*
X8663134Y-16047984D01*
X8663134Y-16047984D02*
X8682182Y-16057508D01*
X8682182Y-16057508D02*
X8691705Y-16067031D01*
X8691705Y-16067031D02*
X8701229Y-16086079D01*
X8701229Y-16086079D02*
X8710753Y-16124174D01*
X8710753Y-16124174D02*
X8710753Y-16171793D01*
X8710753Y-16171793D02*
X8701229Y-16209888D01*
X8701229Y-16209888D02*
X8691705Y-16228936D01*
X8691705Y-16228936D02*
X8682182Y-16238460D01*
X8682182Y-16238460D02*
X8663134Y-16247984D01*
X8663134Y-16247984D02*
X8644086Y-16247984D01*
X8644086Y-16247984D02*
X8625039Y-16238460D01*
X8625039Y-16238460D02*
X8615515Y-16228936D01*
X8615515Y-16228936D02*
X8605991Y-16209888D01*
X8605991Y-16209888D02*
X8596467Y-16171793D01*
X8596467Y-16171793D02*
X8596467Y-16124174D01*
X8596467Y-16124174D02*
X8605991Y-16086079D01*
X8605991Y-16086079D02*
X8615515Y-16067031D01*
X8615515Y-16067031D02*
X8625039Y-16057508D01*
X8625039Y-16057508D02*
X8644086Y-16047984D01*
X8834563Y-16047984D02*
X8853610Y-16047984D01*
X8853610Y-16047984D02*
X8872658Y-16057508D01*
X8872658Y-16057508D02*
X8882182Y-16067031D01*
X8882182Y-16067031D02*
X8891705Y-16086079D01*
X8891705Y-16086079D02*
X8901229Y-16124174D01*
X8901229Y-16124174D02*
X8901229Y-16171793D01*
X8901229Y-16171793D02*
X8891705Y-16209888D01*
X8891705Y-16209888D02*
X8882182Y-16228936D01*
X8882182Y-16228936D02*
X8872658Y-16238460D01*
X8872658Y-16238460D02*
X8853610Y-16247984D01*
X8853610Y-16247984D02*
X8834563Y-16247984D01*
X8834563Y-16247984D02*
X8815515Y-16238460D01*
X8815515Y-16238460D02*
X8805991Y-16228936D01*
X8805991Y-16228936D02*
X8796467Y-16209888D01*
X8796467Y-16209888D02*
X8786944Y-16171793D01*
X8786944Y-16171793D02*
X8786944Y-16124174D01*
X8786944Y-16124174D02*
X8796467Y-16086079D01*
X8796467Y-16086079D02*
X8805991Y-16067031D01*
X8805991Y-16067031D02*
X8815515Y-16057508D01*
X8815515Y-16057508D02*
X8834563Y-16047984D01*
X9025039Y-16047984D02*
X9044086Y-16047984D01*
X9044086Y-16047984D02*
X9063134Y-16057508D01*
X9063134Y-16057508D02*
X9072658Y-16067031D01*
X9072658Y-16067031D02*
X9082182Y-16086079D01*
X9082182Y-16086079D02*
X9091705Y-16124174D01*
X9091705Y-16124174D02*
X9091705Y-16171793D01*
X9091705Y-16171793D02*
X9082182Y-16209888D01*
X9082182Y-16209888D02*
X9072658Y-16228936D01*
X9072658Y-16228936D02*
X9063134Y-16238460D01*
X9063134Y-16238460D02*
X9044086Y-16247984D01*
X9044086Y-16247984D02*
X9025039Y-16247984D01*
X9025039Y-16247984D02*
X9005991Y-16238460D01*
X9005991Y-16238460D02*
X8996467Y-16228936D01*
X8996467Y-16228936D02*
X8986944Y-16209888D01*
X8986944Y-16209888D02*
X8977420Y-16171793D01*
X8977420Y-16171793D02*
X8977420Y-16124174D01*
X8977420Y-16124174D02*
X8986944Y-16086079D01*
X8986944Y-16086079D02*
X8996467Y-16067031D01*
X8996467Y-16067031D02*
X9005991Y-16057508D01*
X9005991Y-16057508D02*
X9025039Y-16047984D01*
X9177420Y-16247984D02*
X9177420Y-16114650D01*
X9177420Y-16133698D02*
X9186944Y-16124174D01*
X9186944Y-16124174D02*
X9205991Y-16114650D01*
X9205991Y-16114650D02*
X9234563Y-16114650D01*
X9234563Y-16114650D02*
X9253610Y-16124174D01*
X9253610Y-16124174D02*
X9263134Y-16143222D01*
X9263134Y-16143222D02*
X9263134Y-16247984D01*
X9263134Y-16143222D02*
X9272658Y-16124174D01*
X9272658Y-16124174D02*
X9291705Y-16114650D01*
X9291705Y-16114650D02*
X9320277Y-16114650D01*
X9320277Y-16114650D02*
X9339325Y-16124174D01*
X9339325Y-16124174D02*
X9348848Y-16143222D01*
X9348848Y-16143222D02*
X9348848Y-16247984D01*
X9444086Y-16247984D02*
X9444086Y-16114650D01*
X9444086Y-16133698D02*
X9453610Y-16124174D01*
X9453610Y-16124174D02*
X9472658Y-16114650D01*
X9472658Y-16114650D02*
X9501229Y-16114650D01*
X9501229Y-16114650D02*
X9520277Y-16124174D01*
X9520277Y-16124174D02*
X9529801Y-16143222D01*
X9529801Y-16143222D02*
X9529801Y-16247984D01*
X9529801Y-16143222D02*
X9539325Y-16124174D01*
X9539325Y-16124174D02*
X9558372Y-16114650D01*
X9558372Y-16114650D02*
X9586944Y-16114650D01*
X9586944Y-16114650D02*
X9605991Y-16124174D01*
X9605991Y-16124174D02*
X9615515Y-16143222D01*
X9615515Y-16143222D02*
X9615515Y-16247984D01*
X10005991Y-16038460D02*
X9834563Y-16295603D01*
X10263134Y-16047984D02*
X10282182Y-16047984D01*
X10282182Y-16047984D02*
X10301229Y-16057508D01*
X10301229Y-16057508D02*
X10310753Y-16067031D01*
X10310753Y-16067031D02*
X10320277Y-16086079D01*
X10320277Y-16086079D02*
X10329801Y-16124174D01*
X10329801Y-16124174D02*
X10329801Y-16171793D01*
X10329801Y-16171793D02*
X10320277Y-16209888D01*
X10320277Y-16209888D02*
X10310753Y-16228936D01*
X10310753Y-16228936D02*
X10301229Y-16238460D01*
X10301229Y-16238460D02*
X10282182Y-16247984D01*
X10282182Y-16247984D02*
X10263134Y-16247984D01*
X10263134Y-16247984D02*
X10244087Y-16238460D01*
X10244087Y-16238460D02*
X10234563Y-16228936D01*
X10234563Y-16228936D02*
X10225039Y-16209888D01*
X10225039Y-16209888D02*
X10215515Y-16171793D01*
X10215515Y-16171793D02*
X10215515Y-16124174D01*
X10215515Y-16124174D02*
X10225039Y-16086079D01*
X10225039Y-16086079D02*
X10234563Y-16067031D01*
X10234563Y-16067031D02*
X10244087Y-16057508D01*
X10244087Y-16057508D02*
X10263134Y-16047984D01*
X10415515Y-16228936D02*
X10425039Y-16238460D01*
X10425039Y-16238460D02*
X10415515Y-16247984D01*
X10415515Y-16247984D02*
X10405991Y-16238460D01*
X10405991Y-16238460D02*
X10415515Y-16228936D01*
X10415515Y-16228936D02*
X10415515Y-16247984D01*
X10548848Y-16047984D02*
X10567896Y-16047984D01*
X10567896Y-16047984D02*
X10586944Y-16057508D01*
X10586944Y-16057508D02*
X10596468Y-16067031D01*
X10596468Y-16067031D02*
X10605991Y-16086079D01*
X10605991Y-16086079D02*
X10615515Y-16124174D01*
X10615515Y-16124174D02*
X10615515Y-16171793D01*
X10615515Y-16171793D02*
X10605991Y-16209888D01*
X10605991Y-16209888D02*
X10596468Y-16228936D01*
X10596468Y-16228936D02*
X10586944Y-16238460D01*
X10586944Y-16238460D02*
X10567896Y-16247984D01*
X10567896Y-16247984D02*
X10548848Y-16247984D01*
X10548848Y-16247984D02*
X10529801Y-16238460D01*
X10529801Y-16238460D02*
X10520277Y-16228936D01*
X10520277Y-16228936D02*
X10510753Y-16209888D01*
X10510753Y-16209888D02*
X10501229Y-16171793D01*
X10501229Y-16171793D02*
X10501229Y-16124174D01*
X10501229Y-16124174D02*
X10510753Y-16086079D01*
X10510753Y-16086079D02*
X10520277Y-16067031D01*
X10520277Y-16067031D02*
X10529801Y-16057508D01*
X10529801Y-16057508D02*
X10548848Y-16047984D01*
X10682182Y-16047984D02*
X10805991Y-16047984D01*
X10805991Y-16047984D02*
X10739325Y-16124174D01*
X10739325Y-16124174D02*
X10767896Y-16124174D01*
X10767896Y-16124174D02*
X10786944Y-16133698D01*
X10786944Y-16133698D02*
X10796468Y-16143222D01*
X10796468Y-16143222D02*
X10805991Y-16162269D01*
X10805991Y-16162269D02*
X10805991Y-16209888D01*
X10805991Y-16209888D02*
X10796468Y-16228936D01*
X10796468Y-16228936D02*
X10786944Y-16238460D01*
X10786944Y-16238460D02*
X10767896Y-16247984D01*
X10767896Y-16247984D02*
X10710753Y-16247984D01*
X10710753Y-16247984D02*
X10691706Y-16238460D01*
X10691706Y-16238460D02*
X10682182Y-16228936D01*
X10901229Y-16247984D02*
X10939325Y-16247984D01*
X10939325Y-16247984D02*
X10958372Y-16238460D01*
X10958372Y-16238460D02*
X10967896Y-16228936D01*
X10967896Y-16228936D02*
X10986944Y-16200365D01*
X10986944Y-16200365D02*
X10996468Y-16162269D01*
X10996468Y-16162269D02*
X10996468Y-16086079D01*
X10996468Y-16086079D02*
X10986944Y-16067031D01*
X10986944Y-16067031D02*
X10977420Y-16057508D01*
X10977420Y-16057508D02*
X10958372Y-16047984D01*
X10958372Y-16047984D02*
X10920277Y-16047984D01*
X10920277Y-16047984D02*
X10901229Y-16057508D01*
X10901229Y-16057508D02*
X10891706Y-16067031D01*
X10891706Y-16067031D02*
X10882182Y-16086079D01*
X10882182Y-16086079D02*
X10882182Y-16133698D01*
X10882182Y-16133698D02*
X10891706Y-16152746D01*
X10891706Y-16152746D02*
X10901229Y-16162269D01*
X10901229Y-16162269D02*
X10920277Y-16171793D01*
X10920277Y-16171793D02*
X10958372Y-16171793D01*
X10958372Y-16171793D02*
X10977420Y-16162269D01*
X10977420Y-16162269D02*
X10986944Y-16152746D01*
X10986944Y-16152746D02*
X10996468Y-16133698D01*
X11167896Y-16114650D02*
X11167896Y-16247984D01*
X11120277Y-16038460D02*
X11072658Y-16181317D01*
X11072658Y-16181317D02*
X11196467Y-16181317D01*
X11263134Y-16047984D02*
X11263134Y-16086079D01*
X11339325Y-16047984D02*
X11339325Y-16086079D01*
X11634563Y-16324174D02*
X11625039Y-16314650D01*
X11625039Y-16314650D02*
X11605991Y-16286079D01*
X11605991Y-16286079D02*
X11596468Y-16267031D01*
X11596468Y-16267031D02*
X11586944Y-16238460D01*
X11586944Y-16238460D02*
X11577420Y-16190841D01*
X11577420Y-16190841D02*
X11577420Y-16152746D01*
X11577420Y-16152746D02*
X11586944Y-16105127D01*
X11586944Y-16105127D02*
X11596468Y-16076555D01*
X11596468Y-16076555D02*
X11605991Y-16057508D01*
X11605991Y-16057508D02*
X11625039Y-16028936D01*
X11625039Y-16028936D02*
X11634563Y-16019412D01*
X11796468Y-16114650D02*
X11796468Y-16247984D01*
X11748848Y-16038460D02*
X11701229Y-16181317D01*
X11701229Y-16181317D02*
X11825039Y-16181317D01*
X11939325Y-16047984D02*
X11958372Y-16047984D01*
X11958372Y-16047984D02*
X11977420Y-16057508D01*
X11977420Y-16057508D02*
X11986944Y-16067031D01*
X11986944Y-16067031D02*
X11996468Y-16086079D01*
X11996468Y-16086079D02*
X12005991Y-16124174D01*
X12005991Y-16124174D02*
X12005991Y-16171793D01*
X12005991Y-16171793D02*
X11996468Y-16209888D01*
X11996468Y-16209888D02*
X11986944Y-16228936D01*
X11986944Y-16228936D02*
X11977420Y-16238460D01*
X11977420Y-16238460D02*
X11958372Y-16247984D01*
X11958372Y-16247984D02*
X11939325Y-16247984D01*
X11939325Y-16247984D02*
X11920277Y-16238460D01*
X11920277Y-16238460D02*
X11910753Y-16228936D01*
X11910753Y-16228936D02*
X11901229Y-16209888D01*
X11901229Y-16209888D02*
X11891706Y-16171793D01*
X11891706Y-16171793D02*
X11891706Y-16124174D01*
X11891706Y-16124174D02*
X11901229Y-16086079D01*
X11901229Y-16086079D02*
X11910753Y-16067031D01*
X11910753Y-16067031D02*
X11920277Y-16057508D01*
X11920277Y-16057508D02*
X11939325Y-16047984D01*
X12244087Y-16247984D02*
X12244087Y-16047984D01*
X12329801Y-16247984D02*
X12329801Y-16143222D01*
X12329801Y-16143222D02*
X12320277Y-16124174D01*
X12320277Y-16124174D02*
X12301230Y-16114650D01*
X12301230Y-16114650D02*
X12272658Y-16114650D01*
X12272658Y-16114650D02*
X12253610Y-16124174D01*
X12253610Y-16124174D02*
X12244087Y-16133698D01*
X12453610Y-16247984D02*
X12434563Y-16238460D01*
X12434563Y-16238460D02*
X12425039Y-16228936D01*
X12425039Y-16228936D02*
X12415515Y-16209888D01*
X12415515Y-16209888D02*
X12415515Y-16152746D01*
X12415515Y-16152746D02*
X12425039Y-16133698D01*
X12425039Y-16133698D02*
X12434563Y-16124174D01*
X12434563Y-16124174D02*
X12453610Y-16114650D01*
X12453610Y-16114650D02*
X12482182Y-16114650D01*
X12482182Y-16114650D02*
X12501230Y-16124174D01*
X12501230Y-16124174D02*
X12510753Y-16133698D01*
X12510753Y-16133698D02*
X12520277Y-16152746D01*
X12520277Y-16152746D02*
X12520277Y-16209888D01*
X12520277Y-16209888D02*
X12510753Y-16228936D01*
X12510753Y-16228936D02*
X12501230Y-16238460D01*
X12501230Y-16238460D02*
X12482182Y-16247984D01*
X12482182Y-16247984D02*
X12453610Y-16247984D01*
X12634563Y-16247984D02*
X12615515Y-16238460D01*
X12615515Y-16238460D02*
X12605991Y-16219412D01*
X12605991Y-16219412D02*
X12605991Y-16047984D01*
X12786944Y-16238460D02*
X12767896Y-16247984D01*
X12767896Y-16247984D02*
X12729801Y-16247984D01*
X12729801Y-16247984D02*
X12710753Y-16238460D01*
X12710753Y-16238460D02*
X12701230Y-16219412D01*
X12701230Y-16219412D02*
X12701230Y-16143222D01*
X12701230Y-16143222D02*
X12710753Y-16124174D01*
X12710753Y-16124174D02*
X12729801Y-16114650D01*
X12729801Y-16114650D02*
X12767896Y-16114650D01*
X12767896Y-16114650D02*
X12786944Y-16124174D01*
X12786944Y-16124174D02*
X12796468Y-16143222D01*
X12796468Y-16143222D02*
X12796468Y-16162269D01*
X12796468Y-16162269D02*
X12701230Y-16181317D01*
X12872658Y-16238460D02*
X12891706Y-16247984D01*
X12891706Y-16247984D02*
X12929801Y-16247984D01*
X12929801Y-16247984D02*
X12948849Y-16238460D01*
X12948849Y-16238460D02*
X12958372Y-16219412D01*
X12958372Y-16219412D02*
X12958372Y-16209888D01*
X12958372Y-16209888D02*
X12948849Y-16190841D01*
X12948849Y-16190841D02*
X12929801Y-16181317D01*
X12929801Y-16181317D02*
X12901230Y-16181317D01*
X12901230Y-16181317D02*
X12882182Y-16171793D01*
X12882182Y-16171793D02*
X12872658Y-16152746D01*
X12872658Y-16152746D02*
X12872658Y-16143222D01*
X12872658Y-16143222D02*
X12882182Y-16124174D01*
X12882182Y-16124174D02*
X12901230Y-16114650D01*
X12901230Y-16114650D02*
X12929801Y-16114650D01*
X12929801Y-16114650D02*
X12948849Y-16124174D01*
X13025039Y-16324174D02*
X13034563Y-16314650D01*
X13034563Y-16314650D02*
X13053611Y-16286079D01*
X13053611Y-16286079D02*
X13063134Y-16267031D01*
X13063134Y-16267031D02*
X13072658Y-16238460D01*
X13072658Y-16238460D02*
X13082182Y-16190841D01*
X13082182Y-16190841D02*
X13082182Y-16152746D01*
X13082182Y-16152746D02*
X13072658Y-16105127D01*
X13072658Y-16105127D02*
X13063134Y-16076555D01*
X13063134Y-16076555D02*
X13053611Y-16057508D01*
X13053611Y-16057508D02*
X13034563Y-16028936D01*
X13034563Y-16028936D02*
X13025039Y-16019412D01*
M02*
