%TF.GenerationSoftware,KiCad,Pcbnew,9.0.6*%
%TF.CreationDate,2025-11-15T09:42:15+01:00*%
%TF.ProjectId,mux_led_reed,6d75785f-6c65-4645-9f72-6565642e6b69,1*%
%TF.SameCoordinates,Original*%
%TF.FileFunction,Copper,L1,Top*%
%TF.FilePolarity,Positive*%
%FSLAX46Y46*%
G04 Gerber Fmt 4.6, Leading zero omitted, Abs format (unit mm)*
G04 Created by KiCad (PCBNEW 9.0.6) date 2025-11-15 09:42:15*
%MOMM*%
%LPD*%
G01*
G04 APERTURE LIST*
G04 Aperture macros list*
%AMRoundRect*
0 Rectangle with rounded corners*
0 $1 Rounding radius*
0 $2 $3 $4 $5 $6 $7 $8 $9 X,Y pos of 4 corners*
0 Add a 4 corners polygon primitive as box body*
4,1,4,$2,$3,$4,$5,$6,$7,$8,$9,$2,$3,0*
0 Add four circle primitives for the rounded corners*
1,1,$1+$1,$2,$3*
1,1,$1+$1,$4,$5*
1,1,$1+$1,$6,$7*
1,1,$1+$1,$8,$9*
0 Add four rect primitives between the rounded corners*
20,1,$1+$1,$2,$3,$4,$5,0*
20,1,$1+$1,$4,$5,$6,$7,0*
20,1,$1+$1,$6,$7,$8,$9,0*
20,1,$1+$1,$8,$9,$2,$3,0*%
G04 Aperture macros list end*
%TA.AperFunction,SMDPad,CuDef*%
%ADD10RoundRect,0.090000X0.660000X0.360000X-0.660000X0.360000X-0.660000X-0.360000X0.660000X-0.360000X0*%
%TD*%
%TA.AperFunction,ComponentPad*%
%ADD11C,1.800000*%
%TD*%
%TA.AperFunction,SMDPad,CuDef*%
%ADD12R,1.500000X1.000000*%
%TD*%
%TA.AperFunction,SMDPad,CuDef*%
%ADD13RoundRect,0.250000X-0.337500X-0.475000X0.337500X-0.475000X0.337500X0.475000X-0.337500X0.475000X0*%
%TD*%
%TA.AperFunction,ComponentPad*%
%ADD14R,1.700000X1.700000*%
%TD*%
%TA.AperFunction,ComponentPad*%
%ADD15C,1.700000*%
%TD*%
%TA.AperFunction,SMDPad,CuDef*%
%ADD16R,3.000000X3.000000*%
%TD*%
%TA.AperFunction,SMDPad,CuDef*%
%ADD17R,4.000000X4.000000*%
%TD*%
%TA.AperFunction,SMDPad,CuDef*%
%ADD18RoundRect,0.250000X0.450000X-0.350000X0.450000X0.350000X-0.450000X0.350000X-0.450000X-0.350000X0*%
%TD*%
%TA.AperFunction,SMDPad,CuDef*%
%ADD19RoundRect,0.090000X-0.660000X-0.360000X0.660000X-0.360000X0.660000X0.360000X-0.660000X0.360000X0*%
%TD*%
%TA.AperFunction,SMDPad,CuDef*%
%ADD20RoundRect,0.250000X0.337500X0.475000X-0.337500X0.475000X-0.337500X-0.475000X0.337500X-0.475000X0*%
%TD*%
%TA.AperFunction,ViaPad*%
%ADD21C,0.800000*%
%TD*%
%TA.AperFunction,ViaPad*%
%ADD22C,1.200000*%
%TD*%
%TA.AperFunction,ViaPad*%
%ADD23C,0.600000*%
%TD*%
%TA.AperFunction,Conductor*%
%ADD24C,0.400000*%
%TD*%
%TA.AperFunction,Conductor*%
%ADD25C,1.000000*%
%TD*%
%TA.AperFunction,Conductor*%
%ADD26C,3.000000*%
%TD*%
%TA.AperFunction,Conductor*%
%ADD27C,0.800000*%
%TD*%
%TA.AperFunction,Conductor*%
%ADD28C,0.300000*%
%TD*%
G04 APERTURE END LIST*
D10*
%TO.P,D11,1,VDD*%
%TO.N,+5V*%
X145570000Y-83730000D03*
%TO.P,D11,2,DOUT*%
%TO.N,Net-(D11-DOUT)*%
X145570000Y-80430000D03*
%TO.P,D11,3,VSS*%
%TO.N,GND*%
X140670000Y-80430000D03*
%TO.P,D11,4,DIN*%
%TO.N,Net-(D10-DOUT)*%
X140670000Y-83730000D03*
%TD*%
D11*
%TO.P,SW9,1,1*%
%TO.N,/Y10*%
X93120000Y-75080000D03*
%TO.P,SW9,2,2*%
%TO.N,+5V*%
X93120000Y-89080000D03*
%TD*%
D12*
%TO.P,JP2,1,A*%
%TO.N,/DOUT_0*%
X174620000Y-120230000D03*
%TO.P,JP2,2,B*%
%TO.N,/DIN_1*%
X174620000Y-118930000D03*
%TD*%
%TO.P,JP3,1,A*%
%TO.N,/DOUT_1*%
X91120000Y-95230000D03*
%TO.P,JP3,2,B*%
%TO.N,/DIN_2*%
X91120000Y-93930000D03*
%TD*%
D13*
%TO.P,C13,1*%
%TO.N,GND*%
X161282500Y-57280000D03*
%TO.P,C13,2*%
%TO.N,+5V*%
X163357500Y-57280000D03*
%TD*%
D11*
%TO.P,SW15,1,1*%
%TO.N,/Y16*%
X118120000Y-64080000D03*
%TO.P,SW15,2,2*%
%TO.N,+5V*%
X118120000Y-50080000D03*
%TD*%
D14*
%TO.P,J6,1,Pin_1*%
%TO.N,GND*%
X161100000Y-140360000D03*
D15*
%TO.P,J6,2,Pin_2*%
X158560000Y-140360000D03*
%TO.P,J6,3,Pin_3*%
X156020000Y-140360000D03*
%TO.P,J6,4,Pin_4*%
X153480000Y-140360000D03*
%TD*%
D10*
%TO.P,D1,1,VDD*%
%TO.N,+5V*%
X95570000Y-133730000D03*
%TO.P,D1,2,DOUT*%
%TO.N,Net-(D1-DOUT)*%
X95570000Y-130430000D03*
%TO.P,D1,3,VSS*%
%TO.N,GND*%
X90670000Y-130430000D03*
%TO.P,D1,4,DIN*%
%TO.N,Net-(D1-DIN)*%
X90670000Y-133730000D03*
%TD*%
%TO.P,D10,1,VDD*%
%TO.N,+5V*%
X120570000Y-83730000D03*
%TO.P,D10,2,DOUT*%
%TO.N,Net-(D10-DOUT)*%
X120570000Y-80430000D03*
%TO.P,D10,3,VSS*%
%TO.N,GND*%
X115670000Y-80430000D03*
%TO.P,D10,4,DIN*%
%TO.N,Net-(D10-DIN)*%
X115670000Y-83730000D03*
%TD*%
%TO.P,D12,1,VDD*%
%TO.N,+5V*%
X170570000Y-83730000D03*
%TO.P,D12,2,DOUT*%
%TO.N,/DOUT_2*%
X170570000Y-80430000D03*
%TO.P,D12,3,VSS*%
%TO.N,GND*%
X165670000Y-80430000D03*
%TO.P,D12,4,DIN*%
%TO.N,Net-(D11-DOUT)*%
X165670000Y-83730000D03*
%TD*%
D13*
%TO.P,C16,1*%
%TO.N,GND*%
X86082500Y-52580000D03*
%TO.P,C16,2*%
%TO.N,+5V*%
X88157500Y-52580000D03*
%TD*%
%TO.P,C7,1*%
%TO.N,GND*%
X111082500Y-102580000D03*
%TO.P,C7,2*%
%TO.N,+5V*%
X113157500Y-102580000D03*
%TD*%
D16*
%TO.P,TP1,1,1*%
%TO.N,/DIN_0*%
X82620000Y-132080000D03*
%TD*%
D11*
%TO.P,SW3,1,1*%
%TO.N,/Y02*%
X143120000Y-125080000D03*
%TO.P,SW3,2,2*%
%TO.N,+5V*%
X143120000Y-139080000D03*
%TD*%
D14*
%TO.P,J8,1,Pin_1*%
%TO.N,+5V*%
X136140000Y-48820000D03*
D15*
%TO.P,J8,2,Pin_2*%
X133600000Y-48820000D03*
%TO.P,J8,3,Pin_3*%
X131060000Y-48820000D03*
%TO.P,J8,4,Pin_4*%
X128520000Y-48820000D03*
%TD*%
D17*
%TO.P,TP9,1,1*%
%TO.N,+5V*%
X104120000Y-142080000D03*
%TD*%
%TO.P,TP11,1,1*%
%TO.N,+5V*%
X104120000Y-47080000D03*
%TD*%
D18*
%TO.P,R4,1*%
%TO.N,/DIN_3*%
X174120000Y-58080000D03*
%TO.P,R4,2*%
%TO.N,Net-(D13-DIN)*%
X174120000Y-56080000D03*
%TD*%
%TO.P,R2,1*%
%TO.N,/DIN_1*%
X174120000Y-108080000D03*
%TO.P,R2,2*%
%TO.N,Net-(D5-DIN)*%
X174120000Y-106080000D03*
%TD*%
D13*
%TO.P,C14,1*%
%TO.N,GND*%
X136282500Y-57280000D03*
%TO.P,C14,2*%
%TO.N,+5V*%
X138357500Y-57280000D03*
%TD*%
D19*
%TO.P,D16,1,VDD*%
%TO.N,+5V*%
X90670000Y-55430000D03*
%TO.P,D16,2,DOUT*%
%TO.N,/DOUT_3*%
X90670000Y-58730000D03*
%TO.P,D16,3,VSS*%
%TO.N,GND*%
X95570000Y-58730000D03*
%TO.P,D16,4,DIN*%
%TO.N,Net-(D15-DOUT)*%
X95570000Y-55430000D03*
%TD*%
D11*
%TO.P,SW1,1,1*%
%TO.N,/Y00*%
X93120000Y-125080000D03*
%TO.P,SW1,2,2*%
%TO.N,+5V*%
X93120000Y-139080000D03*
%TD*%
D13*
%TO.P,C8,1*%
%TO.N,GND*%
X86082500Y-102080000D03*
%TO.P,C8,2*%
%TO.N,+5V*%
X88157500Y-102080000D03*
%TD*%
D19*
%TO.P,D8,1,VDD*%
%TO.N,+5V*%
X90670000Y-105430000D03*
%TO.P,D8,2,DOUT*%
%TO.N,/DOUT_1*%
X90670000Y-108730000D03*
%TO.P,D8,3,VSS*%
%TO.N,GND*%
X95570000Y-108730000D03*
%TO.P,D8,4,DIN*%
%TO.N,Net-(D7-DOUT)*%
X95570000Y-105430000D03*
%TD*%
D11*
%TO.P,SW14,1,1*%
%TO.N,/Y15*%
X143120000Y-64080000D03*
%TO.P,SW14,2,2*%
%TO.N,+5V*%
X143120000Y-50080000D03*
%TD*%
D20*
%TO.P,C2,1*%
%TO.N,GND*%
X125157500Y-136580000D03*
%TO.P,C2,2*%
%TO.N,+5V*%
X123082500Y-136580000D03*
%TD*%
D10*
%TO.P,D3,1,VDD*%
%TO.N,+5V*%
X145570000Y-133730000D03*
%TO.P,D3,2,DOUT*%
%TO.N,Net-(D3-DOUT)*%
X145570000Y-130430000D03*
%TO.P,D3,3,VSS*%
%TO.N,GND*%
X140670000Y-130430000D03*
%TO.P,D3,4,DIN*%
%TO.N,Net-(D2-DOUT)*%
X140670000Y-133730000D03*
%TD*%
D19*
%TO.P,D6,1,VDD*%
%TO.N,+5V*%
X140670000Y-105430000D03*
%TO.P,D6,2,DOUT*%
%TO.N,Net-(D6-DOUT)*%
X140670000Y-108730000D03*
%TO.P,D6,3,VSS*%
%TO.N,GND*%
X145570000Y-108730000D03*
%TO.P,D6,4,DIN*%
%TO.N,Net-(D5-DOUT)*%
X145570000Y-105430000D03*
%TD*%
D10*
%TO.P,D2,1,VDD*%
%TO.N,+5V*%
X120570000Y-133730000D03*
%TO.P,D2,2,DOUT*%
%TO.N,Net-(D2-DOUT)*%
X120570000Y-130430000D03*
%TO.P,D2,3,VSS*%
%TO.N,GND*%
X115670000Y-130430000D03*
%TO.P,D2,4,DIN*%
%TO.N,Net-(D1-DOUT)*%
X115670000Y-133730000D03*
%TD*%
D14*
%TO.P,J11,1,Pin_1*%
%TO.N,+5V*%
X176420000Y-73400000D03*
D15*
%TO.P,J11,2,Pin_2*%
X176420000Y-70860000D03*
%TO.P,J11,3,Pin_3*%
X176420000Y-68320000D03*
%TO.P,J11,4,Pin_4*%
X176420000Y-65780000D03*
%TD*%
D20*
%TO.P,C11,1*%
%TO.N,GND*%
X150157500Y-86580000D03*
%TO.P,C11,2*%
%TO.N,+5V*%
X148082500Y-86580000D03*
%TD*%
D16*
%TO.P,TP6,1,1*%
%TO.N,/DOUT_2*%
X178620000Y-82080000D03*
%TD*%
D19*
%TO.P,D15,1,VDD*%
%TO.N,+5V*%
X115670000Y-55430000D03*
%TO.P,D15,2,DOUT*%
%TO.N,Net-(D15-DOUT)*%
X115670000Y-58730000D03*
%TO.P,D15,3,VSS*%
%TO.N,GND*%
X120570000Y-58730000D03*
%TO.P,D15,4,DIN*%
%TO.N,Net-(D14-DOUT)*%
X120570000Y-55430000D03*
%TD*%
D11*
%TO.P,SW5,1,1*%
%TO.N,/Y04*%
X168120000Y-114080000D03*
%TO.P,SW5,2,2*%
%TO.N,+5V*%
X168120000Y-100080000D03*
%TD*%
D14*
%TO.P,J10,1,Pin_1*%
%TO.N,GND*%
X84820000Y-98400000D03*
D15*
%TO.P,J10,2,Pin_2*%
X84820000Y-95860000D03*
%TO.P,J10,3,Pin_3*%
X84820000Y-93320000D03*
%TO.P,J10,4,Pin_4*%
X84820000Y-90780000D03*
%TD*%
D11*
%TO.P,SW10,1,1*%
%TO.N,/Y11*%
X118120000Y-75080000D03*
%TO.P,SW10,2,2*%
%TO.N,+5V*%
X118120000Y-89080000D03*
%TD*%
D19*
%TO.P,D7,1,VDD*%
%TO.N,+5V*%
X115670000Y-105430000D03*
%TO.P,D7,2,DOUT*%
%TO.N,Net-(D7-DOUT)*%
X115670000Y-108730000D03*
%TO.P,D7,3,VSS*%
%TO.N,GND*%
X120570000Y-108730000D03*
%TO.P,D7,4,DIN*%
%TO.N,Net-(D6-DOUT)*%
X120570000Y-105430000D03*
%TD*%
D20*
%TO.P,C1,1*%
%TO.N,GND*%
X100157500Y-136580000D03*
%TO.P,C1,2*%
%TO.N,+5V*%
X98082500Y-136580000D03*
%TD*%
D12*
%TO.P,JP1,1,A*%
%TO.N,unconnected-(JP1-A-Pad1)*%
X84820029Y-143230999D03*
%TO.P,JP1,2,B*%
%TO.N,/DIN_0*%
X84820029Y-141930999D03*
%TD*%
D11*
%TO.P,SW2,1,1*%
%TO.N,/Y01*%
X118120000Y-125080000D03*
%TO.P,SW2,2,2*%
%TO.N,+5V*%
X118120000Y-139080000D03*
%TD*%
D19*
%TO.P,D13,1,VDD*%
%TO.N,+5V*%
X165670000Y-55430000D03*
%TO.P,D13,2,DOUT*%
%TO.N,Net-(D13-DOUT)*%
X165670000Y-58730000D03*
%TO.P,D13,3,VSS*%
%TO.N,GND*%
X170570000Y-58730000D03*
%TO.P,D13,4,DIN*%
%TO.N,Net-(D13-DIN)*%
X170570000Y-55430000D03*
%TD*%
D16*
%TO.P,TP7,1,1*%
%TO.N,/DIN_3*%
X178620000Y-57080000D03*
%TD*%
D18*
%TO.P,R1,1*%
%TO.N,/DIN_0*%
X87120000Y-133080000D03*
%TO.P,R1,2*%
%TO.N,Net-(D1-DIN)*%
X87120000Y-131080000D03*
%TD*%
D11*
%TO.P,SW16,1,1*%
%TO.N,/Y17*%
X93120000Y-64080000D03*
%TO.P,SW16,2,2*%
%TO.N,+5V*%
X93120000Y-50080000D03*
%TD*%
D14*
%TO.P,J5,1,Pin_1*%
%TO.N,+5V*%
X136140000Y-140370000D03*
D15*
%TO.P,J5,2,Pin_2*%
X133600000Y-140370000D03*
%TO.P,J5,3,Pin_3*%
X131060000Y-140370000D03*
%TO.P,J5,4,Pin_4*%
X128520000Y-140370000D03*
%TD*%
D11*
%TO.P,SW13,1,1*%
%TO.N,/Y14*%
X168120000Y-64080000D03*
%TO.P,SW13,2,2*%
%TO.N,+5V*%
X168120000Y-50080000D03*
%TD*%
D12*
%TO.P,JP5,1,A*%
%TO.N,/DOUT_3*%
X84120707Y-46879293D03*
%TO.P,JP5,2,B*%
%TO.N,unconnected-(JP5-B-Pad2)*%
X84120707Y-45579293D03*
%TD*%
D20*
%TO.P,C10,1*%
%TO.N,GND*%
X125157500Y-86580000D03*
%TO.P,C10,2*%
%TO.N,+5V*%
X123082500Y-86580000D03*
%TD*%
D17*
%TO.P,TP10,1,1*%
%TO.N,GND*%
X109120000Y-142080000D03*
%TD*%
D16*
%TO.P,TP5,1,1*%
%TO.N,/DIN_2*%
X82620000Y-82080000D03*
%TD*%
D11*
%TO.P,SW7,1,1*%
%TO.N,/Y06*%
X118120000Y-114080000D03*
%TO.P,SW7,2,2*%
%TO.N,+5V*%
X118120000Y-100080000D03*
%TD*%
D20*
%TO.P,C4,1*%
%TO.N,GND*%
X175157500Y-136580000D03*
%TO.P,C4,2*%
%TO.N,+5V*%
X173082500Y-136580000D03*
%TD*%
D11*
%TO.P,SW4,1,1*%
%TO.N,/Y03*%
X168120000Y-125080000D03*
%TO.P,SW4,2,2*%
%TO.N,+5V*%
X168120000Y-139080000D03*
%TD*%
D13*
%TO.P,C5,1*%
%TO.N,GND*%
X161082500Y-102580000D03*
%TO.P,C5,2*%
%TO.N,+5V*%
X163157500Y-102580000D03*
%TD*%
D18*
%TO.P,R3,1*%
%TO.N,/DIN_2*%
X87120000Y-83080000D03*
%TO.P,R3,2*%
%TO.N,Net-(D9-DIN)*%
X87120000Y-81080000D03*
%TD*%
D11*
%TO.P,SW6,1,1*%
%TO.N,/Y05*%
X143120000Y-114080000D03*
%TO.P,SW6,2,2*%
%TO.N,+5V*%
X143120000Y-100080000D03*
%TD*%
D20*
%TO.P,C12,1*%
%TO.N,GND*%
X175157500Y-86580000D03*
%TO.P,C12,2*%
%TO.N,+5V*%
X173082500Y-86580000D03*
%TD*%
%TO.P,C3,1*%
%TO.N,GND*%
X150157500Y-136580000D03*
%TO.P,C3,2*%
%TO.N,+5V*%
X148082500Y-136580000D03*
%TD*%
D14*
%TO.P,J9,1,Pin_1*%
%TO.N,+5V*%
X84755000Y-73400000D03*
D15*
%TO.P,J9,2,Pin_2*%
X84755000Y-70860000D03*
%TO.P,J9,3,Pin_3*%
X84755000Y-68320000D03*
%TO.P,J9,4,Pin_4*%
X84755000Y-65780000D03*
%TD*%
D14*
%TO.P,J7,1,Pin_1*%
%TO.N,GND*%
X161100000Y-48820000D03*
D15*
%TO.P,J7,2,Pin_2*%
X158560000Y-48820000D03*
%TO.P,J7,3,Pin_3*%
X156020000Y-48820000D03*
%TO.P,J7,4,Pin_4*%
X153480000Y-48820000D03*
%TD*%
D10*
%TO.P,D9,1,VDD*%
%TO.N,+5V*%
X95570000Y-83730000D03*
%TO.P,D9,2,DOUT*%
%TO.N,Net-(D10-DIN)*%
X95570000Y-80430000D03*
%TO.P,D9,3,VSS*%
%TO.N,GND*%
X90670000Y-80430000D03*
%TO.P,D9,4,DIN*%
%TO.N,Net-(D9-DIN)*%
X90670000Y-83730000D03*
%TD*%
D16*
%TO.P,TP2,1,1*%
%TO.N,/DOUT_0*%
X178620000Y-132080000D03*
%TD*%
D11*
%TO.P,SW11,1,1*%
%TO.N,/Y12*%
X143120000Y-75080000D03*
%TO.P,SW11,2,2*%
%TO.N,+5V*%
X143120000Y-89080000D03*
%TD*%
D19*
%TO.P,D14,1,VDD*%
%TO.N,+5V*%
X140670000Y-55430000D03*
%TO.P,D14,2,DOUT*%
%TO.N,Net-(D14-DOUT)*%
X140670000Y-58730000D03*
%TO.P,D14,3,VSS*%
%TO.N,GND*%
X145570000Y-58730000D03*
%TO.P,D14,4,DIN*%
%TO.N,Net-(D13-DOUT)*%
X145570000Y-55430000D03*
%TD*%
D17*
%TO.P,TP12,1,1*%
%TO.N,GND*%
X109120000Y-47080000D03*
%TD*%
D16*
%TO.P,TP3,1,1*%
%TO.N,/DIN_1*%
X178620000Y-107080000D03*
%TD*%
D12*
%TO.P,JP4,1,A*%
%TO.N,/DOUT_2*%
X169620000Y-70230000D03*
%TO.P,JP4,2,B*%
%TO.N,/DIN_3*%
X169620000Y-68930000D03*
%TD*%
D13*
%TO.P,C6,1*%
%TO.N,GND*%
X136082500Y-102580000D03*
%TO.P,C6,2*%
%TO.N,+5V*%
X138157500Y-102580000D03*
%TD*%
D16*
%TO.P,TP8,1,1*%
%TO.N,/DOUT_3*%
X82620000Y-57080000D03*
%TD*%
D11*
%TO.P,SW8,1,1*%
%TO.N,/Y07*%
X93120000Y-114080000D03*
%TO.P,SW8,2,2*%
%TO.N,+5V*%
X93120000Y-100080000D03*
%TD*%
D20*
%TO.P,C9,1*%
%TO.N,GND*%
X100157500Y-86580000D03*
%TO.P,C9,2*%
%TO.N,+5V*%
X98082500Y-86580000D03*
%TD*%
D13*
%TO.P,C15,1*%
%TO.N,GND*%
X111082500Y-53080000D03*
%TO.P,C15,2*%
%TO.N,+5V*%
X113157500Y-53080000D03*
%TD*%
D10*
%TO.P,D4,1,VDD*%
%TO.N,+5V*%
X170570000Y-133730000D03*
%TO.P,D4,2,DOUT*%
%TO.N,/DOUT_0*%
X170570000Y-130430000D03*
%TO.P,D4,3,VSS*%
%TO.N,GND*%
X165670000Y-130430000D03*
%TO.P,D4,4,DIN*%
%TO.N,Net-(D3-DOUT)*%
X165670000Y-133730000D03*
%TD*%
D16*
%TO.P,TP4,1,1*%
%TO.N,/DOUT_1*%
X82620000Y-107080000D03*
%TD*%
D19*
%TO.P,D5,1,VDD*%
%TO.N,+5V*%
X165670000Y-105430000D03*
%TO.P,D5,2,DOUT*%
%TO.N,Net-(D5-DOUT)*%
X165670000Y-108730000D03*
%TO.P,D5,3,VSS*%
%TO.N,GND*%
X170570000Y-108730000D03*
%TO.P,D5,4,DIN*%
%TO.N,Net-(D5-DIN)*%
X170570000Y-105430000D03*
%TD*%
D11*
%TO.P,SW12,1,1*%
%TO.N,/Y13*%
X168120000Y-75080000D03*
%TO.P,SW12,2,2*%
%TO.N,+5V*%
X168120000Y-89080000D03*
%TD*%
D14*
%TO.P,J12,1,Pin_1*%
%TO.N,GND*%
X176420000Y-98400000D03*
D15*
%TO.P,J12,2,Pin_2*%
X176420000Y-95860000D03*
%TO.P,J12,3,Pin_3*%
X176420000Y-93320000D03*
%TO.P,J12,4,Pin_4*%
X176420000Y-90780000D03*
%TD*%
D14*
%TO.P,J1,1,Pin_1*%
%TO.N,Net-(J1-Pin_1)*%
X155620000Y-112080000D03*
%TD*%
%TO.P,J2,1,Pin_1*%
%TO.N,Net-(J2-Pin_1)*%
X155620000Y-121080000D03*
D15*
%TO.P,J2,2,Pin_2*%
%TO.N,Net-(J2-Pin_2)*%
X155620000Y-118540000D03*
%TO.P,J2,3,Pin_3*%
%TO.N,Net-(J2-Pin_3)*%
X155620000Y-116000000D03*
%TD*%
D14*
%TO.P,J4,1,Pin_1*%
%TO.N,Net-(J4-Pin_1)*%
X155620000Y-71580000D03*
D15*
%TO.P,J4,2,Pin_2*%
%TO.N,Net-(J4-Pin_2)*%
X155620000Y-69040000D03*
%TO.P,J4,3,Pin_3*%
%TO.N,Net-(J4-Pin_3)*%
X155620000Y-66500000D03*
%TD*%
D14*
%TO.P,J3,1,Pin_1*%
%TO.N,Net-(J3-Pin_1)*%
X155620000Y-62580000D03*
%TD*%
D21*
%TO.N,GND*%
X119434293Y-57564293D03*
X111120000Y-54580000D03*
X109800000Y-54500000D03*
X121414293Y-57584293D03*
X121414293Y-59584293D03*
X119414293Y-59584293D03*
X141500000Y-129500000D03*
X151800000Y-135700000D03*
X146500000Y-110000000D03*
X158120000Y-102580000D03*
D22*
X109120000Y-138580000D03*
D21*
X117000000Y-79500000D03*
D23*
X100120000Y-135080000D03*
D21*
X121500000Y-109500000D03*
X165020000Y-79480000D03*
X127120000Y-63080000D03*
X126800000Y-85400000D03*
X141785000Y-79285000D03*
X115020000Y-79480000D03*
X109120000Y-50580000D03*
X159420000Y-57280000D03*
X146345000Y-57785000D03*
X151600000Y-85400000D03*
X94753553Y-60487868D03*
X144520000Y-107980000D03*
X84800000Y-51500000D03*
X86120000Y-104080000D03*
X84800000Y-103600000D03*
X141500000Y-131000000D03*
X159600000Y-101500000D03*
X150120000Y-135080000D03*
X139620000Y-129380000D03*
X94520000Y-107980000D03*
X160000000Y-56200000D03*
X108120000Y-102580000D03*
X171215000Y-57855000D03*
X91500000Y-131000000D03*
X119500000Y-109500000D03*
X144365000Y-57765000D03*
X114500000Y-131500000D03*
X176800000Y-137900000D03*
X166500000Y-129000000D03*
X96753553Y-58487868D03*
X116500000Y-131500000D03*
X164520000Y-128980000D03*
D23*
X127620000Y-136580000D03*
D21*
X119520000Y-107480000D03*
X146500000Y-108000000D03*
D23*
X89520000Y-129480000D03*
D21*
X177620000Y-136580000D03*
X101500000Y-135300000D03*
X109100000Y-101300000D03*
X176600000Y-85500000D03*
X135620000Y-78580000D03*
X139500000Y-131000000D03*
X115000000Y-81500000D03*
D23*
X114940588Y-129559412D03*
D21*
X117000000Y-81500000D03*
X165000000Y-81500000D03*
X94000000Y-58000000D03*
X167000000Y-81500000D03*
X96753553Y-60487868D03*
X127120000Y-113080000D03*
X102100000Y-85300000D03*
X169235000Y-57835000D03*
X134520000Y-57330000D03*
X116500000Y-129500000D03*
X89500000Y-131000000D03*
X133120000Y-102580000D03*
X167000000Y-79500000D03*
X177620000Y-86580000D03*
X152620000Y-86580000D03*
X139805000Y-79265000D03*
X94500000Y-110000000D03*
X96500000Y-110000000D03*
X171215000Y-59855000D03*
X169415000Y-109585000D03*
X171415000Y-109585000D03*
X91830000Y-79170000D03*
X121500000Y-107500000D03*
X135000000Y-56000000D03*
X91830000Y-81170000D03*
X141785000Y-81285000D03*
X164500000Y-131000000D03*
X169215000Y-59855000D03*
X143700000Y-59400000D03*
X89850000Y-79150000D03*
X127620000Y-86580000D03*
X89830000Y-81170000D03*
X147000000Y-59600000D03*
X103120000Y-86580000D03*
X126700000Y-135700000D03*
X169435000Y-107565000D03*
X84120000Y-52580000D03*
X91500000Y-129500000D03*
X144000000Y-109600000D03*
X96500000Y-108000000D03*
X171415000Y-107585000D03*
X135620000Y-129080000D03*
X166500000Y-131000000D03*
X139785000Y-81285000D03*
X134300000Y-101300000D03*
%TO.N,+5V*%
X138620000Y-125080000D03*
X145750629Y-137491478D03*
X89120000Y-99580000D03*
D23*
X171785417Y-88416667D03*
D21*
X115120000Y-139080000D03*
X90000000Y-101000000D03*
X165250000Y-101250000D03*
X115092500Y-100768795D03*
D23*
X146870629Y-138571478D03*
D21*
X139041250Y-99501250D03*
X164120000Y-139080000D03*
X114620000Y-50080000D03*
X122620000Y-50080000D03*
X115200000Y-52400000D03*
X164620000Y-89080000D03*
X89620000Y-50080000D03*
X173498750Y-88670000D03*
X139242500Y-53448750D03*
X140171250Y-100671250D03*
X111842500Y-99518795D03*
X98500000Y-88500000D03*
X89120000Y-89080000D03*
X173917500Y-138810000D03*
X96000000Y-87000000D03*
X139620000Y-139080000D03*
X123393750Y-88651250D03*
X90400000Y-52200000D03*
X136842500Y-55048750D03*
X148393750Y-88456250D03*
X148750629Y-138991478D03*
X121000000Y-137000000D03*
X114620000Y-89080000D03*
X170998750Y-87170000D03*
D23*
X96786667Y-138246667D03*
D21*
X113962500Y-99598795D03*
D22*
X104120000Y-138580000D03*
D21*
X161800000Y-55200000D03*
X136921250Y-99421250D03*
X162400000Y-54000000D03*
X120893750Y-87151250D03*
D23*
X146680417Y-88202917D03*
D21*
X164120000Y-100080000D03*
X122120000Y-100080000D03*
X145893750Y-86956250D03*
D23*
X122120000Y-138080000D03*
D21*
X97620000Y-50080000D03*
X112200000Y-50600000D03*
D23*
X96786667Y-88246667D03*
D21*
X147120000Y-100080000D03*
X138620000Y-74580000D03*
X87500000Y-100500000D03*
X90120000Y-139080000D03*
X164200000Y-53600000D03*
X139620000Y-89080000D03*
D23*
X121680417Y-88397917D03*
D21*
X104120000Y-50580000D03*
X124000000Y-138500000D03*
X172620000Y-100080000D03*
X87400000Y-50000000D03*
X97620000Y-100080000D03*
X137442500Y-53848750D03*
X96000000Y-137000000D03*
X147620000Y-50080000D03*
X170917500Y-137310000D03*
X172620000Y-50080000D03*
X98500000Y-138500000D03*
X162000000Y-100000000D03*
D23*
X172037500Y-138390000D03*
%TO.N,Net-(J1-Pin_1)*%
X121620000Y-112580000D03*
X121620000Y-116080000D03*
%TO.N,Net-(J3-Pin_1)*%
X122620000Y-67080000D03*
X122620000Y-63580000D03*
%TO.N,/Y04*%
X125120000Y-123580000D03*
X124120000Y-115080000D03*
%TO.N,/Y14*%
X125620000Y-73580000D03*
X125120000Y-65580000D03*
%TD*%
D24*
%TO.N,GND*%
X166155000Y-80645000D02*
X166155000Y-80945000D01*
D25*
X127620000Y-86580000D02*
X125157500Y-86580000D01*
X150120000Y-135080000D02*
X150157500Y-136580000D01*
X164520000Y-128980000D02*
X165670000Y-130130000D01*
X175520000Y-86580000D02*
X176600000Y-85500000D01*
X120584293Y-59014293D02*
X120584293Y-58414293D01*
X166170000Y-80330000D02*
X167000000Y-79500000D01*
X115670000Y-130430000D02*
X115670000Y-130670000D01*
X169785000Y-59285000D02*
X169215000Y-59855000D01*
X150157500Y-136580000D02*
X150920000Y-136580000D01*
X120584293Y-59014293D02*
X120844293Y-59014293D01*
X165070000Y-130430000D02*
X164500000Y-131000000D01*
X140930000Y-130430000D02*
X141500000Y-131000000D01*
X111082500Y-53080000D02*
X111082500Y-53217500D01*
X89850000Y-79150000D02*
X91000000Y-80300000D01*
X175480000Y-136580000D02*
X176800000Y-137900000D01*
X165670000Y-130430000D02*
X165070000Y-130430000D01*
X145670000Y-108830000D02*
X146500000Y-108000000D01*
X125157500Y-136580000D02*
X125820000Y-136580000D01*
X90670000Y-130330000D02*
X91500000Y-129500000D01*
D24*
X170370000Y-59000000D02*
X170370000Y-59300000D01*
D25*
X90670000Y-130430000D02*
X90070000Y-130430000D01*
X94000000Y-58000000D02*
X95923553Y-59617868D01*
X95670000Y-109430000D02*
X95930000Y-109430000D01*
X95070000Y-109430000D02*
X94500000Y-110000000D01*
X95670000Y-109430000D02*
X95070000Y-109430000D01*
X140070000Y-130430000D02*
X139500000Y-131000000D01*
X161282500Y-57280000D02*
X159420000Y-57280000D01*
D26*
X109120000Y-142080000D02*
X109120000Y-138580000D01*
D24*
X120569293Y-58729293D02*
X120569293Y-59029293D01*
X145655000Y-109145000D02*
X145655000Y-109445000D01*
D25*
X90070000Y-130430000D02*
X89500000Y-131000000D01*
X141215000Y-80715000D02*
X141785000Y-81285000D01*
X91000000Y-80600000D02*
X90400000Y-80600000D01*
X111082500Y-102580000D02*
X110380000Y-102580000D01*
X145670000Y-109430000D02*
X145930000Y-109430000D01*
X120930000Y-108930000D02*
X121500000Y-109500000D01*
X152620000Y-86580000D02*
X150157500Y-86580000D01*
X95923553Y-59317868D02*
X96753553Y-58487868D01*
X165670000Y-129830000D02*
X166500000Y-129000000D01*
X100220000Y-136580000D02*
X101500000Y-135300000D01*
D24*
X95655000Y-109145000D02*
X95655000Y-109445000D01*
D25*
X140670000Y-130430000D02*
X140070000Y-130430000D01*
D24*
X134570000Y-57280000D02*
X134520000Y-57330000D01*
D25*
X150920000Y-136580000D02*
X151800000Y-135700000D01*
X145670000Y-109430000D02*
X145670000Y-108830000D01*
X115670000Y-130430000D02*
X115670000Y-130330000D01*
X115570000Y-80930000D02*
X115000000Y-81500000D01*
X115020000Y-79480000D02*
X116170000Y-80630000D01*
X175157500Y-86580000D02*
X175520000Y-86580000D01*
X158120000Y-102580000D02*
X161082500Y-102580000D01*
X147000000Y-59600000D02*
X145775000Y-59215000D01*
X170385000Y-59285000D02*
X170385000Y-58685000D01*
D24*
X116155000Y-80645000D02*
X116155000Y-80945000D01*
D25*
X111082500Y-53217500D02*
X109800000Y-54500000D01*
X170385000Y-59285000D02*
X169785000Y-59285000D01*
D24*
X95908553Y-59632868D02*
X95908553Y-59932868D01*
D27*
X125157500Y-136580000D02*
X127620000Y-136580000D01*
D25*
X95930000Y-109430000D02*
X96500000Y-110000000D01*
X91000000Y-80600000D02*
X91260000Y-80600000D01*
X140355000Y-80715000D02*
X139785000Y-81285000D01*
X120670000Y-108930000D02*
X120930000Y-108930000D01*
X115670000Y-130430000D02*
X115570000Y-130430000D01*
X175157500Y-136580000D02*
X175480000Y-136580000D01*
X120584293Y-58414293D02*
X121414293Y-57584293D01*
X119434293Y-57564293D02*
X120584293Y-58714293D01*
X170645000Y-59285000D02*
X171215000Y-59855000D01*
X139620000Y-129380000D02*
X140670000Y-130430000D01*
X140670000Y-130430000D02*
X140670000Y-130330000D01*
X100157500Y-136580000D02*
X100220000Y-136580000D01*
X170385000Y-59285000D02*
X170645000Y-59285000D01*
D27*
X86082500Y-52580000D02*
X84120000Y-52580000D01*
D25*
X125820000Y-136580000D02*
X126700000Y-135700000D01*
D28*
X90470000Y-130430000D02*
X90670000Y-130430000D01*
D25*
X145515000Y-58615000D02*
X146345000Y-57785000D01*
X103120000Y-86580000D02*
X100157500Y-86580000D01*
X140955000Y-80115000D02*
X141785000Y-79285000D01*
X170585000Y-109015000D02*
X169985000Y-109015000D01*
D24*
X170570000Y-108730000D02*
X170570000Y-109030000D01*
D25*
X86082500Y-102317500D02*
X84800000Y-103600000D01*
X116170000Y-80330000D02*
X117000000Y-79500000D01*
X115670000Y-130670000D02*
X116500000Y-131500000D01*
X90670000Y-130430000D02*
X90930000Y-130430000D01*
X116170000Y-80930000D02*
X116170000Y-80330000D01*
X114940588Y-129559412D02*
X115670000Y-130430000D01*
X115670000Y-130330000D02*
X116500000Y-129500000D01*
X120070000Y-108930000D02*
X119500000Y-109500000D01*
X160680000Y-102580000D02*
X159600000Y-101500000D01*
X165020000Y-79480000D02*
X166170000Y-80630000D01*
X96183553Y-59917868D02*
X96753553Y-60487868D01*
X170845000Y-109015000D02*
X171415000Y-109585000D01*
X144000000Y-109600000D02*
X145070000Y-109430000D01*
X145930000Y-109430000D02*
X146500000Y-110000000D01*
X165570000Y-80930000D02*
X165000000Y-81500000D01*
X95323553Y-59917868D02*
X94753553Y-60487868D01*
X150420000Y-86580000D02*
X151600000Y-85400000D01*
X95923553Y-59917868D02*
X95323553Y-59917868D01*
D27*
X100157500Y-136580000D02*
X100120000Y-135080000D01*
D25*
X161282500Y-57280000D02*
X161080000Y-57280000D01*
X100157500Y-86580000D02*
X100820000Y-86580000D01*
X144520000Y-107980000D02*
X145670000Y-109130000D01*
X119984293Y-59014293D02*
X119414293Y-59584293D01*
X143700000Y-59400000D02*
X144915000Y-59215000D01*
X177620000Y-86580000D02*
X175157500Y-86580000D01*
X85880000Y-52580000D02*
X84800000Y-51500000D01*
X119520000Y-107480000D02*
X120670000Y-108630000D01*
X116170000Y-80930000D02*
X116430000Y-80930000D01*
X133120000Y-102580000D02*
X136082500Y-102580000D01*
D26*
X109120000Y-47080000D02*
X109120000Y-50580000D01*
D25*
X170385000Y-58685000D02*
X171215000Y-57855000D01*
X150157500Y-86580000D02*
X150420000Y-86580000D01*
X136282500Y-57280000D02*
X136280000Y-57280000D01*
X120670000Y-108330000D02*
X121500000Y-107500000D01*
X165670000Y-130430000D02*
X165670000Y-129830000D01*
X140670000Y-130330000D02*
X141500000Y-129500000D01*
X110380000Y-102580000D02*
X109100000Y-101300000D01*
D24*
X120655000Y-108645000D02*
X120655000Y-108945000D01*
D25*
X136280000Y-57280000D02*
X135000000Y-56000000D01*
X116170000Y-80930000D02*
X115570000Y-80930000D01*
X166430000Y-80930000D02*
X167000000Y-81500000D01*
D24*
X90985000Y-80315000D02*
X90985000Y-80615000D01*
D25*
X139805000Y-79265000D02*
X140955000Y-80415000D01*
X169985000Y-109015000D02*
X169415000Y-109585000D01*
X86082500Y-52580000D02*
X85880000Y-52580000D01*
X140955000Y-80715000D02*
X140955000Y-80115000D01*
X145070000Y-109430000D02*
X145670000Y-109430000D01*
X120844293Y-59014293D02*
X121414293Y-59584293D01*
X100820000Y-86580000D02*
X102100000Y-85300000D01*
X91000000Y-80000000D02*
X91830000Y-79170000D01*
X145515000Y-59215000D02*
X145515000Y-58615000D01*
X145775000Y-59215000D02*
X145515000Y-59215000D01*
X144915000Y-59215000D02*
X145515000Y-59215000D01*
X115570000Y-130430000D02*
X114500000Y-131500000D01*
X90670000Y-130430000D02*
X90670000Y-130330000D01*
X166170000Y-80930000D02*
X165570000Y-80930000D01*
D24*
X111120000Y-53117500D02*
X111082500Y-53080000D01*
D25*
X140955000Y-80715000D02*
X141215000Y-80715000D01*
X95670000Y-109430000D02*
X95670000Y-108830000D01*
X165930000Y-130430000D02*
X166500000Y-131000000D01*
X120670000Y-108930000D02*
X120070000Y-108930000D01*
X120584293Y-59014293D02*
X119984293Y-59014293D01*
X91000000Y-80600000D02*
X91000000Y-80000000D01*
X125620000Y-86580000D02*
X126800000Y-85400000D01*
X136082500Y-102580000D02*
X135580000Y-102580000D01*
X94520000Y-107980000D02*
X95670000Y-109130000D01*
X86120000Y-104080000D02*
X86082500Y-102080000D01*
X140955000Y-80715000D02*
X140355000Y-80715000D01*
X90400000Y-80600000D02*
X89830000Y-81170000D01*
X108120000Y-102580000D02*
X111082500Y-102580000D01*
X177620000Y-136580000D02*
X175157500Y-136580000D01*
D27*
X89520000Y-129480000D02*
X90470000Y-130430000D01*
D25*
X170585000Y-109015000D02*
X170845000Y-109015000D01*
X169435000Y-107565000D02*
X170585000Y-108715000D01*
X170585000Y-109015000D02*
X170585000Y-108415000D01*
X161080000Y-57280000D02*
X160000000Y-56200000D01*
X91260000Y-80600000D02*
X91830000Y-81170000D01*
X170585000Y-108415000D02*
X171415000Y-107585000D01*
X140670000Y-130430000D02*
X140930000Y-130430000D01*
X166170000Y-80930000D02*
X166430000Y-80930000D01*
X166170000Y-80930000D02*
X166170000Y-80330000D01*
X95923553Y-59917868D02*
X95923553Y-59317868D01*
X95923553Y-59917868D02*
X96183553Y-59917868D01*
X86082500Y-102080000D02*
X86082500Y-102317500D01*
X111120000Y-54580000D02*
X111120000Y-53117500D01*
X90930000Y-130430000D02*
X91500000Y-131000000D01*
X116430000Y-80930000D02*
X117000000Y-81500000D01*
X169235000Y-57835000D02*
X170385000Y-58985000D01*
D24*
X140940000Y-80430000D02*
X140940000Y-80730000D01*
D25*
X95670000Y-108830000D02*
X96500000Y-108000000D01*
X165670000Y-130430000D02*
X165930000Y-130430000D01*
X125157500Y-86580000D02*
X125620000Y-86580000D01*
X144365000Y-57765000D02*
X145515000Y-58915000D01*
X135580000Y-102580000D02*
X134300000Y-101300000D01*
X136282500Y-57280000D02*
X134570000Y-57280000D01*
D24*
X145500000Y-58930000D02*
X145500000Y-59230000D01*
D25*
X161082500Y-102580000D02*
X160680000Y-102580000D01*
X120670000Y-108930000D02*
X120670000Y-108330000D01*
%TO.N,+5V*%
X138400000Y-57128750D02*
X138400000Y-56606250D01*
X140670000Y-105092500D02*
X138157500Y-102580000D01*
X113762500Y-102098795D02*
X115092500Y-100768795D01*
X122976250Y-86731250D02*
X121313750Y-86731250D01*
D24*
X138862500Y-57128750D02*
X138400000Y-57128750D01*
D25*
X88157500Y-102080000D02*
X88920000Y-102080000D01*
X173081250Y-86750000D02*
X173081250Y-88252500D01*
D27*
X90670000Y-55430000D02*
X88157500Y-52917500D01*
D25*
X147013750Y-87536250D02*
X147976250Y-86573750D01*
D26*
X104120000Y-47080000D02*
X104120000Y-50580000D01*
D25*
X173000000Y-137427500D02*
X172037500Y-138390000D01*
X138400000Y-54806250D02*
X138400000Y-54291250D01*
X123082500Y-137117500D02*
X122120000Y-138080000D01*
X138078750Y-100578750D02*
X136921250Y-99421250D01*
X113000000Y-102098795D02*
X113000000Y-100676295D01*
X115507500Y-55430000D02*
X113157500Y-53080000D01*
X88157500Y-52580000D02*
X88157500Y-50757500D01*
X90670000Y-105430000D02*
X88157500Y-102917500D01*
D24*
X115670000Y-105430000D02*
X115670000Y-105092500D01*
D25*
X138400000Y-57128750D02*
X138400000Y-54806250D01*
X97120000Y-137580000D02*
X98082500Y-136617500D01*
X146680417Y-88202917D02*
X147013750Y-87536250D01*
D24*
X170570000Y-133730000D02*
X170570000Y-134067500D01*
D25*
X147976250Y-88038750D02*
X148393750Y-88456250D01*
D28*
X147976250Y-86198750D02*
X147976250Y-86536250D01*
D25*
X113000000Y-100676295D02*
X111842500Y-99518795D01*
X147833129Y-137608978D02*
X146870629Y-138571478D01*
D24*
X163157500Y-101542500D02*
X163157500Y-102580000D01*
X95570000Y-83730000D02*
X95570000Y-84067500D01*
X140670000Y-105430000D02*
X140670000Y-105092500D01*
X115670000Y-55430000D02*
X115507500Y-55430000D01*
D28*
X98082500Y-136242500D02*
X98082500Y-136580000D01*
D25*
X138400000Y-54291250D02*
X139242500Y-53448750D01*
X115670000Y-105092500D02*
X113157500Y-102580000D01*
X98082500Y-86580000D02*
X96420000Y-86580000D01*
X170570000Y-134067500D02*
X173082500Y-136580000D01*
D24*
X163820000Y-57280000D02*
X163357500Y-57280000D01*
D25*
X163357500Y-54957500D02*
X163357500Y-54442500D01*
X171785417Y-88416667D02*
X172118750Y-87750000D01*
X163157500Y-101157500D02*
X162000000Y-100000000D01*
X88920000Y-102080000D02*
X90000000Y-101000000D01*
D24*
X115670000Y-55430000D02*
X115670000Y-55092500D01*
X120570000Y-83730000D02*
X120570000Y-84067500D01*
D25*
X173081250Y-86750000D02*
X171418750Y-86750000D01*
X163357500Y-56757500D02*
X161800000Y-55200000D01*
X98082500Y-136580000D02*
X98082500Y-138082500D01*
X140670000Y-55430000D02*
X138820000Y-57280000D01*
X114520000Y-53080000D02*
X115200000Y-52400000D01*
D28*
X98082500Y-86617500D02*
X98082500Y-86580000D01*
X173081250Y-86787500D02*
X173081250Y-86750000D01*
D25*
X163157500Y-102580000D02*
X163157500Y-101157500D01*
X113157500Y-53080000D02*
X114520000Y-53080000D01*
X138841250Y-102001250D02*
X140171250Y-100671250D01*
X138078750Y-102001250D02*
X138841250Y-102001250D01*
D28*
X88157500Y-52580000D02*
X88157500Y-52042500D01*
D25*
X173000000Y-136890000D02*
X173000000Y-137892500D01*
D28*
X147976250Y-86573750D02*
X147976250Y-86536250D01*
D25*
X96786667Y-88246667D02*
X97120000Y-87580000D01*
X171337500Y-136890000D02*
X170917500Y-137310000D01*
D28*
X88157500Y-52917500D02*
X88157500Y-52580000D01*
D25*
X98082500Y-86580000D02*
X98082500Y-88082500D01*
X145570000Y-134067500D02*
X148082500Y-136580000D01*
X146313750Y-86536250D02*
X145893750Y-86956250D01*
X165670000Y-55430000D02*
X163820000Y-57280000D01*
X120570000Y-84067500D02*
X123082500Y-86580000D01*
X147833129Y-138073978D02*
X148750629Y-138991478D01*
X122976250Y-86731250D02*
X122976250Y-88233750D01*
X173081250Y-88252500D02*
X173498750Y-88670000D01*
D24*
X173082500Y-137117500D02*
X173082500Y-136580000D01*
X120570000Y-133730000D02*
X120570000Y-134067500D01*
D25*
X121313750Y-86731250D02*
X120893750Y-87151250D01*
D24*
X165670000Y-105430000D02*
X165670000Y-105092500D01*
D27*
X95570000Y-133730000D02*
X98082500Y-136242500D01*
D24*
X123082500Y-136580000D02*
X123082500Y-137117500D01*
D25*
X163357500Y-54957500D02*
X162400000Y-54000000D01*
X138078750Y-102001250D02*
X138078750Y-100578750D01*
D24*
X88157500Y-102917500D02*
X88157500Y-102080000D01*
D25*
X138400000Y-54806250D02*
X137442500Y-53848750D01*
D24*
X145570000Y-133730000D02*
X145570000Y-134067500D01*
D25*
X97120000Y-87580000D02*
X98082500Y-86617500D01*
X120570000Y-134067500D02*
X123082500Y-136580000D01*
X145570000Y-84067500D02*
X148082500Y-86580000D01*
D28*
X98082500Y-86242500D02*
X98082500Y-86580000D01*
D24*
X170570000Y-83730000D02*
X170570000Y-84067500D01*
D25*
X98082500Y-88082500D02*
X98500000Y-88500000D01*
X173000000Y-137892500D02*
X173917500Y-138810000D01*
X113157500Y-53080000D02*
X113157500Y-51557500D01*
X88157500Y-50757500D02*
X87400000Y-50000000D01*
X163357500Y-57280000D02*
X163357500Y-56757500D01*
X164120000Y-100080000D02*
X163157500Y-101542500D01*
X170570000Y-84067500D02*
X173082500Y-86580000D01*
X163920000Y-102580000D02*
X165250000Y-101250000D01*
X98082500Y-136580000D02*
X96420000Y-136580000D01*
X123082500Y-136580000D02*
X121420000Y-136580000D01*
D28*
X122976250Y-86393750D02*
X122976250Y-86731250D01*
D25*
X113157500Y-51557500D02*
X112200000Y-50600000D01*
X96420000Y-86580000D02*
X96000000Y-87000000D01*
D24*
X145570000Y-83730000D02*
X145570000Y-84067500D01*
D25*
X163157500Y-102580000D02*
X163920000Y-102580000D01*
X123082500Y-136580000D02*
X123082500Y-137582500D01*
X113962500Y-99598795D02*
X113000000Y-101061295D01*
D24*
X147833129Y-137071478D02*
X147833129Y-137608978D01*
D25*
X90020000Y-52580000D02*
X90400000Y-52200000D01*
D24*
X113000000Y-101061295D02*
X113000000Y-102098795D01*
D25*
X147976250Y-86536250D02*
X146313750Y-86536250D01*
X88157500Y-102080000D02*
X88157500Y-101157500D01*
X172118750Y-87750000D02*
X173081250Y-86787500D01*
X123082500Y-137582500D02*
X124000000Y-138500000D01*
D24*
X138078750Y-100963750D02*
X138078750Y-102001250D01*
D25*
X171418750Y-86750000D02*
X170998750Y-87170000D01*
X147833129Y-137071478D02*
X147833129Y-138073978D01*
D28*
X98082500Y-136617500D02*
X98082500Y-136580000D01*
D25*
X147833129Y-137071478D02*
X146170629Y-137071478D01*
X88157500Y-52580000D02*
X90020000Y-52580000D01*
X163357500Y-54442500D02*
X164200000Y-53600000D01*
D24*
X114620000Y-50580000D02*
X114620000Y-50080000D01*
D27*
X89620000Y-50580000D02*
X89620000Y-50080000D01*
D25*
X138400000Y-56606250D02*
X136842500Y-55048750D01*
X88157500Y-101157500D02*
X87500000Y-100500000D01*
X121680417Y-88397917D02*
X122013750Y-87731250D01*
X173000000Y-136890000D02*
X171337500Y-136890000D01*
X121420000Y-136580000D02*
X121000000Y-137000000D01*
X147976250Y-86536250D02*
X147976250Y-88038750D01*
X163357500Y-57280000D02*
X163357500Y-54957500D01*
D26*
X104120000Y-138580000D02*
X104120000Y-142080000D01*
D25*
X114620000Y-50580000D02*
X113157500Y-52042500D01*
D24*
X173000000Y-136890000D02*
X173000000Y-137427500D01*
D25*
X113000000Y-102098795D02*
X113762500Y-102098795D01*
X165670000Y-105092500D02*
X163157500Y-102580000D01*
X122013750Y-87731250D02*
X122976250Y-86768750D01*
D24*
X113157500Y-101542500D02*
X113157500Y-102580000D01*
D28*
X122976250Y-86768750D02*
X122976250Y-86731250D01*
D27*
X88157500Y-52042500D02*
X89620000Y-50580000D01*
D25*
X122976250Y-88233750D02*
X123393750Y-88651250D01*
D28*
X173081250Y-86412500D02*
X173081250Y-86750000D01*
D24*
X113157500Y-52042500D02*
X113157500Y-53080000D01*
D25*
X146170629Y-137071478D02*
X145750629Y-137491478D01*
X98082500Y-138082500D02*
X98500000Y-138500000D01*
X96420000Y-136580000D02*
X96000000Y-137000000D01*
X95570000Y-84067500D02*
X98082500Y-86580000D01*
X96786667Y-138246667D02*
X97120000Y-137580000D01*
X139041250Y-99501250D02*
X138078750Y-100963750D01*
X89120000Y-99580000D02*
X88157500Y-101542500D01*
D28*
%TO.N,Net-(D1-DIN)*%
X87120000Y-131080000D02*
X88020000Y-131080000D01*
X88020000Y-131080000D02*
X90670000Y-133730000D01*
D24*
%TO.N,Net-(D1-DOUT)*%
X95570000Y-130430000D02*
X110970000Y-130430000D01*
X114270000Y-133730000D02*
X115670000Y-133730000D01*
X110970000Y-130430000D02*
X114270000Y-133730000D01*
%TO.N,Net-(D2-DOUT)*%
X120570000Y-130430000D02*
X137370000Y-130430000D01*
X137370000Y-130430000D02*
X140670000Y-133730000D01*
%TO.N,Net-(D3-DOUT)*%
X162370000Y-130430000D02*
X165670000Y-133730000D01*
X145570000Y-130430000D02*
X162370000Y-130430000D01*
%TO.N,Net-(D5-DOUT)*%
X148870000Y-108730000D02*
X145570000Y-105430000D01*
X165670000Y-108730000D02*
X148870000Y-108730000D01*
%TO.N,Net-(D5-DIN)*%
X173470000Y-105430000D02*
X174120000Y-106080000D01*
X170570000Y-105430000D02*
X173470000Y-105430000D01*
%TO.N,Net-(D6-DOUT)*%
X140670000Y-108730000D02*
X137370000Y-105430000D01*
X137370000Y-105430000D02*
X120570000Y-105430000D01*
%TO.N,Net-(D7-DOUT)*%
X98870000Y-108730000D02*
X95570000Y-105430000D01*
X115670000Y-108730000D02*
X98870000Y-108730000D01*
%TO.N,Net-(D10-DIN)*%
X112370000Y-80430000D02*
X115670000Y-83730000D01*
X95570000Y-80430000D02*
X112370000Y-80430000D01*
%TO.N,Net-(D9-DIN)*%
X87120000Y-81080000D02*
X88020000Y-81080000D01*
X88020000Y-81080000D02*
X90670000Y-83730000D01*
%TO.N,Net-(D10-DOUT)*%
X137370000Y-80430000D02*
X140670000Y-83730000D01*
X120570000Y-80430000D02*
X137370000Y-80430000D01*
%TO.N,Net-(D11-DOUT)*%
X162370000Y-80430000D02*
X165670000Y-83730000D01*
X145570000Y-80430000D02*
X162370000Y-80430000D01*
%TO.N,Net-(D13-DIN)*%
X174120000Y-56080000D02*
X171220000Y-56080000D01*
X171220000Y-56080000D02*
X170570000Y-55430000D01*
%TO.N,Net-(J1-Pin_1)*%
X121620000Y-116080000D02*
X121620000Y-112580000D01*
%TO.N,Net-(J3-Pin_1)*%
X122620000Y-67080000D02*
X122620000Y-63580000D01*
%TO.N,/Y04*%
X124120000Y-122580000D02*
X125120000Y-123580000D01*
X124120000Y-115080000D02*
X124120000Y-122580000D01*
%TO.N,/Y14*%
X125120000Y-73080000D02*
X125620000Y-73580000D01*
X125120000Y-65580000D02*
X125120000Y-73080000D01*
D27*
%TO.N,/DOUT_0*%
X172470000Y-130430000D02*
X174120000Y-132080000D01*
X170570000Y-130430000D02*
X172470000Y-130430000D01*
X174120000Y-132080000D02*
X178620000Y-132080000D01*
D24*
X174620000Y-128280000D02*
X174620000Y-120230000D01*
X172470000Y-130430000D02*
X174620000Y-128280000D01*
D27*
%TO.N,/DOUT_2*%
X172220000Y-82080000D02*
X170570000Y-80430000D01*
D24*
X169620000Y-70230000D02*
X174620000Y-75230000D01*
X174620000Y-75230000D02*
X174620000Y-82080000D01*
D27*
X174620000Y-82080000D02*
X172220000Y-82080000D01*
X178620000Y-82080000D02*
X174620000Y-82080000D01*
D24*
%TO.N,/DOUT_1*%
X85770000Y-100580000D02*
X85120000Y-100580000D01*
X85120000Y-100580000D02*
X84620000Y-101080000D01*
X82620000Y-105080000D02*
X82620000Y-107080000D01*
X84620000Y-101080000D02*
X82600000Y-102200000D01*
X91120000Y-95230000D02*
X85770000Y-100580000D01*
D27*
X90670000Y-108730000D02*
X84270000Y-108730000D01*
D24*
X81620000Y-107080000D02*
X81620000Y-106080000D01*
X82620000Y-107080000D02*
X82620000Y-106080000D01*
X82600000Y-102200000D02*
X82620000Y-105080000D01*
D27*
X84270000Y-108730000D02*
X82620000Y-107080000D01*
D24*
%TO.N,/DOUT_3*%
X82620000Y-57080000D02*
X82620000Y-48580000D01*
D27*
X82620000Y-57080000D02*
X83270000Y-58730000D01*
D24*
X82620000Y-48580000D02*
X84120707Y-47079293D01*
D27*
X83270000Y-58730000D02*
X90670000Y-58730000D01*
D24*
X84120707Y-47079293D02*
X84120707Y-46879293D01*
D27*
%TO.N,/DIN_0*%
X85120000Y-134580000D02*
X82620000Y-132080000D01*
X86620000Y-133080000D02*
X85120000Y-134580000D01*
D24*
X84820029Y-134879971D02*
X84820029Y-141930999D01*
X86620000Y-133080000D02*
X87120000Y-133080000D01*
X85120000Y-134580000D02*
X84820029Y-134879971D01*
D27*
%TO.N,/DIN_1*%
X178620000Y-107080000D02*
X177620000Y-108080000D01*
D24*
X174120000Y-118430000D02*
X174620000Y-118930000D01*
D27*
X177620000Y-108080000D02*
X174120000Y-108080000D01*
D24*
X174120000Y-111080000D02*
X174120000Y-118430000D01*
X174120000Y-108080000D02*
X174120000Y-111080000D01*
%TO.N,/DIN_3*%
X176120000Y-60580000D02*
X176120000Y-58080000D01*
D27*
X174120000Y-58080000D02*
X176120000Y-58080000D01*
D24*
X174620000Y-62080000D02*
X176120000Y-60580000D01*
X174620000Y-63930000D02*
X174620000Y-62080000D01*
X169620000Y-68930000D02*
X174620000Y-63930000D01*
D27*
X176120000Y-58080000D02*
X177620000Y-58080000D01*
X177620000Y-58080000D02*
X178620000Y-57080000D01*
%TO.N,/DIN_2*%
X82620000Y-82580000D02*
X85120000Y-85080000D01*
X86370000Y-83830000D02*
X87120000Y-83080000D01*
X82620000Y-82080000D02*
X82620000Y-82580000D01*
D24*
X91120000Y-93930000D02*
X91120000Y-92580000D01*
D27*
X85120000Y-85080000D02*
X86370000Y-83830000D01*
D24*
X91120000Y-92580000D02*
X90100000Y-91100000D01*
X90100000Y-87000000D02*
X86370000Y-83830000D01*
X90100000Y-91100000D02*
X90100000Y-87000000D01*
%TO.N,Net-(D13-DOUT)*%
X165670000Y-58730000D02*
X148870000Y-58730000D01*
X148870000Y-58730000D02*
X145570000Y-55430000D01*
%TO.N,Net-(D14-DOUT)*%
X140670000Y-58730000D02*
X123870000Y-58730000D01*
X123870000Y-58730000D02*
X120570000Y-55430000D01*
D28*
%TO.N,Net-(D15-DOUT)*%
X115670000Y-58730000D02*
X98870000Y-58730000D01*
X98870000Y-58730000D02*
X95570000Y-55430000D01*
%TD*%
%TA.AperFunction,Conductor*%
%TO.N,GND*%
G36*
X166394570Y-80686869D02*
G01*
X166409893Y-80692323D01*
X166416538Y-80698326D01*
X166417291Y-80706300D01*
X166357282Y-80936254D01*
X166351877Y-80943394D01*
X166345961Y-80945000D01*
X165955793Y-80945000D01*
X165954219Y-80944894D01*
X165491579Y-80882070D01*
X165483842Y-80877561D01*
X165481559Y-80868902D01*
X165482402Y-80865859D01*
X165665669Y-80439084D01*
X165672082Y-80432837D01*
X165680340Y-80432680D01*
X166394570Y-80686869D01*
G37*
%TD.AperFunction*%
%TD*%
%TA.AperFunction,Conductor*%
%TO.N,GND*%
G36*
X125720688Y-85993344D02*
G01*
X126322441Y-86078575D01*
X126330152Y-86083128D01*
X126332500Y-86090159D01*
X126332500Y-87069840D01*
X126329073Y-87078113D01*
X126322441Y-87081424D01*
X125720695Y-87166654D01*
X125712023Y-87164422D01*
X125710572Y-87163129D01*
X125164157Y-86588059D01*
X125160943Y-86579701D01*
X125164157Y-86571941D01*
X125621932Y-86090159D01*
X125710573Y-85996869D01*
X125718755Y-85993233D01*
X125720688Y-85993344D01*
G37*
%TD.AperFunction*%
%TD*%
%TA.AperFunction,Conductor*%
%TO.N,GND*%
G36*
X150622426Y-135258668D02*
G01*
X150625954Y-135265559D01*
X150730812Y-136031814D01*
X150728538Y-136040475D01*
X150727261Y-136041899D01*
X150164967Y-136573955D01*
X150156603Y-136577152D01*
X150149561Y-136574547D01*
X149574711Y-136108817D01*
X149570440Y-136100946D01*
X149570402Y-136098950D01*
X149574196Y-136041899D01*
X149624140Y-135290831D01*
X149628108Y-135282805D01*
X149635521Y-135279913D01*
X150614071Y-135255449D01*
X150622426Y-135258668D01*
G37*
%TD.AperFunction*%
%TD*%
%TA.AperFunction,Conductor*%
%TO.N,GND*%
G36*
X175812552Y-85591703D02*
G01*
X176504688Y-86283839D01*
X176508115Y-86292112D01*
X176504688Y-86300385D01*
X176503679Y-86301284D01*
X175751074Y-86897285D01*
X175742460Y-86899735D01*
X175738200Y-86898380D01*
X175163318Y-86584272D01*
X175157701Y-86577298D01*
X175157250Y-86573285D01*
X175175085Y-86283839D01*
X175201071Y-85862087D01*
X175205000Y-85854042D01*
X175207996Y-85852117D01*
X175799529Y-85589283D01*
X175808480Y-85589056D01*
X175812552Y-85591703D01*
G37*
%TD.AperFunction*%
%TD*%
%TA.AperFunction,Conductor*%
%TO.N,GND*%
G36*
X150854836Y-135934018D02*
G01*
X150860518Y-135937155D01*
X151553456Y-136630093D01*
X151556883Y-136638366D01*
X151553456Y-136646639D01*
X151550159Y-136648955D01*
X150751409Y-137024308D01*
X150742464Y-137024725D01*
X150739358Y-137023037D01*
X150165233Y-136587115D01*
X150160716Y-136579383D01*
X150162336Y-136571678D01*
X150586285Y-135881172D01*
X150593533Y-135875917D01*
X150598844Y-135875886D01*
X150854836Y-135934018D01*
G37*
%TD.AperFunction*%
%TD*%
%TA.AperFunction,Conductor*%
%TO.N,GND*%
G36*
X175751018Y-136273463D02*
G01*
X176504102Y-136898672D01*
X176508279Y-136906592D01*
X176505631Y-136915146D01*
X176504902Y-136915946D01*
X175812797Y-137608051D01*
X175804524Y-137611478D01*
X175799353Y-137610273D01*
X175561508Y-137493059D01*
X175186203Y-137308103D01*
X175180297Y-137301372D01*
X175179681Y-137297980D01*
X175157025Y-136586594D01*
X175160187Y-136578218D01*
X175163251Y-136575880D01*
X175738083Y-136272121D01*
X175746997Y-136271287D01*
X175751018Y-136273463D01*
G37*
%TD.AperFunction*%
%TD*%
%TA.AperFunction,Conductor*%
%TO.N,GND*%
G36*
X125824179Y-135863928D02*
G01*
X125832134Y-135867351D01*
X126524810Y-136560027D01*
X126528237Y-136568300D01*
X126524810Y-136576573D01*
X126522070Y-136578609D01*
X125751370Y-136992273D01*
X125742460Y-136993166D01*
X125739092Y-136991524D01*
X125164784Y-136586344D01*
X125160000Y-136578775D01*
X125160924Y-136571842D01*
X125162575Y-136568300D01*
X125491755Y-135861961D01*
X125498356Y-135855910D01*
X125502675Y-135855208D01*
X125824179Y-135863928D01*
G37*
%TD.AperFunction*%
%TD*%
%TA.AperFunction,Conductor*%
%TO.N,GND*%
G36*
X170576613Y-58738355D02*
G01*
X170767881Y-59008906D01*
X170861582Y-59141448D01*
X170880093Y-59167631D01*
X170882070Y-59176365D01*
X170877293Y-59183939D01*
X170874660Y-59185335D01*
X170571993Y-59299250D01*
X170567872Y-59300000D01*
X170173523Y-59300000D01*
X170167064Y-59298056D01*
X169959882Y-59160897D01*
X169954876Y-59153473D01*
X169956585Y-59144682D01*
X169959785Y-59141451D01*
X170560507Y-58735415D01*
X170569280Y-58733622D01*
X170576613Y-58738355D01*
G37*
%TD.AperFunction*%
%TD*%
%TA.AperFunction,Conductor*%
%TO.N,GND*%
G36*
X160727976Y-56695577D02*
G01*
X160729427Y-56696870D01*
X161275842Y-57271941D01*
X161279056Y-57280299D01*
X161275842Y-57288059D01*
X160729427Y-57863129D01*
X160721244Y-57866766D01*
X160719304Y-57866654D01*
X160117559Y-57781424D01*
X160109848Y-57776871D01*
X160107500Y-57769840D01*
X160107500Y-56790159D01*
X160110927Y-56781886D01*
X160117558Y-56778575D01*
X160719305Y-56693345D01*
X160727976Y-56695577D01*
G37*
%TD.AperFunction*%
%TD*%
%TA.AperFunction,Conductor*%
%TO.N,GND*%
G36*
X145578738Y-108736779D02*
G01*
X145578758Y-108736796D01*
X145823393Y-108954538D01*
X146068224Y-109172456D01*
X146072125Y-109180516D01*
X146069419Y-109188702D01*
X145858508Y-109440807D01*
X145850571Y-109444954D01*
X145849534Y-109445000D01*
X145459604Y-109445000D01*
X145451631Y-109441863D01*
X145178735Y-109187778D01*
X145175015Y-109179632D01*
X145177950Y-109171457D01*
X145562223Y-108737776D01*
X145570274Y-108733857D01*
X145578738Y-108736779D01*
G37*
%TD.AperFunction*%
%TD*%
%TA.AperFunction,Conductor*%
%TO.N,GND*%
G36*
X110745268Y-101858417D02*
G01*
X110748536Y-101862588D01*
X110763760Y-101895254D01*
X111079134Y-102571969D01*
X111079523Y-102580915D01*
X111075407Y-102586375D01*
X110500799Y-103003981D01*
X110492092Y-103006073D01*
X110488612Y-103004943D01*
X109706692Y-102606754D01*
X109700874Y-102599946D01*
X109701575Y-102591019D01*
X109703725Y-102588058D01*
X110396530Y-101895253D01*
X110403542Y-101891896D01*
X110736676Y-101855899D01*
X110745268Y-101858417D01*
G37*
%TD.AperFunction*%
%TD*%
%TA.AperFunction,Conductor*%
%TO.N,GND*%
G36*
X150720688Y-85993344D02*
G01*
X151322441Y-86078575D01*
X151330152Y-86083128D01*
X151332500Y-86090159D01*
X151332500Y-87069840D01*
X151329073Y-87078113D01*
X151322441Y-87081424D01*
X150720695Y-87166654D01*
X150712023Y-87164422D01*
X150710572Y-87163129D01*
X150164157Y-86588059D01*
X150160943Y-86579701D01*
X150164157Y-86571941D01*
X150621932Y-86090159D01*
X150710573Y-85996869D01*
X150718755Y-85993233D01*
X150720688Y-85993344D01*
G37*
%TD.AperFunction*%
%TD*%
%TA.AperFunction,Conductor*%
%TO.N,GND*%
G36*
X100805851Y-135301592D02*
G01*
X101497777Y-135993518D01*
X101501204Y-136001791D01*
X101498145Y-136009680D01*
X100750621Y-136828465D01*
X100742512Y-136832264D01*
X100737344Y-136831318D01*
X100467215Y-136714709D01*
X100162993Y-136583383D01*
X100156755Y-136576958D01*
X100156009Y-136573999D01*
X100072756Y-135861574D01*
X100075200Y-135852961D01*
X100077225Y-135850958D01*
X100790431Y-135300601D01*
X100799074Y-135298261D01*
X100805851Y-135301592D01*
G37*
%TD.AperFunction*%
%TD*%
%TA.AperFunction,Conductor*%
%TO.N,GND*%
G36*
X95578738Y-108736779D02*
G01*
X95578758Y-108736796D01*
X95823393Y-108954538D01*
X96068224Y-109172456D01*
X96072125Y-109180516D01*
X96069419Y-109188702D01*
X95858508Y-109440807D01*
X95850571Y-109444954D01*
X95849534Y-109445000D01*
X95459604Y-109445000D01*
X95451631Y-109441863D01*
X95178735Y-109187778D01*
X95175015Y-109179632D01*
X95177950Y-109171457D01*
X95562223Y-108737776D01*
X95570274Y-108733857D01*
X95578738Y-108736779D01*
G37*
%TD.AperFunction*%
%TD*%
%TA.AperFunction,Conductor*%
%TO.N,GND*%
G36*
X160527976Y-101995577D02*
G01*
X160529427Y-101996870D01*
X161075842Y-102571941D01*
X161079056Y-102580299D01*
X161075842Y-102588059D01*
X160529427Y-103163129D01*
X160521244Y-103166766D01*
X160519304Y-103166654D01*
X159917559Y-103081424D01*
X159909848Y-103076871D01*
X159907500Y-103069840D01*
X159907500Y-102090159D01*
X159910927Y-102081886D01*
X159917558Y-102078575D01*
X160519305Y-101993345D01*
X160527976Y-101995577D01*
G37*
%TD.AperFunction*%
%TD*%
%TA.AperFunction,Conductor*%
%TO.N,GND*%
G36*
X116394570Y-80686869D02*
G01*
X116409893Y-80692323D01*
X116416538Y-80698326D01*
X116417291Y-80706300D01*
X116357282Y-80936254D01*
X116351877Y-80943394D01*
X116345961Y-80945000D01*
X115955793Y-80945000D01*
X115954219Y-80944894D01*
X115491579Y-80882070D01*
X115483842Y-80877561D01*
X115481559Y-80868902D01*
X115482402Y-80865859D01*
X115665669Y-80439084D01*
X115672082Y-80432837D01*
X115680340Y-80432680D01*
X116394570Y-80686869D01*
G37*
%TD.AperFunction*%
%TD*%
%TA.AperFunction,Conductor*%
%TO.N,GND*%
G36*
X110503220Y-52863137D02*
G01*
X111077116Y-53077022D01*
X111083670Y-53083122D01*
X111084496Y-53085663D01*
X111228864Y-53798698D01*
X111227147Y-53807487D01*
X111225505Y-53809455D01*
X110514621Y-54492805D01*
X110506282Y-54496068D01*
X110498240Y-54492643D01*
X109806398Y-53800801D01*
X109802971Y-53792528D01*
X109805289Y-53785537D01*
X110489757Y-52867107D01*
X110497447Y-52862524D01*
X110503220Y-52863137D01*
G37*
%TD.AperFunction*%
%TD*%
%TA.AperFunction,Conductor*%
%TO.N,GND*%
G36*
X125721630Y-135994595D02*
G01*
X126324198Y-136177480D01*
X126331119Y-136183162D01*
X126332500Y-136188676D01*
X126332500Y-136971323D01*
X126329073Y-136979596D01*
X126324198Y-136982519D01*
X125721632Y-137165403D01*
X125712720Y-137164526D01*
X125709752Y-137162266D01*
X125164157Y-136588059D01*
X125160943Y-136579701D01*
X125164157Y-136571941D01*
X125528324Y-136188676D01*
X125709753Y-135997732D01*
X125717935Y-135994096D01*
X125721630Y-135994595D01*
G37*
%TD.AperFunction*%
%TD*%
%TA.AperFunction,Conductor*%
%TO.N,GND*%
G36*
X85527279Y-51995473D02*
G01*
X85530247Y-51997733D01*
X86075842Y-52571941D01*
X86079056Y-52580299D01*
X86075842Y-52588059D01*
X85530247Y-53162266D01*
X85522064Y-53165903D01*
X85518367Y-53165403D01*
X84915802Y-52982519D01*
X84908881Y-52976837D01*
X84907500Y-52971323D01*
X84907500Y-52188676D01*
X84910927Y-52180403D01*
X84915801Y-52177480D01*
X85518368Y-51994596D01*
X85527279Y-51995473D01*
G37*
%TD.AperFunction*%
%TD*%
%TA.AperFunction,Conductor*%
%TO.N,GND*%
G36*
X100720688Y-85993344D02*
G01*
X101322441Y-86078575D01*
X101330152Y-86083128D01*
X101332500Y-86090159D01*
X101332500Y-87069840D01*
X101329073Y-87078113D01*
X101322441Y-87081424D01*
X100720695Y-87166654D01*
X100712023Y-87164422D01*
X100710572Y-87163129D01*
X100164157Y-86588059D01*
X100160943Y-86579701D01*
X100164157Y-86571941D01*
X100621932Y-86090159D01*
X100710573Y-85996869D01*
X100718755Y-85993233D01*
X100720688Y-85993344D01*
G37*
%TD.AperFunction*%
%TD*%
%TA.AperFunction,Conductor*%
%TO.N,GND*%
G36*
X85503546Y-101879952D02*
G01*
X85597474Y-101912253D01*
X86077160Y-102077213D01*
X86083869Y-102083144D01*
X86084722Y-102085505D01*
X86258681Y-102798825D01*
X86257312Y-102807674D01*
X86255826Y-102809624D01*
X85574563Y-103532043D01*
X85566394Y-103535711D01*
X85558024Y-103532528D01*
X85557778Y-103532289D01*
X84865963Y-102840474D01*
X84862536Y-102832201D01*
X84864492Y-102825725D01*
X84882370Y-102798825D01*
X85489998Y-101884539D01*
X85497430Y-101879547D01*
X85503546Y-101879952D01*
G37*
%TD.AperFunction*%
%TD*%
%TA.AperFunction,Conductor*%
%TO.N,GND*%
G36*
X160440263Y-101628829D02*
G01*
X161008255Y-101852367D01*
X161014697Y-101858584D01*
X161015618Y-101862157D01*
X161082496Y-102573157D01*
X161079859Y-102581715D01*
X161076605Y-102584438D01*
X160501678Y-102909442D01*
X160492789Y-102910530D01*
X160488874Y-102908597D01*
X160059162Y-102584438D01*
X159736759Y-102341228D01*
X159732219Y-102333512D01*
X159734466Y-102324844D01*
X159735526Y-102323624D01*
X160427707Y-101631443D01*
X160435979Y-101628017D01*
X160440263Y-101628829D01*
G37*
%TD.AperFunction*%
%TD*%
%TA.AperFunction,Conductor*%
%TO.N,GND*%
G36*
X150813144Y-85492295D02*
G01*
X151505203Y-86184354D01*
X151508630Y-86192627D01*
X151505203Y-86200900D01*
X151504703Y-86201372D01*
X150750936Y-86871391D01*
X150742476Y-86874326D01*
X150737904Y-86873098D01*
X150163172Y-86583916D01*
X150157322Y-86577136D01*
X150156731Y-86573565D01*
X150150601Y-85861910D01*
X150153957Y-85853609D01*
X150156562Y-85851615D01*
X150799139Y-85490368D01*
X150808028Y-85489302D01*
X150813144Y-85492295D01*
G37*
%TD.AperFunction*%
%TD*%
%TA.AperFunction,Conductor*%
%TO.N,GND*%
G36*
X100523714Y-135261136D02*
G01*
X100526951Y-135266585D01*
X100724227Y-136002824D01*
X100723059Y-136011702D01*
X100721223Y-136014102D01*
X100164975Y-136573505D01*
X100156711Y-136576955D01*
X100149313Y-136574346D01*
X99575417Y-136109389D01*
X99571146Y-136101518D01*
X99571281Y-136098150D01*
X99723076Y-135286987D01*
X99727966Y-135279486D01*
X99734282Y-135277444D01*
X100515358Y-135257917D01*
X100523714Y-135261136D01*
G37*
%TD.AperFunction*%
%TD*%
%TA.AperFunction,Conductor*%
%TO.N,GND*%
G36*
X100824179Y-85863928D02*
G01*
X100832134Y-85867351D01*
X101524810Y-86560027D01*
X101528237Y-86568300D01*
X101524810Y-86576573D01*
X101522070Y-86578609D01*
X100751370Y-86992273D01*
X100742460Y-86993166D01*
X100739092Y-86991524D01*
X100164784Y-86586344D01*
X100160000Y-86578775D01*
X100160924Y-86571842D01*
X100162575Y-86568300D01*
X100491755Y-85861961D01*
X100498356Y-85855910D01*
X100502675Y-85855208D01*
X100824179Y-85863928D01*
G37*
%TD.AperFunction*%
%TD*%
%TA.AperFunction,Conductor*%
%TO.N,GND*%
G36*
X175720688Y-85993344D02*
G01*
X176322441Y-86078575D01*
X176330152Y-86083128D01*
X176332500Y-86090159D01*
X176332500Y-87069840D01*
X176329073Y-87078113D01*
X176322441Y-87081424D01*
X175720695Y-87166654D01*
X175712023Y-87164422D01*
X175710572Y-87163129D01*
X175164157Y-86588059D01*
X175160943Y-86579701D01*
X175164157Y-86571941D01*
X175621932Y-86090159D01*
X175710573Y-85996869D01*
X175718755Y-85993233D01*
X175720688Y-85993344D01*
G37*
%TD.AperFunction*%
%TD*%
%TA.AperFunction,Conductor*%
%TO.N,GND*%
G36*
X85441028Y-51430985D02*
G01*
X85848830Y-51687243D01*
X86110025Y-51851375D01*
X86115207Y-51858678D01*
X86115488Y-51861806D01*
X86083521Y-52573711D01*
X86079727Y-52581822D01*
X86076894Y-52583735D01*
X85502268Y-52859413D01*
X85493326Y-52859902D01*
X85489153Y-52857351D01*
X84734733Y-52141396D01*
X84731091Y-52133215D01*
X84734300Y-52124855D01*
X84734471Y-52124679D01*
X85426532Y-51432618D01*
X85434804Y-51429192D01*
X85441028Y-51430985D01*
G37*
%TD.AperFunction*%
%TD*%
%TA.AperFunction,Conductor*%
%TO.N,GND*%
G36*
X135527976Y-101995577D02*
G01*
X135529427Y-101996870D01*
X136075842Y-102571941D01*
X136079056Y-102580299D01*
X136075842Y-102588059D01*
X135529427Y-103163129D01*
X135521244Y-103166766D01*
X135519304Y-103166654D01*
X134917559Y-103081424D01*
X134909848Y-103076871D01*
X134907500Y-103069840D01*
X134907500Y-102090159D01*
X134910927Y-102081886D01*
X134917558Y-102078575D01*
X135519305Y-101993345D01*
X135527976Y-101995577D01*
G37*
%TD.AperFunction*%
%TD*%
%TA.AperFunction,Conductor*%
%TO.N,GND*%
G36*
X135659583Y-55951078D02*
G01*
X136382518Y-56550815D01*
X136386698Y-56558735D01*
X136386629Y-56561485D01*
X136284156Y-57274105D01*
X136279586Y-57281806D01*
X136277044Y-57283253D01*
X135702819Y-57520557D01*
X135693864Y-57520550D01*
X135689482Y-57517376D01*
X134951353Y-56659607D01*
X134948554Y-56651100D01*
X134951947Y-56643703D01*
X135643841Y-55951809D01*
X135652113Y-55948383D01*
X135659583Y-55951078D01*
G37*
%TD.AperFunction*%
%TD*%
%TA.AperFunction,Conductor*%
%TO.N,GND*%
G36*
X125809036Y-85688937D02*
G01*
X125811873Y-85691024D01*
X126504113Y-86383264D01*
X126507540Y-86391537D01*
X126504113Y-86399810D01*
X126502546Y-86401124D01*
X125751196Y-86926681D01*
X125742453Y-86928615D01*
X125738503Y-86927146D01*
X125163533Y-86584721D01*
X125158179Y-86577544D01*
X125157948Y-86572946D01*
X125263753Y-85862260D01*
X125268359Y-85854584D01*
X125271840Y-85852815D01*
X125800118Y-85688127D01*
X125809036Y-85688937D01*
G37*
%TD.AperFunction*%
%TD*%
%TA.AperFunction,Conductor*%
%TO.N,GND*%
G36*
X86090280Y-102085319D02*
G01*
X86516608Y-102430724D01*
X86665233Y-102551138D01*
X86669504Y-102559009D01*
X86669534Y-102561116D01*
X86607826Y-103372411D01*
X86603782Y-103380401D01*
X86596379Y-103383222D01*
X85617683Y-103401573D01*
X85609347Y-103398302D01*
X85605859Y-103391366D01*
X85505495Y-102609910D01*
X85507840Y-102601270D01*
X85509225Y-102599770D01*
X86075052Y-102085750D01*
X86083478Y-102082724D01*
X86090280Y-102085319D01*
G37*
%TD.AperFunction*%
%TD*%
%TA.AperFunction,Conductor*%
%TO.N,GND*%
G36*
X110527976Y-101995577D02*
G01*
X110529427Y-101996870D01*
X111075842Y-102571941D01*
X111079056Y-102580299D01*
X111075842Y-102588059D01*
X110529427Y-103163129D01*
X110521244Y-103166766D01*
X110519304Y-103166654D01*
X109917559Y-103081424D01*
X109909848Y-103076871D01*
X109907500Y-103069840D01*
X109907500Y-102090159D01*
X109910927Y-102081886D01*
X109917558Y-102078575D01*
X110519305Y-101993345D01*
X110527976Y-101995577D01*
G37*
%TD.AperFunction*%
%TD*%
%TA.AperFunction,Conductor*%
%TO.N,GND*%
G36*
X175720688Y-135993344D02*
G01*
X176322441Y-136078575D01*
X176330152Y-136083128D01*
X176332500Y-136090159D01*
X176332500Y-137069840D01*
X176329073Y-137078113D01*
X176322441Y-137081424D01*
X175720695Y-137166654D01*
X175712023Y-137164422D01*
X175710572Y-137163129D01*
X175164157Y-136588059D01*
X175160943Y-136579701D01*
X175164157Y-136571941D01*
X175621932Y-136090159D01*
X175710573Y-135996869D01*
X175718755Y-135993233D01*
X175720688Y-135993344D01*
G37*
%TD.AperFunction*%
%TD*%
%TA.AperFunction,Conductor*%
%TO.N,GND*%
G36*
X89992708Y-129384716D02*
G01*
X90765111Y-129936055D01*
X90788718Y-129952906D01*
X90819555Y-129974917D01*
X90824298Y-129982513D01*
X90823815Y-129988266D01*
X90673514Y-130422594D01*
X90667570Y-130429292D01*
X90662126Y-130430463D01*
X89924400Y-130409565D01*
X89916774Y-130406448D01*
X89457072Y-129980000D01*
X89427864Y-129952905D01*
X89424130Y-129944767D01*
X89427244Y-129936371D01*
X89427521Y-129936083D01*
X89977639Y-129385965D01*
X89985911Y-129382539D01*
X89992708Y-129384716D01*
G37*
%TD.AperFunction*%
%TD*%
%TA.AperFunction,Conductor*%
%TO.N,GND*%
G36*
X160641028Y-56130985D02*
G01*
X161048830Y-56387243D01*
X161310025Y-56551375D01*
X161315207Y-56558678D01*
X161315488Y-56561806D01*
X161283521Y-57273711D01*
X161279727Y-57281822D01*
X161276894Y-57283735D01*
X160702268Y-57559413D01*
X160693326Y-57559902D01*
X160689153Y-57557351D01*
X159934733Y-56841396D01*
X159931091Y-56833215D01*
X159934300Y-56824855D01*
X159934471Y-56824679D01*
X160626532Y-56132618D01*
X160634804Y-56129192D01*
X160641028Y-56130985D01*
G37*
%TD.AperFunction*%
%TD*%
%TA.AperFunction,Conductor*%
%TO.N,GND*%
G36*
X111090557Y-53085528D02*
G01*
X111551773Y-53459211D01*
X111665327Y-53551214D01*
X111669598Y-53559085D01*
X111669641Y-53561002D01*
X111620657Y-54381497D01*
X111616743Y-54389551D01*
X111608978Y-54392500D01*
X110630134Y-54392500D01*
X110621861Y-54389073D01*
X110618554Y-54382469D01*
X110511439Y-53639274D01*
X110513650Y-53630597D01*
X110514872Y-53629208D01*
X111075053Y-53086218D01*
X111083376Y-53082921D01*
X111090557Y-53085528D01*
G37*
%TD.AperFunction*%
%TD*%
%TA.AperFunction,Conductor*%
%TO.N,GND*%
G36*
X135439564Y-101727643D02*
G01*
X135451756Y-101730716D01*
X135937698Y-101853176D01*
X135944883Y-101858520D01*
X135946332Y-101862331D01*
X136081698Y-102572791D01*
X136079880Y-102581559D01*
X136076349Y-102584938D01*
X135501374Y-102939736D01*
X135492534Y-102941164D01*
X135488759Y-102939526D01*
X134954677Y-102584938D01*
X134737933Y-102441037D01*
X134732937Y-102433607D01*
X134734658Y-102424820D01*
X134736127Y-102423023D01*
X135428435Y-101730715D01*
X135436707Y-101727289D01*
X135439564Y-101727643D01*
G37*
%TD.AperFunction*%
%TD*%
%TA.AperFunction,Conductor*%
%TO.N,GND*%
G36*
X135727976Y-56695577D02*
G01*
X135729427Y-56696870D01*
X136275842Y-57271941D01*
X136279056Y-57280299D01*
X136275842Y-57288059D01*
X135729427Y-57863129D01*
X135721244Y-57866766D01*
X135719304Y-57866654D01*
X135117559Y-57781424D01*
X135109848Y-57776871D01*
X135107500Y-57769840D01*
X135107500Y-56790159D01*
X135110927Y-56781886D01*
X135117558Y-56778575D01*
X135719305Y-56693345D01*
X135727976Y-56695577D01*
G37*
%TD.AperFunction*%
%TD*%
%TA.AperFunction,Conductor*%
%TO.N,GND*%
G36*
X145577593Y-58737751D02*
G01*
X145948043Y-59164657D01*
X145950877Y-59173151D01*
X145946874Y-59181162D01*
X145941404Y-59183817D01*
X145701087Y-59229792D01*
X145698889Y-59230000D01*
X145301459Y-59230000D01*
X145298584Y-59229641D01*
X145076295Y-59173298D01*
X145069118Y-59167944D01*
X145067829Y-59159082D01*
X145071586Y-59153048D01*
X145561176Y-58736507D01*
X145569696Y-58733757D01*
X145577593Y-58737751D01*
G37*
%TD.AperFunction*%
%TD*%
%TA.AperFunction,Conductor*%
%TO.N,+5V*%
G36*
X138746128Y-102339891D02*
G01*
X138750513Y-102343073D01*
X139488250Y-103202479D01*
X139491038Y-103210989D01*
X139487645Y-103218373D01*
X138795755Y-103910263D01*
X138787482Y-103913690D01*
X138779999Y-103910984D01*
X138056685Y-103309189D01*
X138052517Y-103301263D01*
X138052589Y-103298517D01*
X138064201Y-103218373D01*
X138155837Y-102585888D01*
X138160415Y-102578193D01*
X138162950Y-102576752D01*
X138737174Y-102339878D01*
X138746128Y-102339891D01*
G37*
%TD.AperFunction*%
%TD*%
%TA.AperFunction,Conductor*%
%TO.N,+5V*%
G36*
X122506210Y-86065051D02*
G01*
X122508298Y-86066539D01*
X123075379Y-86572751D01*
X123079269Y-86580817D01*
X123076855Y-86588621D01*
X122580352Y-87232895D01*
X122572588Y-87237356D01*
X122570976Y-87237452D01*
X121919091Y-87231358D01*
X121910850Y-87227854D01*
X121907500Y-87219659D01*
X121907500Y-86240093D01*
X121910927Y-86231820D01*
X121916006Y-86228838D01*
X122497315Y-86064011D01*
X122506210Y-86065051D01*
G37*
%TD.AperFunction*%
%TD*%
%TA.AperFunction,Conductor*%
%TO.N,+5V*%
G36*
X88854836Y-101434018D02*
G01*
X88860518Y-101437155D01*
X89553456Y-102130093D01*
X89556883Y-102138366D01*
X89553456Y-102146639D01*
X89550159Y-102148955D01*
X88751409Y-102524308D01*
X88742464Y-102524725D01*
X88739358Y-102523037D01*
X88165233Y-102087115D01*
X88160716Y-102079383D01*
X88162336Y-102071678D01*
X88586285Y-101381172D01*
X88593533Y-101375917D01*
X88598844Y-101375886D01*
X88854836Y-101434018D01*
G37*
%TD.AperFunction*%
%TD*%
%TA.AperFunction,Conductor*%
%TO.N,+5V*%
G36*
X173089869Y-86585004D02*
G01*
X173664634Y-87053284D01*
X173668883Y-87061166D01*
X173668879Y-87063584D01*
X173582357Y-87882030D01*
X173578080Y-87889897D01*
X173570722Y-87892500D01*
X172591807Y-87892500D01*
X172583534Y-87889073D01*
X172580169Y-87881999D01*
X172495649Y-87061302D01*
X172498210Y-87052721D01*
X172499922Y-87051012D01*
X173075114Y-86584983D01*
X173083699Y-86582439D01*
X173089869Y-86585004D01*
G37*
%TD.AperFunction*%
%TD*%
%TA.AperFunction,Conductor*%
%TO.N,+5V*%
G36*
X90192891Y-54386338D02*
G01*
X90850225Y-54974479D01*
X90854106Y-54982548D01*
X90853242Y-54987654D01*
X90674205Y-55422214D01*
X90667885Y-55428558D01*
X90661626Y-55429324D01*
X89924480Y-55317078D01*
X89917148Y-55312874D01*
X89625589Y-54952831D01*
X89623046Y-54944245D01*
X89626408Y-54937196D01*
X90176820Y-54386784D01*
X90185092Y-54383358D01*
X90192891Y-54386338D01*
G37*
%TD.AperFunction*%
%TD*%
%TA.AperFunction,Conductor*%
%TO.N,+5V*%
G36*
X88744201Y-52398499D02*
G01*
X88749359Y-52403862D01*
X89178427Y-53309887D01*
X89231443Y-53421835D01*
X89231887Y-53430779D01*
X89229142Y-53435116D01*
X88677381Y-53986877D01*
X88669108Y-53990304D01*
X88661018Y-53987056D01*
X88070519Y-53421835D01*
X87953563Y-53309886D01*
X87949957Y-53301691D01*
X87950407Y-53298214D01*
X88155056Y-52585341D01*
X88160633Y-52578335D01*
X88162788Y-52577410D01*
X88735282Y-52397707D01*
X88744201Y-52398499D01*
G37*
%TD.AperFunction*%
%TD*%
%TA.AperFunction,Conductor*%
%TO.N,+5V*%
G36*
X147502517Y-86319266D02*
G01*
X148076971Y-86576501D01*
X148083121Y-86583009D01*
X148083839Y-86586095D01*
X148150116Y-87298349D01*
X148147470Y-87306904D01*
X148145322Y-87308914D01*
X147441207Y-87818135D01*
X147432495Y-87820206D01*
X147426078Y-87816927D01*
X146734128Y-87124977D01*
X146730701Y-87116704D01*
X146733960Y-87108602D01*
X147489297Y-86321840D01*
X147497497Y-86318246D01*
X147502517Y-86319266D01*
G37*
%TD.AperFunction*%
%TD*%
%TA.AperFunction,Conductor*%
%TO.N,+5V*%
G36*
X123077285Y-136577838D02*
G01*
X123084502Y-136583139D01*
X123085406Y-136584979D01*
X123361724Y-137299226D01*
X123361513Y-137308178D01*
X123360441Y-137310094D01*
X122841104Y-138062425D01*
X122833584Y-138067286D01*
X122824828Y-138065407D01*
X122823202Y-138064051D01*
X122131456Y-137372305D01*
X122128029Y-137364032D01*
X122128849Y-137359729D01*
X122491243Y-136444303D01*
X122497475Y-136437873D01*
X122504910Y-136437249D01*
X123077285Y-136577838D01*
G37*
%TD.AperFunction*%
%TD*%
%TA.AperFunction,Conductor*%
%TO.N,+5V*%
G36*
X113499215Y-101270927D02*
G01*
X113502269Y-101276268D01*
X113669409Y-101922004D01*
X113668164Y-101930872D01*
X113667282Y-101932164D01*
X113160750Y-102576862D01*
X113152944Y-102581251D01*
X113152248Y-102581313D01*
X112581770Y-102615389D01*
X112573307Y-102612462D01*
X112569393Y-102604408D01*
X112500639Y-101279806D01*
X112503632Y-101271367D01*
X112511717Y-101267516D01*
X112512323Y-101267500D01*
X113490942Y-101267500D01*
X113499215Y-101270927D01*
G37*
%TD.AperFunction*%
%TD*%
%TA.AperFunction,Conductor*%
%TO.N,+5V*%
G36*
X113746128Y-52839891D02*
G01*
X113750513Y-52843073D01*
X114488250Y-53702479D01*
X114491038Y-53710989D01*
X114487645Y-53718373D01*
X113795755Y-54410263D01*
X113787482Y-54413690D01*
X113779999Y-54410984D01*
X113056685Y-53809189D01*
X113052517Y-53801263D01*
X113052589Y-53798517D01*
X113064201Y-53718373D01*
X113155837Y-53085888D01*
X113160415Y-53078193D01*
X113162950Y-53076752D01*
X113737174Y-52839878D01*
X113746128Y-52839891D01*
G37*
%TD.AperFunction*%
%TD*%
%TA.AperFunction,Conductor*%
%TO.N,+5V*%
G36*
X88655231Y-51270927D02*
G01*
X88658595Y-51277984D01*
X88744340Y-52098688D01*
X88741791Y-52107273D01*
X88740068Y-52108995D01*
X88164865Y-52575032D01*
X88156280Y-52577577D01*
X88150135Y-52575032D01*
X87574931Y-52108995D01*
X87570660Y-52101124D01*
X87570659Y-52098688D01*
X87656405Y-51277984D01*
X87660673Y-51270112D01*
X87668042Y-51267500D01*
X88646958Y-51267500D01*
X88655231Y-51270927D01*
G37*
%TD.AperFunction*%
%TD*%
%TA.AperFunction,Conductor*%
%TO.N,+5V*%
G36*
X138897185Y-55970927D02*
G01*
X138900595Y-55978572D01*
X138944679Y-56799039D01*
X138941701Y-56807484D01*
X138940361Y-56808758D01*
X138365666Y-57274383D01*
X138357081Y-57276928D01*
X138350049Y-57273586D01*
X137792222Y-56718550D01*
X137788774Y-56710285D01*
X137788902Y-56708529D01*
X137898506Y-55977464D01*
X137903122Y-55969792D01*
X137910077Y-55967500D01*
X138888912Y-55967500D01*
X138897185Y-55970927D01*
G37*
%TD.AperFunction*%
%TD*%
%TA.AperFunction,Conductor*%
%TO.N,+5V*%
G36*
X97503016Y-136346801D02*
G01*
X98076812Y-136576648D01*
X98083217Y-136582905D01*
X98084009Y-136585628D01*
X98200063Y-137298231D01*
X98198010Y-137306948D01*
X98195797Y-137309269D01*
X97568464Y-137808140D01*
X97559856Y-137810608D01*
X97555950Y-137809448D01*
X96681215Y-137372081D01*
X96675347Y-137365316D01*
X96675982Y-137356384D01*
X96677347Y-137354262D01*
X97489569Y-136350302D01*
X97497437Y-136346027D01*
X97503016Y-136346801D01*
G37*
%TD.AperFunction*%
%TD*%
%TA.AperFunction,Conductor*%
%TO.N,+5V*%
G36*
X162904419Y-101046732D02*
G01*
X163721302Y-101584338D01*
X163726329Y-101591748D01*
X163726562Y-101593689D01*
X163744789Y-102099158D01*
X163741663Y-102107550D01*
X163740457Y-102108675D01*
X163166171Y-102573373D01*
X163157584Y-102575913D01*
X163149716Y-102571638D01*
X163149616Y-102571513D01*
X162647025Y-101932790D01*
X162644602Y-101924169D01*
X162644948Y-101922419D01*
X162739001Y-101584338D01*
X162886715Y-101053367D01*
X162892234Y-101046317D01*
X162901123Y-101045233D01*
X162904419Y-101046732D01*
G37*
%TD.AperFunction*%
%TD*%
%TA.AperFunction,Conductor*%
%TO.N,+5V*%
G36*
X113746128Y-102339891D02*
G01*
X113750513Y-102343073D01*
X114488250Y-103202479D01*
X114491038Y-103210989D01*
X114487645Y-103218373D01*
X113795755Y-103910263D01*
X113787482Y-103913690D01*
X113779999Y-103910984D01*
X113056685Y-103309189D01*
X113052517Y-103301263D01*
X113052589Y-103298517D01*
X113064201Y-103218373D01*
X113155837Y-102585888D01*
X113160415Y-102578193D01*
X113162950Y-102576752D01*
X113737174Y-102339878D01*
X113746128Y-102339891D01*
G37*
%TD.AperFunction*%
%TD*%
%TA.AperFunction,Conductor*%
%TO.N,+5V*%
G36*
X97527976Y-85995577D02*
G01*
X97529427Y-85996870D01*
X98075842Y-86571941D01*
X98079056Y-86580299D01*
X98075842Y-86588059D01*
X97529427Y-87163129D01*
X97521244Y-87166766D01*
X97519304Y-87166654D01*
X96917559Y-87081424D01*
X96909848Y-87076871D01*
X96907500Y-87069840D01*
X96907500Y-86090159D01*
X96910927Y-86081886D01*
X96917558Y-86078575D01*
X97519305Y-85993345D01*
X97527976Y-85995577D01*
G37*
%TD.AperFunction*%
%TD*%
%TA.AperFunction,Conductor*%
%TO.N,+5V*%
G36*
X172460000Y-135249015D02*
G01*
X173183314Y-135850810D01*
X173187482Y-135858736D01*
X173187410Y-135861482D01*
X173084162Y-136574110D01*
X173079584Y-136581806D01*
X173077045Y-136583248D01*
X172502826Y-136820121D01*
X172493871Y-136820108D01*
X172489486Y-136816926D01*
X171751749Y-135957520D01*
X171748961Y-135949010D01*
X171752353Y-135941627D01*
X172444245Y-135249735D01*
X172452517Y-135246309D01*
X172460000Y-135249015D01*
G37*
%TD.AperFunction*%
%TD*%
%TA.AperFunction,Conductor*%
%TO.N,+5V*%
G36*
X172504565Y-86073236D02*
G01*
X172506746Y-86074746D01*
X173075372Y-86572880D01*
X173079337Y-86580909D01*
X173077047Y-86588667D01*
X172591776Y-87240519D01*
X172584087Y-87245108D01*
X172582474Y-87245232D01*
X171919283Y-87249916D01*
X171910985Y-87246547D01*
X171907500Y-87238299D01*
X171907500Y-86258687D01*
X171910927Y-86250414D01*
X171915814Y-86247488D01*
X172495655Y-86072348D01*
X172504565Y-86073236D01*
G37*
%TD.AperFunction*%
%TD*%
%TA.AperFunction,Conductor*%
%TO.N,+5V*%
G36*
X163099828Y-55795868D02*
G01*
X163101130Y-55797418D01*
X163629503Y-56549927D01*
X163631453Y-56558667D01*
X163630870Y-56560794D01*
X163360371Y-57274991D01*
X163354236Y-57281514D01*
X163352278Y-57282195D01*
X162779824Y-57425939D01*
X162770966Y-57424630D01*
X162766152Y-57419035D01*
X162709972Y-57282195D01*
X162411423Y-56555000D01*
X162388981Y-56500336D01*
X162389009Y-56491381D01*
X162391528Y-56487622D01*
X163083283Y-55795867D01*
X163091555Y-55792441D01*
X163099828Y-55795868D01*
G37*
%TD.AperFunction*%
%TD*%
%TA.AperFunction,Conductor*%
%TO.N,+5V*%
G36*
X98089865Y-136584967D02*
G01*
X98665068Y-137051004D01*
X98669339Y-137058875D01*
X98669340Y-137061311D01*
X98583595Y-137882016D01*
X98579327Y-137889888D01*
X98571958Y-137892500D01*
X97593042Y-137892500D01*
X97584769Y-137889073D01*
X97581405Y-137882016D01*
X97495659Y-137061311D01*
X97498208Y-137052726D01*
X97499926Y-137051008D01*
X98075135Y-136584966D01*
X98083720Y-136582422D01*
X98089865Y-136584967D01*
G37*
%TD.AperFunction*%
%TD*%
%TA.AperFunction,Conductor*%
%TO.N,+5V*%
G36*
X139009036Y-56388937D02*
G01*
X139011873Y-56391024D01*
X139704113Y-57083264D01*
X139707540Y-57091537D01*
X139704113Y-57099810D01*
X139702546Y-57101124D01*
X138951196Y-57626681D01*
X138942453Y-57628615D01*
X138938503Y-57627146D01*
X138363533Y-57284721D01*
X138358179Y-57277544D01*
X138357948Y-57272946D01*
X138463753Y-56562260D01*
X138468359Y-56554584D01*
X138471840Y-56552815D01*
X139000118Y-56388127D01*
X139009036Y-56388937D01*
G37*
%TD.AperFunction*%
%TD*%
%TA.AperFunction,Conductor*%
%TO.N,+5V*%
G36*
X163655231Y-101270927D02*
G01*
X163658595Y-101277984D01*
X163744340Y-102098688D01*
X163741791Y-102107273D01*
X163740068Y-102108995D01*
X163164865Y-102575032D01*
X163156280Y-102577577D01*
X163150135Y-102575032D01*
X162574931Y-102108995D01*
X162570660Y-102101124D01*
X162570659Y-102098688D01*
X162656405Y-101277984D01*
X162660673Y-101270112D01*
X162668042Y-101267500D01*
X163646958Y-101267500D01*
X163655231Y-101270927D01*
G37*
%TD.AperFunction*%
%TD*%
%TA.AperFunction,Conductor*%
%TO.N,+5V*%
G36*
X113720688Y-52493344D02*
G01*
X114322441Y-52578575D01*
X114330152Y-52583128D01*
X114332500Y-52590159D01*
X114332500Y-53569840D01*
X114329073Y-53578113D01*
X114322441Y-53581424D01*
X113720695Y-53666654D01*
X113712023Y-53664422D01*
X113710572Y-53663129D01*
X113164157Y-53088059D01*
X113160943Y-53079701D01*
X113164157Y-53071941D01*
X113621932Y-52590159D01*
X113710573Y-52496869D01*
X113718755Y-52493233D01*
X113720688Y-52493344D01*
G37*
%TD.AperFunction*%
%TD*%
%TA.AperFunction,Conductor*%
%TO.N,+5V*%
G36*
X138824893Y-101324707D02*
G01*
X139516816Y-102016630D01*
X139520243Y-102024903D01*
X139517010Y-102032978D01*
X138750690Y-102836437D01*
X138742500Y-102840059D01*
X138737467Y-102839052D01*
X138163021Y-102583478D01*
X138156855Y-102576984D01*
X138156132Y-102573924D01*
X138086805Y-101861621D01*
X138089414Y-101853057D01*
X138091520Y-101851063D01*
X138809695Y-101323549D01*
X138818390Y-101321415D01*
X138824893Y-101324707D01*
G37*
%TD.AperFunction*%
%TD*%
%TA.AperFunction,Conductor*%
%TO.N,+5V*%
G36*
X173089939Y-136587067D02*
G01*
X173526636Y-137060621D01*
X173629644Y-137172322D01*
X173632733Y-137180727D01*
X173632544Y-137182401D01*
X173501783Y-137882947D01*
X173496897Y-137890451D01*
X173490282Y-137892500D01*
X172511631Y-137892500D01*
X172503358Y-137889073D01*
X172499931Y-137880870D01*
X172497791Y-137522628D01*
X172495033Y-137060619D01*
X172498411Y-137052327D01*
X172499357Y-137051469D01*
X173073974Y-136585907D01*
X173082558Y-136583363D01*
X173089939Y-136587067D01*
G37*
%TD.AperFunction*%
%TD*%
%TA.AperFunction,Conductor*%
%TO.N,+5V*%
G36*
X98089865Y-86584967D02*
G01*
X98665068Y-87051004D01*
X98669339Y-87058875D01*
X98669340Y-87061311D01*
X98583595Y-87882016D01*
X98579327Y-87889888D01*
X98571958Y-87892500D01*
X97593042Y-87892500D01*
X97584769Y-87889073D01*
X97581405Y-87882016D01*
X97495659Y-87061311D01*
X97498208Y-87052726D01*
X97499926Y-87051008D01*
X98075135Y-86584966D01*
X98083720Y-86582422D01*
X98089865Y-86584967D01*
G37*
%TD.AperFunction*%
%TD*%
%TA.AperFunction,Conductor*%
%TO.N,+5V*%
G36*
X147460000Y-135249015D02*
G01*
X148183314Y-135850810D01*
X148187482Y-135858736D01*
X148187410Y-135861482D01*
X148084162Y-136574110D01*
X148079584Y-136581806D01*
X148077045Y-136583248D01*
X147502826Y-136820121D01*
X147493871Y-136820108D01*
X147489486Y-136816926D01*
X146751749Y-135957520D01*
X146748961Y-135949010D01*
X146752353Y-135941627D01*
X147444245Y-135249735D01*
X147452517Y-135246309D01*
X147460000Y-135249015D01*
G37*
%TD.AperFunction*%
%TD*%
%TA.AperFunction,Conductor*%
%TO.N,+5V*%
G36*
X164009036Y-56388937D02*
G01*
X164011873Y-56391024D01*
X164704113Y-57083264D01*
X164707540Y-57091537D01*
X164704113Y-57099810D01*
X164702546Y-57101124D01*
X163951196Y-57626681D01*
X163942453Y-57628615D01*
X163938503Y-57627146D01*
X163363533Y-57284721D01*
X163358179Y-57277544D01*
X163357948Y-57272946D01*
X163463753Y-56562260D01*
X163468359Y-56554584D01*
X163471840Y-56552815D01*
X164000118Y-56388127D01*
X164009036Y-56388937D01*
G37*
%TD.AperFunction*%
%TD*%
%TA.AperFunction,Conductor*%
%TO.N,+5V*%
G36*
X122460000Y-85249015D02*
G01*
X123183314Y-85850810D01*
X123187482Y-85858736D01*
X123187410Y-85861482D01*
X123084162Y-86574110D01*
X123079584Y-86581806D01*
X123077045Y-86583248D01*
X122502826Y-86820121D01*
X122493871Y-86820108D01*
X122489486Y-86816926D01*
X121751749Y-85957520D01*
X121748961Y-85949010D01*
X121752353Y-85941627D01*
X122444245Y-85249735D01*
X122452517Y-85246309D01*
X122460000Y-85249015D01*
G37*
%TD.AperFunction*%
%TD*%
%TA.AperFunction,Conductor*%
%TO.N,+5V*%
G36*
X122506952Y-86555763D02*
G01*
X123077489Y-86578797D01*
X123085616Y-86582554D01*
X123085808Y-86582768D01*
X123618335Y-87189348D01*
X123621218Y-87197826D01*
X123620996Y-87199459D01*
X123478194Y-87883192D01*
X123473148Y-87890590D01*
X123466741Y-87892500D01*
X122488115Y-87892500D01*
X122479842Y-87889073D01*
X122476415Y-87880800D01*
X122476416Y-87880636D01*
X122494831Y-86567289D01*
X122498374Y-86559067D01*
X122506694Y-86555756D01*
X122506952Y-86555763D01*
G37*
%TD.AperFunction*%
%TD*%
%TA.AperFunction,Conductor*%
%TO.N,+5V*%
G36*
X97578981Y-135172943D02*
G01*
X98016552Y-135591782D01*
X98286435Y-135850112D01*
X98290042Y-135858308D01*
X98289591Y-135861792D01*
X98084943Y-136574656D01*
X98079366Y-136581663D01*
X98077201Y-136582591D01*
X97504718Y-136762291D01*
X97495798Y-136761499D01*
X97490640Y-136756136D01*
X97408454Y-136582591D01*
X97008555Y-135738162D01*
X97008112Y-135729220D01*
X97010855Y-135724885D01*
X97562619Y-135173121D01*
X97570891Y-135169695D01*
X97578981Y-135172943D01*
G37*
%TD.AperFunction*%
%TD*%
%TA.AperFunction,Conductor*%
%TO.N,+5V*%
G36*
X96315520Y-133842921D02*
G01*
X96322851Y-133847125D01*
X96614410Y-134207168D01*
X96616953Y-134215754D01*
X96613590Y-134222804D01*
X96063180Y-134773214D01*
X96054907Y-134776641D01*
X96047107Y-134773660D01*
X95389773Y-134185520D01*
X95385893Y-134177451D01*
X95386756Y-134172348D01*
X95565794Y-133737784D01*
X95572114Y-133731441D01*
X95578370Y-133730675D01*
X96315520Y-133842921D01*
G37*
%TD.AperFunction*%
%TD*%
%TA.AperFunction,Conductor*%
%TO.N,+5V*%
G36*
X138577272Y-101270927D02*
G01*
X138580507Y-101277092D01*
X138709324Y-101980226D01*
X138707445Y-101988981D01*
X138706387Y-101990298D01*
X138164942Y-102572991D01*
X138156800Y-102576719D01*
X138149006Y-102574118D01*
X137574393Y-102108559D01*
X137570122Y-102100688D01*
X137570059Y-102099346D01*
X137578629Y-101279078D01*
X137582142Y-101270841D01*
X137590328Y-101267500D01*
X138568999Y-101267500D01*
X138577272Y-101270927D01*
G37*
%TD.AperFunction*%
%TD*%
%TA.AperFunction,Conductor*%
%TO.N,+5V*%
G36*
X88741800Y-102003104D02*
G01*
X88746312Y-102010840D01*
X88746345Y-102011102D01*
X88846294Y-102894221D01*
X88843819Y-102902827D01*
X88842941Y-102903810D01*
X88151516Y-103595235D01*
X88143243Y-103598662D01*
X88134970Y-103595235D01*
X88132688Y-103592009D01*
X87752307Y-102796541D01*
X87751829Y-102787599D01*
X87752703Y-102785688D01*
X88153931Y-102084294D01*
X88161012Y-102078818D01*
X88162491Y-102078517D01*
X88733142Y-102000825D01*
X88741800Y-102003104D01*
G37*
%TD.AperFunction*%
%TD*%
%TA.AperFunction,Conductor*%
%TO.N,+5V*%
G36*
X97503016Y-86346801D02*
G01*
X98076812Y-86576648D01*
X98083217Y-86582905D01*
X98084009Y-86585628D01*
X98200063Y-87298231D01*
X98198010Y-87306948D01*
X98195797Y-87309269D01*
X97568464Y-87808140D01*
X97559856Y-87810608D01*
X97555950Y-87809448D01*
X96681215Y-87372081D01*
X96675347Y-87365316D01*
X96675982Y-87356384D01*
X96677347Y-87354262D01*
X97489569Y-86350302D01*
X97497437Y-86346027D01*
X97503016Y-86346801D01*
G37*
%TD.AperFunction*%
%TD*%
%TA.AperFunction,Conductor*%
%TO.N,+5V*%
G36*
X122460000Y-135249015D02*
G01*
X123183314Y-135850810D01*
X123187482Y-135858736D01*
X123187410Y-135861482D01*
X123084162Y-136574110D01*
X123079584Y-136581806D01*
X123077045Y-136583248D01*
X122502826Y-136820121D01*
X122493871Y-136820108D01*
X122489486Y-136816926D01*
X121751749Y-135957520D01*
X121748961Y-135949010D01*
X121752353Y-135941627D01*
X122444245Y-135249735D01*
X122452517Y-135246309D01*
X122460000Y-135249015D01*
G37*
%TD.AperFunction*%
%TD*%
%TA.AperFunction,Conductor*%
%TO.N,+5V*%
G36*
X147460000Y-85249015D02*
G01*
X148183314Y-85850810D01*
X148187482Y-85858736D01*
X148187410Y-85861482D01*
X148084162Y-86574110D01*
X148079584Y-86581806D01*
X148077045Y-86583248D01*
X147502826Y-86820121D01*
X147493871Y-86820108D01*
X147489486Y-86816926D01*
X146751749Y-85957520D01*
X146748961Y-85949010D01*
X146752353Y-85941627D01*
X147444245Y-85249735D01*
X147452517Y-85246309D01*
X147460000Y-85249015D01*
G37*
%TD.AperFunction*%
%TD*%
%TA.AperFunction,Conductor*%
%TO.N,+5V*%
G36*
X113655231Y-51770927D02*
G01*
X113658595Y-51777984D01*
X113744340Y-52598688D01*
X113741791Y-52607273D01*
X113740068Y-52608995D01*
X113164865Y-53075032D01*
X113156280Y-53077577D01*
X113150135Y-53075032D01*
X112574931Y-52608995D01*
X112570660Y-52601124D01*
X112570659Y-52598688D01*
X112656405Y-51777984D01*
X112660673Y-51770112D01*
X112668042Y-51767500D01*
X113646958Y-51767500D01*
X113655231Y-51770927D01*
G37*
%TD.AperFunction*%
%TD*%
%TA.AperFunction,Conductor*%
%TO.N,+5V*%
G36*
X172460000Y-85249015D02*
G01*
X173183314Y-85850810D01*
X173187482Y-85858736D01*
X173187410Y-85861482D01*
X173084162Y-86574110D01*
X173079584Y-86581806D01*
X173077045Y-86583248D01*
X172502826Y-86820121D01*
X172493871Y-86820108D01*
X172489486Y-86816926D01*
X171751749Y-85957520D01*
X171748961Y-85949010D01*
X171752353Y-85941627D01*
X172444245Y-85249735D01*
X172452517Y-85246309D01*
X172460000Y-85249015D01*
G37*
%TD.AperFunction*%
%TD*%
%TA.AperFunction,Conductor*%
%TO.N,+5V*%
G36*
X97527976Y-135995577D02*
G01*
X97529427Y-135996870D01*
X98075842Y-136571941D01*
X98079056Y-136580299D01*
X98075842Y-136588059D01*
X97529427Y-137163129D01*
X97521244Y-137166766D01*
X97519304Y-137166654D01*
X96917559Y-137081424D01*
X96909848Y-137076871D01*
X96907500Y-137069840D01*
X96907500Y-136090159D01*
X96910927Y-136081886D01*
X96917558Y-136078575D01*
X97519305Y-135993345D01*
X97527976Y-135995577D01*
G37*
%TD.AperFunction*%
%TD*%
%TA.AperFunction,Conductor*%
%TO.N,+5V*%
G36*
X122527976Y-135995577D02*
G01*
X122529427Y-135996870D01*
X123075842Y-136571941D01*
X123079056Y-136580299D01*
X123075842Y-136588059D01*
X122529427Y-137163129D01*
X122521244Y-137166766D01*
X122519304Y-137166654D01*
X121917559Y-137081424D01*
X121909848Y-137076871D01*
X121907500Y-137069840D01*
X121907500Y-136090159D01*
X121910927Y-136081886D01*
X121917558Y-136078575D01*
X122519305Y-135993345D01*
X122527976Y-135995577D01*
G37*
%TD.AperFunction*%
%TD*%
%TA.AperFunction,Conductor*%
%TO.N,+5V*%
G36*
X163854836Y-101934018D02*
G01*
X163860518Y-101937155D01*
X164553456Y-102630093D01*
X164556883Y-102638366D01*
X164553456Y-102646639D01*
X164550159Y-102648955D01*
X163751409Y-103024308D01*
X163742464Y-103024725D01*
X163739358Y-103023037D01*
X163165233Y-102587115D01*
X163160716Y-102579383D01*
X163162336Y-102571678D01*
X163586285Y-101881172D01*
X163593533Y-101875917D01*
X163598844Y-101875886D01*
X163854836Y-101934018D01*
G37*
%TD.AperFunction*%
%TD*%
%TA.AperFunction,Conductor*%
%TO.N,+5V*%
G36*
X123090895Y-136586690D02*
G01*
X123091534Y-136587171D01*
X123665445Y-137051316D01*
X123669723Y-137059183D01*
X123669780Y-137060851D01*
X123655428Y-137443561D01*
X123652009Y-137451396D01*
X122960934Y-138142471D01*
X122952661Y-138145898D01*
X122944388Y-138142471D01*
X122941725Y-138138356D01*
X122677582Y-137443561D01*
X122609091Y-137263402D01*
X122609354Y-137254453D01*
X122610436Y-137252547D01*
X123074602Y-136589562D01*
X123082153Y-136584752D01*
X123090895Y-136586690D01*
G37*
%TD.AperFunction*%
%TD*%
%TA.AperFunction,Conductor*%
%TO.N,+5V*%
G36*
X147567188Y-136489572D02*
G01*
X148077400Y-136578283D01*
X148084962Y-136583075D01*
X148085851Y-136584561D01*
X148442179Y-137294647D01*
X148442827Y-137303579D01*
X148442053Y-137305386D01*
X147993624Y-138149047D01*
X147986715Y-138154744D01*
X147977802Y-138153887D01*
X147975020Y-138151829D01*
X147283628Y-137460437D01*
X147280201Y-137452164D01*
X147280475Y-137449652D01*
X147492591Y-136487942D01*
X147497718Y-136480603D01*
X147506019Y-136478937D01*
X147567188Y-136489572D01*
G37*
%TD.AperFunction*%
%TD*%
%TA.AperFunction,Conductor*%
%TO.N,+5V*%
G36*
X113202247Y-101270927D02*
G01*
X113203499Y-101272406D01*
X113665773Y-101920477D01*
X113667788Y-101929202D01*
X113665448Y-101934499D01*
X113165670Y-102570600D01*
X113157864Y-102574989D01*
X113149242Y-102572572D01*
X113148178Y-102571625D01*
X112593862Y-102014188D01*
X112590458Y-102005905D01*
X112590904Y-102002738D01*
X112614299Y-101920477D01*
X112797583Y-101276000D01*
X112803142Y-101268979D01*
X112808837Y-101267500D01*
X113193974Y-101267500D01*
X113202247Y-101270927D01*
G37*
%TD.AperFunction*%
%TD*%
%TA.AperFunction,Conductor*%
%TO.N,+5V*%
G36*
X147541728Y-85975013D02*
G01*
X147543051Y-85976276D01*
X147598793Y-86038544D01*
X148076092Y-86571725D01*
X148079057Y-86580175D01*
X148075622Y-86587828D01*
X147517572Y-87142383D01*
X147509288Y-87145784D01*
X147507226Y-87145594D01*
X146917101Y-87038000D01*
X146909577Y-87033145D01*
X146907500Y-87026490D01*
X146907500Y-86046817D01*
X146910927Y-86038544D01*
X146918010Y-86035178D01*
X147533151Y-85972443D01*
X147541728Y-85975013D01*
G37*
%TD.AperFunction*%
%TD*%
%TA.AperFunction,Conductor*%
%TO.N,+5V*%
G36*
X88239596Y-100540405D02*
G01*
X88242081Y-100544078D01*
X88597121Y-101374310D01*
X88597223Y-101383264D01*
X88596263Y-101385145D01*
X88161221Y-102075919D01*
X88153913Y-102081093D01*
X88152583Y-102081316D01*
X87582377Y-102143160D01*
X87573782Y-102140645D01*
X87569483Y-102132790D01*
X87569429Y-102132094D01*
X87528412Y-101240438D01*
X87531455Y-101232017D01*
X87531805Y-101231650D01*
X88223051Y-100540404D01*
X88231323Y-100536978D01*
X88239596Y-100540405D01*
G37*
%TD.AperFunction*%
%TD*%
%TA.AperFunction,Conductor*%
%TO.N,+5V*%
G36*
X172503441Y-86374711D02*
G01*
X173077146Y-86577154D01*
X173083808Y-86583138D01*
X173084653Y-86585554D01*
X173249388Y-87298784D01*
X173247911Y-87307616D01*
X173246376Y-87309573D01*
X172555835Y-88019784D01*
X172547611Y-88023327D01*
X172539291Y-88020016D01*
X172539174Y-88019901D01*
X171847348Y-87328075D01*
X171843921Y-87319802D01*
X171845986Y-87313165D01*
X172489918Y-86379103D01*
X172497435Y-86374238D01*
X172503441Y-86374711D01*
G37*
%TD.AperFunction*%
%TD*%
%TA.AperFunction,Conductor*%
%TO.N,+5V*%
G36*
X138280403Y-101270927D02*
G01*
X138282159Y-101273175D01*
X138705850Y-101978456D01*
X138707173Y-101987312D01*
X138704392Y-101992445D01*
X138165785Y-102572083D01*
X138157643Y-102575811D01*
X138149250Y-102572690D01*
X138148918Y-102572369D01*
X137594405Y-102014734D01*
X137591001Y-102006451D01*
X137591803Y-102002228D01*
X137597629Y-101987312D01*
X137875843Y-101274944D01*
X137882044Y-101268484D01*
X137886741Y-101267500D01*
X138272130Y-101267500D01*
X138280403Y-101270927D01*
G37*
%TD.AperFunction*%
%TD*%
%TA.AperFunction,Conductor*%
%TO.N,+5V*%
G36*
X148077041Y-136578486D02*
G01*
X148084957Y-136582673D01*
X148085598Y-136583523D01*
X148547389Y-137257688D01*
X148549237Y-137266450D01*
X148548795Y-137268120D01*
X148335851Y-137884620D01*
X148329911Y-137891321D01*
X148324792Y-137892500D01*
X147346294Y-137892500D01*
X147338021Y-137889073D01*
X147334594Y-137880800D01*
X147334675Y-137879426D01*
X147407165Y-137266450D01*
X147493658Y-136535068D01*
X147498033Y-136527255D01*
X147506372Y-136524794D01*
X148077041Y-136578486D01*
G37*
%TD.AperFunction*%
%TD*%
%TA.AperFunction,Conductor*%
%TO.N,+5V*%
G36*
X147501419Y-136193885D02*
G01*
X148076338Y-136575249D01*
X148081338Y-136582678D01*
X148081109Y-136588254D01*
X147875357Y-137298722D01*
X147869764Y-137305715D01*
X147867240Y-137306743D01*
X146925599Y-137567375D01*
X146916712Y-137566279D01*
X146911202Y-137559220D01*
X146910778Y-137556099D01*
X146910778Y-136577808D01*
X146914205Y-136569535D01*
X146916073Y-136568016D01*
X147488553Y-136193840D01*
X147497351Y-136192184D01*
X147501419Y-136193885D01*
G37*
%TD.AperFunction*%
%TD*%
%TA.AperFunction,Conductor*%
%TO.N,+5V*%
G36*
X88720688Y-51993344D02*
G01*
X89322441Y-52078575D01*
X89330152Y-52083128D01*
X89332500Y-52090159D01*
X89332500Y-53069840D01*
X89329073Y-53078113D01*
X89322441Y-53081424D01*
X88720695Y-53166654D01*
X88712023Y-53164422D01*
X88710572Y-53163129D01*
X88164157Y-52588059D01*
X88160943Y-52579701D01*
X88164157Y-52571941D01*
X88621932Y-52090159D01*
X88710573Y-51996869D01*
X88718755Y-51993233D01*
X88720688Y-51993344D01*
G37*
%TD.AperFunction*%
%TD*%
%TA.AperFunction,Conductor*%
%TO.N,+5V*%
G36*
X114620707Y-50079293D02*
G01*
X114620706Y-50079297D01*
X114620749Y-50079301D01*
X115000298Y-50155619D01*
X115007733Y-50160609D01*
X115009461Y-50169395D01*
X115009342Y-50169926D01*
X114771866Y-51120200D01*
X114766536Y-51127395D01*
X114757678Y-51128714D01*
X114752242Y-51125636D01*
X114065151Y-50438545D01*
X114061724Y-50430272D01*
X114062522Y-50426026D01*
X114224132Y-50011088D01*
X114230327Y-50004622D01*
X114237292Y-50003854D01*
X114620707Y-50079293D01*
G37*
%TD.AperFunction*%
%TD*%
%TA.AperFunction,Conductor*%
%TO.N,+5V*%
G36*
X138292457Y-55796989D02*
G01*
X138294411Y-55799580D01*
X138713508Y-56553897D01*
X138714531Y-56562793D01*
X138713760Y-56564783D01*
X138360834Y-57275416D01*
X138354085Y-57281302D01*
X138352391Y-57281734D01*
X137781121Y-57382668D01*
X137772377Y-57380732D01*
X137767643Y-57373588D01*
X137748043Y-57281734D01*
X137669984Y-56915912D01*
X137581099Y-56499347D01*
X137582724Y-56490540D01*
X137584263Y-56488637D01*
X138275912Y-55796988D01*
X138284184Y-55793562D01*
X138292457Y-55796989D01*
G37*
%TD.AperFunction*%
%TD*%
%TA.AperFunction,Conductor*%
%TO.N,+5V*%
G36*
X172500529Y-136131813D02*
G01*
X173075477Y-136573832D01*
X173079947Y-136581591D01*
X173078553Y-136588827D01*
X172686918Y-137287715D01*
X172679884Y-137293257D01*
X172678163Y-137293605D01*
X171920652Y-137388354D01*
X171912018Y-137385980D01*
X171907590Y-137378196D01*
X171907500Y-137376744D01*
X171907500Y-136397588D01*
X171910927Y-136389315D01*
X171914426Y-136386905D01*
X172488631Y-136130406D01*
X172497579Y-136130162D01*
X172500529Y-136131813D01*
G37*
%TD.AperFunction*%
%TD*%
%TA.AperFunction,Conductor*%
%TO.N,+5V*%
G36*
X147506952Y-86555763D02*
G01*
X148077489Y-86578797D01*
X148085616Y-86582554D01*
X148085808Y-86582768D01*
X148618335Y-87189348D01*
X148621218Y-87197826D01*
X148620996Y-87199459D01*
X148478194Y-87883192D01*
X148473148Y-87890590D01*
X148466741Y-87892500D01*
X147488115Y-87892500D01*
X147479842Y-87889073D01*
X147476415Y-87880800D01*
X147476416Y-87880636D01*
X147494831Y-86567289D01*
X147498374Y-86559067D01*
X147506694Y-86555756D01*
X147506952Y-86555763D01*
G37*
%TD.AperFunction*%
%TD*%
%TA.AperFunction,Conductor*%
%TO.N,+5V*%
G36*
X163855231Y-55970927D02*
G01*
X163858595Y-55977984D01*
X163944340Y-56798688D01*
X163941791Y-56807273D01*
X163940068Y-56808995D01*
X163364865Y-57275032D01*
X163356280Y-57277577D01*
X163350135Y-57275032D01*
X162774931Y-56808995D01*
X162770660Y-56801124D01*
X162770659Y-56798688D01*
X162856405Y-55977984D01*
X162860673Y-55970112D01*
X162868042Y-55967500D01*
X163846958Y-55967500D01*
X163855231Y-55970927D01*
G37*
%TD.AperFunction*%
%TD*%
%TA.AperFunction,Conductor*%
%TO.N,+5V*%
G36*
X173032222Y-136570812D02*
G01*
X173077417Y-136578330D01*
X173085015Y-136583067D01*
X173085896Y-136584508D01*
X173451194Y-137292805D01*
X173451940Y-137301729D01*
X173451138Y-137303638D01*
X173032157Y-138095848D01*
X173025259Y-138101559D01*
X173016344Y-138100721D01*
X173013541Y-138098651D01*
X172322031Y-137407141D01*
X172318604Y-137398868D01*
X172318814Y-137396661D01*
X172492844Y-136492655D01*
X172497772Y-136485181D01*
X172506250Y-136483328D01*
X173032222Y-136570812D01*
G37*
%TD.AperFunction*%
%TD*%
%TA.AperFunction,Conductor*%
%TO.N,+5V*%
G36*
X113818126Y-101350066D02*
G01*
X114510077Y-102042017D01*
X114513504Y-102050290D01*
X114510197Y-102058442D01*
X113750721Y-102840349D01*
X113742498Y-102843896D01*
X113737515Y-102842861D01*
X113163034Y-102583524D01*
X113156905Y-102576997D01*
X113156195Y-102573888D01*
X113093779Y-101861660D01*
X113096470Y-101853123D01*
X113098634Y-101851121D01*
X113803062Y-101348812D01*
X113811786Y-101346800D01*
X113818126Y-101350066D01*
G37*
%TD.AperFunction*%
%TD*%
%TA.AperFunction,Conductor*%
%TO.N,+5V*%
G36*
X163746128Y-102339891D02*
G01*
X163750513Y-102343073D01*
X164488250Y-103202479D01*
X164491038Y-103210989D01*
X164487645Y-103218373D01*
X163795755Y-103910263D01*
X163787482Y-103913690D01*
X163779999Y-103910984D01*
X163056685Y-103309189D01*
X163052517Y-103301263D01*
X163052589Y-103298517D01*
X163064201Y-103218373D01*
X163155837Y-102585888D01*
X163160415Y-102578193D01*
X163162950Y-102576752D01*
X163737174Y-102339878D01*
X163746128Y-102339891D01*
G37*
%TD.AperFunction*%
%TD*%
%TA.AperFunction,Conductor*%
%TO.N,+5V*%
G36*
X122503063Y-86354000D02*
G01*
X123077088Y-86576917D01*
X123083560Y-86583106D01*
X123084368Y-86585751D01*
X123212624Y-87298624D01*
X123210716Y-87307373D01*
X123208977Y-87309355D01*
X122492576Y-87960284D01*
X122484148Y-87963312D01*
X122476435Y-87959898D01*
X121784569Y-87268032D01*
X121781142Y-87259759D01*
X121783654Y-87252515D01*
X122489643Y-86357657D01*
X122497457Y-86353287D01*
X122503063Y-86354000D01*
G37*
%TD.AperFunction*%
%TD*%
%TA.AperFunction,Conductor*%
%TO.N,+5V*%
G36*
X113360215Y-101545927D02*
G01*
X113361012Y-101546810D01*
X113665855Y-101920955D01*
X113668425Y-101929533D01*
X113665975Y-101935586D01*
X113166690Y-102569335D01*
X113158879Y-102573712D01*
X113150259Y-102571284D01*
X113148310Y-102569335D01*
X112649024Y-101935586D01*
X112646596Y-101926966D01*
X112649143Y-101920956D01*
X112953988Y-101546809D01*
X112961870Y-101542560D01*
X112963058Y-101542500D01*
X113351942Y-101542500D01*
X113360215Y-101545927D01*
G37*
%TD.AperFunction*%
%TD*%
%TA.AperFunction,Conductor*%
%TO.N,+5V*%
G36*
X88485856Y-51165053D02*
G01*
X88486493Y-51165644D01*
X89038338Y-51717489D01*
X89041765Y-51725762D01*
X89041279Y-51729098D01*
X88748178Y-52714500D01*
X88742535Y-52721452D01*
X88734173Y-52722526D01*
X88162714Y-52582161D01*
X88155497Y-52576860D01*
X88154593Y-52575020D01*
X87878572Y-51861541D01*
X87878783Y-51852589D01*
X87880615Y-51849691D01*
X88469357Y-51166280D01*
X88477352Y-51162249D01*
X88485856Y-51165053D01*
G37*
%TD.AperFunction*%
%TD*%
%TA.AperFunction,Conductor*%
%TO.N,+5V*%
G36*
X113011433Y-51507525D02*
G01*
X113702544Y-52198636D01*
X113705915Y-52205769D01*
X113744385Y-52598726D01*
X113741781Y-52607294D01*
X113740098Y-52608963D01*
X113166346Y-53072980D01*
X113157759Y-53075518D01*
X113149892Y-53071240D01*
X113149543Y-53070787D01*
X112671556Y-52416759D01*
X112669442Y-52408059D01*
X112669993Y-52405899D01*
X112992153Y-51511831D01*
X112998181Y-51505210D01*
X113007126Y-51504791D01*
X113011433Y-51507525D01*
G37*
%TD.AperFunction*%
%TD*%
%TA.AperFunction,Conductor*%
%TO.N,+5V*%
G36*
X97460000Y-85249015D02*
G01*
X98183314Y-85850810D01*
X98187482Y-85858736D01*
X98187410Y-85861482D01*
X98084162Y-86574110D01*
X98079584Y-86581806D01*
X98077045Y-86583248D01*
X97502826Y-86820121D01*
X97493871Y-86820108D01*
X97489486Y-86816926D01*
X96751749Y-85957520D01*
X96748961Y-85949010D01*
X96752353Y-85941627D01*
X97444245Y-85249735D01*
X97452517Y-85246309D01*
X97460000Y-85249015D01*
G37*
%TD.AperFunction*%
%TD*%
%TA.AperFunction,Conductor*%
%TO.N,+5V*%
G36*
X88070460Y-100612857D02*
G01*
X88082823Y-100618920D01*
X88949060Y-101043763D01*
X88954979Y-101050483D01*
X88955401Y-101056459D01*
X88747074Y-102149174D01*
X88742158Y-102156659D01*
X88734020Y-102158578D01*
X88162755Y-102081663D01*
X88155013Y-102077163D01*
X88154185Y-102075921D01*
X87749047Y-101374663D01*
X87747876Y-101365785D01*
X87748351Y-101364375D01*
X88054492Y-100618919D01*
X88060805Y-100612569D01*
X88069760Y-100612542D01*
X88070460Y-100612857D01*
G37*
%TD.AperFunction*%
%TD*%
%TA.AperFunction,Conductor*%
%TO.N,Net-(D1-DIN)*%
G36*
X87800867Y-130630987D02*
G01*
X88246193Y-131089312D01*
X88400871Y-131248504D01*
X88404179Y-131256825D01*
X88400753Y-131264930D01*
X88198620Y-131467063D01*
X88194326Y-131469793D01*
X87672908Y-131658352D01*
X87663962Y-131657943D01*
X87660401Y-131655359D01*
X87128704Y-131089312D01*
X87125538Y-131080936D01*
X87129222Y-131072774D01*
X87130687Y-131071604D01*
X87785934Y-130629442D01*
X87794707Y-130627656D01*
X87800867Y-130630987D01*
G37*
%TD.AperFunction*%
%TD*%
%TA.AperFunction,Conductor*%
%TO.N,Net-(D1-DIN)*%
G36*
X90015410Y-132859507D02*
G01*
X90846666Y-133275135D01*
X90852534Y-133281900D01*
X90852252Y-133290057D01*
X90674205Y-133722214D01*
X90667885Y-133728558D01*
X90661626Y-133729324D01*
X89927887Y-133617597D01*
X89920224Y-133612963D01*
X89918237Y-133608615D01*
X89797161Y-133074159D01*
X89798675Y-133065336D01*
X89800295Y-133063308D01*
X90001905Y-132861699D01*
X90010178Y-132858272D01*
X90015410Y-132859507D01*
G37*
%TD.AperFunction*%
%TD*%
%TA.AperFunction,Conductor*%
%TO.N,Net-(D1-DOUT)*%
G36*
X96270303Y-129989670D02*
G01*
X96763372Y-130226812D01*
X96769341Y-130233485D01*
X96770000Y-130237355D01*
X96770000Y-130622644D01*
X96766573Y-130630917D01*
X96763371Y-130633188D01*
X96270309Y-130870327D01*
X96261368Y-130870824D01*
X96258951Y-130869650D01*
X96198473Y-130831112D01*
X95584483Y-130439866D01*
X95579348Y-130432531D01*
X95580904Y-130423713D01*
X95584484Y-130420133D01*
X96258953Y-129990348D01*
X96267769Y-129988793D01*
X96270303Y-129989670D01*
G37*
%TD.AperFunction*%
%TD*%
%TA.AperFunction,Conductor*%
%TO.N,Net-(D1-DOUT)*%
G36*
X114981045Y-133290347D02*
G01*
X115315285Y-133503332D01*
X115655515Y-133720133D01*
X115660651Y-133727469D01*
X115659095Y-133736287D01*
X115655515Y-133739867D01*
X114981048Y-134169650D01*
X114972230Y-134171206D01*
X114969690Y-134170327D01*
X114968282Y-134169650D01*
X114476629Y-133933188D01*
X114470659Y-133926514D01*
X114470000Y-133922644D01*
X114470000Y-133537355D01*
X114473427Y-133529082D01*
X114476625Y-133526813D01*
X114969692Y-133289671D01*
X114978631Y-133289175D01*
X114981045Y-133290347D01*
G37*
%TD.AperFunction*%
%TD*%
%TA.AperFunction,Conductor*%
%TO.N,Net-(D2-DOUT)*%
G36*
X121270303Y-129989670D02*
G01*
X121763372Y-130226812D01*
X121769341Y-130233485D01*
X121770000Y-130237355D01*
X121770000Y-130622644D01*
X121766573Y-130630917D01*
X121763371Y-130633188D01*
X121270309Y-130870327D01*
X121261368Y-130870824D01*
X121258951Y-130869650D01*
X121198473Y-130831112D01*
X120584483Y-130439866D01*
X120579348Y-130432531D01*
X120580904Y-130423713D01*
X120584484Y-130420133D01*
X121258953Y-129990348D01*
X121267769Y-129988793D01*
X121270303Y-129989670D01*
G37*
%TD.AperFunction*%
%TD*%
%TA.AperFunction,Conductor*%
%TO.N,Net-(D2-DOUT)*%
G36*
X140050963Y-132824755D02*
G01*
X140847397Y-133274914D01*
X140852913Y-133281968D01*
X140852458Y-133289556D01*
X140674205Y-133722214D01*
X140667885Y-133728558D01*
X140661626Y-133729324D01*
X139927236Y-133617497D01*
X139919573Y-133612863D01*
X139917825Y-133609405D01*
X139813783Y-133274913D01*
X139762480Y-133109972D01*
X139763295Y-133101055D01*
X139765376Y-133098228D01*
X140036936Y-132826668D01*
X140045208Y-132823242D01*
X140050963Y-132824755D01*
G37*
%TD.AperFunction*%
%TD*%
%TA.AperFunction,Conductor*%
%TO.N,Net-(D3-DOUT)*%
G36*
X165050963Y-132824755D02*
G01*
X165847397Y-133274914D01*
X165852913Y-133281968D01*
X165852458Y-133289556D01*
X165674205Y-133722214D01*
X165667885Y-133728558D01*
X165661626Y-133729324D01*
X164927236Y-133617497D01*
X164919573Y-133612863D01*
X164917825Y-133609405D01*
X164813783Y-133274913D01*
X164762480Y-133109972D01*
X164763295Y-133101055D01*
X164765376Y-133098228D01*
X165036936Y-132826668D01*
X165045208Y-132823242D01*
X165050963Y-132824755D01*
G37*
%TD.AperFunction*%
%TD*%
%TA.AperFunction,Conductor*%
%TO.N,Net-(D3-DOUT)*%
G36*
X146270303Y-129989670D02*
G01*
X146763372Y-130226812D01*
X146769341Y-130233485D01*
X146770000Y-130237355D01*
X146770000Y-130622644D01*
X146766573Y-130630917D01*
X146763371Y-130633188D01*
X146270309Y-130870327D01*
X146261368Y-130870824D01*
X146258951Y-130869650D01*
X146198473Y-130831112D01*
X145584483Y-130439866D01*
X145579348Y-130432531D01*
X145580904Y-130423713D01*
X145584484Y-130420133D01*
X146258953Y-129990348D01*
X146267769Y-129988793D01*
X146270303Y-129989670D01*
G37*
%TD.AperFunction*%
%TD*%
%TA.AperFunction,Conductor*%
%TO.N,Net-(D5-DOUT)*%
G36*
X146312763Y-105542502D02*
G01*
X146320426Y-105547136D01*
X146322174Y-105550594D01*
X146477519Y-106050026D01*
X146476704Y-106058944D01*
X146474620Y-106061774D01*
X146203064Y-106333330D01*
X146194791Y-106336757D01*
X146189034Y-106335243D01*
X145700197Y-106058944D01*
X145392601Y-105885085D01*
X145387086Y-105878031D01*
X145387541Y-105870443D01*
X145519318Y-105550594D01*
X145565794Y-105437784D01*
X145572114Y-105431441D01*
X145578370Y-105430675D01*
X146312763Y-105542502D01*
G37*
%TD.AperFunction*%
%TD*%
%TA.AperFunction,Conductor*%
%TO.N,Net-(D5-DOUT)*%
G36*
X164981045Y-108290347D02*
G01*
X165315285Y-108503332D01*
X165655515Y-108720133D01*
X165660651Y-108727469D01*
X165659095Y-108736287D01*
X165655515Y-108739867D01*
X164981048Y-109169650D01*
X164972230Y-109171206D01*
X164969690Y-109170327D01*
X164968282Y-109169650D01*
X164476629Y-108933188D01*
X164470659Y-108926514D01*
X164470000Y-108922644D01*
X164470000Y-108537355D01*
X164473427Y-108529082D01*
X164476625Y-108526813D01*
X164969692Y-108289671D01*
X164978631Y-108289175D01*
X164981045Y-108290347D01*
G37*
%TD.AperFunction*%
%TD*%
%TA.AperFunction,Conductor*%
%TO.N,Net-(D5-DIN)*%
G36*
X173001538Y-105232690D02*
G01*
X174268529Y-105477619D01*
X174276000Y-105482553D01*
X174277794Y-105491327D01*
X174277613Y-105492118D01*
X174122489Y-106074408D01*
X174117048Y-106081520D01*
X174115651Y-106082209D01*
X173429423Y-106365748D01*
X173420468Y-106365740D01*
X173414855Y-106360840D01*
X172989218Y-105632735D01*
X172987619Y-105626830D01*
X172987619Y-105244178D01*
X172991046Y-105235905D01*
X172999319Y-105232478D01*
X173001538Y-105232690D01*
G37*
%TD.AperFunction*%
%TD*%
%TA.AperFunction,Conductor*%
%TO.N,Net-(D5-DIN)*%
G36*
X171270303Y-104989670D02*
G01*
X171763372Y-105226812D01*
X171769341Y-105233485D01*
X171770000Y-105237355D01*
X171770000Y-105622644D01*
X171766573Y-105630917D01*
X171763371Y-105633188D01*
X171270309Y-105870327D01*
X171261368Y-105870824D01*
X171258951Y-105869650D01*
X171198473Y-105831112D01*
X170584483Y-105439866D01*
X170579348Y-105432531D01*
X170580904Y-105423713D01*
X170584484Y-105420133D01*
X171258953Y-104990348D01*
X171267769Y-104988793D01*
X171270303Y-104989670D01*
G37*
%TD.AperFunction*%
%TD*%
%TA.AperFunction,Conductor*%
%TO.N,Net-(D6-DOUT)*%
G36*
X140050963Y-107824755D02*
G01*
X140847397Y-108274914D01*
X140852913Y-108281968D01*
X140852458Y-108289556D01*
X140674205Y-108722214D01*
X140667885Y-108728558D01*
X140661626Y-108729324D01*
X139927236Y-108617497D01*
X139919573Y-108612863D01*
X139917825Y-108609405D01*
X139813783Y-108274913D01*
X139762480Y-108109972D01*
X139763295Y-108101055D01*
X139765376Y-108098228D01*
X140036936Y-107826668D01*
X140045208Y-107823242D01*
X140050963Y-107824755D01*
G37*
%TD.AperFunction*%
%TD*%
%TA.AperFunction,Conductor*%
%TO.N,Net-(D6-DOUT)*%
G36*
X121270303Y-104989670D02*
G01*
X121763372Y-105226812D01*
X121769341Y-105233485D01*
X121770000Y-105237355D01*
X121770000Y-105622644D01*
X121766573Y-105630917D01*
X121763371Y-105633188D01*
X121270309Y-105870327D01*
X121261368Y-105870824D01*
X121258951Y-105869650D01*
X121198473Y-105831112D01*
X120584483Y-105439866D01*
X120579348Y-105432531D01*
X120580904Y-105423713D01*
X120584484Y-105420133D01*
X121258953Y-104990348D01*
X121267769Y-104988793D01*
X121270303Y-104989670D01*
G37*
%TD.AperFunction*%
%TD*%
%TA.AperFunction,Conductor*%
%TO.N,Net-(D7-DOUT)*%
G36*
X96312763Y-105542502D02*
G01*
X96320426Y-105547136D01*
X96322174Y-105550594D01*
X96477519Y-106050026D01*
X96476704Y-106058944D01*
X96474620Y-106061774D01*
X96203064Y-106333330D01*
X96194791Y-106336757D01*
X96189034Y-106335243D01*
X95700197Y-106058944D01*
X95392601Y-105885085D01*
X95387086Y-105878031D01*
X95387541Y-105870443D01*
X95519318Y-105550594D01*
X95565794Y-105437784D01*
X95572114Y-105431441D01*
X95578370Y-105430675D01*
X96312763Y-105542502D01*
G37*
%TD.AperFunction*%
%TD*%
%TA.AperFunction,Conductor*%
%TO.N,Net-(D7-DOUT)*%
G36*
X114981045Y-108290347D02*
G01*
X115315285Y-108503332D01*
X115655515Y-108720133D01*
X115660651Y-108727469D01*
X115659095Y-108736287D01*
X115655515Y-108739867D01*
X114981048Y-109169650D01*
X114972230Y-109171206D01*
X114969690Y-109170327D01*
X114968282Y-109169650D01*
X114476629Y-108933188D01*
X114470659Y-108926514D01*
X114470000Y-108922644D01*
X114470000Y-108537355D01*
X114473427Y-108529082D01*
X114476625Y-108526813D01*
X114969692Y-108289671D01*
X114978631Y-108289175D01*
X114981045Y-108290347D01*
G37*
%TD.AperFunction*%
%TD*%
%TA.AperFunction,Conductor*%
%TO.N,Net-(D10-DIN)*%
G36*
X115050963Y-82824755D02*
G01*
X115847397Y-83274914D01*
X115852913Y-83281968D01*
X115852458Y-83289556D01*
X115674205Y-83722214D01*
X115667885Y-83728558D01*
X115661626Y-83729324D01*
X114927236Y-83617497D01*
X114919573Y-83612863D01*
X114917825Y-83609405D01*
X114813783Y-83274913D01*
X114762480Y-83109972D01*
X114763295Y-83101055D01*
X114765376Y-83098228D01*
X115036936Y-82826668D01*
X115045208Y-82823242D01*
X115050963Y-82824755D01*
G37*
%TD.AperFunction*%
%TD*%
%TA.AperFunction,Conductor*%
%TO.N,Net-(D10-DIN)*%
G36*
X96270303Y-79989670D02*
G01*
X96763372Y-80226812D01*
X96769341Y-80233485D01*
X96770000Y-80237355D01*
X96770000Y-80622644D01*
X96766573Y-80630917D01*
X96763371Y-80633188D01*
X96270309Y-80870327D01*
X96261368Y-80870824D01*
X96258951Y-80869650D01*
X96198473Y-80831112D01*
X95584483Y-80439866D01*
X95579348Y-80432531D01*
X95580904Y-80423713D01*
X95584484Y-80420133D01*
X96258953Y-79990348D01*
X96267769Y-79988793D01*
X96270303Y-79989670D01*
G37*
%TD.AperFunction*%
%TD*%
%TA.AperFunction,Conductor*%
%TO.N,Net-(D9-DIN)*%
G36*
X87800850Y-80630219D02*
G01*
X88435276Y-81213163D01*
X88439050Y-81221284D01*
X88435975Y-81229694D01*
X88435633Y-81230051D01*
X88163442Y-81502242D01*
X88158695Y-81505125D01*
X87672686Y-81658752D01*
X87663765Y-81657978D01*
X87660633Y-81655607D01*
X87128702Y-81089310D01*
X87125537Y-81080935D01*
X87129221Y-81072773D01*
X87130676Y-81071611D01*
X87786391Y-80629135D01*
X87795164Y-80627349D01*
X87800850Y-80630219D01*
G37*
%TD.AperFunction*%
%TD*%
%TA.AperFunction,Conductor*%
%TO.N,Net-(D9-DIN)*%
G36*
X90050963Y-82824755D02*
G01*
X90847397Y-83274914D01*
X90852913Y-83281968D01*
X90852458Y-83289556D01*
X90674205Y-83722214D01*
X90667885Y-83728558D01*
X90661626Y-83729324D01*
X89927236Y-83617497D01*
X89919573Y-83612863D01*
X89917825Y-83609405D01*
X89813783Y-83274913D01*
X89762480Y-83109972D01*
X89763295Y-83101055D01*
X89765376Y-83098228D01*
X90036936Y-82826668D01*
X90045208Y-82823242D01*
X90050963Y-82824755D01*
G37*
%TD.AperFunction*%
%TD*%
%TA.AperFunction,Conductor*%
%TO.N,Net-(D10-DOUT)*%
G36*
X140050963Y-82824755D02*
G01*
X140847397Y-83274914D01*
X140852913Y-83281968D01*
X140852458Y-83289556D01*
X140674205Y-83722214D01*
X140667885Y-83728558D01*
X140661626Y-83729324D01*
X139927236Y-83617497D01*
X139919573Y-83612863D01*
X139917825Y-83609405D01*
X139813783Y-83274913D01*
X139762480Y-83109972D01*
X139763295Y-83101055D01*
X139765376Y-83098228D01*
X140036936Y-82826668D01*
X140045208Y-82823242D01*
X140050963Y-82824755D01*
G37*
%TD.AperFunction*%
%TD*%
%TA.AperFunction,Conductor*%
%TO.N,Net-(D10-DOUT)*%
G36*
X121270303Y-79989670D02*
G01*
X121763372Y-80226812D01*
X121769341Y-80233485D01*
X121770000Y-80237355D01*
X121770000Y-80622644D01*
X121766573Y-80630917D01*
X121763371Y-80633188D01*
X121270309Y-80870327D01*
X121261368Y-80870824D01*
X121258951Y-80869650D01*
X121198473Y-80831112D01*
X120584483Y-80439866D01*
X120579348Y-80432531D01*
X120580904Y-80423713D01*
X120584484Y-80420133D01*
X121258953Y-79990348D01*
X121267769Y-79988793D01*
X121270303Y-79989670D01*
G37*
%TD.AperFunction*%
%TD*%
%TA.AperFunction,Conductor*%
%TO.N,Net-(D11-DOUT)*%
G36*
X165050963Y-82824755D02*
G01*
X165847397Y-83274914D01*
X165852913Y-83281968D01*
X165852458Y-83289556D01*
X165674205Y-83722214D01*
X165667885Y-83728558D01*
X165661626Y-83729324D01*
X164927236Y-83617497D01*
X164919573Y-83612863D01*
X164917825Y-83609405D01*
X164813783Y-83274913D01*
X164762480Y-83109972D01*
X164763295Y-83101055D01*
X164765376Y-83098228D01*
X165036936Y-82826668D01*
X165045208Y-82823242D01*
X165050963Y-82824755D01*
G37*
%TD.AperFunction*%
%TD*%
%TA.AperFunction,Conductor*%
%TO.N,Net-(D11-DOUT)*%
G36*
X146270303Y-79989670D02*
G01*
X146763372Y-80226812D01*
X146769341Y-80233485D01*
X146770000Y-80237355D01*
X146770000Y-80622644D01*
X146766573Y-80630917D01*
X146763371Y-80633188D01*
X146270309Y-80870327D01*
X146261368Y-80870824D01*
X146258951Y-80869650D01*
X146198473Y-80831112D01*
X145584483Y-80439866D01*
X145579348Y-80432531D01*
X145580904Y-80423713D01*
X145584484Y-80420133D01*
X146258953Y-79990348D01*
X146267769Y-79988793D01*
X146270303Y-79989670D01*
G37*
%TD.AperFunction*%
%TD*%
%TA.AperFunction,Conductor*%
%TO.N,Net-(D13-DIN)*%
G36*
X173580320Y-55505397D02*
G01*
X174113455Y-56071982D01*
X174116629Y-56080356D01*
X174113455Y-56088018D01*
X173580320Y-56654602D01*
X173572155Y-56658279D01*
X173566524Y-56657028D01*
X172826425Y-56283244D01*
X172820586Y-56276455D01*
X172820000Y-56272800D01*
X172820000Y-55887199D01*
X172823427Y-55878926D01*
X172826425Y-55876755D01*
X173566526Y-55502970D01*
X173575454Y-55502301D01*
X173580320Y-55505397D01*
G37*
%TD.AperFunction*%
%TD*%
%TA.AperFunction,Conductor*%
%TO.N,Net-(D13-DIN)*%
G36*
X171310288Y-55451631D02*
G01*
X171318457Y-55455298D01*
X171321505Y-55461513D01*
X171387016Y-55879101D01*
X171387157Y-55880914D01*
X171387157Y-56262554D01*
X171383730Y-56270827D01*
X171375457Y-56274254D01*
X171371017Y-56273379D01*
X170422261Y-55884208D01*
X170415907Y-55877898D01*
X170415654Y-55869532D01*
X170566177Y-55438089D01*
X170572138Y-55431407D01*
X170577561Y-55430249D01*
X171310288Y-55451631D01*
G37*
%TD.AperFunction*%
%TD*%
%TA.AperFunction,Conductor*%
%TO.N,Net-(J1-Pin_1)*%
G36*
X121903056Y-112636265D02*
G01*
X121910485Y-112641265D01*
X121912259Y-112649760D01*
X121821702Y-113164563D01*
X121816894Y-113172117D01*
X121810179Y-113174236D01*
X121429821Y-113174236D01*
X121421548Y-113170809D01*
X121418298Y-113164563D01*
X121327740Y-112649760D01*
X121329682Y-112641018D01*
X121336942Y-112636265D01*
X121617682Y-112579469D01*
X121622318Y-112579469D01*
X121903056Y-112636265D01*
G37*
%TD.AperFunction*%
%TD*%
%TA.AperFunction,Conductor*%
%TO.N,Net-(J1-Pin_1)*%
G36*
X121818452Y-115489191D02*
G01*
X121821702Y-115495437D01*
X121912259Y-116010239D01*
X121910317Y-116018981D01*
X121903056Y-116023734D01*
X121622320Y-116080530D01*
X121617680Y-116080530D01*
X121336943Y-116023734D01*
X121329514Y-116018734D01*
X121327740Y-116010239D01*
X121418298Y-115495437D01*
X121423106Y-115487883D01*
X121429821Y-115485764D01*
X121810179Y-115485764D01*
X121818452Y-115489191D01*
G37*
%TD.AperFunction*%
%TD*%
%TA.AperFunction,Conductor*%
%TO.N,Net-(J3-Pin_1)*%
G36*
X122903056Y-63636265D02*
G01*
X122910485Y-63641265D01*
X122912259Y-63649760D01*
X122821702Y-64164563D01*
X122816894Y-64172117D01*
X122810179Y-64174236D01*
X122429821Y-64174236D01*
X122421548Y-64170809D01*
X122418298Y-64164563D01*
X122327740Y-63649760D01*
X122329682Y-63641018D01*
X122336942Y-63636265D01*
X122617682Y-63579469D01*
X122622318Y-63579469D01*
X122903056Y-63636265D01*
G37*
%TD.AperFunction*%
%TD*%
%TA.AperFunction,Conductor*%
%TO.N,Net-(J3-Pin_1)*%
G36*
X122818452Y-66489191D02*
G01*
X122821702Y-66495437D01*
X122912259Y-67010239D01*
X122910317Y-67018981D01*
X122903056Y-67023734D01*
X122622320Y-67080530D01*
X122617680Y-67080530D01*
X122336943Y-67023734D01*
X122329514Y-67018734D01*
X122327740Y-67010239D01*
X122418298Y-66495437D01*
X122423106Y-66487883D01*
X122429821Y-66485764D01*
X122810179Y-66485764D01*
X122818452Y-66489191D01*
G37*
%TD.AperFunction*%
%TD*%
%TA.AperFunction,Conductor*%
%TO.N,/Y04*%
G36*
X124849275Y-123024026D02*
G01*
X125277331Y-123324013D01*
X125282139Y-123331567D01*
X125280365Y-123340062D01*
X125122015Y-123578734D01*
X125118734Y-123582015D01*
X124880062Y-123740365D01*
X124871274Y-123742084D01*
X124864013Y-123737331D01*
X124564026Y-123309275D01*
X124562085Y-123300535D01*
X124565333Y-123294291D01*
X124834290Y-123025334D01*
X124842562Y-123021908D01*
X124849275Y-123024026D01*
G37*
%TD.AperFunction*%
%TD*%
%TA.AperFunction,Conductor*%
%TO.N,/Y04*%
G36*
X124403056Y-115136265D02*
G01*
X124410485Y-115141265D01*
X124412259Y-115149760D01*
X124321702Y-115664563D01*
X124316894Y-115672117D01*
X124310179Y-115674236D01*
X123929821Y-115674236D01*
X123921548Y-115670809D01*
X123918298Y-115664563D01*
X123827740Y-115149760D01*
X123829682Y-115141018D01*
X123836942Y-115136265D01*
X124117682Y-115079469D01*
X124122318Y-115079469D01*
X124403056Y-115136265D01*
G37*
%TD.AperFunction*%
%TD*%
%TA.AperFunction,Conductor*%
%TO.N,/Y14*%
G36*
X125349275Y-73024026D02*
G01*
X125777331Y-73324013D01*
X125782139Y-73331567D01*
X125780365Y-73340062D01*
X125622015Y-73578734D01*
X125618734Y-73582015D01*
X125380062Y-73740365D01*
X125371274Y-73742084D01*
X125364013Y-73737331D01*
X125064026Y-73309275D01*
X125062085Y-73300535D01*
X125065333Y-73294291D01*
X125334290Y-73025334D01*
X125342562Y-73021908D01*
X125349275Y-73024026D01*
G37*
%TD.AperFunction*%
%TD*%
%TA.AperFunction,Conductor*%
%TO.N,/Y14*%
G36*
X125403056Y-65636265D02*
G01*
X125410485Y-65641265D01*
X125412259Y-65649760D01*
X125321702Y-66164563D01*
X125316894Y-66172117D01*
X125310179Y-66174236D01*
X124929821Y-66174236D01*
X124921548Y-66170809D01*
X124918298Y-66164563D01*
X124827740Y-65649760D01*
X124829682Y-65641018D01*
X124836942Y-65636265D01*
X125117682Y-65579469D01*
X125122318Y-65579469D01*
X125403056Y-65636265D01*
G37*
%TD.AperFunction*%
%TD*%
%TA.AperFunction,Conductor*%
%TO.N,/DOUT_0*%
G36*
X171759380Y-130029016D02*
G01*
X171767301Y-130033191D01*
X171770000Y-130040666D01*
X171770000Y-130819333D01*
X171766573Y-130827606D01*
X171759379Y-130830983D01*
X171234187Y-130879612D01*
X171226524Y-130877633D01*
X170583207Y-130439671D01*
X170578296Y-130432183D01*
X170580120Y-130423416D01*
X170583207Y-130420329D01*
X171151868Y-130033191D01*
X171226524Y-129982365D01*
X171234185Y-129980387D01*
X171759380Y-130029016D01*
G37*
%TD.AperFunction*%
%TD*%
%TA.AperFunction,Conductor*%
%TO.N,/DOUT_0*%
G36*
X177126160Y-131084104D02*
G01*
X178606384Y-132070263D01*
X178611369Y-132077702D01*
X178609634Y-132086487D01*
X178606384Y-132089737D01*
X177126160Y-133075895D01*
X177117375Y-133077630D01*
X177113653Y-133076191D01*
X176125680Y-132483408D01*
X176120349Y-132476213D01*
X176120000Y-132473375D01*
X176120000Y-131686625D01*
X176123427Y-131678352D01*
X176125680Y-131676592D01*
X177113653Y-131083808D01*
X177122511Y-131082490D01*
X177126160Y-131084104D01*
G37*
%TD.AperFunction*%
%TD*%
%TA.AperFunction,Conductor*%
%TO.N,/DOUT_0*%
G36*
X174628264Y-120237280D02*
G01*
X174815333Y-120424724D01*
X175113552Y-120723540D01*
X175116971Y-120731817D01*
X175115304Y-120737825D01*
X174823408Y-121224320D01*
X174816213Y-121229651D01*
X174813375Y-121230000D01*
X174426625Y-121230000D01*
X174418352Y-121226573D01*
X174416592Y-121224320D01*
X174124695Y-120737825D01*
X174123377Y-120728967D01*
X174126447Y-120723540D01*
X174611719Y-120237296D01*
X174619988Y-120233862D01*
X174628264Y-120237280D01*
G37*
%TD.AperFunction*%
%TD*%
%TA.AperFunction,Conductor*%
%TO.N,/DOUT_2*%
G36*
X171315520Y-80542921D02*
G01*
X171322851Y-80547125D01*
X171614410Y-80907168D01*
X171616953Y-80915754D01*
X171613590Y-80922804D01*
X171063180Y-81473214D01*
X171054907Y-81476641D01*
X171047107Y-81473660D01*
X170389773Y-80885520D01*
X170385893Y-80877451D01*
X170386756Y-80872348D01*
X170565794Y-80437784D01*
X170572114Y-80431441D01*
X170578370Y-80430675D01*
X171315520Y-80542921D01*
G37*
%TD.AperFunction*%
%TD*%
%TA.AperFunction,Conductor*%
%TO.N,/DOUT_2*%
G36*
X170362332Y-70272448D02*
G01*
X170370392Y-70276348D01*
X170372640Y-70280106D01*
X170612406Y-70935118D01*
X170612032Y-70944065D01*
X170609692Y-70947413D01*
X170338287Y-71218818D01*
X170330014Y-71222245D01*
X170324468Y-71220847D01*
X169793828Y-70935118D01*
X169422186Y-70735003D01*
X169416526Y-70728063D01*
X169416916Y-70720242D01*
X169616117Y-70236997D01*
X169622438Y-70230654D01*
X169627611Y-70229776D01*
X170362332Y-70272448D01*
G37*
%TD.AperFunction*%
%TD*%
%TA.AperFunction,Conductor*%
%TO.N,/DOUT_2*%
G36*
X177126160Y-81084104D02*
G01*
X178606384Y-82070263D01*
X178611369Y-82077702D01*
X178609634Y-82086487D01*
X178606384Y-82089737D01*
X177126160Y-83075895D01*
X177117375Y-83077630D01*
X177113653Y-83076191D01*
X176125680Y-82483408D01*
X176120349Y-82476213D01*
X176120000Y-82473375D01*
X176120000Y-81686625D01*
X176123427Y-81678352D01*
X176125680Y-81676592D01*
X177113653Y-81083808D01*
X177122511Y-81082490D01*
X177126160Y-81084104D01*
G37*
%TD.AperFunction*%
%TD*%
%TA.AperFunction,Conductor*%
%TO.N,/DOUT_1*%
G36*
X82819148Y-104582033D02*
G01*
X82820067Y-104583052D01*
X83612580Y-105573327D01*
X83615074Y-105581928D01*
X83613188Y-105587116D01*
X82629728Y-107066374D01*
X82622294Y-107071366D01*
X82613507Y-107069639D01*
X82610254Y-107066392D01*
X81622670Y-105587118D01*
X81620927Y-105578335D01*
X81623264Y-105573315D01*
X82413051Y-104585754D01*
X82420893Y-104581434D01*
X82422100Y-104581362D01*
X82810851Y-104578663D01*
X82819148Y-104582033D01*
G37*
%TD.AperFunction*%
%TD*%
%TA.AperFunction,Conductor*%
%TO.N,/DOUT_1*%
G36*
X91120845Y-95232717D02*
G01*
X91123882Y-95236997D01*
X91323083Y-95720242D01*
X91323068Y-95729197D01*
X91317813Y-95735003D01*
X90415532Y-96220847D01*
X90406623Y-96221752D01*
X90401712Y-96218818D01*
X90130307Y-95947413D01*
X90126880Y-95939140D01*
X90127593Y-95935118D01*
X90200845Y-95735003D01*
X90367360Y-95280104D01*
X90373421Y-95273515D01*
X90377664Y-95272448D01*
X91112387Y-95229776D01*
X91120845Y-95232717D01*
G37*
%TD.AperFunction*%
%TD*%
%TA.AperFunction,Conductor*%
%TO.N,/DOUT_1*%
G36*
X90013475Y-108282366D02*
G01*
X90656792Y-108720329D01*
X90661703Y-108727817D01*
X90659879Y-108736584D01*
X90656792Y-108739671D01*
X90013475Y-109177633D01*
X90005812Y-109179612D01*
X89480621Y-109130983D01*
X89472699Y-109126808D01*
X89470000Y-109119333D01*
X89470000Y-108340666D01*
X89473427Y-108332393D01*
X89480619Y-108329016D01*
X90005814Y-108280387D01*
X90013475Y-108282366D01*
G37*
%TD.AperFunction*%
%TD*%
%TA.AperFunction,Conductor*%
%TO.N,/DOUT_1*%
G36*
X84121354Y-106891416D02*
G01*
X84124005Y-106894292D01*
X85055976Y-108327091D01*
X85057868Y-108333470D01*
X85057868Y-109114660D01*
X85054441Y-109122933D01*
X85046168Y-109126360D01*
X85043075Y-109125944D01*
X83057886Y-108581735D01*
X83050813Y-108576243D01*
X83049737Y-108573693D01*
X82978624Y-108327091D01*
X82622782Y-107093115D01*
X82623782Y-107084218D01*
X82630782Y-107078633D01*
X82632539Y-107078269D01*
X84112714Y-106889065D01*
X84121354Y-106891416D01*
G37*
%TD.AperFunction*%
%TD*%
%TA.AperFunction,Conductor*%
%TO.N,/DOUT_3*%
G36*
X82822650Y-54583427D02*
G01*
X82823513Y-54584391D01*
X83614657Y-55573321D01*
X83617149Y-55581922D01*
X83615258Y-55587117D01*
X82629737Y-57066384D01*
X82622298Y-57071369D01*
X82613513Y-57069634D01*
X82610263Y-57066384D01*
X82116206Y-56324806D01*
X81624740Y-55587115D01*
X81623006Y-55578332D01*
X81625340Y-55573324D01*
X82416487Y-54584390D01*
X82424331Y-54580072D01*
X82425623Y-54580000D01*
X82814377Y-54580000D01*
X82822650Y-54583427D01*
G37*
%TD.AperFunction*%
%TD*%
%TA.AperFunction,Conductor*%
%TO.N,/DOUT_3*%
G36*
X84121320Y-46882107D02*
G01*
X84125425Y-46886741D01*
X84363152Y-47369989D01*
X84363729Y-47378926D01*
X84359044Y-47384955D01*
X83616525Y-47869082D01*
X83607723Y-47870730D01*
X83601862Y-47867554D01*
X83329558Y-47595250D01*
X83326131Y-47586977D01*
X83326167Y-47586057D01*
X83370001Y-47045164D01*
X83374085Y-47037196D01*
X83379253Y-47034660D01*
X84112520Y-46880456D01*
X84121320Y-46882107D01*
G37*
%TD.AperFunction*%
%TD*%
%TA.AperFunction,Conductor*%
%TO.N,/DOUT_3*%
G36*
X90013475Y-58282366D02*
G01*
X90656792Y-58720329D01*
X90661703Y-58727817D01*
X90659879Y-58736584D01*
X90656792Y-58739671D01*
X90013475Y-59177633D01*
X90005812Y-59179612D01*
X89480621Y-59130983D01*
X89472699Y-59126808D01*
X89470000Y-59119333D01*
X89470000Y-58340666D01*
X89473427Y-58332393D01*
X89480619Y-58329016D01*
X90005814Y-58280387D01*
X90013475Y-58282366D01*
G37*
%TD.AperFunction*%
%TD*%
%TA.AperFunction,Conductor*%
%TO.N,/DIN_0*%
G36*
X84113472Y-132165409D02*
G01*
X84121533Y-132169307D01*
X84123099Y-132171542D01*
X84881499Y-133580000D01*
X85105822Y-133996599D01*
X85106727Y-134005508D01*
X85103793Y-134010419D01*
X84550419Y-134563793D01*
X84542146Y-134567220D01*
X84536600Y-134565822D01*
X82711543Y-133583099D01*
X82705884Y-133576160D01*
X82705411Y-133573476D01*
X82620048Y-132092400D01*
X82622994Y-132083946D01*
X82631056Y-132080048D01*
X82632393Y-132080048D01*
X84113472Y-132165409D01*
G37*
%TD.AperFunction*%
%TD*%
%TA.AperFunction,Conductor*%
%TO.N,/DIN_0*%
G36*
X86426873Y-132785108D02*
G01*
X87115379Y-133077034D01*
X87121658Y-133083419D01*
X87122145Y-133084897D01*
X87272133Y-133669195D01*
X87270870Y-133678060D01*
X87264246Y-133683285D01*
X86285314Y-133985030D01*
X86276399Y-133984192D01*
X86273595Y-133982122D01*
X85721594Y-133430121D01*
X85718167Y-133421848D01*
X85721594Y-133413575D01*
X85721996Y-133413192D01*
X86414462Y-132787200D01*
X86422895Y-132784195D01*
X86426873Y-132785108D01*
G37*
%TD.AperFunction*%
%TD*%
%TA.AperFunction,Conductor*%
%TO.N,/DIN_0*%
G36*
X85021677Y-140934426D02*
G01*
X85023437Y-140936679D01*
X85315333Y-141423173D01*
X85316651Y-141432031D01*
X85313581Y-141437458D01*
X84828310Y-141923701D01*
X84820041Y-141927136D01*
X84811764Y-141923717D01*
X84811748Y-141923701D01*
X84326476Y-141437458D01*
X84323057Y-141429181D01*
X84324723Y-141423174D01*
X84616621Y-140936679D01*
X84623816Y-140931348D01*
X84626654Y-140930999D01*
X85013404Y-140930999D01*
X85021677Y-140934426D01*
G37*
%TD.AperFunction*%
%TD*%
%TA.AperFunction,Conductor*%
%TO.N,/DIN_1*%
G36*
X174323237Y-117932659D02*
G01*
X174920764Y-118423517D01*
X174924981Y-118431417D01*
X174923298Y-118438695D01*
X174626366Y-118920665D01*
X174619109Y-118925911D01*
X174610268Y-118924489D01*
X174609906Y-118924257D01*
X173875842Y-118433902D01*
X173870866Y-118426457D01*
X173870699Y-118423009D01*
X173918946Y-117940536D01*
X173923179Y-117932645D01*
X173930588Y-117930000D01*
X174315810Y-117930000D01*
X174323237Y-117932659D01*
G37*
%TD.AperFunction*%
%TD*%
%TA.AperFunction,Conductor*%
%TO.N,/DIN_1*%
G36*
X174672268Y-107500612D02*
G01*
X175411030Y-107677848D01*
X175418275Y-107683109D01*
X175420000Y-107689224D01*
X175420000Y-108470775D01*
X175416573Y-108479048D01*
X175411029Y-108482152D01*
X174672270Y-108659386D01*
X174663426Y-108657984D01*
X174661020Y-108656027D01*
X174486705Y-108470775D01*
X174126543Y-108088016D01*
X174123370Y-108079644D01*
X174126543Y-108071983D01*
X174661021Y-107503971D01*
X174669185Y-107500295D01*
X174672268Y-107500612D01*
G37*
%TD.AperFunction*%
%TD*%
%TA.AperFunction,Conductor*%
%TO.N,/DIN_1*%
G36*
X177127066Y-106605430D02*
G01*
X178602661Y-107074174D01*
X178609509Y-107079945D01*
X178610270Y-107088867D01*
X178607389Y-107093601D01*
X177123920Y-108576082D01*
X177115646Y-108579506D01*
X177114486Y-108579448D01*
X176130536Y-108481053D01*
X176122645Y-108476820D01*
X176120000Y-108469411D01*
X176120000Y-107684594D01*
X176123126Y-107676633D01*
X177114954Y-106608619D01*
X177123094Y-106604890D01*
X177127066Y-106605430D01*
G37*
%TD.AperFunction*%
%TD*%
%TA.AperFunction,Conductor*%
%TO.N,/DIN_1*%
G36*
X174323237Y-117932659D02*
G01*
X174920764Y-118423517D01*
X174924981Y-118431417D01*
X174923298Y-118438695D01*
X174626366Y-118920665D01*
X174619109Y-118925911D01*
X174610268Y-118924489D01*
X174609906Y-118924257D01*
X173875842Y-118433902D01*
X173870866Y-118426457D01*
X173870699Y-118423009D01*
X173918946Y-117940536D01*
X173923179Y-117932645D01*
X173930588Y-117930000D01*
X174315810Y-117930000D01*
X174323237Y-117932659D01*
G37*
%TD.AperFunction*%
%TD*%
%TA.AperFunction,Conductor*%
%TO.N,/DIN_1*%
G36*
X174127872Y-108086159D02*
G01*
X174712849Y-108618165D01*
X174716664Y-108626267D01*
X174714964Y-108632917D01*
X174323421Y-109274396D01*
X174316185Y-109279672D01*
X174313434Y-109280000D01*
X173926566Y-109280000D01*
X173918293Y-109276573D01*
X173916579Y-109274396D01*
X173525035Y-108632917D01*
X173523650Y-108624070D01*
X173527149Y-108618165D01*
X174112128Y-108086158D01*
X174120554Y-108083128D01*
X174127872Y-108086159D01*
G37*
%TD.AperFunction*%
%TD*%
%TA.AperFunction,Conductor*%
%TO.N,/DIN_3*%
G36*
X174672268Y-57500612D02*
G01*
X175411030Y-57677848D01*
X175418275Y-57683109D01*
X175420000Y-57689224D01*
X175420000Y-58470775D01*
X175416573Y-58479048D01*
X175411029Y-58482152D01*
X174672270Y-58659386D01*
X174663426Y-58657984D01*
X174661020Y-58656027D01*
X174486705Y-58470775D01*
X174126543Y-58088016D01*
X174123370Y-58079644D01*
X174126543Y-58071983D01*
X174661021Y-57503971D01*
X174669185Y-57500295D01*
X174672268Y-57500612D01*
G37*
%TD.AperFunction*%
%TD*%
%TA.AperFunction,Conductor*%
%TO.N,/DIN_3*%
G36*
X170338287Y-67941181D02*
G01*
X170609692Y-68212586D01*
X170613119Y-68220859D01*
X170612406Y-68224881D01*
X170372640Y-68879893D01*
X170366578Y-68886484D01*
X170362331Y-68887551D01*
X169627612Y-68930223D01*
X169619154Y-68927282D01*
X169616117Y-68923002D01*
X169416916Y-68439757D01*
X169416931Y-68430802D01*
X169422184Y-68424997D01*
X170324469Y-67939151D01*
X170333376Y-67938247D01*
X170338287Y-67941181D01*
G37*
%TD.AperFunction*%
%TD*%
%TA.AperFunction,Conductor*%
%TO.N,/DIN_3*%
G36*
X177127066Y-56605430D02*
G01*
X178602661Y-57074174D01*
X178609509Y-57079945D01*
X178610270Y-57088867D01*
X178607389Y-57093601D01*
X177123920Y-58576082D01*
X177115646Y-58579506D01*
X177114486Y-58579448D01*
X176130536Y-58481053D01*
X176122645Y-58476820D01*
X176120000Y-58469411D01*
X176120000Y-57684594D01*
X176123126Y-57676633D01*
X177114954Y-56608619D01*
X177123094Y-56604890D01*
X177127066Y-56605430D01*
G37*
%TD.AperFunction*%
%TD*%
%TA.AperFunction,Conductor*%
%TO.N,/DIN_2*%
G36*
X82632368Y-82081956D02*
G01*
X84113158Y-82383572D01*
X84120581Y-82388582D01*
X84122022Y-82391649D01*
X84607919Y-83997558D01*
X84607035Y-84006469D01*
X84604993Y-84009219D01*
X84050955Y-84563257D01*
X84042682Y-84566684D01*
X84036321Y-84564804D01*
X82521662Y-83583746D01*
X82516582Y-83576372D01*
X82516351Y-83573128D01*
X82618374Y-82092617D01*
X82622361Y-82084601D01*
X82630850Y-82081751D01*
X82632368Y-82081956D01*
G37*
%TD.AperFunction*%
%TD*%
%TA.AperFunction,Conductor*%
%TO.N,/DIN_2*%
G36*
X87124858Y-83088495D02*
G01*
X87480499Y-83667032D01*
X87481913Y-83675874D01*
X87476659Y-83683126D01*
X87473889Y-83684367D01*
X86759325Y-83898403D01*
X86518014Y-84182342D01*
X86510045Y-84186427D01*
X86501522Y-84183680D01*
X86497463Y-84175974D01*
X86420835Y-83438041D01*
X86423389Y-83429460D01*
X86427224Y-83426377D01*
X87109647Y-83084162D01*
X87118578Y-83083518D01*
X87124858Y-83088495D01*
G37*
%TD.AperFunction*%
%TD*%
%TA.AperFunction,Conductor*%
%TO.N,/DIN_2*%
G36*
X91321648Y-92933427D02*
G01*
X91323408Y-92935680D01*
X91615304Y-93422174D01*
X91616622Y-93431032D01*
X91613552Y-93436459D01*
X91128281Y-93922702D01*
X91120012Y-93926137D01*
X91111735Y-93922718D01*
X91111719Y-93922702D01*
X90626447Y-93436459D01*
X90623028Y-93428182D01*
X90624694Y-93422175D01*
X90916592Y-92935680D01*
X90923787Y-92930349D01*
X90926625Y-92930000D01*
X91313375Y-92930000D01*
X91321648Y-92933427D01*
G37*
%TD.AperFunction*%
%TD*%
%TA.AperFunction,Conductor*%
%TO.N,Net-(D13-DOUT)*%
G36*
X164981045Y-58290347D02*
G01*
X165315285Y-58503332D01*
X165655515Y-58720133D01*
X165660651Y-58727469D01*
X165659095Y-58736287D01*
X165655515Y-58739867D01*
X164981048Y-59169650D01*
X164972230Y-59171206D01*
X164969690Y-59170327D01*
X164968282Y-59169650D01*
X164476629Y-58933188D01*
X164470659Y-58926514D01*
X164470000Y-58922644D01*
X164470000Y-58537355D01*
X164473427Y-58529082D01*
X164476625Y-58526813D01*
X164969692Y-58289671D01*
X164978631Y-58289175D01*
X164981045Y-58290347D01*
G37*
%TD.AperFunction*%
%TD*%
%TA.AperFunction,Conductor*%
%TO.N,Net-(D13-DOUT)*%
G36*
X146312763Y-55542502D02*
G01*
X146320426Y-55547136D01*
X146322174Y-55550594D01*
X146477519Y-56050026D01*
X146476704Y-56058944D01*
X146474620Y-56061774D01*
X146203064Y-56333330D01*
X146194791Y-56336757D01*
X146189034Y-56335243D01*
X145700197Y-56058944D01*
X145392601Y-55885085D01*
X145387086Y-55878031D01*
X145387541Y-55870443D01*
X145519318Y-55550594D01*
X145565794Y-55437784D01*
X145572114Y-55431441D01*
X145578370Y-55430675D01*
X146312763Y-55542502D01*
G37*
%TD.AperFunction*%
%TD*%
%TA.AperFunction,Conductor*%
%TO.N,Net-(D14-DOUT)*%
G36*
X139981045Y-58290347D02*
G01*
X140315285Y-58503332D01*
X140655515Y-58720133D01*
X140660651Y-58727469D01*
X140659095Y-58736287D01*
X140655515Y-58739867D01*
X139981048Y-59169650D01*
X139972230Y-59171206D01*
X139969690Y-59170327D01*
X139968282Y-59169650D01*
X139476629Y-58933188D01*
X139470659Y-58926514D01*
X139470000Y-58922644D01*
X139470000Y-58537355D01*
X139473427Y-58529082D01*
X139476625Y-58526813D01*
X139969692Y-58289671D01*
X139978631Y-58289175D01*
X139981045Y-58290347D01*
G37*
%TD.AperFunction*%
%TD*%
%TA.AperFunction,Conductor*%
%TO.N,Net-(D14-DOUT)*%
G36*
X121312763Y-55542502D02*
G01*
X121320426Y-55547136D01*
X121322174Y-55550594D01*
X121477519Y-56050026D01*
X121476704Y-56058944D01*
X121474620Y-56061774D01*
X121203064Y-56333330D01*
X121194791Y-56336757D01*
X121189034Y-56335243D01*
X120700197Y-56058944D01*
X120392601Y-55885085D01*
X120387086Y-55878031D01*
X120387541Y-55870443D01*
X120519318Y-55550594D01*
X120565794Y-55437784D01*
X120572114Y-55431441D01*
X120578370Y-55430675D01*
X121312763Y-55542502D01*
G37*
%TD.AperFunction*%
%TD*%
%TA.AperFunction,Conductor*%
%TO.N,Net-(D15-DOUT)*%
G36*
X114981554Y-58290671D02*
G01*
X115478442Y-58607298D01*
X115655515Y-58720133D01*
X115660651Y-58727469D01*
X115659095Y-58736287D01*
X115655515Y-58739867D01*
X114981559Y-59169325D01*
X114972741Y-59170881D01*
X114969403Y-59169580D01*
X114475831Y-58883381D01*
X114470393Y-58876266D01*
X114470000Y-58873259D01*
X114470000Y-58586740D01*
X114473427Y-58578467D01*
X114475826Y-58576621D01*
X114969405Y-58290418D01*
X114978279Y-58289234D01*
X114981554Y-58290671D01*
G37*
%TD.AperFunction*%
%TD*%
%TA.AperFunction,Conductor*%
%TO.N,Net-(D15-DOUT)*%
G36*
X96312113Y-55542403D02*
G01*
X96319775Y-55547036D01*
X96321762Y-55551384D01*
X96442838Y-56085837D01*
X96441324Y-56094663D01*
X96439700Y-56096695D01*
X96238095Y-56298301D01*
X96229822Y-56301728D01*
X96224590Y-56300493D01*
X95393333Y-55884864D01*
X95387465Y-55878099D01*
X95387746Y-55869944D01*
X95565794Y-55437784D01*
X95572114Y-55431441D01*
X95578370Y-55430675D01*
X96312113Y-55542403D01*
G37*
%TD.AperFunction*%
%TD*%
%TA.AperFunction,Conductor*%
%TO.N,+5V*%
G36*
X163635006Y-101637455D02*
G01*
X163642442Y-101642445D01*
X163644172Y-101651231D01*
X163643827Y-101652545D01*
X163360128Y-102524812D01*
X163354311Y-102531619D01*
X163349002Y-102532893D01*
X162965998Y-102532893D01*
X162957725Y-102529466D01*
X162954872Y-102524812D01*
X162855594Y-102219571D01*
X162671172Y-101652543D01*
X162671872Y-101643617D01*
X162678679Y-101637800D01*
X162679984Y-101637457D01*
X163155196Y-101541963D01*
X163159804Y-101541963D01*
X163635006Y-101637455D01*
G37*
%TD.AperFunction*%
%TD*%
%TA.AperFunction,Conductor*%
%TO.N,+5V*%
G36*
X138556256Y-101058705D02*
G01*
X138563692Y-101063695D01*
X138565422Y-101072481D01*
X138565077Y-101073795D01*
X138281378Y-101946062D01*
X138275561Y-101952869D01*
X138270252Y-101954143D01*
X137887248Y-101954143D01*
X137878975Y-101950716D01*
X137876122Y-101946062D01*
X137776844Y-101640821D01*
X137592422Y-101073793D01*
X137593122Y-101064867D01*
X137599929Y-101059050D01*
X137601234Y-101058707D01*
X138076446Y-100963213D01*
X138081054Y-100963213D01*
X138556256Y-101058705D01*
G37*
%TD.AperFunction*%
%TD*%
%TA.AperFunction,Conductor*%
%TO.N,+5V*%
G36*
X147399516Y-136587884D02*
G01*
X148102994Y-137186503D01*
X148107074Y-137194475D01*
X148105151Y-137201898D01*
X147838467Y-137602461D01*
X147831030Y-137607448D01*
X147826450Y-137607453D01*
X147389658Y-137520747D01*
X147382210Y-137515775D01*
X147380236Y-137509271D01*
X147380236Y-136596796D01*
X147383663Y-136588523D01*
X147391936Y-136585096D01*
X147399516Y-136587884D01*
G37*
%TD.AperFunction*%
%TD*%
%TA.AperFunction,Conductor*%
%TO.N,+5V*%
G36*
X113477506Y-101156250D02*
G01*
X113484942Y-101161240D01*
X113486672Y-101170026D01*
X113486327Y-101171340D01*
X113202628Y-102043607D01*
X113196811Y-102050414D01*
X113191502Y-102051688D01*
X112808498Y-102051688D01*
X112800225Y-102048261D01*
X112797372Y-102043607D01*
X112698094Y-101738366D01*
X112513672Y-101171338D01*
X112514372Y-101162412D01*
X112521179Y-101156595D01*
X112522484Y-101156252D01*
X112997696Y-101060758D01*
X113002304Y-101060758D01*
X113477506Y-101156250D01*
G37*
%TD.AperFunction*%
%TD*%
%TA.AperFunction,Conductor*%
%TO.N,+5V*%
G36*
X113635006Y-52137455D02*
G01*
X113642442Y-52142445D01*
X113644172Y-52151231D01*
X113643827Y-52152545D01*
X113360128Y-53024812D01*
X113354311Y-53031619D01*
X113349002Y-53032893D01*
X112965998Y-53032893D01*
X112957725Y-53029466D01*
X112954872Y-53024812D01*
X112855594Y-52719571D01*
X112671172Y-52152543D01*
X112671872Y-52143617D01*
X112678679Y-52137800D01*
X112679984Y-52137457D01*
X113155196Y-52041963D01*
X113159804Y-52041963D01*
X113635006Y-52137455D01*
G37*
%TD.AperFunction*%
%TD*%
%TA.AperFunction,Conductor*%
%TO.N,+5V*%
G36*
X88653969Y-101930534D02*
G01*
X88657396Y-101938807D01*
X88657396Y-101938910D01*
X88648017Y-103000944D01*
X88644517Y-103009187D01*
X88636214Y-103012541D01*
X88634057Y-103012321D01*
X88510176Y-102987932D01*
X88157500Y-102918500D01*
X88157499Y-102918500D01*
X87680942Y-103012321D01*
X87672163Y-103010556D01*
X87667202Y-103003101D01*
X87666982Y-103000944D01*
X87657604Y-101938910D01*
X87660958Y-101930607D01*
X87669201Y-101927107D01*
X88645696Y-101927107D01*
X88653969Y-101930534D01*
G37*
%TD.AperFunction*%
%TD*%
%TA.AperFunction,Conductor*%
%TO.N,+5V*%
G36*
X172566387Y-136406406D02*
G01*
X173269865Y-137005025D01*
X173273945Y-137012997D01*
X173272022Y-137020420D01*
X173005338Y-137420983D01*
X172997901Y-137425970D01*
X172993321Y-137425975D01*
X172556529Y-137339269D01*
X172549081Y-137334297D01*
X172547107Y-137327793D01*
X172547107Y-136415318D01*
X172550534Y-136407045D01*
X172558807Y-136403618D01*
X172566387Y-136406406D01*
G37*
%TD.AperFunction*%
%TD*%
%TA.AperFunction,Conductor*%
%TO.N,/DOUT_0*%
G36*
X172895169Y-129734668D02*
G01*
X173165331Y-130004830D01*
X173168758Y-130013103D01*
X173167198Y-130018941D01*
X172808813Y-130641415D01*
X172801715Y-130646875D01*
X172792835Y-130645717D01*
X172792197Y-130645321D01*
X172471256Y-130432011D01*
X172467988Y-130428743D01*
X172254678Y-130107802D01*
X172252952Y-130099015D01*
X172257946Y-130091582D01*
X172258560Y-130091200D01*
X172881060Y-129732800D01*
X172889938Y-129731643D01*
X172895169Y-129734668D01*
G37*
%TD.AperFunction*%
%TD*%
%TA.AperFunction,Conductor*%
%TO.N,/DOUT_0*%
G36*
X172895169Y-129734668D02*
G01*
X173165331Y-130004830D01*
X173168758Y-130013103D01*
X173167198Y-130018941D01*
X172808813Y-130641415D01*
X172801715Y-130646875D01*
X172792835Y-130645717D01*
X172792197Y-130645321D01*
X172471256Y-130432011D01*
X172467988Y-130428743D01*
X172254678Y-130107802D01*
X172252952Y-130099015D01*
X172257946Y-130091582D01*
X172258560Y-130091200D01*
X172881060Y-129732800D01*
X172889938Y-129731643D01*
X172895169Y-129734668D01*
G37*
%TD.AperFunction*%
%TD*%
%TA.AperFunction,Conductor*%
%TO.N,/DOUT_2*%
G36*
X174819306Y-81291113D02*
G01*
X174822331Y-81296344D01*
X175009070Y-81989916D01*
X175007912Y-81998796D01*
X175000814Y-82004256D01*
X175000083Y-82004428D01*
X174622311Y-82080534D01*
X174617689Y-82080534D01*
X174329201Y-82022415D01*
X174239915Y-82004427D01*
X174232483Y-81999434D01*
X174230757Y-81990647D01*
X174230923Y-81989940D01*
X174417669Y-81296344D01*
X174423129Y-81289246D01*
X174428967Y-81287686D01*
X174811033Y-81287686D01*
X174819306Y-81291113D01*
G37*
%TD.AperFunction*%
%TD*%
%TA.AperFunction,Conductor*%
%TO.N,/DOUT_2*%
G36*
X174819306Y-81291113D02*
G01*
X174822331Y-81296344D01*
X175009070Y-81989916D01*
X175007912Y-81998796D01*
X175000814Y-82004256D01*
X175000083Y-82004428D01*
X174622311Y-82080534D01*
X174617689Y-82080534D01*
X174329201Y-82022415D01*
X174239915Y-82004427D01*
X174232483Y-81999434D01*
X174230757Y-81990647D01*
X174230923Y-81989940D01*
X174417669Y-81296344D01*
X174423129Y-81289246D01*
X174428967Y-81287686D01*
X174811033Y-81287686D01*
X174819306Y-81291113D01*
G37*
%TD.AperFunction*%
%TD*%
%TA.AperFunction,Conductor*%
%TO.N,/DIN_0*%
G36*
X84739751Y-134504333D02*
G01*
X85117689Y-134578546D01*
X85121955Y-134580312D01*
X85440955Y-134794420D01*
X85445915Y-134801876D01*
X85444150Y-134810655D01*
X85442832Y-134812282D01*
X85023476Y-135244509D01*
X85015256Y-135248061D01*
X85015079Y-135248062D01*
X84633538Y-135248062D01*
X84625265Y-135244635D01*
X84621838Y-135236362D01*
X84621958Y-135234691D01*
X84684360Y-134802228D01*
X84725928Y-134514144D01*
X84730501Y-134506446D01*
X84739179Y-134504236D01*
X84739751Y-134504333D01*
G37*
%TD.AperFunction*%
%TD*%
%TA.AperFunction,Conductor*%
%TO.N,/DIN_0*%
G36*
X84739751Y-134504333D02*
G01*
X85117689Y-134578546D01*
X85121955Y-134580312D01*
X85440955Y-134794420D01*
X85445915Y-134801876D01*
X85444150Y-134810655D01*
X85442832Y-134812282D01*
X85023476Y-135244509D01*
X85015256Y-135248061D01*
X85015079Y-135248062D01*
X84633538Y-135248062D01*
X84625265Y-135244635D01*
X84621838Y-135236362D01*
X84621958Y-135234691D01*
X84684360Y-134802228D01*
X84725928Y-134514144D01*
X84730501Y-134506446D01*
X84739179Y-134504236D01*
X84739751Y-134504333D01*
G37*
%TD.AperFunction*%
%TD*%
%TA.AperFunction,Conductor*%
%TO.N,/DIN_3*%
G36*
X176500084Y-58155572D02*
G01*
X176507516Y-58160565D01*
X176509242Y-58169352D01*
X176509070Y-58170083D01*
X176322331Y-58863656D01*
X176316871Y-58870754D01*
X176311033Y-58872314D01*
X175928967Y-58872314D01*
X175920694Y-58868887D01*
X175917669Y-58863656D01*
X175889177Y-58757835D01*
X175730929Y-58170081D01*
X175732087Y-58161203D01*
X175739185Y-58155743D01*
X175739882Y-58155578D01*
X176117692Y-58079465D01*
X176122308Y-58079465D01*
X176500084Y-58155572D01*
G37*
%TD.AperFunction*%
%TD*%
%TA.AperFunction,Conductor*%
%TO.N,/DIN_3*%
G36*
X176500084Y-58155572D02*
G01*
X176507516Y-58160565D01*
X176509242Y-58169352D01*
X176509070Y-58170083D01*
X176322331Y-58863656D01*
X176316871Y-58870754D01*
X176311033Y-58872314D01*
X175928967Y-58872314D01*
X175920694Y-58868887D01*
X175917669Y-58863656D01*
X175889177Y-58757835D01*
X175730929Y-58170081D01*
X175732087Y-58161203D01*
X175739185Y-58155743D01*
X175739882Y-58155578D01*
X176117692Y-58079465D01*
X176122308Y-58079465D01*
X176500084Y-58155572D01*
G37*
%TD.AperFunction*%
%TD*%
%TA.AperFunction,Conductor*%
%TO.N,/DIN_2*%
G36*
X86709114Y-83617258D02*
G01*
X86856395Y-83831317D01*
X87076603Y-84151371D01*
X87099156Y-84184149D01*
X87101022Y-84192907D01*
X87098432Y-84198358D01*
X86851035Y-84489460D01*
X86843066Y-84493545D01*
X86837071Y-84492437D01*
X86211131Y-84192907D01*
X86159920Y-84168401D01*
X86153936Y-84161739D01*
X86154416Y-84152797D01*
X86155221Y-84151379D01*
X86367935Y-83831314D01*
X86371198Y-83828050D01*
X86692999Y-83614145D01*
X86701785Y-83612420D01*
X86709114Y-83617258D01*
G37*
%TD.AperFunction*%
%TD*%
%TA.AperFunction,Conductor*%
%TO.N,/DIN_2*%
G36*
X86709114Y-83617258D02*
G01*
X86856395Y-83831317D01*
X87076603Y-84151371D01*
X87099156Y-84184149D01*
X87101022Y-84192907D01*
X87098432Y-84198358D01*
X86851035Y-84489460D01*
X86843066Y-84493545D01*
X86837071Y-84492437D01*
X86211131Y-84192907D01*
X86159920Y-84168401D01*
X86153936Y-84161739D01*
X86154416Y-84152797D01*
X86155221Y-84151379D01*
X86367935Y-83831314D01*
X86371198Y-83828050D01*
X86692999Y-83614145D01*
X86701785Y-83612420D01*
X86709114Y-83617258D01*
G37*
%TD.AperFunction*%
%TD*%
M02*
