%TF.GenerationSoftware,KiCad,Pcbnew,9.0.6*%
%TF.CreationDate,2025-11-15T09:42:16+01:00*%
%TF.ProjectId,mux_led_reed,6d75785f-6c65-4645-9f72-6565642e6b69,1*%
%TF.SameCoordinates,Original*%
%TF.FileFunction,Soldermask,Bot*%
%TF.FilePolarity,Negative*%
%FSLAX46Y46*%
G04 Gerber Fmt 4.6, Leading zero omitted, Abs format (unit mm)*
G04 Created by KiCad (PCBNEW 9.0.6) date 2025-11-15 09:42:16*
%MOMM*%
%LPD*%
G01*
G04 APERTURE LIST*
G04 Aperture macros list*
%AMRoundRect*
0 Rectangle with rounded corners*
0 $1 Rounding radius*
0 $2 $3 $4 $5 $6 $7 $8 $9 X,Y pos of 4 corners*
0 Add a 4 corners polygon primitive as box body*
4,1,4,$2,$3,$4,$5,$6,$7,$8,$9,$2,$3,0*
0 Add four circle primitives for the rounded corners*
1,1,$1+$1,$2,$3*
1,1,$1+$1,$4,$5*
1,1,$1+$1,$6,$7*
1,1,$1+$1,$8,$9*
0 Add four rect primitives between the rounded corners*
20,1,$1+$1,$2,$3,$4,$5,0*
20,1,$1+$1,$4,$5,$6,$7,0*
20,1,$1+$1,$6,$7,$8,$9,0*
20,1,$1+$1,$8,$9,$2,$3,0*%
G04 Aperture macros list end*
%ADD10C,1.800000*%
%ADD11R,1.700000X1.700000*%
%ADD12C,1.700000*%
%ADD13RoundRect,0.250000X-0.475000X0.337500X-0.475000X-0.337500X0.475000X-0.337500X0.475000X0.337500X0*%
%ADD14RoundRect,0.102000X-0.850900X-0.266700X0.850900X-0.266700X0.850900X0.266700X-0.850900X0.266700X0*%
G04 APERTURE END LIST*
D10*
%TO.C,SW9*%
X93120000Y-75080000D03*
X93120000Y-89080000D03*
%TD*%
%TO.C,SW15*%
X118120000Y-64080000D03*
X118120000Y-50080000D03*
%TD*%
D11*
%TO.C,J6*%
X161100000Y-140360000D03*
D12*
X158560000Y-140360000D03*
X156020000Y-140360000D03*
X153480000Y-140360000D03*
%TD*%
D10*
%TO.C,SW3*%
X143120000Y-125080000D03*
X143120000Y-139080000D03*
%TD*%
D11*
%TO.C,J8*%
X136140000Y-48820000D03*
D12*
X133600000Y-48820000D03*
X131060000Y-48820000D03*
X128520000Y-48820000D03*
%TD*%
D10*
%TO.C,SW1*%
X93120000Y-125080000D03*
X93120000Y-139080000D03*
%TD*%
%TO.C,SW14*%
X143120000Y-64080000D03*
X143120000Y-50080000D03*
%TD*%
D11*
%TO.C,J11*%
X176420000Y-73400000D03*
D12*
X176420000Y-70860000D03*
X176420000Y-68320000D03*
X176420000Y-65780000D03*
%TD*%
D10*
%TO.C,SW5*%
X168120000Y-114080000D03*
X168120000Y-100080000D03*
%TD*%
D11*
%TO.C,J10*%
X84820000Y-98400000D03*
D12*
X84820000Y-95860000D03*
X84820000Y-93320000D03*
X84820000Y-90780000D03*
%TD*%
D10*
%TO.C,SW10*%
X118120000Y-75080000D03*
X118120000Y-89080000D03*
%TD*%
%TO.C,SW2*%
X118120000Y-125080000D03*
X118120000Y-139080000D03*
%TD*%
%TO.C,SW16*%
X93120000Y-64080000D03*
X93120000Y-50080000D03*
%TD*%
D11*
%TO.C,J5*%
X136140000Y-140370000D03*
D12*
X133600000Y-140370000D03*
X131060000Y-140370000D03*
X128520000Y-140370000D03*
%TD*%
D10*
%TO.C,SW13*%
X168120000Y-64080000D03*
X168120000Y-50080000D03*
%TD*%
%TO.C,SW7*%
X118120000Y-114080000D03*
X118120000Y-100080000D03*
%TD*%
%TO.C,SW4*%
X168120000Y-125080000D03*
X168120000Y-139080000D03*
%TD*%
%TO.C,SW6*%
X143120000Y-114080000D03*
X143120000Y-100080000D03*
%TD*%
D11*
%TO.C,J9*%
X84755000Y-73400000D03*
D12*
X84755000Y-70860000D03*
X84755000Y-68320000D03*
X84755000Y-65780000D03*
%TD*%
D11*
%TO.C,J7*%
X161100000Y-48820000D03*
D12*
X158560000Y-48820000D03*
X156020000Y-48820000D03*
X153480000Y-48820000D03*
%TD*%
D10*
%TO.C,SW11*%
X143120000Y-75080000D03*
X143120000Y-89080000D03*
%TD*%
%TO.C,SW8*%
X93120000Y-114080000D03*
X93120000Y-100080000D03*
%TD*%
%TO.C,SW12*%
X168120000Y-75080000D03*
X168120000Y-89080000D03*
%TD*%
D11*
%TO.C,J12*%
X176420000Y-98400000D03*
D12*
X176420000Y-95860000D03*
X176420000Y-93320000D03*
X176420000Y-90780000D03*
%TD*%
D13*
%TO.C,C18*%
X135620000Y-125042500D03*
X135620000Y-127117500D03*
%TD*%
D11*
%TO.C,J1*%
X155620000Y-112080000D03*
%TD*%
D14*
%TO.C,U1*%
X128029200Y-124025000D03*
X128029200Y-122755000D03*
X128029200Y-121485000D03*
X128029200Y-120215000D03*
X128029200Y-118945000D03*
X128029200Y-117675000D03*
X128029200Y-116405000D03*
X128029200Y-115135000D03*
X133210800Y-115135000D03*
X133210800Y-116405000D03*
X133210800Y-117675000D03*
X133210800Y-118945000D03*
X133210800Y-120215000D03*
X133210800Y-121485000D03*
X133210800Y-122755000D03*
X133210800Y-124025000D03*
%TD*%
D13*
%TO.C,C17*%
X135620000Y-74542500D03*
X135620000Y-76617500D03*
%TD*%
D11*
%TO.C,J2*%
X155620000Y-121080000D03*
D12*
X155620000Y-118540000D03*
X155620000Y-116000000D03*
%TD*%
D11*
%TO.C,J4*%
X155620000Y-71580000D03*
D12*
X155620000Y-69040000D03*
X155620000Y-66500000D03*
%TD*%
D11*
%TO.C,J3*%
X155620000Y-62580000D03*
%TD*%
D14*
%TO.C,U2*%
X128029200Y-74025000D03*
X128029200Y-72755000D03*
X128029200Y-71485000D03*
X128029200Y-70215000D03*
X128029200Y-68945000D03*
X128029200Y-67675000D03*
X128029200Y-66405000D03*
X128029200Y-65135000D03*
X133210800Y-65135000D03*
X133210800Y-66405000D03*
X133210800Y-67675000D03*
X133210800Y-68945000D03*
X133210800Y-70215000D03*
X133210800Y-71485000D03*
X133210800Y-72755000D03*
X133210800Y-74025000D03*
%TD*%
M02*
