%TF.GenerationSoftware,KiCad,Pcbnew,9.0.6*%
%TF.CreationDate,2025-11-15T09:42:16+01:00*%
%TF.ProjectId,mux_led_reed,6d75785f-6c65-4645-9f72-6565642e6b69,1*%
%TF.SameCoordinates,Original*%
%TF.FileFunction,Soldermask,Top*%
%TF.FilePolarity,Negative*%
%FSLAX46Y46*%
G04 Gerber Fmt 4.6, Leading zero omitted, Abs format (unit mm)*
G04 Created by KiCad (PCBNEW 9.0.6) date 2025-11-15 09:42:16*
%MOMM*%
%LPD*%
G01*
G04 APERTURE LIST*
G04 Aperture macros list*
%AMRoundRect*
0 Rectangle with rounded corners*
0 $1 Rounding radius*
0 $2 $3 $4 $5 $6 $7 $8 $9 X,Y pos of 4 corners*
0 Add a 4 corners polygon primitive as box body*
4,1,4,$2,$3,$4,$5,$6,$7,$8,$9,$2,$3,0*
0 Add four circle primitives for the rounded corners*
1,1,$1+$1,$2,$3*
1,1,$1+$1,$4,$5*
1,1,$1+$1,$6,$7*
1,1,$1+$1,$8,$9*
0 Add four rect primitives between the rounded corners*
20,1,$1+$1,$2,$3,$4,$5,0*
20,1,$1+$1,$4,$5,$6,$7,0*
20,1,$1+$1,$6,$7,$8,$9,0*
20,1,$1+$1,$8,$9,$2,$3,0*%
G04 Aperture macros list end*
%ADD10RoundRect,0.090000X0.660000X0.360000X-0.660000X0.360000X-0.660000X-0.360000X0.660000X-0.360000X0*%
%ADD11C,1.800000*%
%ADD12R,1.500000X1.000000*%
%ADD13RoundRect,0.250000X-0.337500X-0.475000X0.337500X-0.475000X0.337500X0.475000X-0.337500X0.475000X0*%
%ADD14R,1.700000X1.700000*%
%ADD15C,1.700000*%
%ADD16R,3.000000X3.000000*%
%ADD17R,4.000000X4.000000*%
%ADD18RoundRect,0.250000X0.450000X-0.350000X0.450000X0.350000X-0.450000X0.350000X-0.450000X-0.350000X0*%
%ADD19RoundRect,0.090000X-0.660000X-0.360000X0.660000X-0.360000X0.660000X0.360000X-0.660000X0.360000X0*%
%ADD20RoundRect,0.250000X0.337500X0.475000X-0.337500X0.475000X-0.337500X-0.475000X0.337500X-0.475000X0*%
G04 APERTURE END LIST*
%TO.C,JP2*%
G36*
X173870000Y-119730000D02*
G01*
X175370000Y-119730000D01*
X175370000Y-119430000D01*
X173870000Y-119430000D01*
X173870000Y-119730000D01*
G37*
%TO.C,JP3*%
G36*
X90370000Y-94730000D02*
G01*
X91870000Y-94730000D01*
X91870000Y-94430000D01*
X90370000Y-94430000D01*
X90370000Y-94730000D01*
G37*
%TO.C,JP1*%
G36*
X84070029Y-142730999D02*
G01*
X85570029Y-142730999D01*
X85570029Y-142430999D01*
X84070029Y-142430999D01*
X84070029Y-142730999D01*
G37*
%TO.C,JP5*%
G36*
X83370707Y-46379293D02*
G01*
X84870707Y-46379293D01*
X84870707Y-46079293D01*
X83370707Y-46079293D01*
X83370707Y-46379293D01*
G37*
%TO.C,JP4*%
G36*
X168870000Y-69730000D02*
G01*
X170370000Y-69730000D01*
X170370000Y-69430000D01*
X168870000Y-69430000D01*
X168870000Y-69730000D01*
G37*
%TD*%
D10*
%TO.C,D11*%
X145570000Y-83730000D03*
X145570000Y-80430000D03*
X140670000Y-80430000D03*
X140670000Y-83730000D03*
%TD*%
D11*
%TO.C,SW9*%
X93120000Y-75080000D03*
X93120000Y-89080000D03*
%TD*%
D12*
%TO.C,JP2*%
X174620000Y-120230000D03*
X174620000Y-118930000D03*
%TD*%
%TO.C,JP3*%
X91120000Y-95230000D03*
X91120000Y-93930000D03*
%TD*%
D13*
%TO.C,C13*%
X161282500Y-57280000D03*
X163357500Y-57280000D03*
%TD*%
D11*
%TO.C,SW15*%
X118120000Y-64080000D03*
X118120000Y-50080000D03*
%TD*%
D14*
%TO.C,J6*%
X161100000Y-140360000D03*
D15*
X158560000Y-140360000D03*
X156020000Y-140360000D03*
X153480000Y-140360000D03*
%TD*%
D10*
%TO.C,D1*%
X95570000Y-133730000D03*
X95570000Y-130430000D03*
X90670000Y-130430000D03*
X90670000Y-133730000D03*
%TD*%
%TO.C,D10*%
X120570000Y-83730000D03*
X120570000Y-80430000D03*
X115670000Y-80430000D03*
X115670000Y-83730000D03*
%TD*%
%TO.C,D12*%
X170570000Y-83730000D03*
X170570000Y-80430000D03*
X165670000Y-80430000D03*
X165670000Y-83730000D03*
%TD*%
D13*
%TO.C,C16*%
X86082500Y-52580000D03*
X88157500Y-52580000D03*
%TD*%
%TO.C,C7*%
X111082500Y-102580000D03*
X113157500Y-102580000D03*
%TD*%
D16*
%TO.C,TP1*%
X82620000Y-132080000D03*
%TD*%
D11*
%TO.C,SW3*%
X143120000Y-125080000D03*
X143120000Y-139080000D03*
%TD*%
D14*
%TO.C,J8*%
X136140000Y-48820000D03*
D15*
X133600000Y-48820000D03*
X131060000Y-48820000D03*
X128520000Y-48820000D03*
%TD*%
D17*
%TO.C,TP9*%
X104120000Y-142080000D03*
%TD*%
%TO.C,TP11*%
X104120000Y-47080000D03*
%TD*%
D18*
%TO.C,R4*%
X174120000Y-58080000D03*
X174120000Y-56080000D03*
%TD*%
%TO.C,R2*%
X174120000Y-108080000D03*
X174120000Y-106080000D03*
%TD*%
D13*
%TO.C,C14*%
X136282500Y-57280000D03*
X138357500Y-57280000D03*
%TD*%
D19*
%TO.C,D16*%
X90670000Y-55430000D03*
X90670000Y-58730000D03*
X95570000Y-58730000D03*
X95570000Y-55430000D03*
%TD*%
D11*
%TO.C,SW1*%
X93120000Y-125080000D03*
X93120000Y-139080000D03*
%TD*%
D13*
%TO.C,C8*%
X86082500Y-102080000D03*
X88157500Y-102080000D03*
%TD*%
D19*
%TO.C,D8*%
X90670000Y-105430000D03*
X90670000Y-108730000D03*
X95570000Y-108730000D03*
X95570000Y-105430000D03*
%TD*%
D11*
%TO.C,SW14*%
X143120000Y-64080000D03*
X143120000Y-50080000D03*
%TD*%
D20*
%TO.C,C2*%
X125157500Y-136580000D03*
X123082500Y-136580000D03*
%TD*%
D10*
%TO.C,D3*%
X145570000Y-133730000D03*
X145570000Y-130430000D03*
X140670000Y-130430000D03*
X140670000Y-133730000D03*
%TD*%
D19*
%TO.C,D6*%
X140670000Y-105430000D03*
X140670000Y-108730000D03*
X145570000Y-108730000D03*
X145570000Y-105430000D03*
%TD*%
D10*
%TO.C,D2*%
X120570000Y-133730000D03*
X120570000Y-130430000D03*
X115670000Y-130430000D03*
X115670000Y-133730000D03*
%TD*%
D14*
%TO.C,J11*%
X176420000Y-73400000D03*
D15*
X176420000Y-70860000D03*
X176420000Y-68320000D03*
X176420000Y-65780000D03*
%TD*%
D20*
%TO.C,C11*%
X150157500Y-86580000D03*
X148082500Y-86580000D03*
%TD*%
D16*
%TO.C,TP6*%
X178620000Y-82080000D03*
%TD*%
D19*
%TO.C,D15*%
X115670000Y-55430000D03*
X115670000Y-58730000D03*
X120570000Y-58730000D03*
X120570000Y-55430000D03*
%TD*%
D11*
%TO.C,SW5*%
X168120000Y-114080000D03*
X168120000Y-100080000D03*
%TD*%
D14*
%TO.C,J10*%
X84820000Y-98400000D03*
D15*
X84820000Y-95860000D03*
X84820000Y-93320000D03*
X84820000Y-90780000D03*
%TD*%
D11*
%TO.C,SW10*%
X118120000Y-75080000D03*
X118120000Y-89080000D03*
%TD*%
D19*
%TO.C,D7*%
X115670000Y-105430000D03*
X115670000Y-108730000D03*
X120570000Y-108730000D03*
X120570000Y-105430000D03*
%TD*%
D20*
%TO.C,C1*%
X100157500Y-136580000D03*
X98082500Y-136580000D03*
%TD*%
D12*
%TO.C,JP1*%
X84820029Y-143230999D03*
X84820029Y-141930999D03*
%TD*%
D11*
%TO.C,SW2*%
X118120000Y-125080000D03*
X118120000Y-139080000D03*
%TD*%
D19*
%TO.C,D13*%
X165670000Y-55430000D03*
X165670000Y-58730000D03*
X170570000Y-58730000D03*
X170570000Y-55430000D03*
%TD*%
D16*
%TO.C,TP7*%
X178620000Y-57080000D03*
%TD*%
D18*
%TO.C,R1*%
X87120000Y-133080000D03*
X87120000Y-131080000D03*
%TD*%
D11*
%TO.C,SW16*%
X93120000Y-64080000D03*
X93120000Y-50080000D03*
%TD*%
D14*
%TO.C,J5*%
X136140000Y-140370000D03*
D15*
X133600000Y-140370000D03*
X131060000Y-140370000D03*
X128520000Y-140370000D03*
%TD*%
D11*
%TO.C,SW13*%
X168120000Y-64080000D03*
X168120000Y-50080000D03*
%TD*%
D12*
%TO.C,JP5*%
X84120707Y-46879293D03*
X84120707Y-45579293D03*
%TD*%
D20*
%TO.C,C10*%
X125157500Y-86580000D03*
X123082500Y-86580000D03*
%TD*%
D17*
%TO.C,TP10*%
X109120000Y-142080000D03*
%TD*%
D16*
%TO.C,TP5*%
X82620000Y-82080000D03*
%TD*%
D11*
%TO.C,SW7*%
X118120000Y-114080000D03*
X118120000Y-100080000D03*
%TD*%
D20*
%TO.C,C4*%
X175157500Y-136580000D03*
X173082500Y-136580000D03*
%TD*%
D11*
%TO.C,SW4*%
X168120000Y-125080000D03*
X168120000Y-139080000D03*
%TD*%
D13*
%TO.C,C5*%
X161082500Y-102580000D03*
X163157500Y-102580000D03*
%TD*%
D18*
%TO.C,R3*%
X87120000Y-83080000D03*
X87120000Y-81080000D03*
%TD*%
D11*
%TO.C,SW6*%
X143120000Y-114080000D03*
X143120000Y-100080000D03*
%TD*%
D20*
%TO.C,C12*%
X175157500Y-86580000D03*
X173082500Y-86580000D03*
%TD*%
%TO.C,C3*%
X150157500Y-136580000D03*
X148082500Y-136580000D03*
%TD*%
D14*
%TO.C,J9*%
X84755000Y-73400000D03*
D15*
X84755000Y-70860000D03*
X84755000Y-68320000D03*
X84755000Y-65780000D03*
%TD*%
D14*
%TO.C,J7*%
X161100000Y-48820000D03*
D15*
X158560000Y-48820000D03*
X156020000Y-48820000D03*
X153480000Y-48820000D03*
%TD*%
D10*
%TO.C,D9*%
X95570000Y-83730000D03*
X95570000Y-80430000D03*
X90670000Y-80430000D03*
X90670000Y-83730000D03*
%TD*%
D16*
%TO.C,TP2*%
X178620000Y-132080000D03*
%TD*%
D11*
%TO.C,SW11*%
X143120000Y-75080000D03*
X143120000Y-89080000D03*
%TD*%
D19*
%TO.C,D14*%
X140670000Y-55430000D03*
X140670000Y-58730000D03*
X145570000Y-58730000D03*
X145570000Y-55430000D03*
%TD*%
D17*
%TO.C,TP12*%
X109120000Y-47080000D03*
%TD*%
D16*
%TO.C,TP3*%
X178620000Y-107080000D03*
%TD*%
D12*
%TO.C,JP4*%
X169620000Y-70230000D03*
X169620000Y-68930000D03*
%TD*%
D13*
%TO.C,C6*%
X136082500Y-102580000D03*
X138157500Y-102580000D03*
%TD*%
D16*
%TO.C,TP8*%
X82620000Y-57080000D03*
%TD*%
D11*
%TO.C,SW8*%
X93120000Y-114080000D03*
X93120000Y-100080000D03*
%TD*%
D20*
%TO.C,C9*%
X100157500Y-86580000D03*
X98082500Y-86580000D03*
%TD*%
D13*
%TO.C,C15*%
X111082500Y-53080000D03*
X113157500Y-53080000D03*
%TD*%
D10*
%TO.C,D4*%
X170570000Y-133730000D03*
X170570000Y-130430000D03*
X165670000Y-130430000D03*
X165670000Y-133730000D03*
%TD*%
D16*
%TO.C,TP4*%
X82620000Y-107080000D03*
%TD*%
D19*
%TO.C,D5*%
X165670000Y-105430000D03*
X165670000Y-108730000D03*
X170570000Y-108730000D03*
X170570000Y-105430000D03*
%TD*%
D11*
%TO.C,SW12*%
X168120000Y-75080000D03*
X168120000Y-89080000D03*
%TD*%
D14*
%TO.C,J12*%
X176420000Y-98400000D03*
D15*
X176420000Y-95860000D03*
X176420000Y-93320000D03*
X176420000Y-90780000D03*
%TD*%
D14*
%TO.C,J1*%
X155620000Y-112080000D03*
%TD*%
%TO.C,J2*%
X155620000Y-121080000D03*
D15*
X155620000Y-118540000D03*
X155620000Y-116000000D03*
%TD*%
D14*
%TO.C,J4*%
X155620000Y-71580000D03*
D15*
X155620000Y-69040000D03*
X155620000Y-66500000D03*
%TD*%
D14*
%TO.C,J3*%
X155620000Y-62580000D03*
%TD*%
M02*
