%TF.GenerationSoftware,KiCad,Pcbnew,9.0.6*%
%TF.CreationDate,2025-11-15T09:42:16+01:00*%
%TF.ProjectId,mux_led_reed,6d75785f-6c65-4645-9f72-6565642e6b69,1*%
%TF.SameCoordinates,Original*%
%TF.FileFunction,Paste,Top*%
%TF.FilePolarity,Positive*%
%FSLAX46Y46*%
G04 Gerber Fmt 4.6, Leading zero omitted, Abs format (unit mm)*
G04 Created by KiCad (PCBNEW 9.0.6) date 2025-11-15 09:42:16*
%MOMM*%
%LPD*%
G01*
G04 APERTURE LIST*
G04 Aperture macros list*
%AMRoundRect*
0 Rectangle with rounded corners*
0 $1 Rounding radius*
0 $2 $3 $4 $5 $6 $7 $8 $9 X,Y pos of 4 corners*
0 Add a 4 corners polygon primitive as box body*
4,1,4,$2,$3,$4,$5,$6,$7,$8,$9,$2,$3,0*
0 Add four circle primitives for the rounded corners*
1,1,$1+$1,$2,$3*
1,1,$1+$1,$4,$5*
1,1,$1+$1,$6,$7*
1,1,$1+$1,$8,$9*
0 Add four rect primitives between the rounded corners*
20,1,$1+$1,$2,$3,$4,$5,0*
20,1,$1+$1,$4,$5,$6,$7,0*
20,1,$1+$1,$6,$7,$8,$9,0*
20,1,$1+$1,$8,$9,$2,$3,0*%
G04 Aperture macros list end*
%ADD10RoundRect,0.090000X0.660000X0.360000X-0.660000X0.360000X-0.660000X-0.360000X0.660000X-0.360000X0*%
%ADD11RoundRect,0.250000X-0.337500X-0.475000X0.337500X-0.475000X0.337500X0.475000X-0.337500X0.475000X0*%
%ADD12RoundRect,0.250000X0.450000X-0.350000X0.450000X0.350000X-0.450000X0.350000X-0.450000X-0.350000X0*%
%ADD13RoundRect,0.090000X-0.660000X-0.360000X0.660000X-0.360000X0.660000X0.360000X-0.660000X0.360000X0*%
%ADD14RoundRect,0.250000X0.337500X0.475000X-0.337500X0.475000X-0.337500X-0.475000X0.337500X-0.475000X0*%
G04 APERTURE END LIST*
D10*
%TO.C,D11*%
X145570000Y-83730000D03*
X145570000Y-80430000D03*
X140670000Y-80430000D03*
X140670000Y-83730000D03*
%TD*%
D11*
%TO.C,C13*%
X161282500Y-57280000D03*
X163357500Y-57280000D03*
%TD*%
D10*
%TO.C,D1*%
X95570000Y-133730000D03*
X95570000Y-130430000D03*
X90670000Y-130430000D03*
X90670000Y-133730000D03*
%TD*%
%TO.C,D10*%
X120570000Y-83730000D03*
X120570000Y-80430000D03*
X115670000Y-80430000D03*
X115670000Y-83730000D03*
%TD*%
%TO.C,D12*%
X170570000Y-83730000D03*
X170570000Y-80430000D03*
X165670000Y-80430000D03*
X165670000Y-83730000D03*
%TD*%
D11*
%TO.C,C16*%
X86082500Y-52580000D03*
X88157500Y-52580000D03*
%TD*%
%TO.C,C7*%
X111082500Y-102580000D03*
X113157500Y-102580000D03*
%TD*%
D12*
%TO.C,R4*%
X174120000Y-58080000D03*
X174120000Y-56080000D03*
%TD*%
%TO.C,R2*%
X174120000Y-108080000D03*
X174120000Y-106080000D03*
%TD*%
D11*
%TO.C,C14*%
X136282500Y-57280000D03*
X138357500Y-57280000D03*
%TD*%
D13*
%TO.C,D16*%
X90670000Y-55430000D03*
X90670000Y-58730000D03*
X95570000Y-58730000D03*
X95570000Y-55430000D03*
%TD*%
D11*
%TO.C,C8*%
X86082500Y-102080000D03*
X88157500Y-102080000D03*
%TD*%
D13*
%TO.C,D8*%
X90670000Y-105430000D03*
X90670000Y-108730000D03*
X95570000Y-108730000D03*
X95570000Y-105430000D03*
%TD*%
D14*
%TO.C,C2*%
X125157500Y-136580000D03*
X123082500Y-136580000D03*
%TD*%
D10*
%TO.C,D3*%
X145570000Y-133730000D03*
X145570000Y-130430000D03*
X140670000Y-130430000D03*
X140670000Y-133730000D03*
%TD*%
D13*
%TO.C,D6*%
X140670000Y-105430000D03*
X140670000Y-108730000D03*
X145570000Y-108730000D03*
X145570000Y-105430000D03*
%TD*%
D10*
%TO.C,D2*%
X120570000Y-133730000D03*
X120570000Y-130430000D03*
X115670000Y-130430000D03*
X115670000Y-133730000D03*
%TD*%
D14*
%TO.C,C11*%
X150157500Y-86580000D03*
X148082500Y-86580000D03*
%TD*%
D13*
%TO.C,D15*%
X115670000Y-55430000D03*
X115670000Y-58730000D03*
X120570000Y-58730000D03*
X120570000Y-55430000D03*
%TD*%
%TO.C,D7*%
X115670000Y-105430000D03*
X115670000Y-108730000D03*
X120570000Y-108730000D03*
X120570000Y-105430000D03*
%TD*%
D14*
%TO.C,C1*%
X100157500Y-136580000D03*
X98082500Y-136580000D03*
%TD*%
D13*
%TO.C,D13*%
X165670000Y-55430000D03*
X165670000Y-58730000D03*
X170570000Y-58730000D03*
X170570000Y-55430000D03*
%TD*%
D12*
%TO.C,R1*%
X87120000Y-133080000D03*
X87120000Y-131080000D03*
%TD*%
D14*
%TO.C,C10*%
X125157500Y-86580000D03*
X123082500Y-86580000D03*
%TD*%
%TO.C,C4*%
X175157500Y-136580000D03*
X173082500Y-136580000D03*
%TD*%
D11*
%TO.C,C5*%
X161082500Y-102580000D03*
X163157500Y-102580000D03*
%TD*%
D12*
%TO.C,R3*%
X87120000Y-83080000D03*
X87120000Y-81080000D03*
%TD*%
D14*
%TO.C,C12*%
X175157500Y-86580000D03*
X173082500Y-86580000D03*
%TD*%
%TO.C,C3*%
X150157500Y-136580000D03*
X148082500Y-136580000D03*
%TD*%
D10*
%TO.C,D9*%
X95570000Y-83730000D03*
X95570000Y-80430000D03*
X90670000Y-80430000D03*
X90670000Y-83730000D03*
%TD*%
D13*
%TO.C,D14*%
X140670000Y-55430000D03*
X140670000Y-58730000D03*
X145570000Y-58730000D03*
X145570000Y-55430000D03*
%TD*%
D11*
%TO.C,C6*%
X136082500Y-102580000D03*
X138157500Y-102580000D03*
%TD*%
D14*
%TO.C,C9*%
X100157500Y-86580000D03*
X98082500Y-86580000D03*
%TD*%
D11*
%TO.C,C15*%
X111082500Y-53080000D03*
X113157500Y-53080000D03*
%TD*%
D10*
%TO.C,D4*%
X170570000Y-133730000D03*
X170570000Y-130430000D03*
X165670000Y-130430000D03*
X165670000Y-133730000D03*
%TD*%
D13*
%TO.C,D5*%
X165670000Y-105430000D03*
X165670000Y-108730000D03*
X170570000Y-108730000D03*
X170570000Y-105430000D03*
%TD*%
M02*
