M48
; DRILL file {KiCad 9.0.6} date 2025-11-15T09:42:20+0100
; FORMAT={-:-/ absolute / metric / decimal}
; #@! TF.CreationDate,2025-11-15T09:42:20+01:00
; #@! TF.GenerationSoftware,Kicad,Pcbnew,9.0.6
; #@! TF.FileFunction,MixedPlating,1,4
FMAT,2
METRIC
; #@! TA.AperFunction,Plated,PTH,ViaDrill
T1C0.300
; #@! TA.AperFunction,Plated,PTH,ViaDrill
T2C0.400
; #@! TA.AperFunction,Plated,PTH,ViaDrill
T3C0.600
; #@! TA.AperFunction,Plated,PTH,ComponentDrill
T4C0.900
; #@! TA.AperFunction,Plated,PTH,ComponentDrill
T5C1.000
%
G90
G05
T1
X89.52Y-129.48
X96.787Y-88.247
X96.787Y-138.247
X100.12Y-135.08
X114.941Y-129.559
X121.62Y-112.58
X121.62Y-116.08
X121.68Y-88.398
X122.12Y-138.08
X122.62Y-63.58
X122.62Y-67.08
X124.12Y-115.08
X125.12Y-65.58
X125.12Y-123.58
X125.62Y-73.58
X127.62Y-136.58
X146.68Y-88.203
X146.871Y-138.571
X171.785Y-88.417
X172.037Y-138.39
T2
X84.12Y-52.58
X84.8Y-51.5
X84.8Y-103.6
X86.12Y-104.08
X87.4Y-50.0
X87.5Y-100.5
X89.12Y-89.08
X89.12Y-99.58
X89.5Y-131.0
X89.62Y-50.08
X89.83Y-81.17
X89.85Y-79.15
X90.0Y-101.0
X90.12Y-139.08
X90.4Y-52.2
X91.5Y-129.5
X91.5Y-131.0
X91.83Y-79.17
X91.83Y-81.17
X94.0Y-58.0
X94.5Y-110.0
X94.52Y-107.98
X94.754Y-60.488
X96.0Y-87.0
X96.0Y-137.0
X96.5Y-108.0
X96.5Y-110.0
X96.754Y-58.488
X96.754Y-60.488
X97.62Y-50.08
X97.62Y-100.08
X98.5Y-88.5
X98.5Y-138.5
X101.5Y-135.3
X102.1Y-85.3
X103.12Y-86.58
X104.12Y-50.58
X108.12Y-102.58
X109.1Y-101.3
X109.12Y-50.58
X109.8Y-54.5
X111.12Y-54.58
X111.843Y-99.519
X112.2Y-50.6
X113.962Y-99.599
X114.5Y-131.5
X114.62Y-50.08
X114.62Y-89.08
X115.0Y-81.5
X115.02Y-79.48
X115.093Y-100.769
X115.12Y-139.08
X115.2Y-52.4
X116.5Y-129.5
X116.5Y-131.5
X117.0Y-79.5
X117.0Y-81.5
X119.414Y-59.584
X119.434Y-57.564
X119.5Y-109.5
X119.52Y-107.48
X120.894Y-87.151
X121.0Y-137.0
X121.414Y-57.584
X121.414Y-59.584
X121.5Y-107.5
X121.5Y-109.5
X122.12Y-100.08
X122.62Y-50.08
X123.394Y-88.651
X124.0Y-138.5
X126.7Y-135.7
X126.8Y-85.4
X127.12Y-63.08
X127.12Y-113.08
X127.62Y-86.58
X133.12Y-102.58
X134.3Y-101.3
X134.52Y-57.33
X135.0Y-56.0
X135.62Y-78.58
X135.62Y-129.08
X136.843Y-55.049
X136.921Y-99.421
X137.442Y-53.849
X138.62Y-74.58
X138.62Y-125.08
X139.041Y-99.501
X139.243Y-53.449
X139.5Y-131.0
X139.62Y-89.08
X139.62Y-129.38
X139.62Y-139.08
X139.785Y-81.285
X139.805Y-79.265
X140.171Y-100.671
X141.5Y-129.5
X141.5Y-131.0
X141.785Y-79.285
X141.785Y-81.285
X143.7Y-59.4
X144.0Y-109.6
X144.365Y-57.765
X144.52Y-107.98
X145.751Y-137.491
X145.894Y-86.956
X146.345Y-57.785
X146.5Y-108.0
X146.5Y-110.0
X147.0Y-59.6
X147.12Y-100.08
X147.62Y-50.08
X148.394Y-88.456
X148.751Y-138.991
X150.12Y-135.08
X151.6Y-85.4
X151.8Y-135.7
X152.62Y-86.58
X158.12Y-102.58
X159.42Y-57.28
X159.6Y-101.5
X160.0Y-56.2
X161.8Y-55.2
X162.0Y-100.0
X162.4Y-54.0
X164.12Y-100.08
X164.12Y-139.08
X164.2Y-53.6
X164.5Y-131.0
X164.52Y-128.98
X164.62Y-89.08
X165.0Y-81.5
X165.02Y-79.48
X165.25Y-101.25
X166.5Y-129.0
X166.5Y-131.0
X167.0Y-79.5
X167.0Y-81.5
X169.215Y-59.855
X169.235Y-57.835
X169.415Y-109.585
X169.435Y-107.565
X170.917Y-137.31
X170.999Y-87.17
X171.215Y-57.855
X171.215Y-59.855
X171.415Y-107.585
X171.415Y-109.585
X172.62Y-50.08
X172.62Y-100.08
X173.499Y-88.67
X173.917Y-138.81
X176.6Y-85.5
X176.8Y-137.9
X177.62Y-86.58
X177.62Y-136.58
T3
X104.12Y-138.58
X109.12Y-138.58
T4
X93.12Y-50.08
X93.12Y-64.08
X93.12Y-75.08
X93.12Y-89.08
X93.12Y-100.08
X93.12Y-114.08
X93.12Y-125.08
X93.12Y-139.08
X118.12Y-50.08
X118.12Y-64.08
X118.12Y-75.08
X118.12Y-89.08
X118.12Y-100.08
X118.12Y-114.08
X118.12Y-125.08
X118.12Y-139.08
X143.12Y-50.08
X143.12Y-64.08
X143.12Y-75.08
X143.12Y-89.08
X143.12Y-100.08
X143.12Y-114.08
X143.12Y-125.08
X143.12Y-139.08
X168.12Y-50.08
X168.12Y-64.08
X168.12Y-75.08
X168.12Y-89.08
X168.12Y-100.08
X168.12Y-114.08
X168.12Y-125.08
X168.12Y-139.08
T5
X84.755Y-65.78
X84.755Y-68.32
X84.755Y-70.86
X84.755Y-73.4
X84.82Y-90.78
X84.82Y-93.32
X84.82Y-95.86
X84.82Y-98.4
X128.52Y-48.82
X128.52Y-140.37
X131.06Y-48.82
X131.06Y-140.37
X133.6Y-48.82
X133.6Y-140.37
X136.14Y-48.82
X136.14Y-140.37
X153.48Y-48.82
X153.48Y-140.36
X155.62Y-62.58
X155.62Y-66.5
X155.62Y-69.04
X155.62Y-71.58
X155.62Y-112.08
X155.62Y-116.0
X155.62Y-118.54
X155.62Y-121.08
X156.02Y-48.82
X156.02Y-140.36
X158.56Y-48.82
X158.56Y-140.36
X161.1Y-48.82
X161.1Y-140.36
X176.42Y-65.78
X176.42Y-68.32
X176.42Y-70.86
X176.42Y-73.4
X176.42Y-90.78
X176.42Y-93.32
X176.42Y-95.86
X176.42Y-98.4
M30
