%TF.GenerationSoftware,KiCad,Pcbnew,9.0.6*%
%TF.CreationDate,2025-11-15T09:42:16+01:00*%
%TF.ProjectId,mux_led_reed,6d75785f-6c65-4645-9f72-6565642e6b69,1*%
%TF.SameCoordinates,Original*%
%TF.FileFunction,Copper,L4,Bot*%
%TF.FilePolarity,Positive*%
%FSLAX46Y46*%
G04 Gerber Fmt 4.6, Leading zero omitted, Abs format (unit mm)*
G04 Created by KiCad (PCBNEW 9.0.6) date 2025-11-15 09:42:16*
%MOMM*%
%LPD*%
G01*
G04 APERTURE LIST*
G04 Aperture macros list*
%AMRoundRect*
0 Rectangle with rounded corners*
0 $1 Rounding radius*
0 $2 $3 $4 $5 $6 $7 $8 $9 X,Y pos of 4 corners*
0 Add a 4 corners polygon primitive as box body*
4,1,4,$2,$3,$4,$5,$6,$7,$8,$9,$2,$3,0*
0 Add four circle primitives for the rounded corners*
1,1,$1+$1,$2,$3*
1,1,$1+$1,$4,$5*
1,1,$1+$1,$6,$7*
1,1,$1+$1,$8,$9*
0 Add four rect primitives between the rounded corners*
20,1,$1+$1,$2,$3,$4,$5,0*
20,1,$1+$1,$4,$5,$6,$7,0*
20,1,$1+$1,$6,$7,$8,$9,0*
20,1,$1+$1,$8,$9,$2,$3,0*%
G04 Aperture macros list end*
%TA.AperFunction,ComponentPad*%
%ADD10C,1.800000*%
%TD*%
%TA.AperFunction,ComponentPad*%
%ADD11R,1.700000X1.700000*%
%TD*%
%TA.AperFunction,ComponentPad*%
%ADD12C,1.700000*%
%TD*%
%TA.AperFunction,SMDPad,CuDef*%
%ADD13RoundRect,0.250000X-0.475000X0.337500X-0.475000X-0.337500X0.475000X-0.337500X0.475000X0.337500X0*%
%TD*%
%TA.AperFunction,SMDPad,CuDef*%
%ADD14R,1.701800X0.533400*%
%TD*%
%TA.AperFunction,ViaPad*%
%ADD15C,0.800000*%
%TD*%
%TA.AperFunction,ViaPad*%
%ADD16C,1.200000*%
%TD*%
%TA.AperFunction,ViaPad*%
%ADD17C,0.600000*%
%TD*%
%TA.AperFunction,Conductor*%
%ADD18C,0.300000*%
%TD*%
%TA.AperFunction,Conductor*%
%ADD19C,0.400000*%
%TD*%
%TA.AperFunction,Conductor*%
%ADD20C,3.000000*%
%TD*%
G04 APERTURE END LIST*
D10*
%TO.P,SW9,1,1*%
%TO.N,/Y10*%
X93120000Y-75080000D03*
%TO.P,SW9,2,2*%
%TO.N,+5V*%
X93120000Y-89080000D03*
%TD*%
%TO.P,SW15,1,1*%
%TO.N,/Y16*%
X118120000Y-64080000D03*
%TO.P,SW15,2,2*%
%TO.N,+5V*%
X118120000Y-50080000D03*
%TD*%
D11*
%TO.P,J6,1,Pin_1*%
%TO.N,GND*%
X161100000Y-140360000D03*
D12*
%TO.P,J6,2,Pin_2*%
X158560000Y-140360000D03*
%TO.P,J6,3,Pin_3*%
X156020000Y-140360000D03*
%TO.P,J6,4,Pin_4*%
X153480000Y-140360000D03*
%TD*%
D10*
%TO.P,SW3,1,1*%
%TO.N,/Y02*%
X143120000Y-125080000D03*
%TO.P,SW3,2,2*%
%TO.N,+5V*%
X143120000Y-139080000D03*
%TD*%
D11*
%TO.P,J8,1,Pin_1*%
%TO.N,+5V*%
X136140000Y-48820000D03*
D12*
%TO.P,J8,2,Pin_2*%
X133600000Y-48820000D03*
%TO.P,J8,3,Pin_3*%
X131060000Y-48820000D03*
%TO.P,J8,4,Pin_4*%
X128520000Y-48820000D03*
%TD*%
D10*
%TO.P,SW1,1,1*%
%TO.N,/Y00*%
X93120000Y-125080000D03*
%TO.P,SW1,2,2*%
%TO.N,+5V*%
X93120000Y-139080000D03*
%TD*%
%TO.P,SW14,1,1*%
%TO.N,/Y15*%
X143120000Y-64080000D03*
%TO.P,SW14,2,2*%
%TO.N,+5V*%
X143120000Y-50080000D03*
%TD*%
D11*
%TO.P,J11,1,Pin_1*%
%TO.N,+5V*%
X176420000Y-73400000D03*
D12*
%TO.P,J11,2,Pin_2*%
X176420000Y-70860000D03*
%TO.P,J11,3,Pin_3*%
X176420000Y-68320000D03*
%TO.P,J11,4,Pin_4*%
X176420000Y-65780000D03*
%TD*%
D10*
%TO.P,SW5,1,1*%
%TO.N,/Y04*%
X168120000Y-114080000D03*
%TO.P,SW5,2,2*%
%TO.N,+5V*%
X168120000Y-100080000D03*
%TD*%
D11*
%TO.P,J10,1,Pin_1*%
%TO.N,GND*%
X84820000Y-98400000D03*
D12*
%TO.P,J10,2,Pin_2*%
X84820000Y-95860000D03*
%TO.P,J10,3,Pin_3*%
X84820000Y-93320000D03*
%TO.P,J10,4,Pin_4*%
X84820000Y-90780000D03*
%TD*%
D10*
%TO.P,SW10,1,1*%
%TO.N,/Y11*%
X118120000Y-75080000D03*
%TO.P,SW10,2,2*%
%TO.N,+5V*%
X118120000Y-89080000D03*
%TD*%
%TO.P,SW2,1,1*%
%TO.N,/Y01*%
X118120000Y-125080000D03*
%TO.P,SW2,2,2*%
%TO.N,+5V*%
X118120000Y-139080000D03*
%TD*%
%TO.P,SW16,1,1*%
%TO.N,/Y17*%
X93120000Y-64080000D03*
%TO.P,SW16,2,2*%
%TO.N,+5V*%
X93120000Y-50080000D03*
%TD*%
D11*
%TO.P,J5,1,Pin_1*%
%TO.N,+5V*%
X136140000Y-140370000D03*
D12*
%TO.P,J5,2,Pin_2*%
X133600000Y-140370000D03*
%TO.P,J5,3,Pin_3*%
X131060000Y-140370000D03*
%TO.P,J5,4,Pin_4*%
X128520000Y-140370000D03*
%TD*%
D10*
%TO.P,SW13,1,1*%
%TO.N,/Y14*%
X168120000Y-64080000D03*
%TO.P,SW13,2,2*%
%TO.N,+5V*%
X168120000Y-50080000D03*
%TD*%
%TO.P,SW7,1,1*%
%TO.N,/Y06*%
X118120000Y-114080000D03*
%TO.P,SW7,2,2*%
%TO.N,+5V*%
X118120000Y-100080000D03*
%TD*%
%TO.P,SW4,1,1*%
%TO.N,/Y03*%
X168120000Y-125080000D03*
%TO.P,SW4,2,2*%
%TO.N,+5V*%
X168120000Y-139080000D03*
%TD*%
%TO.P,SW6,1,1*%
%TO.N,/Y05*%
X143120000Y-114080000D03*
%TO.P,SW6,2,2*%
%TO.N,+5V*%
X143120000Y-100080000D03*
%TD*%
D11*
%TO.P,J9,1,Pin_1*%
%TO.N,+5V*%
X84755000Y-73400000D03*
D12*
%TO.P,J9,2,Pin_2*%
X84755000Y-70860000D03*
%TO.P,J9,3,Pin_3*%
X84755000Y-68320000D03*
%TO.P,J9,4,Pin_4*%
X84755000Y-65780000D03*
%TD*%
D11*
%TO.P,J7,1,Pin_1*%
%TO.N,GND*%
X161100000Y-48820000D03*
D12*
%TO.P,J7,2,Pin_2*%
X158560000Y-48820000D03*
%TO.P,J7,3,Pin_3*%
X156020000Y-48820000D03*
%TO.P,J7,4,Pin_4*%
X153480000Y-48820000D03*
%TD*%
D10*
%TO.P,SW11,1,1*%
%TO.N,/Y12*%
X143120000Y-75080000D03*
%TO.P,SW11,2,2*%
%TO.N,+5V*%
X143120000Y-89080000D03*
%TD*%
%TO.P,SW8,1,1*%
%TO.N,/Y07*%
X93120000Y-114080000D03*
%TO.P,SW8,2,2*%
%TO.N,+5V*%
X93120000Y-100080000D03*
%TD*%
%TO.P,SW12,1,1*%
%TO.N,/Y13*%
X168120000Y-75080000D03*
%TO.P,SW12,2,2*%
%TO.N,+5V*%
X168120000Y-89080000D03*
%TD*%
D11*
%TO.P,J12,1,Pin_1*%
%TO.N,GND*%
X176420000Y-98400000D03*
D12*
%TO.P,J12,2,Pin_2*%
X176420000Y-95860000D03*
%TO.P,J12,3,Pin_3*%
X176420000Y-93320000D03*
%TO.P,J12,4,Pin_4*%
X176420000Y-90780000D03*
%TD*%
D13*
%TO.P,C18,1*%
%TO.N,+5V*%
X135620000Y-125042500D03*
%TO.P,C18,2*%
%TO.N,GND*%
X135620000Y-127117500D03*
%TD*%
D11*
%TO.P,J1,1,Pin_1*%
%TO.N,Net-(J1-Pin_1)*%
X155620000Y-112080000D03*
%TD*%
D14*
%TO.P,U1,1,Y4*%
%TO.N,/Y04*%
X128029200Y-124025000D03*
%TO.P,U1,2,Y6*%
%TO.N,/Y06*%
X128029200Y-122755000D03*
%TO.P,U1,3,Z*%
%TO.N,Net-(J1-Pin_1)*%
X128029200Y-121485000D03*
%TO.P,U1,4,Y7*%
%TO.N,/Y07*%
X128029200Y-120215000D03*
%TO.P,U1,5,Y5*%
%TO.N,/Y05*%
X128029200Y-118945000D03*
%TO.P,U1,6,~E*%
%TO.N,GND*%
X128029200Y-117675000D03*
%TO.P,U1,7,VEE*%
X128029200Y-116405000D03*
%TO.P,U1,8,GND*%
X128029200Y-115135000D03*
%TO.P,U1,9,S2*%
%TO.N,Net-(J2-Pin_3)*%
X133210800Y-115135000D03*
%TO.P,U1,10,S1*%
%TO.N,Net-(J2-Pin_2)*%
X133210800Y-116405000D03*
%TO.P,U1,11,S0*%
%TO.N,Net-(J2-Pin_1)*%
X133210800Y-117675000D03*
%TO.P,U1,12,Y3*%
%TO.N,/Y03*%
X133210800Y-118945000D03*
%TO.P,U1,13,Y0*%
%TO.N,/Y00*%
X133210800Y-120215000D03*
%TO.P,U1,14,Y1*%
%TO.N,/Y01*%
X133210800Y-121485000D03*
%TO.P,U1,15,Y2*%
%TO.N,/Y02*%
X133210800Y-122755000D03*
%TO.P,U1,16,VCC*%
%TO.N,+5V*%
X133210800Y-124025000D03*
%TD*%
D13*
%TO.P,C17,1*%
%TO.N,+5V*%
X135620000Y-74542500D03*
%TO.P,C17,2*%
%TO.N,GND*%
X135620000Y-76617500D03*
%TD*%
D11*
%TO.P,J2,1,Pin_1*%
%TO.N,Net-(J2-Pin_1)*%
X155620000Y-121080000D03*
D12*
%TO.P,J2,2,Pin_2*%
%TO.N,Net-(J2-Pin_2)*%
X155620000Y-118540000D03*
%TO.P,J2,3,Pin_3*%
%TO.N,Net-(J2-Pin_3)*%
X155620000Y-116000000D03*
%TD*%
D11*
%TO.P,J4,1,Pin_1*%
%TO.N,Net-(J4-Pin_1)*%
X155620000Y-71580000D03*
D12*
%TO.P,J4,2,Pin_2*%
%TO.N,Net-(J4-Pin_2)*%
X155620000Y-69040000D03*
%TO.P,J4,3,Pin_3*%
%TO.N,Net-(J4-Pin_3)*%
X155620000Y-66500000D03*
%TD*%
D11*
%TO.P,J3,1,Pin_1*%
%TO.N,Net-(J3-Pin_1)*%
X155620000Y-62580000D03*
%TD*%
D14*
%TO.P,U2,1,Y4*%
%TO.N,/Y14*%
X128029200Y-74025000D03*
%TO.P,U2,2,Y6*%
%TO.N,/Y16*%
X128029200Y-72755000D03*
%TO.P,U2,3,Z*%
%TO.N,Net-(J3-Pin_1)*%
X128029200Y-71485000D03*
%TO.P,U2,4,Y7*%
%TO.N,/Y17*%
X128029200Y-70215000D03*
%TO.P,U2,5,Y5*%
%TO.N,/Y15*%
X128029200Y-68945000D03*
%TO.P,U2,6,~E*%
%TO.N,GND*%
X128029200Y-67675000D03*
%TO.P,U2,7,VEE*%
X128029200Y-66405000D03*
%TO.P,U2,8,GND*%
X128029200Y-65135000D03*
%TO.P,U2,9,S2*%
%TO.N,Net-(J4-Pin_3)*%
X133210800Y-65135000D03*
%TO.P,U2,10,S1*%
%TO.N,Net-(J4-Pin_2)*%
X133210800Y-66405000D03*
%TO.P,U2,11,S0*%
%TO.N,Net-(J4-Pin_1)*%
X133210800Y-67675000D03*
%TO.P,U2,12,Y3*%
%TO.N,/Y13*%
X133210800Y-68945000D03*
%TO.P,U2,13,Y0*%
%TO.N,/Y10*%
X133210800Y-70215000D03*
%TO.P,U2,14,Y1*%
%TO.N,/Y11*%
X133210800Y-71485000D03*
%TO.P,U2,15,Y2*%
%TO.N,/Y12*%
X133210800Y-72755000D03*
%TO.P,U2,16,VCC*%
%TO.N,+5V*%
X133210800Y-74025000D03*
%TD*%
D15*
%TO.N,GND*%
X119434293Y-57564293D03*
X111120000Y-54580000D03*
X109800000Y-54500000D03*
X121414293Y-57584293D03*
X121414293Y-59584293D03*
X119414293Y-59584293D03*
X141500000Y-129500000D03*
X151800000Y-135700000D03*
X146500000Y-110000000D03*
X158120000Y-102580000D03*
D16*
X109120000Y-138580000D03*
D15*
X117000000Y-79500000D03*
D17*
X100120000Y-135080000D03*
D15*
X121500000Y-109500000D03*
X165020000Y-79480000D03*
X127120000Y-63080000D03*
X126800000Y-85400000D03*
X141785000Y-79285000D03*
X115020000Y-79480000D03*
X109120000Y-50580000D03*
X159420000Y-57280000D03*
X146345000Y-57785000D03*
X151600000Y-85400000D03*
X94753553Y-60487868D03*
X144520000Y-107980000D03*
X84800000Y-51500000D03*
X86120000Y-104080000D03*
X84800000Y-103600000D03*
X141500000Y-131000000D03*
X159600000Y-101500000D03*
X150120000Y-135080000D03*
X139620000Y-129380000D03*
X94520000Y-107980000D03*
X160000000Y-56200000D03*
X108120000Y-102580000D03*
X171215000Y-57855000D03*
X91500000Y-131000000D03*
X119500000Y-109500000D03*
X144365000Y-57765000D03*
X114500000Y-131500000D03*
X176800000Y-137900000D03*
X166500000Y-129000000D03*
X96753553Y-58487868D03*
X116500000Y-131500000D03*
X164520000Y-128980000D03*
D17*
X127620000Y-136580000D03*
D15*
X119520000Y-107480000D03*
X146500000Y-108000000D03*
D17*
X89520000Y-129480000D03*
D15*
X177620000Y-136580000D03*
X101500000Y-135300000D03*
X109100000Y-101300000D03*
X176600000Y-85500000D03*
X135620000Y-78580000D03*
X139500000Y-131000000D03*
X115000000Y-81500000D03*
D17*
X114940588Y-129559412D03*
D15*
X117000000Y-81500000D03*
X165000000Y-81500000D03*
X94000000Y-58000000D03*
X167000000Y-81500000D03*
X96753553Y-60487868D03*
X127120000Y-113080000D03*
X102100000Y-85300000D03*
X169235000Y-57835000D03*
X134520000Y-57330000D03*
X116500000Y-129500000D03*
X89500000Y-131000000D03*
X133120000Y-102580000D03*
X167000000Y-79500000D03*
X177620000Y-86580000D03*
X152620000Y-86580000D03*
X139805000Y-79265000D03*
X94500000Y-110000000D03*
X96500000Y-110000000D03*
X171215000Y-59855000D03*
X169415000Y-109585000D03*
X171415000Y-109585000D03*
X91830000Y-79170000D03*
X121500000Y-107500000D03*
X135000000Y-56000000D03*
X91830000Y-81170000D03*
X141785000Y-81285000D03*
X164500000Y-131000000D03*
X169215000Y-59855000D03*
X143700000Y-59400000D03*
X89850000Y-79150000D03*
X127620000Y-86580000D03*
X89830000Y-81170000D03*
X147000000Y-59600000D03*
X103120000Y-86580000D03*
X126700000Y-135700000D03*
X169435000Y-107565000D03*
X84120000Y-52580000D03*
X91500000Y-129500000D03*
X144000000Y-109600000D03*
X96500000Y-108000000D03*
X171415000Y-107585000D03*
X135620000Y-129080000D03*
X166500000Y-131000000D03*
X139785000Y-81285000D03*
X134300000Y-101300000D03*
%TO.N,+5V*%
X138620000Y-125080000D03*
X145750629Y-137491478D03*
X89120000Y-99580000D03*
D17*
X171785417Y-88416667D03*
D15*
X115120000Y-139080000D03*
X90000000Y-101000000D03*
X165250000Y-101250000D03*
X115092500Y-100768795D03*
D17*
X146870629Y-138571478D03*
D15*
X139041250Y-99501250D03*
X164120000Y-139080000D03*
X114620000Y-50080000D03*
X122620000Y-50080000D03*
X115200000Y-52400000D03*
X164620000Y-89080000D03*
X89620000Y-50080000D03*
X173498750Y-88670000D03*
X139242500Y-53448750D03*
X140171250Y-100671250D03*
X111842500Y-99518795D03*
X98500000Y-88500000D03*
X89120000Y-89080000D03*
X173917500Y-138810000D03*
X96000000Y-87000000D03*
X139620000Y-139080000D03*
X123393750Y-88651250D03*
X90400000Y-52200000D03*
X136842500Y-55048750D03*
X148393750Y-88456250D03*
X148750629Y-138991478D03*
X121000000Y-137000000D03*
X114620000Y-89080000D03*
X170998750Y-87170000D03*
D17*
X96786667Y-138246667D03*
D15*
X113962500Y-99598795D03*
D16*
X104120000Y-138580000D03*
D15*
X161800000Y-55200000D03*
X136921250Y-99421250D03*
X162400000Y-54000000D03*
X120893750Y-87151250D03*
D17*
X146680417Y-88202917D03*
D15*
X164120000Y-100080000D03*
X122120000Y-100080000D03*
X145893750Y-86956250D03*
D17*
X122120000Y-138080000D03*
D15*
X97620000Y-50080000D03*
X112200000Y-50600000D03*
D17*
X96786667Y-88246667D03*
D15*
X147120000Y-100080000D03*
X138620000Y-74580000D03*
X87500000Y-100500000D03*
X90120000Y-139080000D03*
X164200000Y-53600000D03*
X139620000Y-89080000D03*
D17*
X121680417Y-88397917D03*
D15*
X104120000Y-50580000D03*
X124000000Y-138500000D03*
X172620000Y-100080000D03*
X87400000Y-50000000D03*
X97620000Y-100080000D03*
X137442500Y-53848750D03*
X96000000Y-137000000D03*
X147620000Y-50080000D03*
X170917500Y-137310000D03*
X172620000Y-50080000D03*
X98500000Y-138500000D03*
X162000000Y-100000000D03*
D17*
X172037500Y-138390000D03*
%TO.N,Net-(J1-Pin_1)*%
X121620000Y-112580000D03*
X121620000Y-116080000D03*
%TO.N,Net-(J3-Pin_1)*%
X122620000Y-67080000D03*
X122620000Y-63580000D03*
%TO.N,/Y04*%
X125120000Y-123580000D03*
X124120000Y-115080000D03*
%TO.N,/Y14*%
X125620000Y-73580000D03*
X125120000Y-65580000D03*
%TD*%
D18*
%TO.N,GND*%
X128029200Y-116405000D02*
X128029200Y-117675000D01*
D19*
X128029200Y-65135000D02*
X128029200Y-63989200D01*
D18*
X128029200Y-115135000D02*
X128029200Y-113989200D01*
D19*
X128029200Y-63989200D02*
X127120000Y-63080000D01*
X135620000Y-129080000D02*
X135620000Y-127117500D01*
D18*
X128029200Y-113989200D02*
X127120000Y-113080000D01*
D19*
X135620000Y-78580000D02*
X135620000Y-76617500D01*
D18*
X128029200Y-115135000D02*
X128029200Y-116405000D01*
D19*
X128029200Y-67675000D02*
X128029200Y-65135000D01*
D20*
%TO.N,+5V*%
X118120000Y-89080000D02*
X114620000Y-89080000D01*
D19*
X133210800Y-124025000D02*
X134602500Y-124025000D01*
D20*
X143120000Y-89080000D02*
X139620000Y-89080000D01*
X118120000Y-100080000D02*
X122120000Y-100080000D01*
X143120000Y-139080000D02*
X139620000Y-139080000D01*
X118120000Y-50080000D02*
X122620000Y-50080000D01*
X93120000Y-50080000D02*
X97620000Y-50080000D01*
X168120000Y-139080000D02*
X164120000Y-139080000D01*
D19*
X133210800Y-74025000D02*
X135102500Y-74025000D01*
D20*
X168120000Y-100080000D02*
X172620000Y-100080000D01*
D19*
X138620000Y-74580000D02*
X137157500Y-74542500D01*
X135102500Y-74025000D02*
X135620000Y-74542500D01*
X137157500Y-74542500D02*
X135620000Y-74542500D01*
D20*
X93120000Y-139080000D02*
X90120000Y-139080000D01*
X168120000Y-89080000D02*
X164620000Y-89080000D01*
X93120000Y-89080000D02*
X89120000Y-89080000D01*
D19*
X138620000Y-125080000D02*
X137157500Y-125042500D01*
D20*
X93120000Y-100080000D02*
X97620000Y-100080000D01*
D19*
X137157500Y-125042500D02*
X135620000Y-125042500D01*
D20*
X143120000Y-100080000D02*
X147120000Y-100080000D01*
X118120000Y-139080000D02*
X115120000Y-139080000D01*
D19*
X134602500Y-124025000D02*
X135620000Y-125042500D01*
D20*
X143120000Y-50080000D02*
X147620000Y-50080000D01*
X168120000Y-50080000D02*
X172620000Y-50080000D01*
D19*
%TO.N,Net-(J1-Pin_1)*%
X145120000Y-110580000D02*
X147620000Y-113080000D01*
X128029200Y-121485000D02*
X127025000Y-121485000D01*
X147620000Y-113080000D02*
X154620000Y-113080000D01*
X123620000Y-110580000D02*
X145120000Y-110580000D01*
X121620000Y-112580000D02*
X123620000Y-110580000D01*
X154620000Y-113080000D02*
X155620000Y-112080000D01*
X127025000Y-121485000D02*
X121620000Y-116080000D01*
%TO.N,Net-(J2-Pin_3)*%
X137175000Y-115135000D02*
X140620000Y-118580000D01*
X133210800Y-115135000D02*
X137175000Y-115135000D01*
X143120000Y-118580000D02*
X143160000Y-118540000D01*
X143160000Y-118540000D02*
X153080000Y-118540000D01*
X153080000Y-118540000D02*
X155620000Y-116000000D01*
X140620000Y-118580000D02*
X143120000Y-118580000D01*
%TO.N,Net-(J2-Pin_2)*%
X155620000Y-118540000D02*
X154580000Y-119580000D01*
X140120000Y-119580000D02*
X136945000Y-116405000D01*
X154580000Y-119580000D02*
X140120000Y-119580000D01*
X136945000Y-116405000D02*
X133210800Y-116405000D01*
%TO.N,Net-(J2-Pin_1)*%
X136715000Y-117675000D02*
X139620000Y-120580000D01*
X139620000Y-120580000D02*
X155120000Y-120580000D01*
X155120000Y-120580000D02*
X155620000Y-121080000D01*
X133210800Y-117675000D02*
X136715000Y-117675000D01*
%TO.N,Net-(J3-Pin_1)*%
X148620000Y-63080000D02*
X155120000Y-63080000D01*
X128029200Y-71485000D02*
X127025000Y-71485000D01*
X125620000Y-60580000D02*
X146120000Y-60580000D01*
X146120000Y-60580000D02*
X148620000Y-63080000D01*
X127025000Y-71485000D02*
X122620000Y-67080000D01*
X155120000Y-63080000D02*
X155620000Y-62580000D01*
X122620000Y-63580000D02*
X125620000Y-60580000D01*
%TO.N,Net-(J4-Pin_2)*%
X133210800Y-66405000D02*
X140445000Y-66405000D01*
X140445000Y-66405000D02*
X143080000Y-69040000D01*
X143080000Y-69040000D02*
X155620000Y-69040000D01*
%TO.N,Net-(J4-Pin_1)*%
X144120000Y-71580000D02*
X155620000Y-71580000D01*
X133210800Y-67675000D02*
X140215000Y-67675000D01*
X140215000Y-67675000D02*
X144120000Y-71580000D01*
%TO.N,Net-(J4-Pin_3)*%
X140675000Y-65135000D02*
X142040000Y-66500000D01*
X140675000Y-65135000D02*
X133210800Y-65135000D01*
X142040000Y-66500000D02*
X155620000Y-66500000D01*
%TO.N,/Y00*%
X125120000Y-125580000D02*
X121120000Y-121580000D01*
X129620000Y-125080000D02*
X129120000Y-125580000D01*
X96620000Y-121580000D02*
X93120000Y-125080000D01*
X129620000Y-120580000D02*
X129620000Y-125080000D01*
X129120000Y-125580000D02*
X125120000Y-125580000D01*
X121120000Y-121580000D02*
X96620000Y-121580000D01*
X133210800Y-120215000D02*
X129985000Y-120215000D01*
X129985000Y-120215000D02*
X129620000Y-120580000D01*
%TO.N,/Y01*%
X130620000Y-126080000D02*
X130620000Y-121580000D01*
X130120000Y-126580000D02*
X130620000Y-126080000D01*
X118120000Y-125080000D02*
X119620000Y-126580000D01*
X130715000Y-121485000D02*
X133210800Y-121485000D01*
X130620000Y-121580000D02*
X130715000Y-121485000D01*
X119620000Y-126580000D02*
X130120000Y-126580000D01*
%TO.N,/Y02*%
X140795000Y-122755000D02*
X143120000Y-125080000D01*
X133210800Y-122755000D02*
X140795000Y-122755000D01*
%TO.N,/Y03*%
X152620000Y-121580000D02*
X156120000Y-125080000D01*
X136485000Y-118945000D02*
X139120000Y-121580000D01*
X139120000Y-121580000D02*
X152620000Y-121580000D01*
X156120000Y-125080000D02*
X168120000Y-125080000D01*
X133210800Y-118945000D02*
X136485000Y-118945000D01*
%TO.N,/Y04*%
X125620000Y-111580000D02*
X124120000Y-113080000D01*
X144120000Y-111580000D02*
X125620000Y-111580000D01*
X125620000Y-124080000D02*
X127974200Y-124080000D01*
X168120000Y-114080000D02*
X146620000Y-114080000D01*
X144620000Y-112080000D02*
X144120000Y-111580000D01*
X146620000Y-114080000D02*
X144620000Y-112080000D01*
X124120000Y-113080000D02*
X124120000Y-115080000D01*
X125120000Y-123580000D02*
X125620000Y-124080000D01*
X127974200Y-124080000D02*
X128029200Y-124025000D01*
%TO.N,/Y05*%
X131620000Y-114080000D02*
X143120000Y-114080000D01*
X129255000Y-118945000D02*
X130120000Y-118080000D01*
X130120000Y-115080000D02*
X131620000Y-114080000D01*
X128029200Y-118945000D02*
X129255000Y-118945000D01*
X130120000Y-118080000D02*
X130120000Y-115080000D01*
%TO.N,/Y06*%
X126795000Y-122755000D02*
X128029200Y-122755000D01*
X118120000Y-114080000D02*
X126795000Y-122755000D01*
%TO.N,/Y07*%
X127255000Y-120215000D02*
X128029200Y-120215000D01*
X93120000Y-114080000D02*
X114120000Y-114080000D01*
X116120000Y-112080000D02*
X119120000Y-112080000D01*
X114120000Y-114080000D02*
X116120000Y-112080000D01*
X119120000Y-112080000D02*
X127255000Y-120215000D01*
%TO.N,/Y10*%
X122620000Y-75080000D02*
X120620000Y-73080000D01*
X133210800Y-70215000D02*
X130985000Y-70215000D01*
X129620000Y-71580000D02*
X129620000Y-74580000D01*
X129620000Y-74580000D02*
X129120000Y-75080000D01*
X120620000Y-73080000D02*
X95120000Y-73080000D01*
X129120000Y-75080000D02*
X122620000Y-75080000D01*
X130985000Y-70215000D02*
X129620000Y-71580000D01*
X95120000Y-73080000D02*
X93120000Y-75080000D01*
%TO.N,/Y11*%
X131120000Y-75080000D02*
X131120000Y-72080000D01*
X131715000Y-71485000D02*
X133210800Y-71485000D01*
X118120000Y-75080000D02*
X119120000Y-76080000D01*
X119120000Y-76080000D02*
X130120000Y-76080000D01*
X131120000Y-72080000D02*
X131715000Y-71485000D01*
X130120000Y-76080000D02*
X131120000Y-75080000D01*
%TO.N,/Y12*%
X133210800Y-72755000D02*
X140795000Y-72755000D01*
X140795000Y-72755000D02*
X143120000Y-75080000D01*
%TO.N,/Y13*%
X139985000Y-68945000D02*
X133210800Y-68945000D01*
X146120000Y-75080000D02*
X168120000Y-75080000D01*
X146120000Y-75080000D02*
X139985000Y-68945000D01*
%TO.N,/Y14*%
X148120000Y-64080000D02*
X146120000Y-62080000D01*
X145620000Y-61580000D02*
X126620000Y-61580000D01*
X126120000Y-61580000D02*
X125120000Y-62580000D01*
X126120000Y-74080000D02*
X127974200Y-74080000D01*
X126620000Y-61580000D02*
X126120000Y-61580000D01*
X127974200Y-74080000D02*
X128029200Y-74025000D01*
X125620000Y-73580000D02*
X126120000Y-74080000D01*
X125120000Y-62580000D02*
X125120000Y-65580000D01*
X168120000Y-64080000D02*
X148120000Y-64080000D01*
X146120000Y-62080000D02*
X145620000Y-61580000D01*
%TO.N,/Y15*%
X129255000Y-68945000D02*
X131620000Y-66580000D01*
X128029200Y-68945000D02*
X129255000Y-68945000D01*
X131620000Y-66580000D02*
X131620000Y-63580000D01*
X131620000Y-63580000D02*
X132620000Y-62580000D01*
X141620000Y-62580000D02*
X143120000Y-64080000D01*
X132620000Y-62580000D02*
X141620000Y-62580000D01*
%TO.N,/Y16*%
X126795000Y-72755000D02*
X128029200Y-72755000D01*
X118120000Y-64080000D02*
X126795000Y-72755000D01*
%TO.N,/Y17*%
X127379600Y-70215000D02*
X128029200Y-70215000D01*
X113120000Y-64080000D02*
X115120000Y-62080000D01*
X93120000Y-64080000D02*
X113120000Y-64080000D01*
X115120000Y-62080000D02*
X119244600Y-62080000D01*
X119244600Y-62080000D02*
X127379600Y-70215000D01*
%TD*%
%TA.AperFunction,Conductor*%
%TO.N,GND*%
G36*
X128179821Y-117145027D02*
G01*
X128182267Y-117148610D01*
X128292704Y-117400998D01*
X128292881Y-117409951D01*
X128290274Y-117413946D01*
X128037489Y-117667679D01*
X128029222Y-117671121D01*
X128020942Y-117667710D01*
X128020911Y-117667679D01*
X127768125Y-117413946D01*
X127764714Y-117405666D01*
X127765695Y-117400998D01*
X127876133Y-117148610D01*
X127882589Y-117142404D01*
X127886852Y-117141600D01*
X128171548Y-117141600D01*
X128179821Y-117145027D01*
G37*
%TD.AperFunction*%
%TD*%
%TA.AperFunction,Conductor*%
%TO.N,GND*%
G36*
X128037458Y-116412289D02*
G01*
X128037489Y-116412320D01*
X128290274Y-116666053D01*
X128293685Y-116674333D01*
X128292704Y-116679001D01*
X128182267Y-116931390D01*
X128175811Y-116937596D01*
X128171548Y-116938400D01*
X127886852Y-116938400D01*
X127878579Y-116934973D01*
X127876133Y-116931390D01*
X127765695Y-116679001D01*
X127765518Y-116670048D01*
X127768123Y-116666055D01*
X128020911Y-116412319D01*
X128029178Y-116408878D01*
X128037458Y-116412289D01*
G37*
%TD.AperFunction*%
%TD*%
%TA.AperFunction,Conductor*%
%TO.N,GND*%
G36*
X128228339Y-64605027D02*
G01*
X128231416Y-64610461D01*
X128294295Y-64861885D01*
X128292978Y-64870743D01*
X128291234Y-64872982D01*
X128037489Y-65127679D01*
X128029222Y-65131121D01*
X128020942Y-65127710D01*
X128020911Y-65127679D01*
X127767165Y-64872982D01*
X127763754Y-64864702D01*
X127764104Y-64861885D01*
X127826984Y-64610461D01*
X127832315Y-64603267D01*
X127838334Y-64601600D01*
X128220066Y-64601600D01*
X128228339Y-64605027D01*
G37*
%TD.AperFunction*%
%TD*%
%TA.AperFunction,Conductor*%
%TO.N,GND*%
G36*
X128179821Y-114605027D02*
G01*
X128182267Y-114608610D01*
X128292704Y-114860998D01*
X128292881Y-114869951D01*
X128290274Y-114873946D01*
X128037489Y-115127679D01*
X128029222Y-115131121D01*
X128020942Y-115127710D01*
X128020911Y-115127679D01*
X127768125Y-114873946D01*
X127764714Y-114865666D01*
X127765695Y-114860998D01*
X127876133Y-114608610D01*
X127882589Y-114602404D01*
X127886852Y-114601600D01*
X128171548Y-114601600D01*
X128179821Y-114605027D01*
G37*
%TD.AperFunction*%
%TD*%
%TA.AperFunction,Conductor*%
%TO.N,GND*%
G36*
X127458417Y-62867946D02*
G01*
X127458813Y-62868584D01*
X127817198Y-63491058D01*
X127818356Y-63499938D01*
X127815331Y-63505169D01*
X127545169Y-63775331D01*
X127536896Y-63778758D01*
X127531058Y-63777198D01*
X126908584Y-63418813D01*
X126903124Y-63411715D01*
X126904282Y-63402835D01*
X126904678Y-63402197D01*
X127117988Y-63081256D01*
X127121256Y-63077988D01*
X127436321Y-62868584D01*
X127442197Y-62864677D01*
X127450984Y-62862952D01*
X127458417Y-62867946D01*
G37*
%TD.AperFunction*%
%TD*%
%TA.AperFunction,Conductor*%
%TO.N,GND*%
G36*
X135628058Y-127124156D02*
G01*
X136200562Y-127668133D01*
X136204199Y-127676315D01*
X136202415Y-127682831D01*
X135823439Y-128287017D01*
X135816139Y-128292205D01*
X135813527Y-128292500D01*
X135426473Y-128292500D01*
X135418200Y-128289073D01*
X135416561Y-128287017D01*
X135037584Y-127682831D01*
X135036091Y-127674002D01*
X135039434Y-127668135D01*
X135611941Y-127124156D01*
X135620299Y-127120943D01*
X135628058Y-127124156D01*
G37*
%TD.AperFunction*%
%TD*%
%TA.AperFunction,Conductor*%
%TO.N,GND*%
G36*
X135819306Y-128291113D02*
G01*
X135822331Y-128296344D01*
X136009070Y-128989916D01*
X136007912Y-128998796D01*
X136000814Y-129004256D01*
X136000083Y-129004428D01*
X135622311Y-129080534D01*
X135617689Y-129080534D01*
X135329201Y-129022415D01*
X135239915Y-129004427D01*
X135232483Y-128999434D01*
X135230757Y-128990647D01*
X135230923Y-128989940D01*
X135417669Y-128296344D01*
X135423129Y-128289246D01*
X135428967Y-128287686D01*
X135811033Y-128287686D01*
X135819306Y-128291113D01*
G37*
%TD.AperFunction*%
%TD*%
%TA.AperFunction,Conductor*%
%TO.N,GND*%
G36*
X127457726Y-112868404D02*
G01*
X127458474Y-112869703D01*
X127782605Y-113526663D01*
X127783193Y-113535599D01*
X127780386Y-113540113D01*
X127580113Y-113740386D01*
X127571840Y-113743813D01*
X127566663Y-113742605D01*
X126909703Y-113418474D01*
X126903800Y-113411741D01*
X126904388Y-113402805D01*
X126905126Y-113401523D01*
X127117988Y-113081255D01*
X127121256Y-113077988D01*
X127441509Y-112865135D01*
X127450293Y-112863410D01*
X127457726Y-112868404D01*
G37*
%TD.AperFunction*%
%TD*%
%TA.AperFunction,Conductor*%
%TO.N,GND*%
G36*
X135628058Y-76624156D02*
G01*
X136200562Y-77168133D01*
X136204199Y-77176315D01*
X136202415Y-77182831D01*
X135823439Y-77787017D01*
X135816139Y-77792205D01*
X135813527Y-77792500D01*
X135426473Y-77792500D01*
X135418200Y-77789073D01*
X135416561Y-77787017D01*
X135037584Y-77182831D01*
X135036091Y-77174002D01*
X135039434Y-77168135D01*
X135611941Y-76624156D01*
X135620299Y-76620943D01*
X135628058Y-76624156D01*
G37*
%TD.AperFunction*%
%TD*%
%TA.AperFunction,Conductor*%
%TO.N,GND*%
G36*
X135819306Y-77791113D02*
G01*
X135822331Y-77796344D01*
X136009070Y-78489916D01*
X136007912Y-78498796D01*
X136000814Y-78504256D01*
X136000083Y-78504428D01*
X135622311Y-78580534D01*
X135617689Y-78580534D01*
X135329201Y-78522415D01*
X135239915Y-78504427D01*
X135232483Y-78499434D01*
X135230757Y-78490647D01*
X135230923Y-78489940D01*
X135417669Y-77796344D01*
X135423129Y-77789246D01*
X135428967Y-77787686D01*
X135811033Y-77787686D01*
X135819306Y-77791113D01*
G37*
%TD.AperFunction*%
%TD*%
%TA.AperFunction,Conductor*%
%TO.N,GND*%
G36*
X128179821Y-115875027D02*
G01*
X128182267Y-115878610D01*
X128292704Y-116130998D01*
X128292881Y-116139951D01*
X128290274Y-116143946D01*
X128037489Y-116397679D01*
X128029222Y-116401121D01*
X128020942Y-116397710D01*
X128020911Y-116397679D01*
X127768125Y-116143946D01*
X127764714Y-116135666D01*
X127765695Y-116130998D01*
X127876133Y-115878610D01*
X127882589Y-115872404D01*
X127886852Y-115871600D01*
X128171548Y-115871600D01*
X128179821Y-115875027D01*
G37*
%TD.AperFunction*%
%TD*%
%TA.AperFunction,Conductor*%
%TO.N,GND*%
G36*
X128037458Y-115142289D02*
G01*
X128037489Y-115142320D01*
X128290274Y-115396053D01*
X128293685Y-115404333D01*
X128292704Y-115409001D01*
X128182267Y-115661390D01*
X128175811Y-115667596D01*
X128171548Y-115668400D01*
X127886852Y-115668400D01*
X127878579Y-115664973D01*
X127876133Y-115661390D01*
X127765695Y-115409001D01*
X127765518Y-115400048D01*
X127768123Y-115396055D01*
X128020911Y-115142319D01*
X128029178Y-115138878D01*
X128037458Y-115142289D01*
G37*
%TD.AperFunction*%
%TD*%
%TA.AperFunction,Conductor*%
%TO.N,GND*%
G36*
X128228339Y-67145027D02*
G01*
X128231416Y-67150461D01*
X128294295Y-67401885D01*
X128292978Y-67410743D01*
X128291234Y-67412982D01*
X128037489Y-67667679D01*
X128029222Y-67671121D01*
X128020942Y-67667710D01*
X128020911Y-67667679D01*
X127767165Y-67412982D01*
X127763754Y-67404702D01*
X127764104Y-67401885D01*
X127826984Y-67150461D01*
X127832315Y-67143267D01*
X127838334Y-67141600D01*
X128220066Y-67141600D01*
X128228339Y-67145027D01*
G37*
%TD.AperFunction*%
%TD*%
%TA.AperFunction,Conductor*%
%TO.N,GND*%
G36*
X128037458Y-65142289D02*
G01*
X128037489Y-65142320D01*
X128291234Y-65397017D01*
X128294645Y-65405297D01*
X128294295Y-65408114D01*
X128231416Y-65659539D01*
X128226085Y-65666733D01*
X128220066Y-65668400D01*
X127838334Y-65668400D01*
X127830061Y-65664973D01*
X127826984Y-65659539D01*
X127764104Y-65408114D01*
X127765421Y-65399256D01*
X127767163Y-65397019D01*
X128020911Y-65142319D01*
X128029178Y-65138878D01*
X128037458Y-65142289D01*
G37*
%TD.AperFunction*%
%TD*%
%TA.AperFunction,Conductor*%
%TO.N,+5V*%
G36*
X134110503Y-123770505D02*
G01*
X134319540Y-123822784D01*
X134326733Y-123828114D01*
X134328400Y-123834133D01*
X134328400Y-124215866D01*
X134324973Y-124224139D01*
X134319539Y-124227216D01*
X134064894Y-124290900D01*
X134058559Y-124290716D01*
X133452680Y-124101037D01*
X133245465Y-124036165D01*
X133238595Y-124030424D01*
X133237796Y-124021504D01*
X133243538Y-124014633D01*
X133245463Y-124013834D01*
X134058560Y-123759282D01*
X134064894Y-123759099D01*
X134110503Y-123770505D01*
G37*
%TD.AperFunction*%
%TD*%
%TA.AperFunction,Conductor*%
%TO.N,+5V*%
G36*
X134110503Y-73770505D02*
G01*
X134319540Y-73822784D01*
X134326733Y-73828114D01*
X134328400Y-73834133D01*
X134328400Y-74215866D01*
X134324973Y-74224139D01*
X134319539Y-74227216D01*
X134064894Y-74290900D01*
X134058559Y-74290716D01*
X133452680Y-74101037D01*
X133245465Y-74036165D01*
X133238595Y-74030424D01*
X133237796Y-74021504D01*
X133243538Y-74014633D01*
X133245463Y-74013834D01*
X134058560Y-73759282D01*
X134064894Y-73759099D01*
X134110503Y-73770505D01*
G37*
%TD.AperFunction*%
%TD*%
%TA.AperFunction,Conductor*%
%TO.N,+5V*%
G36*
X134398361Y-73826230D02*
G01*
X135726168Y-73953760D01*
X135734075Y-73957962D01*
X135736695Y-73966525D01*
X135736520Y-73967711D01*
X135622174Y-74536655D01*
X135617184Y-74544091D01*
X135615579Y-74544985D01*
X134903393Y-74871506D01*
X134894445Y-74871839D01*
X134889306Y-74868086D01*
X134388036Y-74228177D01*
X134385547Y-74220962D01*
X134385547Y-73837877D01*
X134388974Y-73829604D01*
X134397247Y-73826177D01*
X134398361Y-73826230D01*
G37*
%TD.AperFunction*%
%TD*%
%TA.AperFunction,Conductor*%
%TO.N,+5V*%
G36*
X138538986Y-74191934D02*
G01*
X138544267Y-74199166D01*
X138544367Y-74199615D01*
X138620533Y-74577714D01*
X138620533Y-74582335D01*
X138544489Y-74959778D01*
X138539495Y-74967211D01*
X138530708Y-74968937D01*
X138529701Y-74968687D01*
X137831299Y-74762167D01*
X137824337Y-74756535D01*
X137822921Y-74750647D01*
X137832715Y-74368710D01*
X137836353Y-74360527D01*
X137841648Y-74357641D01*
X138530140Y-74190555D01*
X138538986Y-74191934D01*
G37*
%TD.AperFunction*%
%TD*%
%TA.AperFunction,Conductor*%
%TO.N,+5V*%
G36*
X136198178Y-73977758D02*
G01*
X136926006Y-74339274D01*
X136931890Y-74346023D01*
X136932500Y-74349752D01*
X136932500Y-74735247D01*
X136929073Y-74743520D01*
X136926005Y-74745726D01*
X136198179Y-75107240D01*
X136189245Y-75107851D01*
X136184725Y-75105058D01*
X135627341Y-74550794D01*
X135623892Y-74542533D01*
X135627296Y-74534250D01*
X136184726Y-73979940D01*
X136193007Y-73976538D01*
X136198178Y-73977758D01*
G37*
%TD.AperFunction*%
%TD*%
%TA.AperFunction,Conductor*%
%TO.N,+5V*%
G36*
X138538986Y-124691934D02*
G01*
X138544267Y-124699166D01*
X138544367Y-124699615D01*
X138620533Y-125077714D01*
X138620533Y-125082335D01*
X138544489Y-125459778D01*
X138539495Y-125467211D01*
X138530708Y-125468937D01*
X138529701Y-125468687D01*
X137831299Y-125262167D01*
X137824337Y-125256535D01*
X137822921Y-125250647D01*
X137832715Y-124868710D01*
X137836353Y-124860527D01*
X137841648Y-124857641D01*
X138530140Y-124690555D01*
X138538986Y-124691934D01*
G37*
%TD.AperFunction*%
%TD*%
%TA.AperFunction,Conductor*%
%TO.N,+5V*%
G36*
X136198178Y-124477758D02*
G01*
X136926006Y-124839274D01*
X136931890Y-124846023D01*
X136932500Y-124849752D01*
X136932500Y-125235247D01*
X136929073Y-125243520D01*
X136926005Y-125245726D01*
X136198179Y-125607240D01*
X136189245Y-125607851D01*
X136184725Y-125605058D01*
X135627341Y-125050794D01*
X135623892Y-125042533D01*
X135627296Y-125034250D01*
X136184726Y-124479940D01*
X136193007Y-124476538D01*
X136198178Y-124477758D01*
G37*
%TD.AperFunction*%
%TD*%
%TA.AperFunction,Conductor*%
%TO.N,+5V*%
G36*
X134784688Y-123920548D02*
G01*
X135853562Y-124450150D01*
X135859454Y-124456894D01*
X135859184Y-124465096D01*
X135623248Y-125037045D01*
X135616925Y-125043386D01*
X135614110Y-125044162D01*
X134903941Y-125147054D01*
X134895262Y-125144849D01*
X134891485Y-125140027D01*
X134497383Y-124206917D01*
X134497321Y-124197963D01*
X134499886Y-124194094D01*
X134771222Y-123922758D01*
X134779494Y-123919332D01*
X134784688Y-123920548D01*
G37*
%TD.AperFunction*%
%TD*%
%TA.AperFunction,Conductor*%
%TO.N,Net-(J1-Pin_1)*%
G36*
X127989519Y-121473025D02*
G01*
X127996386Y-121478773D01*
X127997177Y-121487693D01*
X127991429Y-121494560D01*
X127988739Y-121495566D01*
X127181823Y-121688816D01*
X127174917Y-121688366D01*
X126820240Y-121552680D01*
X126813738Y-121546523D01*
X126813493Y-121537571D01*
X126816146Y-121533481D01*
X127084861Y-121264766D01*
X127087981Y-121262537D01*
X127174106Y-121220353D01*
X127182752Y-121219698D01*
X127989519Y-121473025D01*
G37*
%TD.AperFunction*%
%TD*%
%TA.AperFunction,Conductor*%
%TO.N,Net-(J1-Pin_1)*%
G36*
X121905710Y-112025335D02*
G01*
X122174664Y-112294289D01*
X122178091Y-112302562D01*
X122175972Y-112309277D01*
X121875986Y-112737331D01*
X121868432Y-112742139D01*
X121859937Y-112740365D01*
X121621265Y-112582015D01*
X121617984Y-112578734D01*
X121459634Y-112340062D01*
X121457915Y-112331274D01*
X121462666Y-112324015D01*
X121890724Y-112024026D01*
X121899464Y-112022085D01*
X121905710Y-112025335D01*
G37*
%TD.AperFunction*%
%TD*%
%TA.AperFunction,Conductor*%
%TO.N,Net-(J1-Pin_1)*%
G36*
X154779781Y-111608996D02*
G01*
X155616766Y-112077629D01*
X155622309Y-112084660D01*
X155622313Y-112084672D01*
X155856386Y-112917678D01*
X155855325Y-112926570D01*
X155848287Y-112932107D01*
X155847266Y-112932345D01*
X153995976Y-113277419D01*
X153987215Y-113275566D01*
X153982330Y-113268061D01*
X153982132Y-113265917D01*
X153982132Y-112883319D01*
X153983876Y-112877174D01*
X154764112Y-111613059D01*
X154771371Y-111607821D01*
X154779781Y-111608996D01*
G37*
%TD.AperFunction*%
%TD*%
%TA.AperFunction,Conductor*%
%TO.N,Net-(J1-Pin_1)*%
G36*
X121875985Y-115922667D02*
G01*
X122165644Y-116335986D01*
X122175972Y-116350722D01*
X122177914Y-116359464D01*
X122174664Y-116365710D01*
X121905710Y-116634664D01*
X121897437Y-116638091D01*
X121890722Y-116635972D01*
X121462668Y-116335986D01*
X121457860Y-116328432D01*
X121459633Y-116319938D01*
X121617985Y-116081263D01*
X121621263Y-116077985D01*
X121859938Y-115919633D01*
X121868725Y-115917915D01*
X121875985Y-115922667D01*
G37*
%TD.AperFunction*%
%TD*%
%TA.AperFunction,Conductor*%
%TO.N,Net-(J2-Pin_3)*%
G36*
X134110503Y-114880505D02*
G01*
X134319540Y-114932784D01*
X134326733Y-114938114D01*
X134328400Y-114944133D01*
X134328400Y-115325866D01*
X134324973Y-115334139D01*
X134319539Y-115337216D01*
X134064894Y-115400900D01*
X134058559Y-115400716D01*
X133452680Y-115211037D01*
X133245465Y-115146165D01*
X133238595Y-115140424D01*
X133237796Y-115131504D01*
X133243538Y-115124633D01*
X133245463Y-115123834D01*
X134058560Y-114869282D01*
X134064894Y-114869099D01*
X134110503Y-114880505D01*
G37*
%TD.AperFunction*%
%TD*%
%TA.AperFunction,Conductor*%
%TO.N,Net-(J2-Pin_3)*%
G36*
X155575801Y-115990406D02*
G01*
X155613021Y-115997772D01*
X155620472Y-116002739D01*
X155622227Y-116006978D01*
X155783958Y-116824223D01*
X155782203Y-116833004D01*
X155776921Y-116837319D01*
X154578094Y-117328998D01*
X154569139Y-117328967D01*
X154565381Y-117326446D01*
X154293553Y-117054618D01*
X154290126Y-117046345D01*
X154291001Y-117041905D01*
X154374909Y-116837319D01*
X154782681Y-115843076D01*
X154788990Y-115836724D01*
X154795773Y-115836041D01*
X155575801Y-115990406D01*
G37*
%TD.AperFunction*%
%TD*%
%TA.AperFunction,Conductor*%
%TO.N,Net-(J2-Pin_2)*%
G36*
X154923084Y-118074589D02*
G01*
X154925082Y-118075659D01*
X155616958Y-118537303D01*
X155621938Y-118544745D01*
X155621942Y-118544766D01*
X155783740Y-119363112D01*
X155781983Y-119371892D01*
X155775483Y-119376629D01*
X154382036Y-119775726D01*
X154373140Y-119774709D01*
X154367567Y-119767699D01*
X154367115Y-119764478D01*
X154367115Y-119382338D01*
X154368013Y-119377842D01*
X154370489Y-119371892D01*
X154907786Y-118080894D01*
X154914129Y-118074574D01*
X154923084Y-118074589D01*
G37*
%TD.AperFunction*%
%TD*%
%TA.AperFunction,Conductor*%
%TO.N,Net-(J2-Pin_2)*%
G36*
X134110503Y-116150505D02*
G01*
X134319540Y-116202784D01*
X134326733Y-116208114D01*
X134328400Y-116214133D01*
X134328400Y-116595866D01*
X134324973Y-116604139D01*
X134319539Y-116607216D01*
X134064894Y-116670900D01*
X134058559Y-116670716D01*
X133452680Y-116481037D01*
X133245465Y-116416165D01*
X133238595Y-116410424D01*
X133237796Y-116401504D01*
X133243538Y-116394633D01*
X133245463Y-116393834D01*
X134058560Y-116139282D01*
X134064894Y-116139099D01*
X134110503Y-116150505D01*
G37*
%TD.AperFunction*%
%TD*%
%TA.AperFunction,Conductor*%
%TO.N,Net-(J2-Pin_1)*%
G36*
X154772747Y-120232994D02*
G01*
X154774306Y-120234301D01*
X155611431Y-121070442D01*
X155614863Y-121078713D01*
X155611441Y-121086988D01*
X155610166Y-121088093D01*
X154778516Y-121709449D01*
X154769837Y-121711655D01*
X154762852Y-121707943D01*
X153923039Y-120783345D01*
X153920000Y-120775478D01*
X153920000Y-120389816D01*
X153923427Y-120381543D01*
X153929667Y-120378294D01*
X154764007Y-120231057D01*
X154772747Y-120232994D01*
G37*
%TD.AperFunction*%
%TD*%
%TA.AperFunction,Conductor*%
%TO.N,Net-(J2-Pin_1)*%
G36*
X134110503Y-117420505D02*
G01*
X134319540Y-117472784D01*
X134326733Y-117478114D01*
X134328400Y-117484133D01*
X134328400Y-117865866D01*
X134324973Y-117874139D01*
X134319539Y-117877216D01*
X134064894Y-117940900D01*
X134058559Y-117940716D01*
X133452680Y-117751037D01*
X133245465Y-117686165D01*
X133238595Y-117680424D01*
X133237796Y-117671504D01*
X133243538Y-117664633D01*
X133245463Y-117663834D01*
X134058560Y-117409282D01*
X134064894Y-117409099D01*
X134110503Y-117420505D01*
G37*
%TD.AperFunction*%
%TD*%
%TA.AperFunction,Conductor*%
%TO.N,Net-(J3-Pin_1)*%
G36*
X154778516Y-61950549D02*
G01*
X155610166Y-62571906D01*
X155614742Y-62579603D01*
X155612536Y-62588282D01*
X155611431Y-62589557D01*
X154774306Y-63425698D01*
X154766031Y-63429120D01*
X154764005Y-63428942D01*
X153929667Y-63281705D01*
X153922115Y-63276892D01*
X153920000Y-63270183D01*
X153920000Y-62884521D01*
X153923039Y-62876654D01*
X154183809Y-62589557D01*
X154762853Y-61952054D01*
X154770951Y-61948235D01*
X154778516Y-61950549D01*
G37*
%TD.AperFunction*%
%TD*%
%TA.AperFunction,Conductor*%
%TO.N,Net-(J3-Pin_1)*%
G36*
X127989519Y-71473025D02*
G01*
X127996386Y-71478773D01*
X127997177Y-71487693D01*
X127991429Y-71494560D01*
X127988739Y-71495566D01*
X127181823Y-71688816D01*
X127174917Y-71688366D01*
X126820240Y-71552680D01*
X126813738Y-71546523D01*
X126813493Y-71537571D01*
X126816146Y-71533481D01*
X127084861Y-71264766D01*
X127087981Y-71262537D01*
X127174106Y-71220353D01*
X127182752Y-71219698D01*
X127989519Y-71473025D01*
G37*
%TD.AperFunction*%
%TD*%
%TA.AperFunction,Conductor*%
%TO.N,Net-(J3-Pin_1)*%
G36*
X122875985Y-66922667D02*
G01*
X123165644Y-67335986D01*
X123175972Y-67350722D01*
X123177914Y-67359464D01*
X123174664Y-67365710D01*
X122905710Y-67634664D01*
X122897437Y-67638091D01*
X122890722Y-67635972D01*
X122462668Y-67335986D01*
X122457860Y-67328432D01*
X122459633Y-67319938D01*
X122617985Y-67081263D01*
X122621263Y-67077985D01*
X122859938Y-66919633D01*
X122868725Y-66917915D01*
X122875985Y-66922667D01*
G37*
%TD.AperFunction*%
%TD*%
%TA.AperFunction,Conductor*%
%TO.N,Net-(J3-Pin_1)*%
G36*
X122905710Y-63025335D02*
G01*
X123174664Y-63294289D01*
X123178091Y-63302562D01*
X123175972Y-63309277D01*
X122875986Y-63737331D01*
X122868432Y-63742139D01*
X122859937Y-63740365D01*
X122621265Y-63582015D01*
X122617984Y-63578734D01*
X122459634Y-63340062D01*
X122457915Y-63331274D01*
X122462666Y-63324015D01*
X122890724Y-63024026D01*
X122899464Y-63022085D01*
X122905710Y-63025335D01*
G37*
%TD.AperFunction*%
%TD*%
%TA.AperFunction,Conductor*%
%TO.N,Net-(J4-Pin_2)*%
G36*
X134110503Y-66150505D02*
G01*
X134319540Y-66202784D01*
X134326733Y-66208114D01*
X134328400Y-66214133D01*
X134328400Y-66595866D01*
X134324973Y-66604139D01*
X134319539Y-66607216D01*
X134064894Y-66670900D01*
X134058559Y-66670716D01*
X133452680Y-66481037D01*
X133245465Y-66416165D01*
X133238595Y-66410424D01*
X133237796Y-66401504D01*
X133243538Y-66394633D01*
X133245463Y-66393834D01*
X134058560Y-66139282D01*
X134064894Y-66139099D01*
X134110503Y-66150505D01*
G37*
%TD.AperFunction*%
%TD*%
%TA.AperFunction,Conductor*%
%TO.N,Net-(J4-Pin_2)*%
G36*
X155153119Y-68341247D02*
G01*
X155330868Y-68606704D01*
X155616640Y-69033490D01*
X155618395Y-69042271D01*
X155616640Y-69046510D01*
X155153121Y-69738750D01*
X155145670Y-69743717D01*
X155138884Y-69743034D01*
X153943518Y-69243005D01*
X153937208Y-69236651D01*
X153936333Y-69232211D01*
X153936333Y-68847788D01*
X153939760Y-68839515D01*
X153943516Y-68836995D01*
X155138886Y-68336964D01*
X155147839Y-68336934D01*
X155153119Y-68341247D01*
G37*
%TD.AperFunction*%
%TD*%
%TA.AperFunction,Conductor*%
%TO.N,Net-(J4-Pin_1)*%
G36*
X154777243Y-70737234D02*
G01*
X155612712Y-71571722D01*
X155616144Y-71579993D01*
X155612722Y-71588268D01*
X155612712Y-71588278D01*
X154777243Y-72422765D01*
X154768968Y-72426187D01*
X154761868Y-72423781D01*
X153924593Y-71783512D01*
X153920103Y-71775764D01*
X153920000Y-71774218D01*
X153920000Y-71385781D01*
X153923427Y-71377508D01*
X153924586Y-71376492D01*
X154761869Y-70736217D01*
X154770521Y-70733915D01*
X154777243Y-70737234D01*
G37*
%TD.AperFunction*%
%TD*%
%TA.AperFunction,Conductor*%
%TO.N,Net-(J4-Pin_1)*%
G36*
X134110503Y-67420505D02*
G01*
X134319540Y-67472784D01*
X134326733Y-67478114D01*
X134328400Y-67484133D01*
X134328400Y-67865866D01*
X134324973Y-67874139D01*
X134319539Y-67877216D01*
X134064894Y-67940900D01*
X134058559Y-67940716D01*
X133452680Y-67751037D01*
X133245465Y-67686165D01*
X133238595Y-67680424D01*
X133237796Y-67671504D01*
X133243538Y-67664633D01*
X133245463Y-67663834D01*
X134058560Y-67409282D01*
X134064894Y-67409099D01*
X134110503Y-67420505D01*
G37*
%TD.AperFunction*%
%TD*%
%TA.AperFunction,Conductor*%
%TO.N,Net-(J4-Pin_3)*%
G36*
X134110503Y-64880505D02*
G01*
X134319540Y-64932784D01*
X134326733Y-64938114D01*
X134328400Y-64944133D01*
X134328400Y-65325866D01*
X134324973Y-65334139D01*
X134319539Y-65337216D01*
X134064894Y-65400900D01*
X134058559Y-65400716D01*
X133452680Y-65211037D01*
X133245465Y-65146165D01*
X133238595Y-65140424D01*
X133237796Y-65131504D01*
X133243538Y-65124633D01*
X133245463Y-65123834D01*
X134058560Y-64869282D01*
X134064894Y-64869099D01*
X134110503Y-64880505D01*
G37*
%TD.AperFunction*%
%TD*%
%TA.AperFunction,Conductor*%
%TO.N,Net-(J4-Pin_3)*%
G36*
X155153119Y-65801247D02*
G01*
X155330868Y-66066704D01*
X155616640Y-66493490D01*
X155618395Y-66502271D01*
X155616640Y-66506510D01*
X155153121Y-67198750D01*
X155145670Y-67203717D01*
X155138884Y-67203034D01*
X153943518Y-66703005D01*
X153937208Y-66696651D01*
X153936333Y-66692211D01*
X153936333Y-66307788D01*
X153939760Y-66299515D01*
X153943516Y-66296995D01*
X155138886Y-65796964D01*
X155147839Y-65796934D01*
X155153119Y-65801247D01*
G37*
%TD.AperFunction*%
%TD*%
%TA.AperFunction,Conductor*%
%TO.N,/Y00*%
G36*
X94240928Y-123680990D02*
G01*
X94244602Y-123683475D01*
X94516524Y-123955397D01*
X94519951Y-123963670D01*
X94519110Y-123968025D01*
X94006319Y-125246574D01*
X94000059Y-125252977D01*
X93993188Y-125253696D01*
X93265171Y-125109584D01*
X93126975Y-125082227D01*
X93119526Y-125077260D01*
X93117772Y-125073027D01*
X92946303Y-124206810D01*
X92948058Y-124198030D01*
X92953422Y-124193681D01*
X94231976Y-123680889D01*
X94240928Y-123680990D01*
G37*
%TD.AperFunction*%
%TD*%
%TA.AperFunction,Conductor*%
%TO.N,/Y00*%
G36*
X132363040Y-119949283D02*
G01*
X133176133Y-120203834D01*
X133183004Y-120209576D01*
X133183803Y-120218496D01*
X133178061Y-120225367D01*
X133176133Y-120226166D01*
X132363040Y-120480716D01*
X132356705Y-120480900D01*
X132102061Y-120417216D01*
X132094867Y-120411885D01*
X132093200Y-120405866D01*
X132093200Y-120024133D01*
X132096627Y-120015860D01*
X132102058Y-120012784D01*
X132356705Y-119949099D01*
X132363040Y-119949283D01*
G37*
%TD.AperFunction*%
%TD*%
%TA.AperFunction,Conductor*%
%TO.N,/Y01*%
G36*
X119001969Y-124908058D02*
G01*
X119006319Y-124913425D01*
X119519110Y-126191974D01*
X119519009Y-126200928D01*
X119516524Y-126204602D01*
X119244602Y-126476524D01*
X119236329Y-126479951D01*
X119231974Y-126479110D01*
X117953425Y-125966319D01*
X117947022Y-125960059D01*
X117946303Y-125953188D01*
X118117772Y-125086973D01*
X118122739Y-125079526D01*
X118126970Y-125077773D01*
X118993188Y-124906303D01*
X119001969Y-124908058D01*
G37*
%TD.AperFunction*%
%TD*%
%TA.AperFunction,Conductor*%
%TO.N,/Y01*%
G36*
X132363040Y-121219283D02*
G01*
X133176133Y-121473834D01*
X133183004Y-121479576D01*
X133183803Y-121488496D01*
X133178061Y-121495367D01*
X133176133Y-121496166D01*
X132363040Y-121750716D01*
X132356705Y-121750900D01*
X132102061Y-121687216D01*
X132094867Y-121681885D01*
X132093200Y-121675866D01*
X132093200Y-121294133D01*
X132096627Y-121285860D01*
X132102058Y-121282784D01*
X132356705Y-121219099D01*
X132363040Y-121219283D01*
G37*
%TD.AperFunction*%
%TD*%
%TA.AperFunction,Conductor*%
%TO.N,/Y02*%
G36*
X142008022Y-123680888D02*
G01*
X143286574Y-124193680D01*
X143292977Y-124199940D01*
X143293696Y-124206811D01*
X143122228Y-125073023D01*
X143117260Y-125080473D01*
X143113023Y-125082228D01*
X142246811Y-125253696D01*
X142238030Y-125251941D01*
X142233681Y-125246575D01*
X141720889Y-123968023D01*
X141720990Y-123959071D01*
X141723472Y-123955400D01*
X141995398Y-123683474D01*
X142003670Y-123680048D01*
X142008022Y-123680888D01*
G37*
%TD.AperFunction*%
%TD*%
%TA.AperFunction,Conductor*%
%TO.N,/Y02*%
G36*
X134110503Y-122500505D02*
G01*
X134319540Y-122552784D01*
X134326733Y-122558114D01*
X134328400Y-122564133D01*
X134328400Y-122945866D01*
X134324973Y-122954139D01*
X134319539Y-122957216D01*
X134064894Y-123020900D01*
X134058559Y-123020716D01*
X133452680Y-122831037D01*
X133245465Y-122766165D01*
X133238595Y-122760424D01*
X133237796Y-122751504D01*
X133243538Y-122744633D01*
X133245463Y-122743834D01*
X134058560Y-122489282D01*
X134064894Y-122489099D01*
X134110503Y-122500505D01*
G37*
%TD.AperFunction*%
%TD*%
%TA.AperFunction,Conductor*%
%TO.N,/Y03*%
G36*
X167625385Y-124339740D02*
G01*
X168116642Y-125073491D01*
X168118397Y-125082272D01*
X168116642Y-125086509D01*
X167625385Y-125820259D01*
X167617935Y-125825227D01*
X167611064Y-125824508D01*
X166344394Y-125283035D01*
X166338134Y-125276632D01*
X166337293Y-125272277D01*
X166337293Y-124887722D01*
X166340720Y-124879449D01*
X166344392Y-124876965D01*
X167611064Y-124335490D01*
X167620018Y-124335390D01*
X167625385Y-124339740D01*
G37*
%TD.AperFunction*%
%TD*%
%TA.AperFunction,Conductor*%
%TO.N,/Y03*%
G36*
X134110503Y-118690505D02*
G01*
X134319540Y-118742784D01*
X134326733Y-118748114D01*
X134328400Y-118754133D01*
X134328400Y-119135866D01*
X134324973Y-119144139D01*
X134319539Y-119147216D01*
X134064894Y-119210900D01*
X134058559Y-119210716D01*
X133452680Y-119021037D01*
X133245465Y-118956165D01*
X133238595Y-118950424D01*
X133237796Y-118941504D01*
X133243538Y-118934633D01*
X133245463Y-118933834D01*
X134058560Y-118679282D01*
X134064894Y-118679099D01*
X134110503Y-118690505D01*
G37*
%TD.AperFunction*%
%TD*%
%TA.AperFunction,Conductor*%
%TO.N,/Y04*%
G36*
X127990991Y-124014638D02*
G01*
X127998114Y-124020065D01*
X127999314Y-124028939D01*
X127993887Y-124036062D01*
X127991498Y-124037116D01*
X127180257Y-124291087D01*
X127176248Y-124291610D01*
X126922787Y-124280490D01*
X126914672Y-124276704D01*
X126911600Y-124268801D01*
X126911600Y-123888701D01*
X126915027Y-123880428D01*
X126919932Y-123877496D01*
X127175138Y-123800813D01*
X127181489Y-123800707D01*
X127990991Y-124014638D01*
G37*
%TD.AperFunction*%
%TD*%
%TA.AperFunction,Conductor*%
%TO.N,/Y04*%
G36*
X167625385Y-113339740D02*
G01*
X168116642Y-114073491D01*
X168118397Y-114082272D01*
X168116642Y-114086509D01*
X167625385Y-114820259D01*
X167617935Y-114825227D01*
X167611064Y-114824508D01*
X166344394Y-114283035D01*
X166338134Y-114276632D01*
X166337293Y-114272277D01*
X166337293Y-113887722D01*
X166340720Y-113879449D01*
X166344392Y-113876965D01*
X167611064Y-113335490D01*
X167620018Y-113335390D01*
X167625385Y-113339740D01*
G37*
%TD.AperFunction*%
%TD*%
%TA.AperFunction,Conductor*%
%TO.N,/Y04*%
G36*
X124318452Y-114489191D02*
G01*
X124321702Y-114495437D01*
X124412259Y-115010239D01*
X124410317Y-115018981D01*
X124403056Y-115023734D01*
X124122320Y-115080530D01*
X124117680Y-115080530D01*
X123836943Y-115023734D01*
X123829514Y-115018734D01*
X123827740Y-115010239D01*
X123918298Y-114495437D01*
X123923106Y-114487883D01*
X123929821Y-114485764D01*
X124310179Y-114485764D01*
X124318452Y-114489191D01*
G37*
%TD.AperFunction*%
%TD*%
%TA.AperFunction,Conductor*%
%TO.N,/Y04*%
G36*
X125375985Y-123422667D02*
G01*
X125665644Y-123835986D01*
X125675972Y-123850722D01*
X125677914Y-123859464D01*
X125674664Y-123865710D01*
X125405710Y-124134664D01*
X125397437Y-124138091D01*
X125390722Y-124135972D01*
X124962668Y-123835986D01*
X124957860Y-123828432D01*
X124959633Y-123819938D01*
X125117985Y-123581263D01*
X125121263Y-123577985D01*
X125359938Y-123419633D01*
X125368725Y-123417915D01*
X125375985Y-123422667D01*
G37*
%TD.AperFunction*%
%TD*%
%TA.AperFunction,Conductor*%
%TO.N,/Y05*%
G36*
X142625385Y-113339740D02*
G01*
X143116642Y-114073491D01*
X143118397Y-114082272D01*
X143116642Y-114086509D01*
X142625385Y-114820259D01*
X142617935Y-114825227D01*
X142611064Y-114824508D01*
X141344394Y-114283035D01*
X141338134Y-114276632D01*
X141337293Y-114272277D01*
X141337293Y-113887722D01*
X141340720Y-113879449D01*
X141344392Y-113876965D01*
X142611064Y-113335490D01*
X142620018Y-113335390D01*
X142625385Y-113339740D01*
G37*
%TD.AperFunction*%
%TD*%
%TA.AperFunction,Conductor*%
%TO.N,/Y05*%
G36*
X128928903Y-118690505D02*
G01*
X129137940Y-118742784D01*
X129145133Y-118748114D01*
X129146800Y-118754133D01*
X129146800Y-119135866D01*
X129143373Y-119144139D01*
X129137939Y-119147216D01*
X128883294Y-119210900D01*
X128876959Y-119210716D01*
X128271080Y-119021037D01*
X128063865Y-118956165D01*
X128056995Y-118950424D01*
X128056196Y-118941504D01*
X128061938Y-118934633D01*
X128063863Y-118933834D01*
X128876960Y-118679282D01*
X128883294Y-118679099D01*
X128928903Y-118690505D01*
G37*
%TD.AperFunction*%
%TD*%
%TA.AperFunction,Conductor*%
%TO.N,/Y06*%
G36*
X127181440Y-122489283D02*
G01*
X127994533Y-122743834D01*
X128001404Y-122749576D01*
X128002203Y-122758496D01*
X127996461Y-122765367D01*
X127994533Y-122766166D01*
X127181440Y-123020716D01*
X127175105Y-123020900D01*
X126920461Y-122957216D01*
X126913267Y-122951885D01*
X126911600Y-122945866D01*
X126911600Y-122564133D01*
X126915027Y-122555860D01*
X126920458Y-122552784D01*
X127175105Y-122489099D01*
X127181440Y-122489283D01*
G37*
%TD.AperFunction*%
%TD*%
%TA.AperFunction,Conductor*%
%TO.N,/Y06*%
G36*
X119001969Y-113908058D02*
G01*
X119006319Y-113913425D01*
X119519110Y-115191974D01*
X119519009Y-115200928D01*
X119516524Y-115204602D01*
X119244602Y-115476524D01*
X119236329Y-115479951D01*
X119231974Y-115479110D01*
X117953425Y-114966319D01*
X117947022Y-114960059D01*
X117946303Y-114953188D01*
X118117772Y-114086973D01*
X118122739Y-114079526D01*
X118126970Y-114077773D01*
X118993188Y-113906303D01*
X119001969Y-113908058D01*
G37*
%TD.AperFunction*%
%TD*%
%TA.AperFunction,Conductor*%
%TO.N,/Y07*%
G36*
X93628935Y-113335491D02*
G01*
X94895606Y-113876964D01*
X94901866Y-113883367D01*
X94902707Y-113887722D01*
X94902707Y-114272277D01*
X94899280Y-114280550D01*
X94895606Y-114283035D01*
X93628935Y-114824508D01*
X93619981Y-114824609D01*
X93614614Y-114820259D01*
X93123356Y-114086507D01*
X93121602Y-114077728D01*
X93123355Y-114073494D01*
X93614615Y-113339739D01*
X93622064Y-113334772D01*
X93628935Y-113335491D01*
G37*
%TD.AperFunction*%
%TD*%
%TA.AperFunction,Conductor*%
%TO.N,/Y07*%
G36*
X127136969Y-119809172D02*
G01*
X128049528Y-119946617D01*
X128057198Y-119951238D01*
X128059408Y-119959526D01*
X128031021Y-120206029D01*
X128026670Y-120213855D01*
X128020186Y-120216363D01*
X127181730Y-120272988D01*
X127175290Y-120271559D01*
X127056524Y-120206029D01*
X126861914Y-120098651D01*
X126856327Y-120091655D01*
X126857323Y-120082756D01*
X126859290Y-120080139D01*
X127126960Y-119812469D01*
X127135232Y-119809043D01*
X127136969Y-119809172D01*
G37*
%TD.AperFunction*%
%TD*%
%TA.AperFunction,Conductor*%
%TO.N,/Y10*%
G36*
X132363040Y-69949283D02*
G01*
X133176133Y-70203834D01*
X133183004Y-70209576D01*
X133183803Y-70218496D01*
X133178061Y-70225367D01*
X133176133Y-70226166D01*
X132363040Y-70480716D01*
X132356705Y-70480900D01*
X132102061Y-70417216D01*
X132094867Y-70411885D01*
X132093200Y-70405866D01*
X132093200Y-70024133D01*
X132096627Y-70015860D01*
X132102058Y-70012784D01*
X132356705Y-69949099D01*
X132363040Y-69949283D01*
G37*
%TD.AperFunction*%
%TD*%
%TA.AperFunction,Conductor*%
%TO.N,/Y10*%
G36*
X94240928Y-73680990D02*
G01*
X94244602Y-73683475D01*
X94516524Y-73955397D01*
X94519951Y-73963670D01*
X94519110Y-73968025D01*
X94006319Y-75246574D01*
X94000059Y-75252977D01*
X93993188Y-75253696D01*
X93265171Y-75109584D01*
X93126975Y-75082227D01*
X93119526Y-75077260D01*
X93117772Y-75073027D01*
X92946303Y-74206810D01*
X92948058Y-74198030D01*
X92953422Y-74193681D01*
X94231976Y-73680889D01*
X94240928Y-73680990D01*
G37*
%TD.AperFunction*%
%TD*%
%TA.AperFunction,Conductor*%
%TO.N,/Y11*%
G36*
X132363040Y-71219283D02*
G01*
X133176133Y-71473834D01*
X133183004Y-71479576D01*
X133183803Y-71488496D01*
X133178061Y-71495367D01*
X133176133Y-71496166D01*
X132363040Y-71750716D01*
X132356705Y-71750900D01*
X132102061Y-71687216D01*
X132094867Y-71681885D01*
X132093200Y-71675866D01*
X132093200Y-71294133D01*
X132096627Y-71285860D01*
X132102058Y-71282784D01*
X132356705Y-71219099D01*
X132363040Y-71219283D01*
G37*
%TD.AperFunction*%
%TD*%
%TA.AperFunction,Conductor*%
%TO.N,/Y11*%
G36*
X118873311Y-74590723D02*
G01*
X118874139Y-74592179D01*
X119487353Y-75877610D01*
X119488493Y-75882648D01*
X119488493Y-76265650D01*
X119485066Y-76273923D01*
X119476793Y-76277350D01*
X119474438Y-76277111D01*
X117955795Y-75965044D01*
X117948381Y-75960022D01*
X117946672Y-75951313D01*
X118118057Y-75084763D01*
X118123022Y-75077315D01*
X118857087Y-74587484D01*
X118865869Y-74585743D01*
X118873311Y-74590723D01*
G37*
%TD.AperFunction*%
%TD*%
%TA.AperFunction,Conductor*%
%TO.N,/Y12*%
G36*
X134110503Y-72500505D02*
G01*
X134319540Y-72552784D01*
X134326733Y-72558114D01*
X134328400Y-72564133D01*
X134328400Y-72945866D01*
X134324973Y-72954139D01*
X134319539Y-72957216D01*
X134064894Y-73020900D01*
X134058559Y-73020716D01*
X133452680Y-72831037D01*
X133245465Y-72766165D01*
X133238595Y-72760424D01*
X133237796Y-72751504D01*
X133243538Y-72744633D01*
X133245463Y-72743834D01*
X134058560Y-72489282D01*
X134064894Y-72489099D01*
X134110503Y-72500505D01*
G37*
%TD.AperFunction*%
%TD*%
%TA.AperFunction,Conductor*%
%TO.N,/Y12*%
G36*
X142008022Y-73680888D02*
G01*
X143286574Y-74193680D01*
X143292977Y-74199940D01*
X143293696Y-74206811D01*
X143122228Y-75073023D01*
X143117260Y-75080473D01*
X143113023Y-75082228D01*
X142246811Y-75253696D01*
X142238030Y-75251941D01*
X142233681Y-75246575D01*
X141720889Y-73968023D01*
X141720990Y-73959071D01*
X141723472Y-73955400D01*
X141995398Y-73683474D01*
X142003670Y-73680048D01*
X142008022Y-73680888D01*
G37*
%TD.AperFunction*%
%TD*%
%TA.AperFunction,Conductor*%
%TO.N,/Y13*%
G36*
X134110503Y-68690505D02*
G01*
X134319540Y-68742784D01*
X134326733Y-68748114D01*
X134328400Y-68754133D01*
X134328400Y-69135866D01*
X134324973Y-69144139D01*
X134319539Y-69147216D01*
X134064894Y-69210900D01*
X134058559Y-69210716D01*
X133452680Y-69021037D01*
X133245465Y-68956165D01*
X133238595Y-68950424D01*
X133237796Y-68941504D01*
X133243538Y-68934633D01*
X133245463Y-68933834D01*
X134058560Y-68679282D01*
X134064894Y-68679099D01*
X134110503Y-68690505D01*
G37*
%TD.AperFunction*%
%TD*%
%TA.AperFunction,Conductor*%
%TO.N,/Y13*%
G36*
X167625385Y-74339740D02*
G01*
X168116642Y-75073491D01*
X168118397Y-75082272D01*
X168116642Y-75086509D01*
X167625385Y-75820259D01*
X167617935Y-75825227D01*
X167611064Y-75824508D01*
X166344394Y-75283035D01*
X166338134Y-75276632D01*
X166337293Y-75272277D01*
X166337293Y-74887722D01*
X166340720Y-74879449D01*
X166344392Y-74876965D01*
X167611064Y-74335490D01*
X167620018Y-74335390D01*
X167625385Y-74339740D01*
G37*
%TD.AperFunction*%
%TD*%
%TA.AperFunction,Conductor*%
%TO.N,/Y14*%
G36*
X127990991Y-74014638D02*
G01*
X127998114Y-74020065D01*
X127999314Y-74028939D01*
X127993887Y-74036062D01*
X127991498Y-74037116D01*
X127180257Y-74291087D01*
X127176248Y-74291610D01*
X126922787Y-74280490D01*
X126914672Y-74276704D01*
X126911600Y-74268801D01*
X126911600Y-73888701D01*
X126915027Y-73880428D01*
X126919932Y-73877496D01*
X127175138Y-73800813D01*
X127181489Y-73800707D01*
X127990991Y-74014638D01*
G37*
%TD.AperFunction*%
%TD*%
%TA.AperFunction,Conductor*%
%TO.N,/Y14*%
G36*
X125875985Y-73422667D02*
G01*
X126165644Y-73835986D01*
X126175972Y-73850722D01*
X126177914Y-73859464D01*
X126174664Y-73865710D01*
X125905710Y-74134664D01*
X125897437Y-74138091D01*
X125890722Y-74135972D01*
X125462668Y-73835986D01*
X125457860Y-73828432D01*
X125459633Y-73819938D01*
X125617985Y-73581263D01*
X125621263Y-73577985D01*
X125859938Y-73419633D01*
X125868725Y-73417915D01*
X125875985Y-73422667D01*
G37*
%TD.AperFunction*%
%TD*%
%TA.AperFunction,Conductor*%
%TO.N,/Y14*%
G36*
X125318452Y-64989191D02*
G01*
X125321702Y-64995437D01*
X125412259Y-65510239D01*
X125410317Y-65518981D01*
X125403056Y-65523734D01*
X125122320Y-65580530D01*
X125117680Y-65580530D01*
X124836943Y-65523734D01*
X124829514Y-65518734D01*
X124827740Y-65510239D01*
X124918298Y-64995437D01*
X124923106Y-64987883D01*
X124929821Y-64985764D01*
X125310179Y-64985764D01*
X125318452Y-64989191D01*
G37*
%TD.AperFunction*%
%TD*%
%TA.AperFunction,Conductor*%
%TO.N,/Y14*%
G36*
X167625385Y-63339740D02*
G01*
X168116642Y-64073491D01*
X168118397Y-64082272D01*
X168116642Y-64086509D01*
X167625385Y-64820259D01*
X167617935Y-64825227D01*
X167611064Y-64824508D01*
X166344394Y-64283035D01*
X166338134Y-64276632D01*
X166337293Y-64272277D01*
X166337293Y-63887722D01*
X166340720Y-63879449D01*
X166344392Y-63876965D01*
X167611064Y-63335490D01*
X167620018Y-63335390D01*
X167625385Y-63339740D01*
G37*
%TD.AperFunction*%
%TD*%
%TA.AperFunction,Conductor*%
%TO.N,/Y15*%
G36*
X128928903Y-68690505D02*
G01*
X129137940Y-68742784D01*
X129145133Y-68748114D01*
X129146800Y-68754133D01*
X129146800Y-69135866D01*
X129143373Y-69144139D01*
X129137939Y-69147216D01*
X128883294Y-69210900D01*
X128876959Y-69210716D01*
X128271080Y-69021037D01*
X128063865Y-68956165D01*
X128056995Y-68950424D01*
X128056196Y-68941504D01*
X128061938Y-68934633D01*
X128063863Y-68933834D01*
X128876960Y-68679282D01*
X128883294Y-68679099D01*
X128928903Y-68690505D01*
G37*
%TD.AperFunction*%
%TD*%
%TA.AperFunction,Conductor*%
%TO.N,/Y15*%
G36*
X142008022Y-62680888D02*
G01*
X143286574Y-63193680D01*
X143292977Y-63199940D01*
X143293696Y-63206811D01*
X143122228Y-64073023D01*
X143117260Y-64080473D01*
X143113023Y-64082228D01*
X142246811Y-64253696D01*
X142238030Y-64251941D01*
X142233681Y-64246575D01*
X141720889Y-62968023D01*
X141720990Y-62959071D01*
X141723472Y-62955400D01*
X141995398Y-62683474D01*
X142003670Y-62680048D01*
X142008022Y-62680888D01*
G37*
%TD.AperFunction*%
%TD*%
%TA.AperFunction,Conductor*%
%TO.N,/Y16*%
G36*
X127181440Y-72489283D02*
G01*
X127994533Y-72743834D01*
X128001404Y-72749576D01*
X128002203Y-72758496D01*
X127996461Y-72765367D01*
X127994533Y-72766166D01*
X127181440Y-73020716D01*
X127175105Y-73020900D01*
X126920461Y-72957216D01*
X126913267Y-72951885D01*
X126911600Y-72945866D01*
X126911600Y-72564133D01*
X126915027Y-72555860D01*
X126920458Y-72552784D01*
X127175105Y-72489099D01*
X127181440Y-72489283D01*
G37*
%TD.AperFunction*%
%TD*%
%TA.AperFunction,Conductor*%
%TO.N,/Y16*%
G36*
X119001969Y-63908058D02*
G01*
X119006319Y-63913425D01*
X119519110Y-65191974D01*
X119519009Y-65200928D01*
X119516524Y-65204602D01*
X119244602Y-65476524D01*
X119236329Y-65479951D01*
X119231974Y-65479110D01*
X117953425Y-64966319D01*
X117947022Y-64960059D01*
X117946303Y-64953188D01*
X118117772Y-64086973D01*
X118122739Y-64079526D01*
X118126970Y-64077773D01*
X118993188Y-63906303D01*
X119001969Y-63908058D01*
G37*
%TD.AperFunction*%
%TD*%
%TA.AperFunction,Conductor*%
%TO.N,/Y17*%
G36*
X93628935Y-63335491D02*
G01*
X94895606Y-63876964D01*
X94901866Y-63883367D01*
X94902707Y-63887722D01*
X94902707Y-64272277D01*
X94899280Y-64280550D01*
X94895606Y-64283035D01*
X93628935Y-64824508D01*
X93619981Y-64824609D01*
X93614614Y-64820259D01*
X93123356Y-64086507D01*
X93121602Y-64077728D01*
X93123355Y-64073494D01*
X93614615Y-63339739D01*
X93622064Y-63334772D01*
X93628935Y-63335491D01*
G37*
%TD.AperFunction*%
%TD*%
%TA.AperFunction,Conductor*%
%TO.N,/Y17*%
G36*
X127137723Y-69685537D02*
G01*
X128066261Y-69945448D01*
X128073303Y-69950978D01*
X128074633Y-69958721D01*
X128031665Y-70205603D01*
X128026870Y-70213166D01*
X128019659Y-70215287D01*
X127181504Y-70180942D01*
X127175611Y-70179065D01*
X126860412Y-69974404D01*
X126855340Y-69967024D01*
X126856971Y-69958219D01*
X126858506Y-69956323D01*
X127126298Y-69688531D01*
X127134570Y-69685105D01*
X127137723Y-69685537D01*
G37*
%TD.AperFunction*%
%TD*%
M02*
