%TF.GenerationSoftware,KiCad,Pcbnew,9.0.6*%
%TF.CreationDate,2025-11-15T09:42:16+01:00*%
%TF.ProjectId,mux_led_reed,6d75785f-6c65-4645-9f72-6565642e6b69,1*%
%TF.SameCoordinates,Original*%
%TF.FileFunction,Legend,Bot*%
%TF.FilePolarity,Positive*%
%FSLAX46Y46*%
G04 Gerber Fmt 4.6, Leading zero omitted, Abs format (unit mm)*
G04 Created by KiCad (PCBNEW 9.0.6) date 2025-11-15 09:42:16*
%MOMM*%
%LPD*%
G01*
G04 APERTURE LIST*
G04 Aperture macros list*
%AMRoundRect*
0 Rectangle with rounded corners*
0 $1 Rounding radius*
0 $2 $3 $4 $5 $6 $7 $8 $9 X,Y pos of 4 corners*
0 Add a 4 corners polygon primitive as box body*
4,1,4,$2,$3,$4,$5,$6,$7,$8,$9,$2,$3,0*
0 Add four circle primitives for the rounded corners*
1,1,$1+$1,$2,$3*
1,1,$1+$1,$4,$5*
1,1,$1+$1,$6,$7*
1,1,$1+$1,$8,$9*
0 Add four rect primitives between the rounded corners*
20,1,$1+$1,$2,$3,$4,$5,0*
20,1,$1+$1,$4,$5,$6,$7,0*
20,1,$1+$1,$6,$7,$8,$9,0*
20,1,$1+$1,$8,$9,$2,$3,0*%
G04 Aperture macros list end*
%ADD10C,0.100000*%
%ADD11C,0.150000*%
%ADD12C,0.120000*%
%ADD13C,0.152400*%
%ADD14C,1.800000*%
%ADD15R,1.700000X1.700000*%
%ADD16C,1.700000*%
%ADD17RoundRect,0.250000X-0.475000X0.337500X-0.475000X-0.337500X0.475000X-0.337500X0.475000X0.337500X0*%
%ADD18RoundRect,0.102000X-0.850900X-0.266700X0.850900X-0.266700X0.850900X0.266700X-0.850900X0.266700X0*%
G04 APERTURE END LIST*
D10*
X159022852Y-119209325D02*
X158879995Y-119256944D01*
X158879995Y-119256944D02*
X158641900Y-119256944D01*
X158641900Y-119256944D02*
X158546662Y-119209325D01*
X158546662Y-119209325D02*
X158499043Y-119161705D01*
X158499043Y-119161705D02*
X158451424Y-119066467D01*
X158451424Y-119066467D02*
X158451424Y-118971229D01*
X158451424Y-118971229D02*
X158499043Y-118875991D01*
X158499043Y-118875991D02*
X158546662Y-118828372D01*
X158546662Y-118828372D02*
X158641900Y-118780753D01*
X158641900Y-118780753D02*
X158832376Y-118733134D01*
X158832376Y-118733134D02*
X158927614Y-118685515D01*
X158927614Y-118685515D02*
X158975233Y-118637896D01*
X158975233Y-118637896D02*
X159022852Y-118542658D01*
X159022852Y-118542658D02*
X159022852Y-118447420D01*
X159022852Y-118447420D02*
X158975233Y-118352182D01*
X158975233Y-118352182D02*
X158927614Y-118304563D01*
X158927614Y-118304563D02*
X158832376Y-118256944D01*
X158832376Y-118256944D02*
X158594281Y-118256944D01*
X158594281Y-118256944D02*
X158451424Y-118304563D01*
X157499043Y-119256944D02*
X158070471Y-119256944D01*
X157784757Y-119256944D02*
X157784757Y-118256944D01*
X157784757Y-118256944D02*
X157879995Y-118399801D01*
X157879995Y-118399801D02*
X157975233Y-118495039D01*
X157975233Y-118495039D02*
X158070471Y-118542658D01*
X161901513Y-63135478D02*
X161901513Y-62135478D01*
X161901513Y-62135478D02*
X161568180Y-62849763D01*
X161568180Y-62849763D02*
X161234847Y-62135478D01*
X161234847Y-62135478D02*
X161234847Y-63135478D01*
X160996752Y-63230716D02*
X160234847Y-63230716D01*
X159806275Y-62135478D02*
X159615799Y-62135478D01*
X159615799Y-62135478D02*
X159520561Y-62183097D01*
X159520561Y-62183097D02*
X159425323Y-62278335D01*
X159425323Y-62278335D02*
X159377704Y-62468811D01*
X159377704Y-62468811D02*
X159377704Y-62802144D01*
X159377704Y-62802144D02*
X159425323Y-62992620D01*
X159425323Y-62992620D02*
X159520561Y-63087859D01*
X159520561Y-63087859D02*
X159615799Y-63135478D01*
X159615799Y-63135478D02*
X159806275Y-63135478D01*
X159806275Y-63135478D02*
X159901513Y-63087859D01*
X159901513Y-63087859D02*
X159996751Y-62992620D01*
X159996751Y-62992620D02*
X160044370Y-62802144D01*
X160044370Y-62802144D02*
X160044370Y-62468811D01*
X160044370Y-62468811D02*
X159996751Y-62278335D01*
X159996751Y-62278335D02*
X159901513Y-62183097D01*
X159901513Y-62183097D02*
X159806275Y-62135478D01*
X158949132Y-62135478D02*
X158949132Y-62945001D01*
X158949132Y-62945001D02*
X158901513Y-63040239D01*
X158901513Y-63040239D02*
X158853894Y-63087859D01*
X158853894Y-63087859D02*
X158758656Y-63135478D01*
X158758656Y-63135478D02*
X158568180Y-63135478D01*
X158568180Y-63135478D02*
X158472942Y-63087859D01*
X158472942Y-63087859D02*
X158425323Y-63040239D01*
X158425323Y-63040239D02*
X158377704Y-62945001D01*
X158377704Y-62945001D02*
X158377704Y-62135478D01*
X158044370Y-62135478D02*
X157472942Y-62135478D01*
X157758656Y-63135478D02*
X157758656Y-62135478D01*
X158984793Y-69649584D02*
X158841936Y-69697203D01*
X158841936Y-69697203D02*
X158603841Y-69697203D01*
X158603841Y-69697203D02*
X158508603Y-69649584D01*
X158508603Y-69649584D02*
X158460984Y-69601964D01*
X158460984Y-69601964D02*
X158413365Y-69506726D01*
X158413365Y-69506726D02*
X158413365Y-69411488D01*
X158413365Y-69411488D02*
X158460984Y-69316250D01*
X158460984Y-69316250D02*
X158508603Y-69268631D01*
X158508603Y-69268631D02*
X158603841Y-69221012D01*
X158603841Y-69221012D02*
X158794317Y-69173393D01*
X158794317Y-69173393D02*
X158889555Y-69125774D01*
X158889555Y-69125774D02*
X158937174Y-69078155D01*
X158937174Y-69078155D02*
X158984793Y-68982917D01*
X158984793Y-68982917D02*
X158984793Y-68887679D01*
X158984793Y-68887679D02*
X158937174Y-68792441D01*
X158937174Y-68792441D02*
X158889555Y-68744822D01*
X158889555Y-68744822D02*
X158794317Y-68697203D01*
X158794317Y-68697203D02*
X158556222Y-68697203D01*
X158556222Y-68697203D02*
X158413365Y-68744822D01*
X157460984Y-69697203D02*
X158032412Y-69697203D01*
X157746698Y-69697203D02*
X157746698Y-68697203D01*
X157746698Y-68697203D02*
X157841936Y-68840060D01*
X157841936Y-68840060D02*
X157937174Y-68935298D01*
X157937174Y-68935298D02*
X158032412Y-68982917D01*
X159009005Y-72264464D02*
X158866148Y-72312083D01*
X158866148Y-72312083D02*
X158628053Y-72312083D01*
X158628053Y-72312083D02*
X158532815Y-72264464D01*
X158532815Y-72264464D02*
X158485196Y-72216844D01*
X158485196Y-72216844D02*
X158437577Y-72121606D01*
X158437577Y-72121606D02*
X158437577Y-72026368D01*
X158437577Y-72026368D02*
X158485196Y-71931130D01*
X158485196Y-71931130D02*
X158532815Y-71883511D01*
X158532815Y-71883511D02*
X158628053Y-71835892D01*
X158628053Y-71835892D02*
X158818529Y-71788273D01*
X158818529Y-71788273D02*
X158913767Y-71740654D01*
X158913767Y-71740654D02*
X158961386Y-71693035D01*
X158961386Y-71693035D02*
X159009005Y-71597797D01*
X159009005Y-71597797D02*
X159009005Y-71502559D01*
X159009005Y-71502559D02*
X158961386Y-71407321D01*
X158961386Y-71407321D02*
X158913767Y-71359702D01*
X158913767Y-71359702D02*
X158818529Y-71312083D01*
X158818529Y-71312083D02*
X158580434Y-71312083D01*
X158580434Y-71312083D02*
X158437577Y-71359702D01*
X157818529Y-71312083D02*
X157723291Y-71312083D01*
X157723291Y-71312083D02*
X157628053Y-71359702D01*
X157628053Y-71359702D02*
X157580434Y-71407321D01*
X157580434Y-71407321D02*
X157532815Y-71502559D01*
X157532815Y-71502559D02*
X157485196Y-71693035D01*
X157485196Y-71693035D02*
X157485196Y-71931130D01*
X157485196Y-71931130D02*
X157532815Y-72121606D01*
X157532815Y-72121606D02*
X157580434Y-72216844D01*
X157580434Y-72216844D02*
X157628053Y-72264464D01*
X157628053Y-72264464D02*
X157723291Y-72312083D01*
X157723291Y-72312083D02*
X157818529Y-72312083D01*
X157818529Y-72312083D02*
X157913767Y-72264464D01*
X157913767Y-72264464D02*
X157961386Y-72216844D01*
X157961386Y-72216844D02*
X158009005Y-72121606D01*
X158009005Y-72121606D02*
X158056624Y-71931130D01*
X158056624Y-71931130D02*
X158056624Y-71693035D01*
X158056624Y-71693035D02*
X158009005Y-71502559D01*
X158009005Y-71502559D02*
X157961386Y-71407321D01*
X157961386Y-71407321D02*
X157913767Y-71359702D01*
X157913767Y-71359702D02*
X157818529Y-71312083D01*
X159033216Y-66998243D02*
X158890359Y-67045862D01*
X158890359Y-67045862D02*
X158652264Y-67045862D01*
X158652264Y-67045862D02*
X158557026Y-66998243D01*
X158557026Y-66998243D02*
X158509407Y-66950623D01*
X158509407Y-66950623D02*
X158461788Y-66855385D01*
X158461788Y-66855385D02*
X158461788Y-66760147D01*
X158461788Y-66760147D02*
X158509407Y-66664909D01*
X158509407Y-66664909D02*
X158557026Y-66617290D01*
X158557026Y-66617290D02*
X158652264Y-66569671D01*
X158652264Y-66569671D02*
X158842740Y-66522052D01*
X158842740Y-66522052D02*
X158937978Y-66474433D01*
X158937978Y-66474433D02*
X158985597Y-66426814D01*
X158985597Y-66426814D02*
X159033216Y-66331576D01*
X159033216Y-66331576D02*
X159033216Y-66236338D01*
X159033216Y-66236338D02*
X158985597Y-66141100D01*
X158985597Y-66141100D02*
X158937978Y-66093481D01*
X158937978Y-66093481D02*
X158842740Y-66045862D01*
X158842740Y-66045862D02*
X158604645Y-66045862D01*
X158604645Y-66045862D02*
X158461788Y-66093481D01*
X158080835Y-66141100D02*
X158033216Y-66093481D01*
X158033216Y-66093481D02*
X157937978Y-66045862D01*
X157937978Y-66045862D02*
X157699883Y-66045862D01*
X157699883Y-66045862D02*
X157604645Y-66093481D01*
X157604645Y-66093481D02*
X157557026Y-66141100D01*
X157557026Y-66141100D02*
X157509407Y-66236338D01*
X157509407Y-66236338D02*
X157509407Y-66331576D01*
X157509407Y-66331576D02*
X157557026Y-66474433D01*
X157557026Y-66474433D02*
X158128454Y-67045862D01*
X158128454Y-67045862D02*
X157509407Y-67045862D01*
X159047064Y-121824205D02*
X158904207Y-121871824D01*
X158904207Y-121871824D02*
X158666112Y-121871824D01*
X158666112Y-121871824D02*
X158570874Y-121824205D01*
X158570874Y-121824205D02*
X158523255Y-121776585D01*
X158523255Y-121776585D02*
X158475636Y-121681347D01*
X158475636Y-121681347D02*
X158475636Y-121586109D01*
X158475636Y-121586109D02*
X158523255Y-121490871D01*
X158523255Y-121490871D02*
X158570874Y-121443252D01*
X158570874Y-121443252D02*
X158666112Y-121395633D01*
X158666112Y-121395633D02*
X158856588Y-121348014D01*
X158856588Y-121348014D02*
X158951826Y-121300395D01*
X158951826Y-121300395D02*
X158999445Y-121252776D01*
X158999445Y-121252776D02*
X159047064Y-121157538D01*
X159047064Y-121157538D02*
X159047064Y-121062300D01*
X159047064Y-121062300D02*
X158999445Y-120967062D01*
X158999445Y-120967062D02*
X158951826Y-120919443D01*
X158951826Y-120919443D02*
X158856588Y-120871824D01*
X158856588Y-120871824D02*
X158618493Y-120871824D01*
X158618493Y-120871824D02*
X158475636Y-120919443D01*
X157856588Y-120871824D02*
X157761350Y-120871824D01*
X157761350Y-120871824D02*
X157666112Y-120919443D01*
X157666112Y-120919443D02*
X157618493Y-120967062D01*
X157618493Y-120967062D02*
X157570874Y-121062300D01*
X157570874Y-121062300D02*
X157523255Y-121252776D01*
X157523255Y-121252776D02*
X157523255Y-121490871D01*
X157523255Y-121490871D02*
X157570874Y-121681347D01*
X157570874Y-121681347D02*
X157618493Y-121776585D01*
X157618493Y-121776585D02*
X157666112Y-121824205D01*
X157666112Y-121824205D02*
X157761350Y-121871824D01*
X157761350Y-121871824D02*
X157856588Y-121871824D01*
X157856588Y-121871824D02*
X157951826Y-121824205D01*
X157951826Y-121824205D02*
X157999445Y-121776585D01*
X157999445Y-121776585D02*
X158047064Y-121681347D01*
X158047064Y-121681347D02*
X158094683Y-121490871D01*
X158094683Y-121490871D02*
X158094683Y-121252776D01*
X158094683Y-121252776D02*
X158047064Y-121062300D01*
X158047064Y-121062300D02*
X157999445Y-120967062D01*
X157999445Y-120967062D02*
X157951826Y-120919443D01*
X157951826Y-120919443D02*
X157856588Y-120871824D01*
X161939572Y-112695219D02*
X161939572Y-111695219D01*
X161939572Y-111695219D02*
X161606239Y-112409504D01*
X161606239Y-112409504D02*
X161272906Y-111695219D01*
X161272906Y-111695219D02*
X161272906Y-112695219D01*
X161034811Y-112790457D02*
X160272906Y-112790457D01*
X159844334Y-111695219D02*
X159653858Y-111695219D01*
X159653858Y-111695219D02*
X159558620Y-111742838D01*
X159558620Y-111742838D02*
X159463382Y-111838076D01*
X159463382Y-111838076D02*
X159415763Y-112028552D01*
X159415763Y-112028552D02*
X159415763Y-112361885D01*
X159415763Y-112361885D02*
X159463382Y-112552361D01*
X159463382Y-112552361D02*
X159558620Y-112647600D01*
X159558620Y-112647600D02*
X159653858Y-112695219D01*
X159653858Y-112695219D02*
X159844334Y-112695219D01*
X159844334Y-112695219D02*
X159939572Y-112647600D01*
X159939572Y-112647600D02*
X160034810Y-112552361D01*
X160034810Y-112552361D02*
X160082429Y-112361885D01*
X160082429Y-112361885D02*
X160082429Y-112028552D01*
X160082429Y-112028552D02*
X160034810Y-111838076D01*
X160034810Y-111838076D02*
X159939572Y-111742838D01*
X159939572Y-111742838D02*
X159844334Y-111695219D01*
X158987191Y-111695219D02*
X158987191Y-112504742D01*
X158987191Y-112504742D02*
X158939572Y-112599980D01*
X158939572Y-112599980D02*
X158891953Y-112647600D01*
X158891953Y-112647600D02*
X158796715Y-112695219D01*
X158796715Y-112695219D02*
X158606239Y-112695219D01*
X158606239Y-112695219D02*
X158511001Y-112647600D01*
X158511001Y-112647600D02*
X158463382Y-112599980D01*
X158463382Y-112599980D02*
X158415763Y-112504742D01*
X158415763Y-112504742D02*
X158415763Y-111695219D01*
X158082429Y-111695219D02*
X157511001Y-111695219D01*
X157796715Y-112695219D02*
X157796715Y-111695219D01*
X159071275Y-116557984D02*
X158928418Y-116605603D01*
X158928418Y-116605603D02*
X158690323Y-116605603D01*
X158690323Y-116605603D02*
X158595085Y-116557984D01*
X158595085Y-116557984D02*
X158547466Y-116510364D01*
X158547466Y-116510364D02*
X158499847Y-116415126D01*
X158499847Y-116415126D02*
X158499847Y-116319888D01*
X158499847Y-116319888D02*
X158547466Y-116224650D01*
X158547466Y-116224650D02*
X158595085Y-116177031D01*
X158595085Y-116177031D02*
X158690323Y-116129412D01*
X158690323Y-116129412D02*
X158880799Y-116081793D01*
X158880799Y-116081793D02*
X158976037Y-116034174D01*
X158976037Y-116034174D02*
X159023656Y-115986555D01*
X159023656Y-115986555D02*
X159071275Y-115891317D01*
X159071275Y-115891317D02*
X159071275Y-115796079D01*
X159071275Y-115796079D02*
X159023656Y-115700841D01*
X159023656Y-115700841D02*
X158976037Y-115653222D01*
X158976037Y-115653222D02*
X158880799Y-115605603D01*
X158880799Y-115605603D02*
X158642704Y-115605603D01*
X158642704Y-115605603D02*
X158499847Y-115653222D01*
X158118894Y-115700841D02*
X158071275Y-115653222D01*
X158071275Y-115653222D02*
X157976037Y-115605603D01*
X157976037Y-115605603D02*
X157737942Y-115605603D01*
X157737942Y-115605603D02*
X157642704Y-115653222D01*
X157642704Y-115653222D02*
X157595085Y-115700841D01*
X157595085Y-115700841D02*
X157547466Y-115796079D01*
X157547466Y-115796079D02*
X157547466Y-115891317D01*
X157547466Y-115891317D02*
X157595085Y-116034174D01*
X157595085Y-116034174D02*
X158166513Y-116605603D01*
X158166513Y-116605603D02*
X157547466Y-116605603D01*
D11*
X138262857Y-128939580D02*
X138310476Y-128987200D01*
X138310476Y-128987200D02*
X138453333Y-129034819D01*
X138453333Y-129034819D02*
X138548571Y-129034819D01*
X138548571Y-129034819D02*
X138691428Y-128987200D01*
X138691428Y-128987200D02*
X138786666Y-128891961D01*
X138786666Y-128891961D02*
X138834285Y-128796723D01*
X138834285Y-128796723D02*
X138881904Y-128606247D01*
X138881904Y-128606247D02*
X138881904Y-128463390D01*
X138881904Y-128463390D02*
X138834285Y-128272914D01*
X138834285Y-128272914D02*
X138786666Y-128177676D01*
X138786666Y-128177676D02*
X138691428Y-128082438D01*
X138691428Y-128082438D02*
X138548571Y-128034819D01*
X138548571Y-128034819D02*
X138453333Y-128034819D01*
X138453333Y-128034819D02*
X138310476Y-128082438D01*
X138310476Y-128082438D02*
X138262857Y-128130057D01*
X137310476Y-129034819D02*
X137881904Y-129034819D01*
X137596190Y-129034819D02*
X137596190Y-128034819D01*
X137596190Y-128034819D02*
X137691428Y-128177676D01*
X137691428Y-128177676D02*
X137786666Y-128272914D01*
X137786666Y-128272914D02*
X137881904Y-128320533D01*
X136739047Y-128463390D02*
X136834285Y-128415771D01*
X136834285Y-128415771D02*
X136881904Y-128368152D01*
X136881904Y-128368152D02*
X136929523Y-128272914D01*
X136929523Y-128272914D02*
X136929523Y-128225295D01*
X136929523Y-128225295D02*
X136881904Y-128130057D01*
X136881904Y-128130057D02*
X136834285Y-128082438D01*
X136834285Y-128082438D02*
X136739047Y-128034819D01*
X136739047Y-128034819D02*
X136548571Y-128034819D01*
X136548571Y-128034819D02*
X136453333Y-128082438D01*
X136453333Y-128082438D02*
X136405714Y-128130057D01*
X136405714Y-128130057D02*
X136358095Y-128225295D01*
X136358095Y-128225295D02*
X136358095Y-128272914D01*
X136358095Y-128272914D02*
X136405714Y-128368152D01*
X136405714Y-128368152D02*
X136453333Y-128415771D01*
X136453333Y-128415771D02*
X136548571Y-128463390D01*
X136548571Y-128463390D02*
X136739047Y-128463390D01*
X136739047Y-128463390D02*
X136834285Y-128511009D01*
X136834285Y-128511009D02*
X136881904Y-128558628D01*
X136881904Y-128558628D02*
X136929523Y-128653866D01*
X136929523Y-128653866D02*
X136929523Y-128844342D01*
X136929523Y-128844342D02*
X136881904Y-128939580D01*
X136881904Y-128939580D02*
X136834285Y-128987200D01*
X136834285Y-128987200D02*
X136739047Y-129034819D01*
X136739047Y-129034819D02*
X136548571Y-129034819D01*
X136548571Y-129034819D02*
X136453333Y-128987200D01*
X136453333Y-128987200D02*
X136405714Y-128939580D01*
X136405714Y-128939580D02*
X136358095Y-128844342D01*
X136358095Y-128844342D02*
X136358095Y-128653866D01*
X136358095Y-128653866D02*
X136405714Y-128558628D01*
X136405714Y-128558628D02*
X136453333Y-128511009D01*
X136453333Y-128511009D02*
X136548571Y-128463390D01*
X155953333Y-109034819D02*
X155953333Y-109749104D01*
X155953333Y-109749104D02*
X156000952Y-109891961D01*
X156000952Y-109891961D02*
X156096190Y-109987200D01*
X156096190Y-109987200D02*
X156239047Y-110034819D01*
X156239047Y-110034819D02*
X156334285Y-110034819D01*
X154953333Y-110034819D02*
X155524761Y-110034819D01*
X155239047Y-110034819D02*
X155239047Y-109034819D01*
X155239047Y-109034819D02*
X155334285Y-109177676D01*
X155334285Y-109177676D02*
X155429523Y-109272914D01*
X155429523Y-109272914D02*
X155524761Y-109320533D01*
X133870381Y-125190290D02*
X133870381Y-126518821D01*
X133870381Y-126518821D02*
X133792232Y-126675119D01*
X133792232Y-126675119D02*
X133714084Y-126753268D01*
X133714084Y-126753268D02*
X133557786Y-126831416D01*
X133557786Y-126831416D02*
X133245190Y-126831416D01*
X133245190Y-126831416D02*
X133088893Y-126753268D01*
X133088893Y-126753268D02*
X133010744Y-126675119D01*
X133010744Y-126675119D02*
X132932595Y-126518821D01*
X132932595Y-126518821D02*
X132932595Y-125190290D01*
X131291469Y-126831416D02*
X132229255Y-126831416D01*
X131760362Y-126831416D02*
X131760362Y-125190290D01*
X131760362Y-125190290D02*
X131916660Y-125424737D01*
X131916660Y-125424737D02*
X132072957Y-125581035D01*
X132072957Y-125581035D02*
X132229255Y-125659184D01*
X138262857Y-78439580D02*
X138310476Y-78487200D01*
X138310476Y-78487200D02*
X138453333Y-78534819D01*
X138453333Y-78534819D02*
X138548571Y-78534819D01*
X138548571Y-78534819D02*
X138691428Y-78487200D01*
X138691428Y-78487200D02*
X138786666Y-78391961D01*
X138786666Y-78391961D02*
X138834285Y-78296723D01*
X138834285Y-78296723D02*
X138881904Y-78106247D01*
X138881904Y-78106247D02*
X138881904Y-77963390D01*
X138881904Y-77963390D02*
X138834285Y-77772914D01*
X138834285Y-77772914D02*
X138786666Y-77677676D01*
X138786666Y-77677676D02*
X138691428Y-77582438D01*
X138691428Y-77582438D02*
X138548571Y-77534819D01*
X138548571Y-77534819D02*
X138453333Y-77534819D01*
X138453333Y-77534819D02*
X138310476Y-77582438D01*
X138310476Y-77582438D02*
X138262857Y-77630057D01*
X137310476Y-78534819D02*
X137881904Y-78534819D01*
X137596190Y-78534819D02*
X137596190Y-77534819D01*
X137596190Y-77534819D02*
X137691428Y-77677676D01*
X137691428Y-77677676D02*
X137786666Y-77772914D01*
X137786666Y-77772914D02*
X137881904Y-77820533D01*
X136977142Y-77534819D02*
X136310476Y-77534819D01*
X136310476Y-77534819D02*
X136739047Y-78534819D01*
X155953333Y-122914819D02*
X155953333Y-123629104D01*
X155953333Y-123629104D02*
X156000952Y-123771961D01*
X156000952Y-123771961D02*
X156096190Y-123867200D01*
X156096190Y-123867200D02*
X156239047Y-123914819D01*
X156239047Y-123914819D02*
X156334285Y-123914819D01*
X155524761Y-123010057D02*
X155477142Y-122962438D01*
X155477142Y-122962438D02*
X155381904Y-122914819D01*
X155381904Y-122914819D02*
X155143809Y-122914819D01*
X155143809Y-122914819D02*
X155048571Y-122962438D01*
X155048571Y-122962438D02*
X155000952Y-123010057D01*
X155000952Y-123010057D02*
X154953333Y-123105295D01*
X154953333Y-123105295D02*
X154953333Y-123200533D01*
X154953333Y-123200533D02*
X155000952Y-123343390D01*
X155000952Y-123343390D02*
X155572380Y-123914819D01*
X155572380Y-123914819D02*
X154953333Y-123914819D01*
X155953333Y-73414819D02*
X155953333Y-74129104D01*
X155953333Y-74129104D02*
X156000952Y-74271961D01*
X156000952Y-74271961D02*
X156096190Y-74367200D01*
X156096190Y-74367200D02*
X156239047Y-74414819D01*
X156239047Y-74414819D02*
X156334285Y-74414819D01*
X155048571Y-73748152D02*
X155048571Y-74414819D01*
X155286666Y-73367200D02*
X155524761Y-74081485D01*
X155524761Y-74081485D02*
X154905714Y-74081485D01*
X155953333Y-59534819D02*
X155953333Y-60249104D01*
X155953333Y-60249104D02*
X156000952Y-60391961D01*
X156000952Y-60391961D02*
X156096190Y-60487200D01*
X156096190Y-60487200D02*
X156239047Y-60534819D01*
X156239047Y-60534819D02*
X156334285Y-60534819D01*
X155572380Y-59534819D02*
X154953333Y-59534819D01*
X154953333Y-59534819D02*
X155286666Y-59915771D01*
X155286666Y-59915771D02*
X155143809Y-59915771D01*
X155143809Y-59915771D02*
X155048571Y-59963390D01*
X155048571Y-59963390D02*
X155000952Y-60011009D01*
X155000952Y-60011009D02*
X154953333Y-60106247D01*
X154953333Y-60106247D02*
X154953333Y-60344342D01*
X154953333Y-60344342D02*
X155000952Y-60439580D01*
X155000952Y-60439580D02*
X155048571Y-60487200D01*
X155048571Y-60487200D02*
X155143809Y-60534819D01*
X155143809Y-60534819D02*
X155429523Y-60534819D01*
X155429523Y-60534819D02*
X155524761Y-60487200D01*
X155524761Y-60487200D02*
X155572380Y-60439580D01*
X133370381Y-75690290D02*
X133370381Y-77018821D01*
X133370381Y-77018821D02*
X133292232Y-77175119D01*
X133292232Y-77175119D02*
X133214084Y-77253268D01*
X133214084Y-77253268D02*
X133057786Y-77331416D01*
X133057786Y-77331416D02*
X132745190Y-77331416D01*
X132745190Y-77331416D02*
X132588893Y-77253268D01*
X132588893Y-77253268D02*
X132510744Y-77175119D01*
X132510744Y-77175119D02*
X132432595Y-77018821D01*
X132432595Y-77018821D02*
X132432595Y-75690290D01*
X131729255Y-75846588D02*
X131651106Y-75768439D01*
X131651106Y-75768439D02*
X131494809Y-75690290D01*
X131494809Y-75690290D02*
X131104064Y-75690290D01*
X131104064Y-75690290D02*
X130947767Y-75768439D01*
X130947767Y-75768439D02*
X130869618Y-75846588D01*
X130869618Y-75846588D02*
X130791469Y-76002886D01*
X130791469Y-76002886D02*
X130791469Y-76159184D01*
X130791469Y-76159184D02*
X130869618Y-76393630D01*
X130869618Y-76393630D02*
X131807404Y-77331416D01*
X131807404Y-77331416D02*
X130791469Y-77331416D01*
D12*
%TO.C,C18*%
X134885000Y-125818748D02*
X134885000Y-126341252D01*
X136355000Y-125818748D02*
X136355000Y-126341252D01*
%TO.C,J1*%
X154240000Y-110700000D02*
X157000000Y-110700000D01*
X154240000Y-110810000D02*
X154240000Y-110700000D01*
X154240000Y-110810000D02*
X157000000Y-110810000D01*
X154240000Y-112080000D02*
X154240000Y-113460000D01*
X154240000Y-113460000D02*
X155620000Y-113460000D01*
X157000000Y-110810000D02*
X157000000Y-110700000D01*
D13*
%TO.C,U1*%
X129045200Y-114576200D02*
X132194800Y-114576200D01*
X130315200Y-124583800D02*
X129045200Y-124583800D01*
X130924800Y-124583800D02*
X130315200Y-124583800D01*
X132194800Y-124583800D02*
X130924800Y-124583800D01*
X130315200Y-124583800D02*
G75*
G02*
X130924800Y-124583800I304800J0D01*
G01*
D12*
%TO.C,C17*%
X134885000Y-75318748D02*
X134885000Y-75841252D01*
X136355000Y-75318748D02*
X136355000Y-75841252D01*
%TO.C,J2*%
X154240000Y-114620000D02*
X157000000Y-114620000D01*
X154240000Y-119810000D02*
X154240000Y-114620000D01*
X154240000Y-119810000D02*
X157000000Y-119810000D01*
X154240000Y-121080000D02*
X154240000Y-122460000D01*
X154240000Y-122460000D02*
X155620000Y-122460000D01*
X157000000Y-119810000D02*
X157000000Y-114620000D01*
%TO.C,J4*%
X154240000Y-65120000D02*
X157000000Y-65120000D01*
X154240000Y-70310000D02*
X154240000Y-65120000D01*
X154240000Y-70310000D02*
X157000000Y-70310000D01*
X154240000Y-71580000D02*
X154240000Y-72960000D01*
X154240000Y-72960000D02*
X155620000Y-72960000D01*
X157000000Y-70310000D02*
X157000000Y-65120000D01*
%TO.C,J3*%
X154240000Y-61200000D02*
X157000000Y-61200000D01*
X154240000Y-61310000D02*
X154240000Y-61200000D01*
X154240000Y-61310000D02*
X157000000Y-61310000D01*
X154240000Y-62580000D02*
X154240000Y-63960000D01*
X154240000Y-63960000D02*
X155620000Y-63960000D01*
X157000000Y-61310000D02*
X157000000Y-61200000D01*
D13*
%TO.C,U2*%
X129045200Y-64576200D02*
X132194800Y-64576200D01*
X130315200Y-74583800D02*
X129045200Y-74583800D01*
X130924800Y-74583800D02*
X130315200Y-74583800D01*
X132194800Y-74583800D02*
X130924800Y-74583800D01*
X130315200Y-74583800D02*
G75*
G02*
X130924800Y-74583800I304800J0D01*
G01*
%TD*%
%LPC*%
D14*
%TO.C,SW9*%
X93120000Y-75080000D03*
X93120000Y-89080000D03*
%TD*%
%TO.C,SW15*%
X118120000Y-64080000D03*
X118120000Y-50080000D03*
%TD*%
D15*
%TO.C,J6*%
X161100000Y-140360000D03*
D16*
X158560000Y-140360000D03*
X156020000Y-140360000D03*
X153480000Y-140360000D03*
%TD*%
D14*
%TO.C,SW3*%
X143120000Y-125080000D03*
X143120000Y-139080000D03*
%TD*%
D15*
%TO.C,J8*%
X136140000Y-48820000D03*
D16*
X133600000Y-48820000D03*
X131060000Y-48820000D03*
X128520000Y-48820000D03*
%TD*%
D14*
%TO.C,SW1*%
X93120000Y-125080000D03*
X93120000Y-139080000D03*
%TD*%
%TO.C,SW14*%
X143120000Y-64080000D03*
X143120000Y-50080000D03*
%TD*%
D15*
%TO.C,J11*%
X176420000Y-73400000D03*
D16*
X176420000Y-70860000D03*
X176420000Y-68320000D03*
X176420000Y-65780000D03*
%TD*%
D14*
%TO.C,SW5*%
X168120000Y-114080000D03*
X168120000Y-100080000D03*
%TD*%
D15*
%TO.C,J10*%
X84820000Y-98400000D03*
D16*
X84820000Y-95860000D03*
X84820000Y-93320000D03*
X84820000Y-90780000D03*
%TD*%
D14*
%TO.C,SW10*%
X118120000Y-75080000D03*
X118120000Y-89080000D03*
%TD*%
%TO.C,SW2*%
X118120000Y-125080000D03*
X118120000Y-139080000D03*
%TD*%
%TO.C,SW16*%
X93120000Y-64080000D03*
X93120000Y-50080000D03*
%TD*%
D15*
%TO.C,J5*%
X136140000Y-140370000D03*
D16*
X133600000Y-140370000D03*
X131060000Y-140370000D03*
X128520000Y-140370000D03*
%TD*%
D14*
%TO.C,SW13*%
X168120000Y-64080000D03*
X168120000Y-50080000D03*
%TD*%
%TO.C,SW7*%
X118120000Y-114080000D03*
X118120000Y-100080000D03*
%TD*%
%TO.C,SW4*%
X168120000Y-125080000D03*
X168120000Y-139080000D03*
%TD*%
%TO.C,SW6*%
X143120000Y-114080000D03*
X143120000Y-100080000D03*
%TD*%
D15*
%TO.C,J9*%
X84755000Y-73400000D03*
D16*
X84755000Y-70860000D03*
X84755000Y-68320000D03*
X84755000Y-65780000D03*
%TD*%
D15*
%TO.C,J7*%
X161100000Y-48820000D03*
D16*
X158560000Y-48820000D03*
X156020000Y-48820000D03*
X153480000Y-48820000D03*
%TD*%
D14*
%TO.C,SW11*%
X143120000Y-75080000D03*
X143120000Y-89080000D03*
%TD*%
%TO.C,SW8*%
X93120000Y-114080000D03*
X93120000Y-100080000D03*
%TD*%
%TO.C,SW12*%
X168120000Y-75080000D03*
X168120000Y-89080000D03*
%TD*%
D15*
%TO.C,J12*%
X176420000Y-98400000D03*
D16*
X176420000Y-95860000D03*
X176420000Y-93320000D03*
X176420000Y-90780000D03*
%TD*%
D17*
%TO.C,C18*%
X135620000Y-125042500D03*
X135620000Y-127117500D03*
%TD*%
D15*
%TO.C,J1*%
X155620000Y-112080000D03*
%TD*%
D18*
%TO.C,U1*%
X128029200Y-124025000D03*
X128029200Y-122755000D03*
X128029200Y-121485000D03*
X128029200Y-120215000D03*
X128029200Y-118945000D03*
X128029200Y-117675000D03*
X128029200Y-116405000D03*
X128029200Y-115135000D03*
X133210800Y-115135000D03*
X133210800Y-116405000D03*
X133210800Y-117675000D03*
X133210800Y-118945000D03*
X133210800Y-120215000D03*
X133210800Y-121485000D03*
X133210800Y-122755000D03*
X133210800Y-124025000D03*
%TD*%
D17*
%TO.C,C17*%
X135620000Y-74542500D03*
X135620000Y-76617500D03*
%TD*%
D15*
%TO.C,J2*%
X155620000Y-121080000D03*
D16*
X155620000Y-118540000D03*
X155620000Y-116000000D03*
%TD*%
D15*
%TO.C,J4*%
X155620000Y-71580000D03*
D16*
X155620000Y-69040000D03*
X155620000Y-66500000D03*
%TD*%
D15*
%TO.C,J3*%
X155620000Y-62580000D03*
%TD*%
D18*
%TO.C,U2*%
X128029200Y-74025000D03*
X128029200Y-72755000D03*
X128029200Y-71485000D03*
X128029200Y-70215000D03*
X128029200Y-68945000D03*
X128029200Y-67675000D03*
X128029200Y-66405000D03*
X128029200Y-65135000D03*
X133210800Y-65135000D03*
X133210800Y-66405000D03*
X133210800Y-67675000D03*
X133210800Y-68945000D03*
X133210800Y-70215000D03*
X133210800Y-71485000D03*
X133210800Y-72755000D03*
X133210800Y-74025000D03*
%TD*%
%LPD*%
M02*
